<svg xmlns="http://www.w3.org/2000/svg" viewBox="0 0 1600 900" width="1600" height="900">
  <defs>
    <linearGradient id="bg" x1="0" y1="0" x2="0" y2="1">
      <stop offset="0%" stop-color="#141e18"/>
      <stop offset="50%" stop-color="#1a2a1e"/>
      <stop offset="100%" stop-color="#141e18"/>
    </linearGradient>
    <radialGradient id="glow1" cx="50%" cy="50%" r="50%">
      <stop offset="0%" stop-color="#c8e080" stop-opacity="0.15"/>
      <stop offset="100%" stop-color="#c8e080" stop-opacity="0"/>
    </radialGradient>
    <radialGradient id="glow2" cx="50%" cy="50%" r="50%">
      <stop offset="0%" stop-color="#5ba8c8" stop-opacity="0.1"/>
      <stop offset="100%" stop-color="#5ba8c8" stop-opacity="0"/>
    </radialGradient>
    <filter id="blur1"><feGaussianBlur stdDeviation="3"/></filter>
    <filter id="blur2"><feGaussianBlur stdDeviation="8"/></filter>
    <filter id="blur3"><feGaussianBlur stdDeviation="20"/></filter>
  </defs>
  <rect width="1600" height="900" fill="url(#bg)"/>
  <ellipse cx="1402" cy="163" rx="56" ry="60" fill="#122414" opacity="0.25" transform="rotate(201 1402 163)"/>
  <ellipse cx="1460" cy="852" rx="184" ry="145" fill="#1a2a1e" opacity="0.17" transform="rotate(268 1460 852)"/>
  <ellipse cx="491" cy="709" rx="93" ry="82" fill="#122414" opacity="0.19" transform="rotate(42 491 709)"/>
  <ellipse cx="86" cy="571" rx="133" ry="139" fill="#122414" opacity="0.28" transform="rotate(180 86 571)"/>
  <ellipse cx="1388" cy="344" rx="88" ry="49" fill="#1a2a1e" opacity="0.13" transform="rotate(72 1388 344)"/>
  <ellipse cx="655" cy="512" rx="185" ry="113" fill="#122414" opacity="0.27" transform="rotate(65 655 512)"/>
  <ellipse cx="129" cy="299" rx="198" ry="90" fill="#1a2a1e" opacity="0.10" transform="rotate(98 129 299)"/>
  <ellipse cx="1218" cy="152" rx="162" ry="118" fill="#1a2a1e" opacity="0.13" transform="rotate(156 1218 152)"/>
  <ellipse cx="687" cy="386" rx="116" ry="41" fill="#1a2a1e" opacity="0.25" transform="rotate(342 687 386)"/>
  <ellipse cx="1427" cy="681" rx="125" ry="43" fill="#1a2a1e" opacity="0.23" transform="rotate(90 1427 681)"/>
  <path d="M160,900 Q154,608 160,508" stroke="#1a3018" stroke-width="3" fill="none" opacity="0.3"/>
  <path d="M160,508 Q115,493 85,478" stroke="#1a4018" stroke-width="2" fill="none" opacity="0.25"/>
  <path d="M160,508 Q157,502 118,497" stroke="#1a4018" stroke-width="2" fill="none" opacity="0.25"/>
  <path d="M160,508 Q156,468 149,427" stroke="#1a4018" stroke-width="2" fill="none" opacity="0.25"/>
  <path d="M160,508 Q136,462 141,415" stroke="#1a4018" stroke-width="2" fill="none" opacity="0.25"/>
  <circle cx="137" cy="451" r="3.9" fill="#c8e060" opacity="0.77"/>
  <circle cx="137" cy="451" r="15.5" fill="#c8e060" opacity="0.058" filter="url(#blur1)"/>
  <circle cx="117" cy="515" r="1.8" fill="#c8e060" opacity="0.69"/>
  <circle cx="117" cy="515" r="7.3" fill="#c8e060" opacity="0.071" filter="url(#blur1)"/>
  <circle cx="107" cy="472" r="3.1" fill="#c8e060" opacity="0.41"/>
  <circle cx="107" cy="472" r="12.5" fill="#c8e060" opacity="0.091" filter="url(#blur1)"/>
  <circle cx="121" cy="492" r="1.6" fill="#c8e060" opacity="0.80"/>
  <circle cx="121" cy="492" r="6.5" fill="#c8e060" opacity="0.076" filter="url(#blur1)"/>
  <circle cx="185" cy="430" r="3.2" fill="#c8e060" opacity="0.57"/>
  <circle cx="185" cy="430" r="12.9" fill="#c8e060" opacity="0.057" filter="url(#blur1)"/>
  <circle cx="168" cy="485" r="1.9" fill="#c8e060" opacity="0.68"/>
  <circle cx="168" cy="485" r="7.5" fill="#c8e060" opacity="0.074" filter="url(#blur1)"/>
  <circle cx="128" cy="507" r="3.2" fill="#c8e060" opacity="0.51"/>
  <circle cx="128" cy="507" r="12.6" fill="#c8e060" opacity="0.072" filter="url(#blur1)"/>
  <path d="M480,900 Q493,441 480,341" stroke="#1a3018" stroke-width="3" fill="none" opacity="0.3"/>
  <path d="M480,341 Q473,296 483,252" stroke="#1a4018" stroke-width="2" fill="none" opacity="0.25"/>
  <path d="M480,341 Q514,315 540,289" stroke="#1a4018" stroke-width="2" fill="none" opacity="0.25"/>
  <path d="M480,341 Q538,305 559,270" stroke="#1a4018" stroke-width="2" fill="none" opacity="0.25"/>
  <circle cx="513" cy="297" r="1.6" fill="#5ba8c8" opacity="0.60"/>
  <circle cx="513" cy="297" r="6.4" fill="#5ba8c8" opacity="0.045" filter="url(#blur1)"/>
  <circle cx="549" cy="301" r="1.5" fill="#5ba8c8" opacity="0.67"/>
  <circle cx="549" cy="301" r="6.0" fill="#5ba8c8" opacity="0.093" filter="url(#blur1)"/>
  <circle cx="534" cy="341" r="1.9" fill="#5ba8c8" opacity="0.44"/>
  <circle cx="534" cy="341" r="7.5" fill="#5ba8c8" opacity="0.066" filter="url(#blur1)"/>
  <circle cx="516" cy="273" r="2.1" fill="#5ba8c8" opacity="0.49"/>
  <circle cx="516" cy="273" r="8.6" fill="#5ba8c8" opacity="0.099" filter="url(#blur1)"/>
  <circle cx="447" cy="317" r="1.7" fill="#5ba8c8" opacity="0.47"/>
  <circle cx="447" cy="317" r="7.0" fill="#5ba8c8" opacity="0.033" filter="url(#blur1)"/>
  <circle cx="446" cy="357" r="2.3" fill="#5ba8c8" opacity="0.70"/>
  <circle cx="446" cy="357" r="9.1" fill="#5ba8c8" opacity="0.037" filter="url(#blur1)"/>
  <path d="M800,900 Q782,627 800,527" stroke="#1a3018" stroke-width="3" fill="none" opacity="0.3"/>
  <path d="M800,527 Q807,504 825,480" stroke="#1a4018" stroke-width="2" fill="none" opacity="0.25"/>
  <path d="M800,527 Q807,483 783,439" stroke="#1a4018" stroke-width="2" fill="none" opacity="0.25"/>
  <path d="M800,527 Q738,509 701,491" stroke="#1a4018" stroke-width="2" fill="none" opacity="0.25"/>
  <path d="M800,527 Q774,472 766,416" stroke="#1a4018" stroke-width="2" fill="none" opacity="0.25"/>
  <circle cx="830" cy="505" r="2.6" fill="#9b7ecb" opacity="0.75"/>
  <circle cx="830" cy="505" r="10.2" fill="#9b7ecb" opacity="0.042" filter="url(#blur1)"/>
  <circle cx="741" cy="535" r="4.0" fill="#9b7ecb" opacity="0.74"/>
  <circle cx="741" cy="535" r="15.8" fill="#9b7ecb" opacity="0.037" filter="url(#blur1)"/>
  <circle cx="866" cy="505" r="2.9" fill="#9b7ecb" opacity="0.58"/>
  <circle cx="866" cy="505" r="11.7" fill="#9b7ecb" opacity="0.073" filter="url(#blur1)"/>
  <circle cx="845" cy="521" r="3.7" fill="#9b7ecb" opacity="0.75"/>
  <circle cx="845" cy="521" r="14.6" fill="#9b7ecb" opacity="0.081" filter="url(#blur1)"/>
  <circle cx="863" cy="505" r="2.7" fill="#9b7ecb" opacity="0.76"/>
  <circle cx="863" cy="505" r="10.9" fill="#9b7ecb" opacity="0.061" filter="url(#blur1)"/>
  <circle cx="730" cy="526" r="1.5" fill="#9b7ecb" opacity="0.75"/>
  <circle cx="730" cy="526" r="6.1" fill="#9b7ecb" opacity="0.067" filter="url(#blur1)"/>
  <circle cx="839" cy="534" r="2.1" fill="#9b7ecb" opacity="0.78"/>
  <circle cx="839" cy="534" r="8.2" fill="#9b7ecb" opacity="0.091" filter="url(#blur1)"/>
  <path d="M1120,900 Q1128,556 1120,456" stroke="#1a3018" stroke-width="3" fill="none" opacity="0.3"/>
  <path d="M1120,456 Q1109,408 1100,360" stroke="#1a4018" stroke-width="2" fill="none" opacity="0.25"/>
  <path d="M1120,456 Q1127,415 1163,375" stroke="#1a4018" stroke-width="2" fill="none" opacity="0.25"/>
  <path d="M1120,456 Q1171,425 1212,394" stroke="#1a4018" stroke-width="2" fill="none" opacity="0.25"/>
  <circle cx="1143" cy="395" r="3.6" fill="#e8a44a" opacity="0.74"/>
  <circle cx="1143" cy="395" r="14.5" fill="#e8a44a" opacity="0.091" filter="url(#blur1)"/>
  <circle cx="1052" cy="435" r="2.1" fill="#e8a44a" opacity="0.79"/>
  <circle cx="1052" cy="435" r="8.4" fill="#e8a44a" opacity="0.034" filter="url(#blur1)"/>
  <circle cx="1076" cy="453" r="2.5" fill="#e8a44a" opacity="0.49"/>
  <circle cx="1076" cy="453" r="10.0" fill="#e8a44a" opacity="0.062" filter="url(#blur1)"/>
  <circle cx="1168" cy="430" r="3.6" fill="#e8a44a" opacity="0.58"/>
  <circle cx="1168" cy="430" r="14.6" fill="#e8a44a" opacity="0.038" filter="url(#blur1)"/>
  <path d="M1440,900 Q1446,549 1440,449" stroke="#1a3018" stroke-width="3" fill="none" opacity="0.3"/>
  <path d="M1440,449 Q1436,429 1428,408" stroke="#1a4018" stroke-width="2" fill="none" opacity="0.25"/>
  <path d="M1440,449 Q1501,420 1526,391" stroke="#1a4018" stroke-width="2" fill="none" opacity="0.25"/>
  <path d="M1440,449 Q1465,398 1485,347" stroke="#1a4018" stroke-width="2" fill="none" opacity="0.25"/>
  <circle cx="1512" cy="413" r="1.6" fill="#60c890" opacity="0.49"/>
  <circle cx="1512" cy="413" r="6.5" fill="#60c890" opacity="0.062" filter="url(#blur1)"/>
  <circle cx="1450" cy="444" r="2.7" fill="#60c890" opacity="0.66"/>
  <circle cx="1450" cy="444" r="10.7" fill="#60c890" opacity="0.080" filter="url(#blur1)"/>
  <circle cx="1378" cy="460" r="2.1" fill="#60c890" opacity="0.54"/>
  <circle cx="1378" cy="460" r="8.2" fill="#60c890" opacity="0.088" filter="url(#blur1)"/>
  <circle cx="1514" cy="404" r="2.8" fill="#60c890" opacity="0.68"/>
  <circle cx="1514" cy="404" r="11.2" fill="#60c890" opacity="0.033" filter="url(#blur1)"/>
  <circle cx="1386" cy="386" r="3.3" fill="#60c890" opacity="0.69"/>
  <circle cx="1386" cy="386" r="13.2" fill="#60c890" opacity="0.037" filter="url(#blur1)"/>
  <circle cx="1458" cy="392" r="3.8" fill="#60c890" opacity="0.56"/>
  <circle cx="1458" cy="392" r="15.3" fill="#60c890" opacity="0.062" filter="url(#blur1)"/>
  <circle cx="1485" cy="455" r="1.8" fill="#60c890" opacity="0.57"/>
  <circle cx="1485" cy="455" r="7.1" fill="#60c890" opacity="0.095" filter="url(#blur1)"/>
  <rect x="0" y="750" width="1600" height="150" fill="#182618" opacity="0.5"/>
</svg>