<svg xmlns="http://www.w3.org/2000/svg" viewBox="0 0 1600 900" width="1600" height="900">
  <defs>
    <linearGradient id="bg" x1="0" y1="0" x2="0" y2="1">
      <stop offset="0%" stop-color="#1a1a14"/>
      <stop offset="50%" stop-color="#22201a"/>
      <stop offset="100%" stop-color="#1a1a14"/>
    </linearGradient>
    <radialGradient id="glow1" cx="50%" cy="50%" r="50%">
      <stop offset="0%" stop-color="#e8d060" stop-opacity="0.25"/>
      <stop offset="100%" stop-color="#b89b3e" stop-opacity="0"/>
    </radialGradient>
    <radialGradient id="glow2" cx="50%" cy="50%" r="50%">
      <stop offset="0%" stop-color="#b89b3e" stop-opacity="0.2"/>
      <stop offset="100%" stop-color="#b89b3e" stop-opacity="0"/>
    </radialGradient>
    <radialGradient id="glowGold" cx="50%" cy="50%" r="50%">
      <stop offset="0%" stop-color="#e8b840" stop-opacity="0.3"/>
      <stop offset="100%" stop-color="#e8b840" stop-opacity="0"/>
    </radialGradient>
    <filter id="blur1"><feGaussianBlur stdDeviation="3"/></filter>
    <filter id="blur2"><feGaussianBlur stdDeviation="8"/></filter>
    <filter id="blur3"><feGaussianBlur stdDeviation="20"/></filter>
  </defs>
  <rect width="1600" height="900" fill="url(#bg)"/>
  <ellipse cx="323" cy="591" rx="169" ry="86" fill="#22201a" opacity="0.30" transform="rotate(184 323 591)"/>
  <ellipse cx="1118" cy="554" rx="148" ry="98" fill="#22201a" opacity="0.34" transform="rotate(31 1118 554)"/>
  <ellipse cx="441" cy="359" rx="147" ry="105" fill="#22201a" opacity="0.23" transform="rotate(265 441 359)"/>
  <ellipse cx="110" cy="81" rx="86" ry="173" fill="#28261e" opacity="0.19" transform="rotate(294 110 81)"/>
  <ellipse cx="362" cy="867" rx="113" ry="105" fill="#22201a" opacity="0.17" transform="rotate(147 362 867)"/>
  <ellipse cx="170" cy="65" rx="87" ry="192" fill="#28261e" opacity="0.32" transform="rotate(293 170 65)"/>
  <ellipse cx="920" cy="625" rx="195" ry="130" fill="#22201a" opacity="0.29" transform="rotate(346 920 625)"/>
  <ellipse cx="734" cy="415" rx="134" ry="44" fill="#22201a" opacity="0.16" transform="rotate(138 734 415)"/>
  <ellipse cx="1262" cy="198" rx="152" ry="168" fill="#28261e" opacity="0.34" transform="rotate(186 1262 198)"/>
  <ellipse cx="16" cy="749" rx="80" ry="55" fill="#28261e" opacity="0.12" transform="rotate(335 16 749)"/>
  <path d="M160,900 Q154,543 160,443" stroke="#3a3422" stroke-width="3" fill="none" opacity="0.45"/>
  <path d="M160,443 Q137,414 79,385" stroke="#3a3828" stroke-width="2.5" fill="none" opacity="0.35"/>
  <path d="M160,443 Q110,413 81,384" stroke="#3a3828" stroke-width="2.5" fill="none" opacity="0.35"/>
  <path d="M160,443 Q128,421 117,399" stroke="#3a3828" stroke-width="2.5" fill="none" opacity="0.35"/>
  <path d="M160,443 Q199,414 250,386" stroke="#3a3828" stroke-width="2.5" fill="none" opacity="0.35"/>
  <path d="M160,443 Q162,426 197,410" stroke="#3a3828" stroke-width="2.5" fill="none" opacity="0.35"/>
  <circle cx="159" cy="364" r="4.6" fill="#8a9040" opacity="0.88"/>
  <circle cx="159" cy="364" r="18.3" fill="#8a9040" opacity="0.162" filter="url(#blur1)"/>
  <circle cx="139" cy="401" r="4.7" fill="#8a9040" opacity="0.85"/>
  <circle cx="139" cy="401" r="18.8" fill="#8a9040" opacity="0.129" filter="url(#blur1)"/>
  <circle cx="124" cy="385" r="4.3" fill="#8a9040" opacity="0.70"/>
  <circle cx="124" cy="385" r="17.2" fill="#8a9040" opacity="0.108" filter="url(#blur1)"/>
  <circle cx="200" cy="378" r="3.6" fill="#8a9040" opacity="0.67"/>
  <circle cx="200" cy="378" r="14.3" fill="#8a9040" opacity="0.173" filter="url(#blur1)"/>
  <circle cx="85" cy="405" r="4.6" fill="#8a9040" opacity="0.81"/>
  <circle cx="85" cy="405" r="18.3" fill="#8a9040" opacity="0.115" filter="url(#blur1)"/>
  <circle cx="99" cy="425" r="2.9" fill="#8a9040" opacity="0.50"/>
  <circle cx="99" cy="425" r="11.8" fill="#8a9040" opacity="0.141" filter="url(#blur1)"/>
  <circle cx="141" cy="375" r="3.1" fill="#8a9040" opacity="0.84"/>
  <circle cx="141" cy="375" r="12.3" fill="#8a9040" opacity="0.082" filter="url(#blur1)"/>
  <circle cx="122" cy="395" r="4.9" fill="#8a9040" opacity="0.64"/>
  <circle cx="122" cy="395" r="19.5" fill="#8a9040" opacity="0.082" filter="url(#blur1)"/>
  <circle cx="148" cy="413" r="4.3" fill="#8a9040" opacity="0.65"/>
  <circle cx="148" cy="413" r="17.0" fill="#8a9040" opacity="0.108" filter="url(#blur1)"/>
  <circle cx="152" cy="432" r="4.9" fill="#8a9040" opacity="0.77"/>
  <circle cx="152" cy="432" r="19.8" fill="#8a9040" opacity="0.158" filter="url(#blur1)"/>
  <path d="M480,900 Q492,616 480,516" stroke="#3a3422" stroke-width="3" fill="none" opacity="0.45"/>
  <path d="M480,516 Q516,503 529,489" stroke="#3a3828" stroke-width="2.5" fill="none" opacity="0.35"/>
  <path d="M480,516 Q486,487 531,458" stroke="#3a3828" stroke-width="2.5" fill="none" opacity="0.35"/>
  <path d="M480,516 Q490,492 468,467" stroke="#3a3828" stroke-width="2.5" fill="none" opacity="0.35"/>
  <path d="M480,516 Q488,478 512,440" stroke="#3a3828" stroke-width="2.5" fill="none" opacity="0.35"/>
  <path d="M480,516 Q493,486 478,456" stroke="#3a3828" stroke-width="2.5" fill="none" opacity="0.35"/>
  <path d="M480,516 Q443,511 433,506" stroke="#3a3828" stroke-width="2.5" fill="none" opacity="0.35"/>
  <circle cx="530" cy="493" r="3.9" fill="#b89b3e" opacity="0.68"/>
  <circle cx="530" cy="493" r="15.6" fill="#b89b3e" opacity="0.100" filter="url(#blur1)"/>
  <circle cx="458" cy="503" r="4.8" fill="#b89b3e" opacity="0.60"/>
  <circle cx="458" cy="503" r="19.2" fill="#b89b3e" opacity="0.062" filter="url(#blur1)"/>
  <circle cx="419" cy="540" r="4.9" fill="#b89b3e" opacity="0.58"/>
  <circle cx="419" cy="540" r="19.6" fill="#b89b3e" opacity="0.129" filter="url(#blur1)"/>
  <circle cx="504" cy="457" r="4.3" fill="#b89b3e" opacity="0.64"/>
  <circle cx="504" cy="457" r="17.4" fill="#b89b3e" opacity="0.141" filter="url(#blur1)"/>
  <circle cx="478" cy="525" r="4.7" fill="#b89b3e" opacity="0.65"/>
  <circle cx="478" cy="525" r="18.7" fill="#b89b3e" opacity="0.094" filter="url(#blur1)"/>
  <circle cx="501" cy="454" r="2.5" fill="#b89b3e" opacity="0.82"/>
  <circle cx="501" cy="454" r="10.0" fill="#b89b3e" opacity="0.100" filter="url(#blur1)"/>
  <path d="M800,900 Q803,589 800,489" stroke="#3a3422" stroke-width="3" fill="none" opacity="0.45"/>
  <path d="M800,489 Q760,479 736,469" stroke="#3a3828" stroke-width="2.5" fill="none" opacity="0.35"/>
  <path d="M800,489 Q826,446 843,403" stroke="#3a3828" stroke-width="2.5" fill="none" opacity="0.35"/>
  <path d="M800,489 Q794,437 766,384" stroke="#3a3828" stroke-width="2.5" fill="none" opacity="0.35"/>
  <circle cx="840" cy="472" r="3.4" fill="#a87ee0" opacity="0.57"/>
  <circle cx="840" cy="472" r="13.4" fill="#a87ee0" opacity="0.163" filter="url(#blur1)"/>
  <circle cx="740" cy="438" r="2.8" fill="#a87ee0" opacity="0.80"/>
  <circle cx="740" cy="438" r="11.0" fill="#a87ee0" opacity="0.150" filter="url(#blur1)"/>
  <circle cx="754" cy="457" r="2.3" fill="#a87ee0" opacity="0.87"/>
  <circle cx="754" cy="457" r="9.1" fill="#a87ee0" opacity="0.117" filter="url(#blur1)"/>
  <circle cx="729" cy="502" r="3.6" fill="#a87ee0" opacity="0.90"/>
  <circle cx="729" cy="502" r="14.3" fill="#a87ee0" opacity="0.072" filter="url(#blur1)"/>
  <circle cx="819" cy="419" r="4.8" fill="#a87ee0" opacity="0.66"/>
  <circle cx="819" cy="419" r="19.2" fill="#a87ee0" opacity="0.088" filter="url(#blur1)"/>
  <circle cx="838" cy="463" r="2.4" fill="#a87ee0" opacity="0.71"/>
  <circle cx="838" cy="463" r="9.5" fill="#a87ee0" opacity="0.080" filter="url(#blur1)"/>
  <circle cx="726" cy="452" r="4.7" fill="#a87ee0" opacity="0.85"/>
  <circle cx="726" cy="452" r="19.0" fill="#a87ee0" opacity="0.116" filter="url(#blur1)"/>
  <path d="M1120,900 Q1137,661 1120,561" stroke="#3a3422" stroke-width="3" fill="none" opacity="0.45"/>
  <path d="M1120,561 Q1070,535 1017,508" stroke="#3a3828" stroke-width="2.5" fill="none" opacity="0.35"/>
  <path d="M1120,561 Q1140,524 1141,488" stroke="#3a3828" stroke-width="2.5" fill="none" opacity="0.35"/>
  <path d="M1120,561 Q1159,545 1188,529" stroke="#3a3828" stroke-width="2.5" fill="none" opacity="0.35"/>
  <path d="M1120,561 Q1125,505 1131,449" stroke="#3a3828" stroke-width="2.5" fill="none" opacity="0.35"/>
  <path d="M1120,561 Q1095,545 1086,529" stroke="#3a3828" stroke-width="2.5" fill="none" opacity="0.35"/>
  <path d="M1120,561 Q1094,536 1106,511" stroke="#3a3828" stroke-width="2.5" fill="none" opacity="0.35"/>
  <circle cx="1170" cy="583" r="3.0" fill="#e8b840" opacity="0.69"/>
  <circle cx="1170" cy="583" r="12.1" fill="#e8b840" opacity="0.061" filter="url(#blur1)"/>
  <circle cx="1188" cy="595" r="3.4" fill="#e8b840" opacity="0.50"/>
  <circle cx="1188" cy="595" r="13.7" fill="#e8b840" opacity="0.112" filter="url(#blur1)"/>
  <circle cx="1087" cy="509" r="2.0" fill="#e8b840" opacity="0.65"/>
  <circle cx="1087" cy="509" r="8.1" fill="#e8b840" opacity="0.109" filter="url(#blur1)"/>
  <circle cx="1130" cy="529" r="2.5" fill="#e8b840" opacity="0.79"/>
  <circle cx="1130" cy="529" r="10.0" fill="#e8b840" opacity="0.107" filter="url(#blur1)"/>
  <circle cx="1101" cy="513" r="3.3" fill="#e8b840" opacity="0.60"/>
  <circle cx="1101" cy="513" r="13.1" fill="#e8b840" opacity="0.152" filter="url(#blur1)"/>
  <circle cx="1186" cy="578" r="4.1" fill="#e8b840" opacity="0.61"/>
  <circle cx="1186" cy="578" r="16.2" fill="#e8b840" opacity="0.149" filter="url(#blur1)"/>
  <circle cx="1169" cy="531" r="4.6" fill="#e8b840" opacity="0.57"/>
  <circle cx="1169" cy="531" r="18.2" fill="#e8b840" opacity="0.095" filter="url(#blur1)"/>
  <circle cx="1142" cy="555" r="2.8" fill="#e8b840" opacity="0.75"/>
  <circle cx="1142" cy="555" r="11.3" fill="#e8b840" opacity="0.083" filter="url(#blur1)"/>
  <circle cx="1043" cy="487" r="3.6" fill="#e8b840" opacity="0.57"/>
  <circle cx="1043" cy="487" r="14.4" fill="#e8b840" opacity="0.072" filter="url(#blur1)"/>
  <path d="M1440,900 Q1449,481 1440,381" stroke="#3a3422" stroke-width="3" fill="none" opacity="0.45"/>
  <path d="M1440,381 Q1421,363 1403,345" stroke="#3a3828" stroke-width="2.5" fill="none" opacity="0.35"/>
  <path d="M1440,381 Q1437,352 1410,323" stroke="#3a3828" stroke-width="2.5" fill="none" opacity="0.35"/>
  <path d="M1440,381 Q1490,378 1517,375" stroke="#3a3828" stroke-width="2.5" fill="none" opacity="0.35"/>
  <circle cx="1373" cy="391" r="2.4" fill="#a0a060" opacity="0.61"/>
  <circle cx="1373" cy="391" r="9.8" fill="#a0a060" opacity="0.107" filter="url(#blur1)"/>
  <circle cx="1447" cy="323" r="4.7" fill="#a0a060" opacity="0.60"/>
  <circle cx="1447" cy="323" r="18.7" fill="#a0a060" opacity="0.106" filter="url(#blur1)"/>
  <circle cx="1362" cy="418" r="4.1" fill="#a0a060" opacity="0.65"/>
  <circle cx="1362" cy="418" r="16.6" fill="#a0a060" opacity="0.177" filter="url(#blur1)"/>
  <circle cx="1400" cy="420" r="2.6" fill="#a0a060" opacity="0.79"/>
  <circle cx="1400" cy="420" r="10.4" fill="#a0a060" opacity="0.071" filter="url(#blur1)"/>
  <circle cx="1467" cy="326" r="3.2" fill="#a0a060" opacity="0.88"/>
  <circle cx="1467" cy="326" r="12.7" fill="#a0a060" opacity="0.172" filter="url(#blur1)"/>
  <circle cx="1385" cy="388" r="4.2" fill="#a0a060" opacity="0.72"/>
  <circle cx="1385" cy="388" r="16.9" fill="#a0a060" opacity="0.075" filter="url(#blur1)"/>
  <circle cx="1437" cy="337" r="3.1" fill="#a0a060" opacity="0.52"/>
  <circle cx="1437" cy="337" r="12.3" fill="#a0a060" opacity="0.140" filter="url(#blur1)"/>
  <rect x="0" y="750" width="1600" height="150" fill="#22201a" opacity="0.6"/>
</svg>