<svg xmlns="http://www.w3.org/2000/svg" viewBox="0 0 1600 900" width="1600" height="900">
  <defs>
    <linearGradient id="bg" x1="0" y1="0" x2="0" y2="1">
      <stop offset="0%" stop-color="#1a1a14"/>
      <stop offset="50%" stop-color="#22201a"/>
      <stop offset="100%" stop-color="#1a1a14"/>
    </linearGradient>
    <radialGradient id="glow1" cx="50%" cy="50%" r="50%">
      <stop offset="0%" stop-color="#e8d060" stop-opacity="0.25"/>
      <stop offset="100%" stop-color="#b89b3e" stop-opacity="0"/>
    </radialGradient>
    <radialGradient id="glow2" cx="50%" cy="50%" r="50%">
      <stop offset="0%" stop-color="#b89b3e" stop-opacity="0.2"/>
      <stop offset="100%" stop-color="#b89b3e" stop-opacity="0"/>
    </radialGradient>
    <radialGradient id="glowGold" cx="50%" cy="50%" r="50%">
      <stop offset="0%" stop-color="#e8b840" stop-opacity="0.3"/>
      <stop offset="100%" stop-color="#e8b840" stop-opacity="0"/>
    </radialGradient>
    <filter id="blur1"><feGaussianBlur stdDeviation="3"/></filter>
    <filter id="blur2"><feGaussianBlur stdDeviation="8"/></filter>
    <filter id="blur3"><feGaussianBlur stdDeviation="20"/></filter>
  </defs>
  <rect width="1600" height="900" fill="url(#bg)"/>
  <ellipse cx="1051" cy="240" rx="171" ry="187" fill="#2a2820" opacity="0.33" transform="rotate(341 1051 240)"/>
  <ellipse cx="921" cy="884" rx="102" ry="190" fill="#2a2820" opacity="0.17" transform="rotate(213 921 884)"/>
  <ellipse cx="1290" cy="628" rx="186" ry="45" fill="#383428" opacity="0.22" transform="rotate(204 1290 628)"/>
  <ellipse cx="227" cy="854" rx="174" ry="170" fill="#2e2c22" opacity="0.27" transform="rotate(63 227 854)"/>
  <ellipse cx="61" cy="51" rx="136" ry="43" fill="#2e2c22" opacity="0.12" transform="rotate(330 61 51)"/>
  <ellipse cx="322" cy="117" rx="155" ry="187" fill="#2e2c22" opacity="0.14" transform="rotate(53 322 117)"/>
  <ellipse cx="1128" cy="127" rx="58" ry="124" fill="#2e2c22" opacity="0.39" transform="rotate(134 1128 127)"/>
  <ellipse cx="1507" cy="356" rx="56" ry="88" fill="#2a2820" opacity="0.39" transform="rotate(264 1507 356)"/>
  <ellipse cx="699" cy="575" rx="118" ry="91" fill="#383428" opacity="0.39" transform="rotate(250 699 575)"/>
  <ellipse cx="1486" cy="708" rx="76" ry="134" fill="#2a2820" opacity="0.23" transform="rotate(264 1486 708)"/>
  <ellipse cx="471" cy="160" rx="40" ry="152" fill="#383428" opacity="0.23" transform="rotate(358 471 160)"/>
  <ellipse cx="1544" cy="29" rx="136" ry="187" fill="#383428" opacity="0.18" transform="rotate(204 1544 29)"/>
  <path d="M1499,51 Q1446,140 1446,199 Q1416,275 1364,320 Q1339,341 1353,396" stroke="#3e3c2a" stroke-width="3.5" fill="none" opacity="0.38"/>
  <path d="M77,158 Q123,222 171,296 Q174,341 180,356 Q168,399 210,475 Q230,533 279,555 Q227,597 194,622 Q166,695 204,761" stroke="#3a3422" stroke-width="3.7" fill="none" opacity="0.38"/>
  <path d="M690,235 Q632,253 622,295 Q660,347 661,418 Q603,457 617,491 Q640,521 685,557 Q673,603 644,673 Q580,690 549,740" stroke="#3a3828" stroke-width="2.3" fill="none" opacity="0.30"/>
  <path d="M783,238 Q786,278 811,327 Q775,344 748,381 Q754,442 816,488" stroke="#3a3828" stroke-width="1.7" fill="none" opacity="0.29"/>
  <path d="M866,349 Q897,413 877,484 Q879,567 884,620 Q914,658 879,678 Q904,755 880,818" stroke="#3a3422" stroke-width="1.9" fill="none" opacity="0.44"/>
  <path d="M718,342 Q736,404 813,473 Q902,524 911,566 Q977,621 977,642 Q926,679 891,731" stroke="#3e3c2a" stroke-width="2.8" fill="none" opacity="0.43"/>
  <path d="M20,252 Q-14,288 -58,317 Q-43,358 35,377 Q94,461 92,514 Q75,571 45,629 Q22,682 -20,720 Q0,772 -40,809" stroke="#3a3828" stroke-width="3.4" fill="none" opacity="0.43"/>
  <path d="M1435,7 Q1445,82 1397,142 Q1429,188 1492,214 Q1538,260 1547,296 Q1539,340 1465,391 Q1453,424 1461,492" stroke="#3a3828" stroke-width="1.7" fill="none" opacity="0.38"/>
  <path d="M645,281 Q589,332 580,419 Q522,434 487,474 Q465,539 460,570" stroke="#3a3422" stroke-width="1.6" fill="none" opacity="0.29"/>
  <path d="M950,64 Q932,122 968,149 Q976,204 1018,268 Q1021,336 950,375 Q946,430 980,493 Q953,537 884,621 Q933,659 966,736" stroke="#3e3c2a" stroke-width="3.0" fill="none" opacity="0.44"/>
  <path d="M1140,255 Q1121,289 1125,343 Q1148,398 1118,461 Q1092,525 1039,562 Q1035,611 1014,677 Q1014,710 935,733" stroke="#3e3c2a" stroke-width="2.2" fill="none" opacity="0.38"/>
  <path d="M1428,108 Q1394,159 1431,182 Q1448,212 1493,272 Q1429,338 1398,372 Q1395,453 1379,495" stroke="#3a3828" stroke-width="2.4" fill="none" opacity="0.38"/>
  <path d="M1098,230 Q1139,302 1179,347 Q1188,400 1248,485 Q1235,533 1173,560 Q1128,603 1110,678 Q1080,752 1081,803 Q1047,855 1047,879" stroke="#3e3c2a" stroke-width="1.6" fill="none" opacity="0.36"/>
  <path d="M929,223 Q997,269 1006,323 Q1015,337 966,379 Q942,441 906,470 Q919,522 898,551 Q871,613 895,665 Q867,690 796,742" stroke="#3a3828" stroke-width="2.7" fill="none" opacity="0.39"/>
  <path d="M141,221 Q122,276 122,368 Q53,404 61,455 Q109,495 128,524 Q91,569 78,643 Q40,711 55,752 Q53,796 14,831" stroke="#3e3c2a" stroke-width="2.6" fill="none" opacity="0.37"/>
  <path d="M214,359 Q236,410 186,427 Q194,449 167,500 Q164,549 213,609 Q259,626 244,663 Q287,697 250,718 Q281,741 281,770" stroke="#3e3c2a" stroke-width="1.8" fill="none" opacity="0.26"/>
  <path d="M1123,74 Q1116,123 1083,190 Q1120,206 1104,254 Q1095,269 1148,316" stroke="#3a3828" stroke-width="3.0" fill="none" opacity="0.39"/>
  <path d="M1330,350 Q1314,390 1371,430 Q1328,482 1313,573 Q1357,650 1347,714 Q1313,752 1277,773 Q1215,830 1197,848" stroke="#3e3c2a" stroke-width="2.2" fill="none" opacity="0.21"/>
  <path d="M1301,315 Q1281,358 1273,432 Q1269,487 1343,571 Q1390,631 1373,654 Q1339,710 1326,778 Q1284,836 1249,868" stroke="#3a3422" stroke-width="3.6" fill="none" opacity="0.40"/>
  <path d="M1038,287 Q1040,362 965,410 Q924,483 885,551 Q902,611 873,662" stroke="#3a3422" stroke-width="3.7" fill="none" opacity="0.38"/>
  <path d="M1427,174 Q1352,210 1349,265 Q1345,336 1312,385 Q1358,446 1328,492 Q1327,527 1295,594 Q1299,639 1328,669 Q1321,756 1305,803" stroke="#3a3828" stroke-width="1.5" fill="none" opacity="0.43"/>
  <path d="M809,169 Q845,187 883,226 Q908,260 977,281 Q964,330 957,355 Q948,408 947,491 Q915,545 947,606 Q920,635 958,656" stroke="#3a3422" stroke-width="3.1" fill="none" opacity="0.42"/>
  <path d="M900,236 Q909,268 990,322 Q995,374 981,428 Q966,499 1012,550 Q1011,610 956,634 Q952,667 915,736 Q899,777 848,800" stroke="#3a3828" stroke-width="2.1" fill="none" opacity="0.25"/>
  <path d="M193,307 Q206,355 185,435 Q203,510 167,578 Q207,643 222,673 Q188,705 149,773" stroke="#3e3c2a" stroke-width="3.6" fill="none" opacity="0.32"/>
  <path d="M813,332 Q858,349 852,399 Q853,470 883,510 Q890,555 867,620 Q840,675 847,705" stroke="#3a3828" stroke-width="2.5" fill="none" opacity="0.38"/>
  <path d="M1148,289 Q1095,254 974,282" stroke="#8a9040" stroke-width="1" fill="none" opacity="0.007"/>
  <path d="M1148,289 Q1060,271 1038,210" stroke="#8a9040" stroke-width="1" fill="none" opacity="0.050"/>
  <path d="M1148,289 Q1134,229 1094,174" stroke="#8a9040" stroke-width="1" fill="none" opacity="0.058"/>
  <path d="M1097,798 Q1136,796 1193,746" stroke="#8a9040" stroke-width="1" fill="none" opacity="0.078"/>
  <path d="M1097,798 Q1065,833 1005,802" stroke="#8a9040" stroke-width="1" fill="none" opacity="0.098"/>
  <path d="M974,282 Q933,321 819,352" stroke="#8a9040" stroke-width="1" fill="none" opacity="0.012"/>
  <path d="M1474,570 Q1419,591 1442,596" stroke="#8a9040" stroke-width="1" fill="none" opacity="0.155"/>
  <path d="M1072,308 Q1165,326 1218,280" stroke="#8a9040" stroke-width="1" fill="none" opacity="0.035"/>
  <path d="M1072,308 Q1076,253 1094,174" stroke="#8a9040" stroke-width="1" fill="none" opacity="0.049"/>
  <path d="M773,507 Q757,534 787,508" stroke="#8a9040" stroke-width="1" fill="none" opacity="0.184"/>
  <path d="M773,507 Q764,469 807,383" stroke="#8a9040" stroke-width="1" fill="none" opacity="0.057"/>
  <path d="M1232,468 Q1151,451 1139,499" stroke="#8a9040" stroke-width="1" fill="none" opacity="0.092"/>
  <path d="M1038,210 Q1036,204 1094,174" stroke="#8a9040" stroke-width="1" fill="none" opacity="0.127"/>
  <path d="M501,250 Q533,270 545,226" stroke="#8a9040" stroke-width="1" fill="none" opacity="0.144"/>
  <path d="M501,250 Q452,245 410,221" stroke="#8a9040" stroke-width="1" fill="none" opacity="0.093"/>
  <path d="M501,250 Q488,311 462,360" stroke="#8a9040" stroke-width="1" fill="none" opacity="0.070"/>
  <path d="M513,653 Q416,619 348,596" stroke="#8a9040" stroke-width="1" fill="none" opacity="0.006"/>
  <path d="M513,653 Q439,630 406,652" stroke="#8a9040" stroke-width="1" fill="none" opacity="0.081"/>
  <path d="M1218,280 Q1175,257 1094,174" stroke="#8a9040" stroke-width="1" fill="none" opacity="0.018"/>
  <path d="M643,815 Q715,816 819,809" stroke="#8a9040" stroke-width="1" fill="none" opacity="0.003"/>
  <path d="M873,60 Q807,100 724,85" stroke="#8a9040" stroke-width="1" fill="none" opacity="0.032"/>
  <path d="M1193,746 Q1226,772 1253,835" stroke="#8a9040" stroke-width="1" fill="none" opacity="0.081"/>
  <path d="M1086,568 Q982,581 945,671" stroke="#8a9040" stroke-width="1" fill="none" opacity="0.005"/>
  <path d="M1086,568 Q1033,604 966,655" stroke="#8a9040" stroke-width="1" fill="none" opacity="0.035"/>
  <path d="M819,352 Q759,355 743,315" stroke="#8a9040" stroke-width="1" fill="none" opacity="0.106"/>
  <path d="M787,508 Q794,446 807,383" stroke="#8a9040" stroke-width="1" fill="none" opacity="0.059"/>
  <path d="M787,508 Q820,573 853,612" stroke="#8a9040" stroke-width="1" fill="none" opacity="0.063"/>
  <path d="M410,221 Q437,286 462,360" stroke="#8a9040" stroke-width="1" fill="none" opacity="0.034"/>
  <path d="M1253,835 Q1350,784 1376,708" stroke="#8a9040" stroke-width="1" fill="none" opacity="0.004"/>
  <path d="M724,85 Q766,69 853,56" stroke="#8a9040" stroke-width="1" fill="none" opacity="0.053"/>
  <path d="M853,612 Q899,597 966,655" stroke="#8a9040" stroke-width="1" fill="none" opacity="0.066"/>
  <path d="M1005,802 Q1018,717 966,655" stroke="#8a9040" stroke-width="1" fill="none" opacity="0.031"/>
  <circle cx="1147.8" cy="289.1" r="3.6" fill="#8a9040" opacity="0.83"/>
  <circle cx="1147.8" cy="289.1" r="10.8" fill="#8a9040" opacity="0.166"/>
  <circle cx="1096.6" cy="798.4" r="3.4" fill="#8a9040" opacity="0.50"/>
  <circle cx="1096.6" cy="798.4" r="10.2" fill="#8a9040" opacity="0.100"/>
  <circle cx="973.8" cy="282.5" r="2.5" fill="#8a9040" opacity="0.74"/>
  <circle cx="973.8" cy="282.5" r="7.6" fill="#8a9040" opacity="0.147"/>
  <circle cx="1473.9" cy="570.1" r="4.4" fill="#8a9040" opacity="0.65"/>
  <circle cx="1473.9" cy="570.1" r="13.1" fill="#8a9040" opacity="0.130"/>
  <circle cx="1072.0" cy="307.9" r="1.8" fill="#8a9040" opacity="0.58"/>
  <circle cx="1072.0" cy="307.9" r="5.5" fill="#8a9040" opacity="0.115"/>
  <circle cx="772.5" cy="506.5" r="3.5" fill="#8a9040" opacity="0.61"/>
  <circle cx="772.5" cy="506.5" r="10.5" fill="#8a9040" opacity="0.122"/>
  <circle cx="1147.0" cy="723.1" r="2.4" fill="#8a9040" opacity="0.82"/>
  <circle cx="1147.0" cy="723.1" r="7.1" fill="#8a9040" opacity="0.165"/>
  <circle cx="1231.6" cy="468.2" r="1.6" fill="#8a9040" opacity="0.47"/>
  <circle cx="1231.6" cy="468.2" r="4.7" fill="#8a9040" opacity="0.095"/>
  <circle cx="1038.4" cy="209.9" r="3.8" fill="#8a9040" opacity="0.48"/>
  <circle cx="1038.4" cy="209.9" r="11.3" fill="#8a9040" opacity="0.096"/>
  <circle cx="501.3" cy="250.4" r="4.0" fill="#8a9040" opacity="0.75"/>
  <circle cx="501.3" cy="250.4" r="12.1" fill="#8a9040" opacity="0.149"/>
  <circle cx="513.2" cy="652.9" r="1.6" fill="#8a9040" opacity="0.81"/>
  <circle cx="513.2" cy="652.9" r="4.8" fill="#8a9040" opacity="0.161"/>
  <circle cx="243.5" cy="744.4" r="3.7" fill="#8a9040" opacity="0.83"/>
  <circle cx="243.5" cy="744.4" r="11.2" fill="#8a9040" opacity="0.166"/>
  <circle cx="1139.4" cy="499.0" r="2.2" fill="#8a9040" opacity="0.79"/>
  <circle cx="1139.4" cy="499.0" r="6.6" fill="#8a9040" opacity="0.158"/>
  <circle cx="1218.4" cy="280.1" r="3.5" fill="#8a9040" opacity="0.86"/>
  <circle cx="1218.4" cy="280.1" r="10.5" fill="#8a9040" opacity="0.173"/>
  <circle cx="642.6" cy="815.4" r="4.4" fill="#8a9040" opacity="0.56"/>
  <circle cx="642.6" cy="815.4" r="13.3" fill="#8a9040" opacity="0.111"/>
  <circle cx="873.0" cy="60.4" r="2.3" fill="#8a9040" opacity="0.71"/>
  <circle cx="873.0" cy="60.4" r="6.8" fill="#8a9040" opacity="0.142"/>
  <circle cx="1193.3" cy="746.1" r="4.0" fill="#8a9040" opacity="0.86"/>
  <circle cx="1193.3" cy="746.1" r="12.0" fill="#8a9040" opacity="0.171"/>
  <circle cx="1086.5" cy="568.1" r="3.8" fill="#8a9040" opacity="0.67"/>
  <circle cx="1086.5" cy="568.1" r="11.3" fill="#8a9040" opacity="0.135"/>
  <circle cx="944.7" cy="670.9" r="4.4" fill="#8a9040" opacity="0.55"/>
  <circle cx="944.7" cy="670.9" r="13.2" fill="#8a9040" opacity="0.109"/>
  <circle cx="348.4" cy="596.1" r="2.1" fill="#8a9040" opacity="0.49"/>
  <circle cx="348.4" cy="596.1" r="6.2" fill="#8a9040" opacity="0.097"/>
  <circle cx="819.4" cy="351.8" r="2.8" fill="#8a9040" opacity="0.68"/>
  <circle cx="819.4" cy="351.8" r="8.4" fill="#8a9040" opacity="0.136"/>
  <circle cx="282.1" cy="517.2" r="2.3" fill="#8a9040" opacity="0.57"/>
  <circle cx="282.1" cy="517.2" r="6.8" fill="#8a9040" opacity="0.113"/>
  <circle cx="1093.6" cy="173.8" r="2.0" fill="#8a9040" opacity="0.56"/>
  <circle cx="1093.6" cy="173.8" r="5.9" fill="#8a9040" opacity="0.112"/>
  <circle cx="171.2" cy="795.9" r="3.3" fill="#8a9040" opacity="0.73"/>
  <circle cx="171.2" cy="795.9" r="10.0" fill="#8a9040" opacity="0.146"/>
  <circle cx="786.8" cy="508.1" r="2.6" fill="#8a9040" opacity="0.79"/>
  <circle cx="786.8" cy="508.1" r="7.7" fill="#8a9040" opacity="0.158"/>
  <circle cx="545.0" cy="226.0" r="2.1" fill="#8a9040" opacity="0.43"/>
  <circle cx="545.0" cy="226.0" r="6.2" fill="#8a9040" opacity="0.087"/>
  <circle cx="807.2" cy="382.7" r="3.1" fill="#8a9040" opacity="0.45"/>
  <circle cx="807.2" cy="382.7" r="9.3" fill="#8a9040" opacity="0.089"/>
  <circle cx="409.7" cy="220.7" r="2.5" fill="#8a9040" opacity="0.58"/>
  <circle cx="409.7" cy="220.7" r="7.5" fill="#8a9040" opacity="0.116"/>
  <circle cx="405.8" cy="652.1" r="3.1" fill="#8a9040" opacity="0.90"/>
  <circle cx="405.8" cy="652.1" r="9.3" fill="#8a9040" opacity="0.180"/>
  <circle cx="1253.2" cy="834.9" r="1.5" fill="#8a9040" opacity="0.73"/>
  <circle cx="1253.2" cy="834.9" r="4.6" fill="#8a9040" opacity="0.147"/>
  <circle cx="723.9" cy="773.6" r="3.3" fill="#8a9040" opacity="0.71"/>
  <circle cx="723.9" cy="773.6" r="10.0" fill="#8a9040" opacity="0.142"/>
  <circle cx="1442.5" cy="596.0" r="2.5" fill="#8a9040" opacity="0.86"/>
  <circle cx="1442.5" cy="596.0" r="7.4" fill="#8a9040" opacity="0.172"/>
  <circle cx="1423.0" cy="358.7" r="3.1" fill="#8a9040" opacity="0.54"/>
  <circle cx="1423.0" cy="358.7" r="9.4" fill="#8a9040" opacity="0.108"/>
  <circle cx="1375.9" cy="707.7" r="2.6" fill="#8a9040" opacity="0.80"/>
  <circle cx="1375.9" cy="707.7" r="7.9" fill="#8a9040" opacity="0.160"/>
  <circle cx="723.8" cy="85.1" r="4.2" fill="#8a9040" opacity="0.50"/>
  <circle cx="723.8" cy="85.1" r="12.6" fill="#8a9040" opacity="0.099"/>
  <circle cx="819.5" cy="808.6" r="2.0" fill="#8a9040" opacity="0.88"/>
  <circle cx="819.5" cy="808.6" r="6.0" fill="#8a9040" opacity="0.176"/>
  <circle cx="853.2" cy="55.9" r="1.7" fill="#8a9040" opacity="0.74"/>
  <circle cx="853.2" cy="55.9" r="5.1" fill="#8a9040" opacity="0.147"/>
  <circle cx="1183.0" cy="742.0" r="2.8" fill="#8a9040" opacity="0.45"/>
  <circle cx="1183.0" cy="742.0" r="8.3" fill="#8a9040" opacity="0.090"/>
  <circle cx="852.9" cy="612.2" r="4.4" fill="#8a9040" opacity="0.79"/>
  <circle cx="852.9" cy="612.2" r="13.3" fill="#8a9040" opacity="0.158"/>
  <circle cx="1005.2" cy="801.8" r="3.7" fill="#8a9040" opacity="0.48"/>
  <circle cx="1005.2" cy="801.8" r="11.2" fill="#8a9040" opacity="0.095"/>
  <circle cx="742.9" cy="315.4" r="1.8" fill="#8a9040" opacity="0.43"/>
  <circle cx="742.9" cy="315.4" r="5.3" fill="#8a9040" opacity="0.085"/>
  <circle cx="1211.9" cy="496.5" r="3.2" fill="#8a9040" opacity="0.51"/>
  <circle cx="1211.9" cy="496.5" r="9.7" fill="#8a9040" opacity="0.103"/>
  <circle cx="462.1" cy="360.4" r="3.4" fill="#8a9040" opacity="0.62"/>
  <circle cx="462.1" cy="360.4" r="10.2" fill="#8a9040" opacity="0.123"/>
  <circle cx="123.6" cy="588.6" r="3.1" fill="#8a9040" opacity="0.72"/>
  <circle cx="123.6" cy="588.6" r="9.3" fill="#8a9040" opacity="0.144"/>
  <circle cx="965.7" cy="654.8" r="3.3" fill="#8a9040" opacity="0.75"/>
  <circle cx="965.7" cy="654.8" r="9.8" fill="#8a9040" opacity="0.150"/>
  <circle cx="769.7" cy="427.3" r="2.1" fill="#e8b840" opacity="0.84"/>
  <circle cx="769.7" cy="427.3" r="6.4" fill="#e8b840" opacity="0.169"/>
  <circle cx="624.1" cy="551.9" r="3.6" fill="#e8b840" opacity="0.79"/>
  <circle cx="624.1" cy="551.9" r="10.7" fill="#e8b840" opacity="0.158"/>
  <circle cx="1134.9" cy="331.7" r="3.6" fill="#e8b840" opacity="0.56"/>
  <circle cx="1134.9" cy="331.7" r="10.9" fill="#e8b840" opacity="0.112"/>
  <circle cx="953.7" cy="382.6" r="4.0" fill="#e8b840" opacity="0.79"/>
  <circle cx="953.7" cy="382.6" r="11.9" fill="#e8b840" opacity="0.158"/>
  <circle cx="816.7" cy="388.2" r="4.7" fill="#e8b840" opacity="0.68"/>
  <circle cx="816.7" cy="388.2" r="14.2" fill="#e8b840" opacity="0.136"/>
  <circle cx="652.9" cy="633.9" r="3.5" fill="#e8b840" opacity="0.67"/>
  <circle cx="652.9" cy="633.9" r="10.4" fill="#e8b840" opacity="0.134"/>
  <circle cx="904.2" cy="450.9" r="2.4" fill="#e8b840" opacity="0.56"/>
  <circle cx="904.2" cy="450.9" r="7.3" fill="#e8b840" opacity="0.112"/>
  <circle cx="377.1" cy="521.7" r="2.6" fill="#e8b840" opacity="0.57"/>
  <circle cx="377.1" cy="521.7" r="7.9" fill="#e8b840" opacity="0.113"/>
  <circle cx="662.2" cy="558.7" r="2.4" fill="#e8b840" opacity="0.58"/>
  <circle cx="662.2" cy="558.7" r="7.1" fill="#e8b840" opacity="0.116"/>
  <circle cx="1111.2" cy="560.1" r="3.4" fill="#e8b840" opacity="0.67"/>
  <circle cx="1111.2" cy="560.1" r="10.3" fill="#e8b840" opacity="0.134"/>
  <ellipse cx="800" cy="450" rx="500" ry="300" fill="url(#glow1)" filter="url(#blur3)" opacity="0.6"/>
  <circle cx="337" cy="145" r="0.8" fill="#b8b880" opacity="0.22"/>
  <circle cx="918" cy="145" r="1.4" fill="#e8b840" opacity="0.56"/>
  <circle cx="235" cy="150" r="1.4" fill="#8a9040" opacity="0.36"/>
  <circle cx="1551" cy="574" r="1.7" fill="#e8b840" opacity="0.53"/>
  <circle cx="1516" cy="195" r="2.0" fill="#e8b840" opacity="0.55"/>
  <circle cx="273" cy="747" r="1.0" fill="#e8b840" opacity="0.43"/>
  <circle cx="1228" cy="561" r="1.1" fill="#e8b840" opacity="0.49"/>
  <circle cx="548" cy="408" r="0.9" fill="#e8b840" opacity="0.35"/>
  <circle cx="212" cy="15" r="1.8" fill="#e8b840" opacity="0.40"/>
  <circle cx="672" cy="135" r="1.0" fill="#8a9040" opacity="0.56"/>
  <circle cx="960" cy="790" r="1.4" fill="#e8b840" opacity="0.25"/>
  <circle cx="772" cy="117" r="1.4" fill="#e8b840" opacity="0.20"/>
  <circle cx="1500" cy="611" r="1.4" fill="#b8b880" opacity="0.35"/>
  <circle cx="70" cy="477" r="1.9" fill="#8a9040" opacity="0.39"/>
  <circle cx="1230" cy="315" r="1.9" fill="#e8b840" opacity="0.53"/>
  <circle cx="922" cy="383" r="1.4" fill="#b8b880" opacity="0.29"/>
  <circle cx="1374" cy="255" r="1.3" fill="#e8b840" opacity="0.28"/>
  <circle cx="1135" cy="710" r="1.4" fill="#e8b840" opacity="0.41"/>
  <circle cx="600" cy="185" r="1.3" fill="#b8b880" opacity="0.24"/>
  <circle cx="682" cy="527" r="1.8" fill="#b8b880" opacity="0.37"/>
  <circle cx="585" cy="248" r="1.3" fill="#e8b840" opacity="0.28"/>
  <circle cx="883" cy="502" r="1.2" fill="#8a9040" opacity="0.42"/>
  <circle cx="406" cy="276" r="1.7" fill="#b8b880" opacity="0.36"/>
  <circle cx="221" cy="777" r="1.7" fill="#8a9040" opacity="0.38"/>
  <circle cx="1119" cy="146" r="1.4" fill="#8a9040" opacity="0.51"/>
  <circle cx="1281" cy="553" r="1.6" fill="#e8b840" opacity="0.26"/>
  <circle cx="1543" cy="5" r="1.8" fill="#8a9040" opacity="0.39"/>
  <circle cx="960" cy="79" r="1.1" fill="#b8b880" opacity="0.23"/>
  <circle cx="60" cy="346" r="1.5" fill="#b8b880" opacity="0.41"/>
  <circle cx="1139" cy="538" r="1.6" fill="#8a9040" opacity="0.38"/>
</svg>