<svg xmlns="http://www.w3.org/2000/svg" viewBox="0 0 800 600" width="800" height="600">
  <defs>
    <linearGradient id="bg" x1="0" y1="0" x2="0" y2="1">
      <stop offset="0%" stop-color="#12110e"/>
      <stop offset="50%" stop-color="#1a1a14"/>
      <stop offset="100%" stop-color="#1a1a14"/>
    </linearGradient>
    <radialGradient id="glow1" cx="50%" cy="50%" r="50%">
      <stop offset="0%" stop-color="#e8d060" stop-opacity="0.25"/>
      <stop offset="100%" stop-color="#b89b3e" stop-opacity="0"/>
    </radialGradient>
    <radialGradient id="glow2" cx="50%" cy="50%" r="50%">
      <stop offset="0%" stop-color="#b89b3e" stop-opacity="0.2"/>
      <stop offset="100%" stop-color="#b89b3e" stop-opacity="0"/>
    </radialGradient>
    <radialGradient id="glowGold" cx="50%" cy="50%" r="50%">
      <stop offset="0%" stop-color="#e8b840" stop-opacity="0.3"/>
      <stop offset="100%" stop-color="#e8b840" stop-opacity="0"/>
    </radialGradient>
    <filter id="blur1"><feGaussianBlur stdDeviation="3"/></filter>
    <filter id="blur2"><feGaussianBlur stdDeviation="8"/></filter>
    <filter id="blur3"><feGaussianBlur stdDeviation="20"/></filter>
  </defs>
  <rect width="800" height="600" fill="url(#bg)"/>
  <ellipse cx="779" cy="142" rx="109" ry="42" fill="#201e18" opacity="0.38" transform="rotate(142 779 142)"/>
  <ellipse cx="194" cy="581" rx="133" ry="151" fill="#1a1a14" opacity="0.31" transform="rotate(32 194 581)"/>
  <ellipse cx="126" cy="55" rx="139" ry="189" fill="#1a1a14" opacity="0.22" transform="rotate(232 126 55)"/>
  <ellipse cx="561" cy="475" rx="60" ry="77" fill="#201e18" opacity="0.44" transform="rotate(158 561 475)"/>
  <ellipse cx="154" cy="414" rx="97" ry="62" fill="#1a1a14" opacity="0.35" transform="rotate(158 154 414)"/>
  <ellipse cx="236" cy="418" rx="70" ry="70" fill="#201e18" opacity="0.30" transform="rotate(169 236 418)"/>
  <ellipse cx="694" cy="359" rx="178" ry="66" fill="#1a1a14" opacity="0.33" transform="rotate(295 694 359)"/>
  <ellipse cx="433" cy="272" rx="164" ry="121" fill="#1a1a14" opacity="0.46" transform="rotate(223 433 272)"/>
  <ellipse cx="400" cy="300" rx="350" ry="200" fill="#26241c" opacity="0.2" filter="url(#blur3)"/>
  <path d="M291,112 Q265,254 278,396" stroke="#3a3422" stroke-width="4.4" fill="none" opacity="0.39"/>
  <path d="M152,123 Q131,326 142,530" stroke="#3a3422" stroke-width="2.9" fill="none" opacity="0.22"/>
  <path d="M258,17 Q230,257 244,498" stroke="#3a3422" stroke-width="2.1" fill="none" opacity="0.38"/>
  <path d="M25,19 Q-3,188 11,357" stroke="#3a3422" stroke-width="2.9" fill="none" opacity="0.31"/>
  <path d="M392,112 Q365,295 378,477" stroke="#3a3422" stroke-width="4.0" fill="none" opacity="0.21"/>
  <path d="M10,166 Q36,331 23,497" stroke="#3a3422" stroke-width="3.1" fill="none" opacity="0.36"/>
  <path d="M511,65 Q535,294 523,523" stroke="#3a3422" stroke-width="4.3" fill="none" opacity="0.36"/>
  <path d="M47,111 Q61,285 54,459" stroke="#3a3422" stroke-width="1.8" fill="none" opacity="0.36"/>
  <path d="M380,600 L380,420 Q380,380 400,370 Q420,380 420,420 L420,600" fill="#0e0d0a" opacity="0.8"/>
  <circle cx="400" cy="355" r="18" fill="#0e0d0a" opacity="0.8"/>
  <circle cx="400" cy="380" r="10" fill="#8a9040" opacity="0.5"/>
  <circle cx="400" cy="380" r="30" fill="#8a9040" opacity="0.1" filter="url(#blur2)"/>
  <circle cx="400" cy="380" r="50" fill="#e8b840" opacity="0.05" filter="url(#blur3)"/>
  <path d="M372,392 Q393,416 445,396" stroke="#8a9040" stroke-width="1" fill="none" opacity="0.013"/>
  <path d="M372,392 Q358,345 352,354" stroke="#8a9040" stroke-width="1" fill="none" opacity="0.069"/>
  <path d="M389,359 Q448,358 445,396" stroke="#8a9040" stroke-width="1" fill="none" opacity="0.024"/>
  <path d="M389,359 Q392,384 427,398" stroke="#8a9040" stroke-width="1" fill="none" opacity="0.049"/>
  <path d="M389,359 Q361,369 400,406" stroke="#8a9040" stroke-width="1" fill="none" opacity="0.060"/>
  <path d="M445,396 Q447,360 427,398" stroke="#8a9040" stroke-width="1" fill="none" opacity="0.116"/>
  <path d="M445,396 Q445,435 400,406" stroke="#8a9040" stroke-width="1" fill="none" opacity="0.065"/>
  <path d="M445,396 Q474,408 443,430" stroke="#8a9040" stroke-width="1" fill="none" opacity="0.085"/>
  <path d="M445,396 Q435,400 382,364" stroke="#8a9040" stroke-width="1" fill="none" opacity="0.019"/>
  <path d="M427,398 Q437,399 443,430" stroke="#8a9040" stroke-width="1" fill="none" opacity="0.081"/>
  <path d="M427,398 Q420,353 382,364" stroke="#8a9040" stroke-width="1" fill="none" opacity="0.046"/>
  <path d="M393,350 Q393,405 405,414" stroke="#8a9040" stroke-width="1" fill="none" opacity="0.028"/>
  <path d="M393,350 Q406,343 446,340" stroke="#8a9040" stroke-width="1" fill="none" opacity="0.048"/>
  <path d="M400,406 Q409,388 434,381" stroke="#8a9040" stroke-width="1" fill="none" opacity="0.071"/>
  <path d="M400,406 Q368,385 352,354" stroke="#8a9040" stroke-width="1" fill="none" opacity="0.016"/>
  <path d="M434,381 Q401,392 405,414" stroke="#8a9040" stroke-width="1" fill="none" opacity="0.067"/>
  <path d="M382,364 Q407,341 446,340" stroke="#8a9040" stroke-width="1" fill="none" opacity="0.022"/>
  <path d="M382,364 Q355,371 352,354" stroke="#8a9040" stroke-width="1" fill="none" opacity="0.089"/>
  <circle cx="371.6" cy="391.9" r="0.9" fill="#8a9040" opacity="0.37"/>
  <circle cx="371.6" cy="391.9" r="2.8" fill="#8a9040" opacity="0.074"/>
  <circle cx="388.5" cy="359.3" r="1.6" fill="#8a9040" opacity="0.47"/>
  <circle cx="388.5" cy="359.3" r="4.8" fill="#8a9040" opacity="0.094"/>
  <circle cx="444.8" cy="395.8" r="1.5" fill="#8a9040" opacity="0.52"/>
  <circle cx="444.8" cy="395.8" r="4.4" fill="#8a9040" opacity="0.105"/>
  <circle cx="426.6" cy="397.7" r="1.6" fill="#8a9040" opacity="0.51"/>
  <circle cx="426.6" cy="397.7" r="4.8" fill="#8a9040" opacity="0.102"/>
  <circle cx="392.7" cy="350.4" r="1.8" fill="#8a9040" opacity="0.46"/>
  <circle cx="392.7" cy="350.4" r="5.3" fill="#8a9040" opacity="0.093"/>
  <circle cx="400.5" cy="405.8" r="1.4" fill="#8a9040" opacity="0.48"/>
  <circle cx="400.5" cy="405.8" r="4.3" fill="#8a9040" opacity="0.096"/>
  <circle cx="443.4" cy="430.2" r="1.5" fill="#8a9040" opacity="0.60"/>
  <circle cx="443.4" cy="430.2" r="4.4" fill="#8a9040" opacity="0.120"/>
  <circle cx="434.5" cy="381.2" r="1.6" fill="#8a9040" opacity="0.55"/>
  <circle cx="434.5" cy="381.2" r="4.7" fill="#8a9040" opacity="0.110"/>
  <circle cx="382.3" cy="364.1" r="1.5" fill="#8a9040" opacity="0.41"/>
  <circle cx="382.3" cy="364.1" r="4.4" fill="#8a9040" opacity="0.083"/>
  <circle cx="405.0" cy="414.5" r="1.2" fill="#8a9040" opacity="0.44"/>
  <circle cx="405.0" cy="414.5" r="3.7" fill="#8a9040" opacity="0.087"/>
  <circle cx="446.0" cy="340.0" r="0.8" fill="#8a9040" opacity="0.39"/>
  <circle cx="446.0" cy="340.0" r="2.5" fill="#8a9040" opacity="0.077"/>
  <circle cx="351.6" cy="353.5" r="1.9" fill="#8a9040" opacity="0.30"/>
  <circle cx="351.6" cy="353.5" r="5.6" fill="#8a9040" opacity="0.060"/>
  <line x1="400" y1="80" x2="498" y2="292" stroke="#e8d060" stroke-width="41" opacity="0.066" stroke-linecap="round"/>
  <line x1="400" y1="80" x2="551" y2="367" stroke="#e8d060" stroke-width="46" opacity="0.071" stroke-linecap="round"/>
  <line x1="400" y1="80" x2="261" y2="387" stroke="#e8d060" stroke-width="29" opacity="0.061" stroke-linecap="round"/>
  <line x1="400" y1="80" x2="186" y2="354" stroke="#e8d060" stroke-width="35" opacity="0.056" stroke-linecap="round"/>
  <line x1="400" y1="80" x2="204" y2="390" stroke="#e8d060" stroke-width="37" opacity="0.042" stroke-linecap="round"/>
  <line x1="400" y1="80" x2="522" y2="311" stroke="#e8d060" stroke-width="48" opacity="0.042" stroke-linecap="round"/>
  <line x1="400" y1="80" x2="491" y2="305" stroke="#e8d060" stroke-width="53" opacity="0.063" stroke-linecap="round"/>
  <ellipse cx="400" cy="150" rx="150" ry="100" fill="url(#glowGold)" filter="url(#blur3)" opacity="0.6"/>
</svg>