<svg xmlns="http://www.w3.org/2000/svg" viewBox="0 0 800 600" width="800" height="600">
  <defs>
    <linearGradient id="bg" x1="0" y1="0" x2="0" y2="1">
      <stop offset="0%" stop-color="#1a1a14"/>
      <stop offset="40%" stop-color="#22201a"/>
      <stop offset="100%" stop-color="#1a1a14"/>
    </linearGradient>
    <radialGradient id="glow1" cx="50%" cy="50%" r="50%">
      <stop offset="0%" stop-color="#e8d060" stop-opacity="0.25"/>
      <stop offset="100%" stop-color="#b89b3e" stop-opacity="0"/>
    </radialGradient>
    <radialGradient id="glow2" cx="50%" cy="50%" r="50%">
      <stop offset="0%" stop-color="#b89b3e" stop-opacity="0.2"/>
      <stop offset="100%" stop-color="#b89b3e" stop-opacity="0"/>
    </radialGradient>
    <radialGradient id="glowGold" cx="50%" cy="50%" r="50%">
      <stop offset="0%" stop-color="#e8b840" stop-opacity="0.3"/>
      <stop offset="100%" stop-color="#e8b840" stop-opacity="0"/>
    </radialGradient>
    <filter id="blur1"><feGaussianBlur stdDeviation="3"/></filter>
    <filter id="blur2"><feGaussianBlur stdDeviation="8"/></filter>
    <filter id="blur3"><feGaussianBlur stdDeviation="20"/></filter>
  </defs>
  <rect width="800" height="600" fill="url(#bg)"/>
  <ellipse cx="439" cy="374" rx="199" ry="151" fill="#22201a" opacity="0.18" transform="rotate(326 439 374)"/>
  <ellipse cx="421" cy="153" rx="50" ry="72" fill="#28261e" opacity="0.11" transform="rotate(236 421 153)"/>
  <ellipse cx="7" cy="233" rx="83" ry="176" fill="#28261e" opacity="0.27" transform="rotate(7 7 233)"/>
  <ellipse cx="694" cy="390" rx="77" ry="101" fill="#22201a" opacity="0.28" transform="rotate(174 694 390)"/>
  <ellipse cx="478" cy="53" rx="72" ry="195" fill="#22201a" opacity="0.11" transform="rotate(332 478 53)"/>
  <ellipse cx="244" cy="294" rx="159" ry="43" fill="#28261e" opacity="0.17" transform="rotate(109 244 294)"/>
  <line x1="400" y1="-20" x2="822" y2="395" stroke="#e8c040" stroke-width="37" opacity="0.039" stroke-linecap="round"/>
  <line x1="400" y1="-20" x2="266" y2="309" stroke="#e8c040" stroke-width="80" opacity="0.104" stroke-linecap="round"/>
  <line x1="400" y1="-20" x2="778" y2="419" stroke="#e8c040" stroke-width="34" opacity="0.059" stroke-linecap="round"/>
  <line x1="400" y1="-20" x2="357" y2="231" stroke="#e8c040" stroke-width="64" opacity="0.071" stroke-linecap="round"/>
  <line x1="400" y1="-20" x2="554" y2="507" stroke="#e8c040" stroke-width="61" opacity="0.064" stroke-linecap="round"/>
  <line x1="400" y1="-20" x2="443" y2="348" stroke="#e8c040" stroke-width="39" opacity="0.077" stroke-linecap="round"/>
  <line x1="400" y1="-20" x2="379" y2="232" stroke="#e8c040" stroke-width="59" opacity="0.076" stroke-linecap="round"/>
  <line x1="400" y1="-20" x2="482" y2="249" stroke="#e8c040" stroke-width="28" opacity="0.083" stroke-linecap="round"/>
  <line x1="400" y1="-20" x2="736" y2="433" stroke="#e8c040" stroke-width="46" opacity="0.099" stroke-linecap="round"/>
  <line x1="400" y1="-20" x2="594" y2="400" stroke="#e8c040" stroke-width="54" opacity="0.046" stroke-linecap="round"/>
  <line x1="400" y1="-20" x2="137" y2="298" stroke="#e8c040" stroke-width="63" opacity="0.048" stroke-linecap="round"/>
  <line x1="400" y1="-20" x2="533" y2="201" stroke="#e8c040" stroke-width="22" opacity="0.057" stroke-linecap="round"/>
  <ellipse cx="400" cy="280" rx="250" ry="180" fill="url(#glowGold)" filter="url(#blur3)"/>
  <ellipse cx="400" cy="280" rx="150" ry="120" fill="url(#glow1)" filter="url(#blur3)"/>
  <path d="M684,553 Q680,526 642,463" stroke="#7a8838" stroke-width="1" fill="none" opacity="0.035"/>
  <path d="M593,495 Q622,443 642,463" stroke="#7a8838" stroke-width="1" fill="none" opacity="0.103"/>
  <path d="M213,404 Q212,424 239,385" stroke="#7a8838" stroke-width="1" fill="none" opacity="0.147"/>
  <path d="M213,404 Q196,450 236,454" stroke="#7a8838" stroke-width="1" fill="none" opacity="0.108"/>
  <path d="M213,404 Q202,426 223,412" stroke="#7a8838" stroke-width="1" fill="none" opacity="0.178"/>
  <path d="M213,404 Q205,472 247,477" stroke="#7a8838" stroke-width="1" fill="none" opacity="0.065"/>
  <path d="M213,404 Q205,382 154,438" stroke="#7a8838" stroke-width="1" fill="none" opacity="0.086"/>
  <path d="M470,489 Q430,510 364,539" stroke="#7a8838" stroke-width="1" fill="none" opacity="0.004"/>
  <path d="M470,489 Q452,497 372,541" stroke="#7a8838" stroke-width="1" fill="none" opacity="0.015"/>
  <path d="M239,385 Q205,363 223,412" stroke="#7a8838" stroke-width="1" fill="none" opacity="0.148"/>
  <path d="M239,385 Q174,386 166,462" stroke="#7a8838" stroke-width="1" fill="none" opacity="0.023"/>
  <path d="M239,385 Q163,380 154,438" stroke="#7a8838" stroke-width="1" fill="none" opacity="0.033"/>
  <path d="M180,532 Q191,506 236,454" stroke="#7a8838" stroke-width="1" fill="none" opacity="0.040"/>
  <path d="M210,450 Q186,473 236,454" stroke="#7a8838" stroke-width="1" fill="none" opacity="0.157"/>
  <path d="M210,450 Q248,456 223,412" stroke="#7a8838" stroke-width="1" fill="none" opacity="0.134"/>
  <path d="M210,450 Q203,411 200,433" stroke="#7a8838" stroke-width="1" fill="none" opacity="0.167"/>
  <path d="M210,450 Q197,458 198,512" stroke="#7a8838" stroke-width="1" fill="none" opacity="0.094"/>
  <path d="M236,454 Q194,438 223,412" stroke="#7a8838" stroke-width="1" fill="none" opacity="0.127"/>
  <path d="M236,454 Q302,494 332,518" stroke="#7a8838" stroke-width="1" fill="none" opacity="0.007"/>
  <path d="M223,412 Q200,447 166,462" stroke="#7a8838" stroke-width="1" fill="none" opacity="0.073"/>
  <path d="M470,504 Q400,497 364,539" stroke="#7a8838" stroke-width="1" fill="none" opacity="0.013"/>
  <path d="M470,504 Q433,482 400,412" stroke="#7a8838" stroke-width="1" fill="none" opacity="0.008"/>
  <path d="M470,504 Q430,516 372,541" stroke="#7a8838" stroke-width="1" fill="none" opacity="0.025"/>
  <path d="M357,520 Q377,532 422,495" stroke="#7a8838" stroke-width="1" fill="none" opacity="0.084"/>
  <path d="M357,520 Q313,513 247,477" stroke="#7a8838" stroke-width="1" fill="none" opacity="0.005"/>
  <path d="M357,520 Q310,503 332,518" stroke="#7a8838" stroke-width="1" fill="none" opacity="0.160"/>
  <path d="M357,520 Q379,477 428,451" stroke="#7a8838" stroke-width="1" fill="none" opacity="0.035"/>
  <path d="M532,451 Q507,485 428,451" stroke="#7a8838" stroke-width="1" fill="none" opacity="0.026"/>
  <path d="M422,495 Q382,426 400,412" stroke="#7a8838" stroke-width="1" fill="none" opacity="0.057"/>
  <path d="M247,477 Q292,502 332,518" stroke="#7a8838" stroke-width="1" fill="none" opacity="0.043"/>
  <path d="M247,477 Q229,481 198,512" stroke="#7a8838" stroke-width="1" fill="none" opacity="0.099"/>
  <path d="M332,518 Q324,557 372,541" stroke="#7a8838" stroke-width="1" fill="none" opacity="0.123"/>
  <path d="M364,539 Q386,498 428,451" stroke="#7a8838" stroke-width="1" fill="none" opacity="0.018"/>
  <path d="M364,539 Q376,515 372,541" stroke="#7a8838" stroke-width="1" fill="none" opacity="0.185"/>
  <path d="M200,433 Q200,420 154,438" stroke="#7a8838" stroke-width="1" fill="none" opacity="0.123"/>
  <path d="M428,451 Q367,526 372,541" stroke="#7a8838" stroke-width="1" fill="none" opacity="0.023"/>
  <path d="M154,438 Q203,459 198,512" stroke="#7a8838" stroke-width="1" fill="none" opacity="0.057"/>
  <circle cx="683.7" cy="553.0" r="1.6" fill="#8a9040" opacity="0.60"/>
  <circle cx="683.7" cy="553.0" r="4.8" fill="#8a9040" opacity="0.120"/>
  <circle cx="593.0" cy="494.6" r="2.5" fill="#8a9040" opacity="0.36"/>
  <circle cx="593.0" cy="494.6" r="7.4" fill="#8a9040" opacity="0.072"/>
  <circle cx="212.8" cy="403.7" r="1.1" fill="#8a9040" opacity="0.69"/>
  <circle cx="212.8" cy="403.7" r="3.2" fill="#8a9040" opacity="0.139"/>
  <circle cx="470.2" cy="489.0" r="2.2" fill="#8a9040" opacity="0.54"/>
  <circle cx="470.2" cy="489.0" r="6.7" fill="#8a9040" opacity="0.108"/>
  <circle cx="238.5" cy="384.7" r="1.2" fill="#8a9040" opacity="0.61"/>
  <circle cx="238.5" cy="384.7" r="3.5" fill="#8a9040" opacity="0.122"/>
  <circle cx="180.5" cy="532.3" r="1.9" fill="#8a9040" opacity="0.56"/>
  <circle cx="180.5" cy="532.3" r="5.8" fill="#8a9040" opacity="0.112"/>
  <circle cx="210.4" cy="449.7" r="1.9" fill="#8a9040" opacity="0.37"/>
  <circle cx="210.4" cy="449.7" r="5.8" fill="#8a9040" opacity="0.073"/>
  <circle cx="235.8" cy="453.5" r="2.9" fill="#8a9040" opacity="0.67"/>
  <circle cx="235.8" cy="453.5" r="8.8" fill="#8a9040" opacity="0.134"/>
  <circle cx="670.1" cy="420.1" r="2.3" fill="#8a9040" opacity="0.38"/>
  <circle cx="670.1" cy="420.1" r="7.0" fill="#8a9040" opacity="0.076"/>
  <circle cx="222.7" cy="411.9" r="2.9" fill="#8a9040" opacity="0.48"/>
  <circle cx="222.7" cy="411.9" r="8.7" fill="#8a9040" opacity="0.095"/>
  <circle cx="470.2" cy="503.8" r="2.7" fill="#8a9040" opacity="0.66"/>
  <circle cx="470.2" cy="503.8" r="8.2" fill="#8a9040" opacity="0.131"/>
  <circle cx="356.5" cy="519.7" r="2.2" fill="#8a9040" opacity="0.63"/>
  <circle cx="356.5" cy="519.7" r="6.6" fill="#8a9040" opacity="0.126"/>
  <circle cx="532.1" cy="450.9" r="2.9" fill="#8a9040" opacity="0.53"/>
  <circle cx="532.1" cy="450.9" r="8.6" fill="#8a9040" opacity="0.106"/>
  <circle cx="421.7" cy="495.5" r="2.4" fill="#8a9040" opacity="0.32"/>
  <circle cx="421.7" cy="495.5" r="7.2" fill="#8a9040" opacity="0.063"/>
  <circle cx="165.6" cy="462.2" r="2.8" fill="#8a9040" opacity="0.65"/>
  <circle cx="165.6" cy="462.2" r="8.3" fill="#8a9040" opacity="0.130"/>
  <circle cx="247.4" cy="476.8" r="3.0" fill="#8a9040" opacity="0.32"/>
  <circle cx="247.4" cy="476.8" r="8.9" fill="#8a9040" opacity="0.063"/>
  <circle cx="332.4" cy="517.7" r="2.9" fill="#8a9040" opacity="0.38"/>
  <circle cx="332.4" cy="517.7" r="8.8" fill="#8a9040" opacity="0.075"/>
  <circle cx="363.7" cy="539.2" r="2.5" fill="#8a9040" opacity="0.41"/>
  <circle cx="363.7" cy="539.2" r="7.6" fill="#8a9040" opacity="0.083"/>
  <circle cx="199.9" cy="433.0" r="2.8" fill="#8a9040" opacity="0.58"/>
  <circle cx="199.9" cy="433.0" r="8.5" fill="#8a9040" opacity="0.115"/>
  <circle cx="642.2" cy="463.4" r="2.3" fill="#8a9040" opacity="0.34"/>
  <circle cx="642.2" cy="463.4" r="6.9" fill="#8a9040" opacity="0.067"/>
  <circle cx="400.4" cy="412.4" r="2.2" fill="#8a9040" opacity="0.66"/>
  <circle cx="400.4" cy="412.4" r="6.5" fill="#8a9040" opacity="0.132"/>
  <circle cx="427.8" cy="450.8" r="1.6" fill="#8a9040" opacity="0.31"/>
  <circle cx="427.8" cy="450.8" r="4.9" fill="#8a9040" opacity="0.062"/>
  <circle cx="372.2" cy="541.4" r="2.8" fill="#8a9040" opacity="0.65"/>
  <circle cx="372.2" cy="541.4" r="8.4" fill="#8a9040" opacity="0.131"/>
  <circle cx="154.1" cy="438.3" r="2.3" fill="#8a9040" opacity="0.58"/>
  <circle cx="154.1" cy="438.3" r="6.9" fill="#8a9040" opacity="0.117"/>
  <circle cx="198.4" cy="512.0" r="1.2" fill="#8a9040" opacity="0.58"/>
  <circle cx="198.4" cy="512.0" r="3.5" fill="#8a9040" opacity="0.116"/>
  <circle cx="410.0" cy="376.3" r="2.1" fill="#e8b840" opacity="0.41"/>
  <circle cx="410.0" cy="376.3" r="6.2" fill="#e8b840" opacity="0.082"/>
  <circle cx="280.8" cy="363.9" r="2.3" fill="#e8b840" opacity="0.64"/>
  <circle cx="280.8" cy="363.9" r="6.8" fill="#e8b840" opacity="0.128"/>
  <circle cx="562.0" cy="373.1" r="2.0" fill="#e8b840" opacity="0.55"/>
  <circle cx="562.0" cy="373.1" r="6.0" fill="#e8b840" opacity="0.109"/>
  <circle cx="549.6" cy="396.6" r="2.0" fill="#e8b840" opacity="0.63"/>
  <circle cx="549.6" cy="396.6" r="6.0" fill="#e8b840" opacity="0.126"/>
  <circle cx="239.3" cy="497.3" r="2.3" fill="#e8b840" opacity="0.70"/>
  <circle cx="239.3" cy="497.3" r="6.8" fill="#e8b840" opacity="0.140"/>
  <circle cx="282.1" cy="355.5" r="2.1" fill="#e8b840" opacity="0.66"/>
  <circle cx="282.1" cy="355.5" r="6.2" fill="#e8b840" opacity="0.132"/>
  <path d="M93,56 Q114,185 103,313" stroke="#3a3422" stroke-width="2.7" fill="none" opacity="0.28"/>
  <path d="M711,19 Q726,274 719,530" stroke="#3a3422" stroke-width="4.2" fill="none" opacity="0.12"/>
  <path d="M511,38 Q498,199 505,360" stroke="#3a3422" stroke-width="4.2" fill="none" opacity="0.22"/>
  <path d="M537,49 Q514,198 525,347" stroke="#3a3422" stroke-width="3.5" fill="none" opacity="0.29"/>
</svg>