<svg xmlns="http://www.w3.org/2000/svg" viewBox="0 0 1600 900" width="1600" height="900">
  <defs>
    <linearGradient id="bg" x1="0" y1="0" x2="0" y2="1">
      <stop offset="0%" stop-color="#141310"/>
      <stop offset="40%" stop-color="#1a1a14"/>
      <stop offset="100%" stop-color="#1a1a14"/>
    </linearGradient>
    <radialGradient id="glow1" cx="50%" cy="50%" r="50%">
      <stop offset="0%" stop-color="#e8d060" stop-opacity="0.25"/>
      <stop offset="100%" stop-color="#b89b3e" stop-opacity="0"/>
    </radialGradient>
    <radialGradient id="glow2" cx="50%" cy="50%" r="50%">
      <stop offset="0%" stop-color="#b89b3e" stop-opacity="0.2"/>
      <stop offset="100%" stop-color="#b89b3e" stop-opacity="0"/>
    </radialGradient>
    <radialGradient id="glowGold" cx="50%" cy="50%" r="50%">
      <stop offset="0%" stop-color="#e8b840" stop-opacity="0.3"/>
      <stop offset="100%" stop-color="#e8b840" stop-opacity="0"/>
    </radialGradient>
    <filter id="blur1"><feGaussianBlur stdDeviation="3"/></filter>
    <filter id="blur2"><feGaussianBlur stdDeviation="8"/></filter>
    <filter id="blur3"><feGaussianBlur stdDeviation="20"/></filter>
  </defs>
  <rect width="1600" height="900" fill="url(#bg)"/>
  <ellipse cx="1524" cy="298" rx="158" ry="73" fill="#22201a" opacity="0.27" transform="rotate(2 1524 298)"/>
  <ellipse cx="16" cy="322" rx="129" ry="63" fill="#28261e" opacity="0.14" transform="rotate(211 16 322)"/>
  <ellipse cx="1225" cy="40" rx="45" ry="72" fill="#22201a" opacity="0.14" transform="rotate(94 1225 40)"/>
  <ellipse cx="279" cy="763" rx="79" ry="71" fill="#22201a" opacity="0.27" transform="rotate(328 279 763)"/>
  <ellipse cx="34" cy="610" rx="101" ry="166" fill="#22201a" opacity="0.17" transform="rotate(76 34 610)"/>
  <ellipse cx="730" cy="333" rx="100" ry="67" fill="#28261e" opacity="0.28" transform="rotate(24 730 333)"/>
  <ellipse cx="231" cy="832" rx="167" ry="71" fill="#28261e" opacity="0.24" transform="rotate(114 231 832)"/>
  <ellipse cx="687" cy="573" rx="187" ry="162" fill="#22201a" opacity="0.27" transform="rotate(106 687 573)"/>
  <path d="M238,67 Q225,400 231,733" stroke="#3a3422" stroke-width="3.3" fill="none" opacity="0.18"/>
  <path d="M935,132 Q952,455 943,777" stroke="#3a3422" stroke-width="3.7" fill="none" opacity="0.31"/>
  <path d="M268,105 Q283,476 275,847" stroke="#3a3422" stroke-width="3.3" fill="none" opacity="0.22"/>
  <path d="M286,192 Q285,439 286,686" stroke="#3a3422" stroke-width="3.2" fill="none" opacity="0.34"/>
  <path d="M930,172 Q939,489 934,806" stroke="#3a3422" stroke-width="4.6" fill="none" opacity="0.19"/>
  <path d="M723,63 Q719,306 721,548" stroke="#3a3422" stroke-width="2.1" fill="none" opacity="0.23"/>
  <path d="M1348,69 Q1363,278 1355,488" stroke="#3a3422" stroke-width="3.3" fill="none" opacity="0.21"/>
  <path d="M368,11 Q358,346 363,681" stroke="#3a3422" stroke-width="3.0" fill="none" opacity="0.24"/>
  <line x1="1100" y1="-30" x2="985" y2="506" stroke="#e8c040" stroke-width="36" opacity="0.037" stroke-linecap="round"/>
  <line x1="1100" y1="-30" x2="1064" y2="354" stroke="#e8c040" stroke-width="25" opacity="0.098" stroke-linecap="round"/>
  <line x1="1100" y1="-30" x2="922" y2="492" stroke="#e8c040" stroke-width="53" opacity="0.040" stroke-linecap="round"/>
  <line x1="1100" y1="-30" x2="974" y2="307" stroke="#e8c040" stroke-width="27" opacity="0.060" stroke-linecap="round"/>
  <line x1="1100" y1="-30" x2="1132" y2="402" stroke="#e8c040" stroke-width="61" opacity="0.053" stroke-linecap="round"/>
  <line x1="1100" y1="-30" x2="1382" y2="652" stroke="#e8c040" stroke-width="71" opacity="0.048" stroke-linecap="round"/>
  <line x1="1100" y1="-30" x2="1149" y2="262" stroke="#e8c040" stroke-width="71" opacity="0.085" stroke-linecap="round"/>
  <line x1="1100" y1="-30" x2="1126" y2="352" stroke="#e8c040" stroke-width="66" opacity="0.055" stroke-linecap="round"/>
  <line x1="1100" y1="-30" x2="882" y2="841" stroke="#e8c040" stroke-width="77" opacity="0.093" stroke-linecap="round"/>
  <line x1="1100" y1="-30" x2="1184" y2="161" stroke="#e8c040" stroke-width="59" opacity="0.104" stroke-linecap="round"/>
  <line x1="1100" y1="-30" x2="1633" y2="575" stroke="#e8c040" stroke-width="34" opacity="0.086" stroke-linecap="round"/>
  <line x1="1100" y1="-30" x2="937" y2="295" stroke="#e8c040" stroke-width="55" opacity="0.074" stroke-linecap="round"/>
  <line x1="1100" y1="-30" x2="1061" y2="739" stroke="#e8c040" stroke-width="40" opacity="0.041" stroke-linecap="round"/>
  <line x1="1100" y1="-30" x2="1363" y2="396" stroke="#e8c040" stroke-width="77" opacity="0.064" stroke-linecap="round"/>
  <line x1="1100" y1="-30" x2="1022" y2="763" stroke="#e8c040" stroke-width="22" opacity="0.045" stroke-linecap="round"/>
  <line x1="1100" y1="-30" x2="1333" y2="312" stroke="#e8c040" stroke-width="64" opacity="0.070" stroke-linecap="round"/>
  <line x1="1100" y1="-30" x2="1213" y2="404" stroke="#e8c040" stroke-width="34" opacity="0.065" stroke-linecap="round"/>
  <line x1="1100" y1="-30" x2="1389" y2="645" stroke="#e8c040" stroke-width="61" opacity="0.056" stroke-linecap="round"/>
  <line x1="1050" y1="-20" x2="1133" y2="572" stroke="#f0d860" stroke-width="22" opacity="0.026" stroke-linecap="round"/>
  <line x1="1050" y1="-20" x2="1670" y2="627" stroke="#f0d860" stroke-width="54" opacity="0.052" stroke-linecap="round"/>
  <line x1="1050" y1="-20" x2="1420" y2="455" stroke="#f0d860" stroke-width="43" opacity="0.035" stroke-linecap="round"/>
  <line x1="1050" y1="-20" x2="1211" y2="164" stroke="#f0d860" stroke-width="43" opacity="0.039" stroke-linecap="round"/>
  <line x1="1050" y1="-20" x2="814" y2="821" stroke="#f0d860" stroke-width="58" opacity="0.032" stroke-linecap="round"/>
  <line x1="1050" y1="-20" x2="713" y2="562" stroke="#f0d860" stroke-width="31" opacity="0.053" stroke-linecap="round"/>
  <line x1="1050" y1="-20" x2="1086" y2="196" stroke="#f0d860" stroke-width="32" opacity="0.056" stroke-linecap="round"/>
  <line x1="1050" y1="-20" x2="988" y2="318" stroke="#f0d860" stroke-width="37" opacity="0.041" stroke-linecap="round"/>
  <line x1="1050" y1="-20" x2="1017" y2="437" stroke="#f0d860" stroke-width="21" opacity="0.033" stroke-linecap="round"/>
  <line x1="1050" y1="-20" x2="1339" y2="356" stroke="#f0d860" stroke-width="79" opacity="0.025" stroke-linecap="round"/>
  <ellipse cx="735" cy="400" rx="449" ry="56" fill="#302e22" opacity="0.113" filter="url(#blur3)"/>
  <ellipse cx="565" cy="500" rx="474" ry="52" fill="#302e22" opacity="0.107" filter="url(#blur3)"/>
  <ellipse cx="932" cy="600" rx="332" ry="63" fill="#302e22" opacity="0.072" filter="url(#blur3)"/>
  <ellipse cx="562" cy="700" rx="443" ry="58" fill="#302e22" opacity="0.064" filter="url(#blur3)"/>
  <path d="M1291,423 Q1214,525 1202,654" stroke="#9a9850" stroke-width="1" fill="none" opacity="0.001"/>
  <path d="M1291,423 Q1247,499 1135,532" stroke="#9a9850" stroke-width="1" fill="none" opacity="0.029"/>
  <path d="M1291,423 Q1212,435 1185,406" stroke="#9a9850" stroke-width="1" fill="none" opacity="0.069"/>
  <path d="M547,364 Q616,401 762,372" stroke="#9a9850" stroke-width="1" fill="none" opacity="0.017"/>
  <path d="M547,364 Q607,452 744,499" stroke="#9a9850" stroke-width="1" fill="none" opacity="0.005"/>
  <path d="M547,364 Q503,339 502,325" stroke="#9a9850" stroke-width="1" fill="none" opacity="0.091"/>
  <path d="M547,364 Q506,280 532,253" stroke="#9a9850" stroke-width="1" fill="none" opacity="0.066"/>
  <path d="M763,220 Q661,261 579,281" stroke="#9a9850" stroke-width="1" fill="none" opacity="0.027"/>
  <path d="M763,220 Q885,252 971,206" stroke="#9a9850" stroke-width="1" fill="none" opacity="0.020"/>
  <path d="M763,220 Q633,259 532,253" stroke="#9a9850" stroke-width="1" fill="none" opacity="0.008"/>
  <path d="M763,220 Q882,206 954,206" stroke="#9a9850" stroke-width="1" fill="none" opacity="0.028"/>
  <path d="M1219,373 Q1196,440 1135,532" stroke="#9a9850" stroke-width="1" fill="none" opacity="0.034"/>
  <path d="M1219,373 Q1167,423 1185,406" stroke="#9a9850" stroke-width="1" fill="none" opacity="0.098"/>
  <path d="M691,612 Q614,586 478,557" stroke="#9a9850" stroke-width="1" fill="none" opacity="0.014"/>
  <path d="M691,612 Q728,521 744,499" stroke="#9a9850" stroke-width="1" fill="none" opacity="0.060"/>
  <path d="M480,509 Q451,611 344,643" stroke="#9a9850" stroke-width="1" fill="none" opacity="0.028"/>
  <path d="M480,509 Q424,451 421,384" stroke="#9a9850" stroke-width="1" fill="none" opacity="0.054"/>
  <path d="M480,509 Q530,389 579,281" stroke="#9a9850" stroke-width="1" fill="none" opacity="0.000"/>
  <path d="M480,509 Q455,527 478,557" stroke="#9a9850" stroke-width="1" fill="none" opacity="0.097"/>
  <path d="M959,549 Q905,579 838,533" stroke="#9a9850" stroke-width="1" fill="none" opacity="0.061"/>
  <path d="M959,549 Q1048,476 1080,405" stroke="#9a9850" stroke-width="1" fill="none" opacity="0.030"/>
  <path d="M959,549 Q948,551 957,557" stroke="#9a9850" stroke-width="1" fill="none" opacity="0.116"/>
  <path d="M959,549 Q922,577 813,608" stroke="#9a9850" stroke-width="1" fill="none" opacity="0.044"/>
  <path d="M344,643 Q443,584 478,557" stroke="#9a9850" stroke-width="1" fill="none" opacity="0.044"/>
  <path d="M838,533 Q888,530 957,557" stroke="#9a9850" stroke-width="1" fill="none" opacity="0.062"/>
  <path d="M838,533 Q905,530 963,530" stroke="#9a9850" stroke-width="1" fill="none" opacity="0.060"/>
  <path d="M838,533 Q808,492 744,499" stroke="#9a9850" stroke-width="1" fill="none" opacity="0.072"/>
  <path d="M838,533 Q910,619 925,667" stroke="#9a9850" stroke-width="1" fill="none" opacity="0.043"/>
  <path d="M838,533 Q890,430 958,339" stroke="#9a9850" stroke-width="1" fill="none" opacity="0.010"/>
  <path d="M1202,654 Q1188,584 1135,532" stroke="#9a9850" stroke-width="1" fill="none" opacity="0.053"/>
  <path d="M1202,654 Q1233,496 1185,406" stroke="#9a9850" stroke-width="1" fill="none" opacity="0.000"/>
  <path d="M421,384 Q414,328 338,325" stroke="#9a9850" stroke-width="1" fill="none" opacity="0.071"/>
  <path d="M421,384 Q385,310 316,214" stroke="#9a9850" stroke-width="1" fill="none" opacity="0.024"/>
  <path d="M421,384 Q441,309 532,253" stroke="#9a9850" stroke-width="1" fill="none" opacity="0.037"/>
  <path d="M1080,405 Q1016,515 957,557" stroke="#9a9850" stroke-width="1" fill="none" opacity="0.026"/>
  <path d="M1080,405 Q1042,268 971,206" stroke="#9a9850" stroke-width="1" fill="none" opacity="0.011"/>
  <path d="M1080,405 Q1038,354 980,232" stroke="#9a9850" stroke-width="1" fill="none" opacity="0.024"/>
  <path d="M1080,405 Q1087,475 1135,532" stroke="#9a9850" stroke-width="1" fill="none" opacity="0.053"/>
  <path d="M1080,405 Q988,340 958,339" stroke="#9a9850" stroke-width="1" fill="none" opacity="0.054"/>
  <path d="M345,213 Q358,307 338,325" stroke="#9a9850" stroke-width="1" fill="none" opacity="0.066"/>
  <path d="M345,213 Q495,277 579,281" stroke="#9a9850" stroke-width="1" fill="none" opacity="0.003"/>
  <path d="M345,213 Q405,253 477,262" stroke="#9a9850" stroke-width="1" fill="none" opacity="0.052"/>
  <path d="M762,372 Q866,379 958,339" stroke="#9a9850" stroke-width="1" fill="none" opacity="0.025"/>
  <path d="M338,325 Q384,314 477,262" stroke="#9a9850" stroke-width="1" fill="none" opacity="0.046"/>
  <path d="M338,325 Q300,269 316,214" stroke="#9a9850" stroke-width="1" fill="none" opacity="0.066"/>
  <path d="M338,325 Q457,283 532,253" stroke="#9a9850" stroke-width="1" fill="none" opacity="0.020"/>
  <path d="M970,432 Q965,293 971,206" stroke="#9a9850" stroke-width="1" fill="none" opacity="0.011"/>
  <path d="M970,432 Q937,480 963,530" stroke="#9a9850" stroke-width="1" fill="none" opacity="0.073"/>
  <path d="M970,432 Q980,309 980,232" stroke="#9a9850" stroke-width="1" fill="none" opacity="0.024"/>
  <path d="M970,432 Q1073,507 1135,532" stroke="#9a9850" stroke-width="1" fill="none" opacity="0.027"/>
  <path d="M970,432 Q930,550 813,608" stroke="#9a9850" stroke-width="1" fill="none" opacity="0.007"/>
  <path d="M970,432 Q975,352 958,339" stroke="#9a9850" stroke-width="1" fill="none" opacity="0.075"/>
  <path d="M970,432 Q1048,384 1185,406" stroke="#9a9850" stroke-width="1" fill="none" opacity="0.016"/>
  <path d="M957,557 Q939,542 963,530" stroke="#9a9850" stroke-width="1" fill="none" opacity="0.107"/>
  <path d="M957,557 Q1027,581 1135,532" stroke="#9a9850" stroke-width="1" fill="none" opacity="0.034"/>
  <path d="M957,557 Q934,471 958,339" stroke="#9a9850" stroke-width="1" fill="none" opacity="0.016"/>
  <path d="M579,281 Q530,308 477,262" stroke="#9a9850" stroke-width="1" fill="none" opacity="0.070"/>
  <path d="M579,281 Q659,273 742,224" stroke="#9a9850" stroke-width="1" fill="none" opacity="0.037"/>
  <path d="M579,281 Q570,254 532,253" stroke="#9a9850" stroke-width="1" fill="none" opacity="0.094"/>
  <path d="M477,262 Q469,282 502,325" stroke="#9a9850" stroke-width="1" fill="none" opacity="0.088"/>
  <path d="M477,262 Q406,276 316,214" stroke="#9a9850" stroke-width="1" fill="none" opacity="0.039"/>
  <path d="M971,206 Q1005,211 980,232" stroke="#9a9850" stroke-width="1" fill="none" opacity="0.107"/>
  <path d="M478,557 Q460,443 502,325" stroke="#9a9850" stroke-width="1" fill="none" opacity="0.008"/>
  <path d="M742,224 Q844,230 954,206" stroke="#9a9850" stroke-width="1" fill="none" opacity="0.018"/>
  <path d="M963,530 Q899,604 813,608" stroke="#9a9850" stroke-width="1" fill="none" opacity="0.039"/>
  <path d="M963,530 Q954,628 925,667" stroke="#9a9850" stroke-width="1" fill="none" opacity="0.052"/>
  <path d="M502,325 Q408,289 316,214" stroke="#9a9850" stroke-width="1" fill="none" opacity="0.016"/>
  <path d="M316,214 Q459,269 532,253" stroke="#9a9850" stroke-width="1" fill="none" opacity="0.014"/>
  <path d="M1135,532 Q1204,553 1290,556" stroke="#9a9850" stroke-width="1" fill="none" opacity="0.045"/>
  <circle cx="1291.1" cy="422.9" r="2.2" fill="#8a9040" opacity="0.44"/>
  <circle cx="1291.1" cy="422.9" r="6.7" fill="#8a9040" opacity="0.088"/>
  <circle cx="546.8" cy="364.4" r="1.9" fill="#8a9040" opacity="0.40"/>
  <circle cx="546.8" cy="364.4" r="5.6" fill="#8a9040" opacity="0.079"/>
  <circle cx="762.7" cy="219.5" r="1.1" fill="#8a9040" opacity="0.46"/>
  <circle cx="762.7" cy="219.5" r="3.4" fill="#8a9040" opacity="0.092"/>
  <circle cx="1218.9" cy="373.4" r="2.3" fill="#8a9040" opacity="0.52"/>
  <circle cx="1218.9" cy="373.4" r="6.8" fill="#8a9040" opacity="0.103"/>
  <circle cx="691.1" cy="611.7" r="2.3" fill="#8a9040" opacity="0.37"/>
  <circle cx="691.1" cy="611.7" r="6.8" fill="#8a9040" opacity="0.073"/>
  <circle cx="479.6" cy="508.9" r="1.6" fill="#8a9040" opacity="0.35"/>
  <circle cx="479.6" cy="508.9" r="4.9" fill="#8a9040" opacity="0.071"/>
  <circle cx="959.1" cy="549.3" r="1.1" fill="#8a9040" opacity="0.48"/>
  <circle cx="959.1" cy="549.3" r="3.4" fill="#8a9040" opacity="0.096"/>
  <circle cx="343.7" cy="642.8" r="1.2" fill="#8a9040" opacity="0.55"/>
  <circle cx="343.7" cy="642.8" r="3.7" fill="#8a9040" opacity="0.111"/>
  <circle cx="837.7" cy="533.3" r="1.1" fill="#8a9040" opacity="0.49"/>
  <circle cx="837.7" cy="533.3" r="3.3" fill="#8a9040" opacity="0.098"/>
  <circle cx="1202.2" cy="654.4" r="1.6" fill="#8a9040" opacity="0.50"/>
  <circle cx="1202.2" cy="654.4" r="4.9" fill="#8a9040" opacity="0.101"/>
  <circle cx="421.2" cy="384.4" r="2.1" fill="#8a9040" opacity="0.40"/>
  <circle cx="421.2" cy="384.4" r="6.4" fill="#8a9040" opacity="0.080"/>
  <circle cx="1079.5" cy="405.0" r="1.2" fill="#8a9040" opacity="0.28"/>
  <circle cx="1079.5" cy="405.0" r="3.7" fill="#8a9040" opacity="0.057"/>
  <circle cx="344.6" cy="213.4" r="2.0" fill="#8a9040" opacity="0.47"/>
  <circle cx="344.6" cy="213.4" r="5.9" fill="#8a9040" opacity="0.094"/>
  <circle cx="761.9" cy="371.8" r="1.6" fill="#8a9040" opacity="0.28"/>
  <circle cx="761.9" cy="371.8" r="4.8" fill="#8a9040" opacity="0.056"/>
  <circle cx="337.8" cy="325.3" r="2.1" fill="#8a9040" opacity="0.25"/>
  <circle cx="337.8" cy="325.3" r="6.2" fill="#8a9040" opacity="0.051"/>
  <circle cx="970.3" cy="432.1" r="1.7" fill="#8a9040" opacity="0.23"/>
  <circle cx="970.3" cy="432.1" r="5.1" fill="#8a9040" opacity="0.047"/>
  <circle cx="957.0" cy="556.8" r="1.7" fill="#8a9040" opacity="0.39"/>
  <circle cx="957.0" cy="556.8" r="5.0" fill="#8a9040" opacity="0.078"/>
  <circle cx="579.1" cy="280.7" r="2.3" fill="#8a9040" opacity="0.44"/>
  <circle cx="579.1" cy="280.7" r="6.8" fill="#8a9040" opacity="0.089"/>
  <circle cx="477.2" cy="262.1" r="2.1" fill="#8a9040" opacity="0.27"/>
  <circle cx="477.2" cy="262.1" r="6.3" fill="#8a9040" opacity="0.053"/>
  <circle cx="971.4" cy="205.6" r="1.4" fill="#8a9040" opacity="0.38"/>
  <circle cx="971.4" cy="205.6" r="4.2" fill="#8a9040" opacity="0.075"/>
  <circle cx="477.9" cy="557.2" r="2.3" fill="#8a9040" opacity="0.41"/>
  <circle cx="477.9" cy="557.2" r="7.0" fill="#8a9040" opacity="0.083"/>
  <circle cx="742.1" cy="223.9" r="2.0" fill="#8a9040" opacity="0.41"/>
  <circle cx="742.1" cy="223.9" r="5.9" fill="#8a9040" opacity="0.082"/>
  <circle cx="962.5" cy="530.0" r="1.2" fill="#8a9040" opacity="0.48"/>
  <circle cx="962.5" cy="530.0" r="3.5" fill="#8a9040" opacity="0.095"/>
  <circle cx="744.0" cy="499.1" r="1.1" fill="#8a9040" opacity="0.35"/>
  <circle cx="744.0" cy="499.1" r="3.2" fill="#8a9040" opacity="0.070"/>
  <circle cx="501.7" cy="324.8" r="2.4" fill="#8a9040" opacity="0.28"/>
  <circle cx="501.7" cy="324.8" r="7.1" fill="#8a9040" opacity="0.056"/>
  <circle cx="316.0" cy="214.0" r="1.0" fill="#8a9040" opacity="0.53"/>
  <circle cx="316.0" cy="214.0" r="3.1" fill="#8a9040" opacity="0.106"/>
  <circle cx="980.0" cy="231.6" r="2.4" fill="#8a9040" opacity="0.24"/>
  <circle cx="980.0" cy="231.6" r="7.3" fill="#8a9040" opacity="0.048"/>
  <circle cx="1135.4" cy="532.1" r="2.1" fill="#8a9040" opacity="0.22"/>
  <circle cx="1135.4" cy="532.1" r="6.3" fill="#8a9040" opacity="0.044"/>
  <circle cx="812.5" cy="607.8" r="1.5" fill="#8a9040" opacity="0.45"/>
  <circle cx="812.5" cy="607.8" r="4.5" fill="#8a9040" opacity="0.090"/>
  <circle cx="924.7" cy="667.2" r="1.6" fill="#8a9040" opacity="0.37"/>
  <circle cx="924.7" cy="667.2" r="4.8" fill="#8a9040" opacity="0.074"/>
  <circle cx="532.4" cy="252.9" r="1.5" fill="#8a9040" opacity="0.21"/>
  <circle cx="532.4" cy="252.9" r="4.5" fill="#8a9040" opacity="0.041"/>
  <circle cx="954.0" cy="206.0" r="1.3" fill="#8a9040" opacity="0.29"/>
  <circle cx="954.0" cy="206.0" r="4.0" fill="#8a9040" opacity="0.058"/>
  <circle cx="958.0" cy="339.2" r="1.9" fill="#8a9040" opacity="0.22"/>
  <circle cx="958.0" cy="339.2" r="5.8" fill="#8a9040" opacity="0.044"/>
  <circle cx="1185.5" cy="405.5" r="2.2" fill="#8a9040" opacity="0.40"/>
  <circle cx="1185.5" cy="405.5" r="6.5" fill="#8a9040" opacity="0.080"/>
  <circle cx="1290.5" cy="556.3" r="2.2" fill="#8a9040" opacity="0.57"/>
  <circle cx="1290.5" cy="556.3" r="6.6" fill="#8a9040" opacity="0.114"/>
  <ellipse cx="1100" cy="400" rx="350" ry="300" fill="url(#glowGold)" filter="url(#blur3)" opacity="0.7"/>
  <circle cx="1173" cy="119" r="1.4" fill="#e8b840" opacity="0.23"/>
  <circle cx="1266" cy="698" r="2.0" fill="#e8b840" opacity="0.39"/>
  <circle cx="1317" cy="673" r="1.4" fill="#e8b840" opacity="0.42"/>
  <circle cx="795" cy="202" r="1.9" fill="#e8b840" opacity="0.48"/>
  <circle cx="684" cy="696" r="0.8" fill="#e8b840" opacity="0.57"/>
  <circle cx="861" cy="330" r="1.1" fill="#e8b840" opacity="0.49"/>
  <circle cx="1133" cy="671" r="1.6" fill="#e8b840" opacity="0.47"/>
  <circle cx="1338" cy="480" r="1.4" fill="#e8b840" opacity="0.52"/>
  <circle cx="866" cy="234" r="1.5" fill="#e8b840" opacity="0.57"/>
  <circle cx="652" cy="306" r="1.9" fill="#e8b840" opacity="0.50"/>
  <circle cx="1180" cy="492" r="1.7" fill="#e8b840" opacity="0.59"/>
  <circle cx="950" cy="240" r="1.1" fill="#e8b840" opacity="0.32"/>
  <circle cx="689" cy="304" r="1.5" fill="#e8b840" opacity="0.28"/>
  <circle cx="1354" cy="444" r="1.0" fill="#e8b840" opacity="0.33"/>
  <circle cx="904" cy="542" r="1.2" fill="#e8b840" opacity="0.44"/>
  <circle cx="752" cy="333" r="1.3" fill="#e8b840" opacity="0.51"/>
  <circle cx="1238" cy="660" r="1.0" fill="#e8b840" opacity="0.47"/>
  <circle cx="1073" cy="164" r="0.8" fill="#e8b840" opacity="0.54"/>
  <circle cx="853" cy="590" r="1.2" fill="#e8b840" opacity="0.29"/>
  <circle cx="1144" cy="188" r="1.1" fill="#e8b840" opacity="0.50"/>
</svg>