<svg xmlns="http://www.w3.org/2000/svg" viewBox="0 0 800 600" width="800" height="600">
  <defs>
    <linearGradient id="bg" x1="0" y1="0" x2="0" y2="1">
      <stop offset="0%" stop-color="#1a2a1e"/>
      <stop offset="50%" stop-color="#142014"/>
      <stop offset="100%" stop-color="#1a2a1e"/>
    </linearGradient>
    <radialGradient id="glow1" cx="50%" cy="50%" r="50%">
      <stop offset="0%" stop-color="#c8e080" stop-opacity="0.15"/>
      <stop offset="100%" stop-color="#c8e080" stop-opacity="0"/>
    </radialGradient>
    <radialGradient id="glow2" cx="50%" cy="50%" r="50%">
      <stop offset="0%" stop-color="#5ba8c8" stop-opacity="0.1"/>
      <stop offset="100%" stop-color="#5ba8c8" stop-opacity="0"/>
    </radialGradient>
    <filter id="blur1"><feGaussianBlur stdDeviation="3"/></filter>
    <filter id="blur2"><feGaussianBlur stdDeviation="8"/></filter>
    <filter id="blur3"><feGaussianBlur stdDeviation="20"/></filter>
  </defs>
  <rect width="800" height="600" fill="url(#bg)"/>
  <ellipse cx="400" cy="300" rx="300" ry="250" fill="#142014" opacity="0.3"/>
  <ellipse cx="400" cy="300" rx="180" ry="150" fill="#1a3018" opacity="0.2"/>
  <path d="M775,399 Q685,364 541,337" stroke="#1a3018" stroke-width="5.7" fill="none" opacity="0.32"/>
  <path d="M252,550 Q319,446 367,356" stroke="#1a3018" stroke-width="5.1" fill="none" opacity="0.30"/>
  <path d="M367,-37 Q370,104 392,221" stroke="#1a3018" stroke-width="2.7" fill="none" opacity="0.26"/>
  <path d="M225,-32 Q276,88 376,254" stroke="#1a3018" stroke-width="3.8" fill="none" opacity="0.19"/>
  <path d="M342,573 Q341,489 389,352" stroke="#1a3018" stroke-width="4.6" fill="none" opacity="0.32"/>
  <path d="M729,194 Q616,245 549,252" stroke="#1a3018" stroke-width="2.5" fill="none" opacity="0.28"/>
  <path d="M671,103 Q638,156 558,185" stroke="#1a3018" stroke-width="3.0" fill="none" opacity="0.24"/>
  <path d="M718,165 Q633,191 573,226" stroke="#1a3018" stroke-width="5.6" fill="none" opacity="0.30"/>
  <path d="M278,546 Q342,443 373,355" stroke="#1a3018" stroke-width="3.3" fill="none" opacity="0.16"/>
  <path d="M679,220 Q595,270 512,268" stroke="#1a3018" stroke-width="4.4" fill="none" opacity="0.19"/>
  <path d="M129,314 Q165,319 235,308" stroke="#1a3018" stroke-width="5.7" fill="none" opacity="0.29"/>
  <path d="M608,458 Q543,417 508,382" stroke="#1a3018" stroke-width="5.6" fill="none" opacity="0.18"/>
  <path d="M152,-1 Q214,104 305,184" stroke="#1a3018" stroke-width="5.6" fill="none" opacity="0.26"/>
  <path d="M11,262 Q140,296 277,288" stroke="#1a3018" stroke-width="5.1" fill="none" opacity="0.31"/>
  <path d="M157,238 Q204,244 213,252" stroke="#1a3018" stroke-width="4.3" fill="none" opacity="0.34"/>
  <path d="M177,573 Q262,507 330,385" stroke="#1a3018" stroke-width="2.4" fill="none" opacity="0.26"/>
  <path d="M654,236 Q601,263 515,271" stroke="#1a3018" stroke-width="2.7" fill="none" opacity="0.16"/>
  <path d="M192,485 Q262,452 285,403" stroke="#1a3018" stroke-width="3.4" fill="none" opacity="0.17"/>
  <path d="M158,33 Q237,153 352,247" stroke="#1a3018" stroke-width="4.4" fill="none" opacity="0.25"/>
  <path d="M705,428 Q599,402 489,337" stroke="#1a3018" stroke-width="3.8" fill="none" opacity="0.35"/>
  <line x1="400" y1="300" x2="261" y2="452" stroke="#e8d880" stroke-width="67" opacity="0.016" stroke-linecap="round"/>
  <line x1="400" y1="300" x2="239" y2="530" stroke="#e8d880" stroke-width="60" opacity="0.029" stroke-linecap="round"/>
  <line x1="400" y1="300" x2="481" y2="576" stroke="#e8d880" stroke-width="29" opacity="0.032" stroke-linecap="round"/>
  <line x1="400" y1="300" x2="528" y2="458" stroke="#e8d880" stroke-width="28" opacity="0.035" stroke-linecap="round"/>
  <line x1="400" y1="300" x2="387" y2="591" stroke="#e8d880" stroke-width="23" opacity="0.036" stroke-linecap="round"/>
  <line x1="400" y1="300" x2="279" y2="480" stroke="#e8d880" stroke-width="23" opacity="0.024" stroke-linecap="round"/>
  <ellipse cx="400" cy="300" rx="100" ry="80" fill="url(#glow1)" filter="url(#blur3)"/>
  <circle cx="576.2" cy="278.1" r="2.3" fill="#c8e060" opacity="0.64"/>
  <circle cx="576.2" cy="278.1" r="7.0" fill="#c8e060" opacity="0.095"/>
  <circle cx="590.7" cy="103.2" r="3.0" fill="#c8e060" opacity="0.72"/>
  <circle cx="590.7" cy="103.2" r="9.0" fill="#c8e060" opacity="0.108"/>
  <circle cx="232.3" cy="452.2" r="2.9" fill="#c8e060" opacity="0.72"/>
  <circle cx="232.3" cy="452.2" r="8.6" fill="#c8e060" opacity="0.109"/>
  <circle cx="689.3" cy="389.2" r="2.6" fill="#c8e060" opacity="0.79"/>
  <circle cx="689.3" cy="389.2" r="7.9" fill="#c8e060" opacity="0.119"/>
  <circle cx="445.6" cy="118.7" r="3.7" fill="#c8e060" opacity="0.72"/>
  <circle cx="445.6" cy="118.7" r="11.0" fill="#c8e060" opacity="0.108"/>
  <circle cx="558.5" cy="346.5" r="2.7" fill="#c8e060" opacity="0.45"/>
  <circle cx="558.5" cy="346.5" r="8.0" fill="#c8e060" opacity="0.067"/>
  <circle cx="184.7" cy="257.6" r="3.4" fill="#c8e060" opacity="0.62"/>
  <circle cx="184.7" cy="257.6" r="10.2" fill="#c8e060" opacity="0.093"/>
  <circle cx="363.2" cy="512.8" r="2.1" fill="#c8e060" opacity="0.44"/>
  <circle cx="363.2" cy="512.8" r="6.2" fill="#c8e060" opacity="0.066"/>
  <circle cx="608.4" cy="356.2" r="3.6" fill="#c8e060" opacity="0.41"/>
  <circle cx="608.4" cy="356.2" r="10.7" fill="#c8e060" opacity="0.061"/>
  <circle cx="392.2" cy="53.2" r="2.4" fill="#c8e060" opacity="0.44"/>
  <circle cx="392.2" cy="53.2" r="7.1" fill="#c8e060" opacity="0.065"/>
  <circle cx="491.1" cy="493.5" r="2.8" fill="#c8e060" opacity="0.72"/>
  <circle cx="491.1" cy="493.5" r="8.5" fill="#c8e060" opacity="0.108"/>
  <circle cx="563.5" cy="396.2" r="2.4" fill="#c8e060" opacity="0.66"/>
  <circle cx="563.5" cy="396.2" r="7.2" fill="#c8e060" opacity="0.098"/>
  <circle cx="413.9" cy="256.0" r="3.9" fill="#c8e060" opacity="0.64"/>
  <circle cx="413.9" cy="256.0" r="11.6" fill="#c8e060" opacity="0.097"/>
  <circle cx="122.6" cy="140.0" r="3.0" fill="#c8e060" opacity="0.78"/>
  <circle cx="122.6" cy="140.0" r="9.0" fill="#c8e060" opacity="0.117"/>
  <circle cx="476.3" cy="441.3" r="2.7" fill="#c8e060" opacity="0.40"/>
  <circle cx="476.3" cy="441.3" r="8.1" fill="#c8e060" opacity="0.060"/>
  <circle cx="241.4" cy="108.8" r="3.1" fill="#c8e060" opacity="0.44"/>
  <circle cx="241.4" cy="108.8" r="9.2" fill="#c8e060" opacity="0.066"/>
  <circle cx="317.1" cy="430.6" r="3.1" fill="#c8e060" opacity="0.49"/>
  <circle cx="317.1" cy="430.6" r="9.2" fill="#c8e060" opacity="0.073"/>
  <circle cx="562.2" cy="379.7" r="2.6" fill="#c8e060" opacity="0.48"/>
  <circle cx="562.2" cy="379.7" r="7.7" fill="#c8e060" opacity="0.072"/>
  <circle cx="578.0" cy="392.6" r="3.9" fill="#c8e060" opacity="0.59"/>
  <circle cx="578.0" cy="392.6" r="11.8" fill="#c8e060" opacity="0.088"/>
  <circle cx="205.8" cy="385.1" r="2.1" fill="#c8e060" opacity="0.66"/>
  <circle cx="205.8" cy="385.1" r="6.3" fill="#c8e060" opacity="0.099"/>
  <circle cx="271.0" cy="267.3" r="2.7" fill="#c8e060" opacity="0.72"/>
  <circle cx="271.0" cy="267.3" r="8.0" fill="#c8e060" opacity="0.108"/>
  <circle cx="555.0" cy="71.7" r="3.5" fill="#c8e060" opacity="0.77"/>
  <circle cx="555.0" cy="71.7" r="10.4" fill="#c8e060" opacity="0.115"/>
  <circle cx="205.5" cy="442.7" r="3.0" fill="#c8e060" opacity="0.45"/>
  <circle cx="205.5" cy="442.7" r="8.9" fill="#c8e060" opacity="0.067"/>
  <circle cx="637.0" cy="410.7" r="3.2" fill="#c8e060" opacity="0.53"/>
  <circle cx="637.0" cy="410.7" r="9.6" fill="#c8e060" opacity="0.080"/>
  <circle cx="219.3" cy="388.4" r="2.7" fill="#c8e060" opacity="0.71"/>
  <circle cx="219.3" cy="388.4" r="8.0" fill="#c8e060" opacity="0.107"/>
</svg>