<svg xmlns="http://www.w3.org/2000/svg" viewBox="0 0 1600 900" width="1600" height="900">
  <defs>
    <linearGradient id="bg" x1="0" y1="0" x2="0" y2="1">
      <stop offset="0%" stop-color="#141310"/>
      <stop offset="50%" stop-color="#1a1a14"/>
      <stop offset="100%" stop-color="#141310"/>
    </linearGradient>
    <radialGradient id="glow1" cx="50%" cy="50%" r="50%">
      <stop offset="0%" stop-color="#e8d060" stop-opacity="0.25"/>
      <stop offset="100%" stop-color="#b89b3e" stop-opacity="0"/>
    </radialGradient>
    <radialGradient id="glow2" cx="50%" cy="50%" r="50%">
      <stop offset="0%" stop-color="#b89b3e" stop-opacity="0.2"/>
      <stop offset="100%" stop-color="#b89b3e" stop-opacity="0"/>
    </radialGradient>
    <radialGradient id="glowGold" cx="50%" cy="50%" r="50%">
      <stop offset="0%" stop-color="#e8b840" stop-opacity="0.3"/>
      <stop offset="100%" stop-color="#e8b840" stop-opacity="0"/>
    </radialGradient>
    <filter id="blur1"><feGaussianBlur stdDeviation="3"/></filter>
    <filter id="blur2"><feGaussianBlur stdDeviation="8"/></filter>
    <filter id="blur3"><feGaussianBlur stdDeviation="20"/></filter>
  </defs>
  <rect width="1600" height="900" fill="url(#bg)"/>
  <ellipse cx="1424" cy="824" rx="141" ry="181" fill="#28261c" opacity="0.26" transform="rotate(99 1424 824)"/>
  <ellipse cx="128" cy="702" rx="119" ry="158" fill="#28261c" opacity="0.25" transform="rotate(316 128 702)"/>
  <ellipse cx="1312" cy="742" rx="152" ry="121" fill="#28261c" opacity="0.20" transform="rotate(263 1312 742)"/>
  <ellipse cx="876" cy="294" rx="151" ry="162" fill="#22201a" opacity="0.23" transform="rotate(285 876 294)"/>
  <ellipse cx="218" cy="361" rx="141" ry="90" fill="#22201a" opacity="0.14" transform="rotate(90 218 361)"/>
  <ellipse cx="1142" cy="691" rx="144" ry="61" fill="#28261c" opacity="0.26" transform="rotate(115 1142 691)"/>
  <ellipse cx="765" cy="662" rx="82" ry="150" fill="#28261c" opacity="0.26" transform="rotate(72 765 662)"/>
  <ellipse cx="663" cy="164" rx="180" ry="191" fill="#22201a" opacity="0.12" transform="rotate(8 663 164)"/>
  <path d="M894,165 Q869,359 881,553" stroke="#343222" stroke-width="2.4" fill="none" opacity="0.24"/>
  <path d="M1363,13 Q1369,371 1366,728" stroke="#343222" stroke-width="4.9" fill="none" opacity="0.18"/>
  <path d="M272,153 Q274,305 273,456" stroke="#343222" stroke-width="4.7" fill="none" opacity="0.30"/>
  <path d="M1324,133 Q1306,342 1315,551" stroke="#343222" stroke-width="4.3" fill="none" opacity="0.34"/>
  <path d="M426,202 Q422,412 424,622" stroke="#343222" stroke-width="2.3" fill="none" opacity="0.19"/>
  <path d="M1319,196 Q1299,366 1309,535" stroke="#343222" stroke-width="1.6" fill="none" opacity="0.31"/>
  <path d="M1562,64 Q1547,358 1554,653" stroke="#343222" stroke-width="3.8" fill="none" opacity="0.27"/>
  <path d="M137,127 Q166,484 151,842" stroke="#343222" stroke-width="2.2" fill="none" opacity="0.23"/>
  <path d="M614,114 Q588,417 601,719" stroke="#343222" stroke-width="1.7" fill="none" opacity="0.26"/>
  <path d="M1490,127 Q1496,368 1493,609" stroke="#343222" stroke-width="4.3" fill="none" opacity="0.28"/>
  <ellipse cx="1098" cy="150" rx="414" ry="75" fill="#323024" opacity="0.134" filter="url(#blur3)"/>
  <ellipse cx="1373" cy="270" rx="601" ry="68" fill="#24221c" opacity="0.167" filter="url(#blur3)"/>
  <ellipse cx="897" cy="390" rx="478" ry="90" fill="#302e22" opacity="0.172" filter="url(#blur3)"/>
  <ellipse cx="358" cy="510" rx="495" ry="92" fill="#24221c" opacity="0.077" filter="url(#blur3)"/>
  <ellipse cx="576" cy="630" rx="694" ry="90" fill="#302e22" opacity="0.177" filter="url(#blur3)"/>
  <ellipse cx="1097" cy="750" rx="678" ry="77" fill="#24221c" opacity="0.165" filter="url(#blur3)"/>
  <path d="M1271,358 Q1222,404 1198,456" stroke="#5a5838" stroke-width="1" fill="none" opacity="0.039"/>
  <path d="M382,627 Q462,562 512,553" stroke="#5a5838" stroke-width="1" fill="none" opacity="0.025"/>
  <path d="M264,274 Q301,293 348,247" stroke="#5a5838" stroke-width="1" fill="none" opacity="0.056"/>
  <path d="M512,553 Q427,536 402,454" stroke="#5a5838" stroke-width="1" fill="none" opacity="0.026"/>
  <path d="M512,553 Q506,514 572,542" stroke="#5a5838" stroke-width="1" fill="none" opacity="0.070"/>
  <path d="M1313,220 Q1227,243 1204,277" stroke="#5a5838" stroke-width="1" fill="none" opacity="0.039"/>
  <path d="M1313,220 Q1289,238 1239,245" stroke="#5a5838" stroke-width="1" fill="none" opacity="0.061"/>
  <path d="M782,446 Q823,436 903,492" stroke="#5a5838" stroke-width="1" fill="none" opacity="0.036"/>
  <path d="M782,446 Q846,350 883,306" stroke="#5a5838" stroke-width="1" fill="none" opacity="0.013"/>
  <path d="M782,446 Q711,390 658,399" stroke="#5a5838" stroke-width="1" fill="none" opacity="0.033"/>
  <path d="M402,454 Q380,446 345,445" stroke="#5a5838" stroke-width="1" fill="none" opacity="0.071"/>
  <path d="M903,492 Q995,597 1012,644" stroke="#5a5838" stroke-width="1" fill="none" opacity="0.006"/>
  <path d="M903,492 Q935,464 1017,397" stroke="#5a5838" stroke-width="1" fill="none" opacity="0.026"/>
  <path d="M885,408 Q954,363 1017,397" stroke="#5a5838" stroke-width="1" fill="none" opacity="0.034"/>
  <path d="M885,408 Q912,416 991,427" stroke="#5a5838" stroke-width="1" fill="none" opacity="0.046"/>
  <path d="M1204,277 Q1215,382 1198,456" stroke="#5a5838" stroke-width="1" fill="none" opacity="0.010"/>
  <path d="M991,427 Q921,336 883,306" stroke="#5a5838" stroke-width="1" fill="none" opacity="0.019"/>
  <path d="M991,427 Q1032,346 1135,342" stroke="#5a5838" stroke-width="1" fill="none" opacity="0.017"/>
  <path d="M588,228 Q635,326 658,399" stroke="#5a5838" stroke-width="1" fill="none" opacity="0.007"/>
  <circle cx="935.5" cy="580.8" r="1.5" fill="#6a6840" opacity="0.13"/>
  <circle cx="935.5" cy="580.8" r="4.6" fill="#6a6840" opacity="0.027"/>
  <circle cx="1271.2" cy="357.8" r="3.0" fill="#6a6840" opacity="0.21"/>
  <circle cx="1271.2" cy="357.8" r="9.0" fill="#6a6840" opacity="0.042"/>
  <circle cx="381.5" cy="626.5" r="2.3" fill="#6a6840" opacity="0.22"/>
  <circle cx="381.5" cy="626.5" r="6.9" fill="#6a6840" opacity="0.043"/>
  <circle cx="263.9" cy="274.3" r="1.5" fill="#6a6840" opacity="0.09"/>
  <circle cx="263.9" cy="274.3" r="4.4" fill="#6a6840" opacity="0.017"/>
  <circle cx="512.3" cy="553.0" r="1.9" fill="#6a6840" opacity="0.25"/>
  <circle cx="512.3" cy="553.0" r="5.6" fill="#6a6840" opacity="0.050"/>
  <circle cx="1312.6" cy="220.4" r="1.7" fill="#6a6840" opacity="0.20"/>
  <circle cx="1312.6" cy="220.4" r="5.1" fill="#6a6840" opacity="0.040"/>
  <circle cx="782.2" cy="446.5" r="2.7" fill="#6a6840" opacity="0.23"/>
  <circle cx="782.2" cy="446.5" r="8.1" fill="#6a6840" opacity="0.045"/>
  <circle cx="348.4" cy="246.8" r="2.7" fill="#6a6840" opacity="0.11"/>
  <circle cx="348.4" cy="246.8" r="8.2" fill="#6a6840" opacity="0.022"/>
  <circle cx="402.0" cy="454.4" r="1.5" fill="#6a6840" opacity="0.23"/>
  <circle cx="402.0" cy="454.4" r="4.6" fill="#6a6840" opacity="0.046"/>
  <circle cx="902.8" cy="491.8" r="2.9" fill="#6a6840" opacity="0.17"/>
  <circle cx="902.8" cy="491.8" r="8.8" fill="#6a6840" opacity="0.034"/>
  <circle cx="884.9" cy="408.2" r="1.2" fill="#6a6840" opacity="0.21"/>
  <circle cx="884.9" cy="408.2" r="3.5" fill="#6a6840" opacity="0.042"/>
  <circle cx="1012.3" cy="643.7" r="1.1" fill="#6a6840" opacity="0.20"/>
  <circle cx="1012.3" cy="643.7" r="3.2" fill="#6a6840" opacity="0.039"/>
  <circle cx="1016.8" cy="397.1" r="2.2" fill="#6a6840" opacity="0.24"/>
  <circle cx="1016.8" cy="397.1" r="6.5" fill="#6a6840" opacity="0.048"/>
  <circle cx="1204.4" cy="276.9" r="1.2" fill="#6a6840" opacity="0.22"/>
  <circle cx="1204.4" cy="276.9" r="3.5" fill="#6a6840" opacity="0.044"/>
  <circle cx="991.4" cy="427.0" r="2.9" fill="#6a6840" opacity="0.18"/>
  <circle cx="991.4" cy="427.0" r="8.7" fill="#6a6840" opacity="0.036"/>
  <circle cx="207.0" cy="684.9" r="2.3" fill="#6a6840" opacity="0.24"/>
  <circle cx="207.0" cy="684.9" r="6.9" fill="#6a6840" opacity="0.048"/>
  <circle cx="589.9" cy="565.8" r="2.5" fill="#6a6840" opacity="0.24"/>
  <circle cx="589.9" cy="565.8" r="7.4" fill="#6a6840" opacity="0.049"/>
  <circle cx="883.0" cy="305.7" r="1.1" fill="#6a6840" opacity="0.19"/>
  <circle cx="883.0" cy="305.7" r="3.3" fill="#6a6840" opacity="0.038"/>
  <circle cx="587.8" cy="227.8" r="1.1" fill="#6a6840" opacity="0.24"/>
  <circle cx="587.8" cy="227.8" r="3.4" fill="#6a6840" opacity="0.048"/>
  <circle cx="657.7" cy="399.4" r="1.4" fill="#6a6840" opacity="0.24"/>
  <circle cx="657.7" cy="399.4" r="4.1" fill="#6a6840" opacity="0.049"/>
  <circle cx="1238.6" cy="244.6" r="2.7" fill="#6a6840" opacity="0.11"/>
  <circle cx="1238.6" cy="244.6" r="8.1" fill="#6a6840" opacity="0.022"/>
  <circle cx="1135.4" cy="342.5" r="2.5" fill="#6a6840" opacity="0.19"/>
  <circle cx="1135.4" cy="342.5" r="7.5" fill="#6a6840" opacity="0.038"/>
  <circle cx="344.7" cy="445.4" r="1.9" fill="#6a6840" opacity="0.22"/>
  <circle cx="344.7" cy="445.4" r="5.6" fill="#6a6840" opacity="0.043"/>
  <circle cx="572.1" cy="542.5" r="1.3" fill="#6a6840" opacity="0.19"/>
  <circle cx="572.1" cy="542.5" r="3.8" fill="#6a6840" opacity="0.039"/>
  <circle cx="1198.5" cy="456.3" r="2.0" fill="#6a6840" opacity="0.23"/>
  <circle cx="1198.5" cy="456.3" r="5.9" fill="#6a6840" opacity="0.046"/>
  <ellipse cx="800" cy="200" rx="300" ry="150" fill="#e8b840" opacity="0.03" filter="url(#blur3)"/>
</svg>