<svg xmlns="http://www.w3.org/2000/svg" viewBox="0 0 1600 900" width="1600" height="900">
  <defs>
    <linearGradient id="bg" x1="0" y1="0" x2="0" y2="1">
      <stop offset="0%" stop-color="#141e18"/>
      <stop offset="40%" stop-color="#1a2a1a"/>
      <stop offset="100%" stop-color="#141e18"/>
    </linearGradient>
    <radialGradient id="glow1" cx="50%" cy="50%" r="50%">
      <stop offset="0%" stop-color="#c8e080" stop-opacity="0.15"/>
      <stop offset="100%" stop-color="#c8e080" stop-opacity="0"/>
    </radialGradient>
    <radialGradient id="glow2" cx="50%" cy="50%" r="50%">
      <stop offset="0%" stop-color="#5ba8c8" stop-opacity="0.1"/>
      <stop offset="100%" stop-color="#5ba8c8" stop-opacity="0"/>
    </radialGradient>
    <filter id="blur1"><feGaussianBlur stdDeviation="3"/></filter>
    <filter id="blur2"><feGaussianBlur stdDeviation="8"/></filter>
    <filter id="blur3"><feGaussianBlur stdDeviation="20"/></filter>
  </defs>
  <rect width="1600" height="900" fill="url(#bg)"/>
  <ellipse cx="939" cy="77" rx="73" ry="116" fill="#142014" opacity="0.09" transform="rotate(346 939 77)"/>
  <ellipse cx="1210" cy="80" rx="106" ry="186" fill="#142014" opacity="0.11" transform="rotate(166 1210 80)"/>
  <ellipse cx="909" cy="823" rx="72" ry="173" fill="#142014" opacity="0.17" transform="rotate(15 909 823)"/>
  <ellipse cx="1322" cy="751" rx="89" ry="129" fill="#142014" opacity="0.12" transform="rotate(285 1322 751)"/>
  <ellipse cx="246" cy="270" rx="142" ry="142" fill="#1a2a1e" opacity="0.19" transform="rotate(321 246 270)"/>
  <ellipse cx="667" cy="443" rx="150" ry="79" fill="#1a2a1e" opacity="0.21" transform="rotate(177 667 443)"/>
  <ellipse cx="1553" cy="539" rx="98" ry="117" fill="#142014" opacity="0.23" transform="rotate(226 1553 539)"/>
  <ellipse cx="762" cy="625" rx="59" ry="122" fill="#1a2a1e" opacity="0.22" transform="rotate(59 762 625)"/>
  <path d="M94,86 Q72,466 83,845" stroke="#1a3a18" stroke-width="1.8" fill="none" opacity="0.12"/>
  <path d="M671,246 Q659,428 665,610" stroke="#1a3a18" stroke-width="3.8" fill="none" opacity="0.18"/>
  <path d="M822,207 Q798,370 810,532" stroke="#1a3a18" stroke-width="2.6" fill="none" opacity="0.21"/>
  <path d="M1396,223 Q1384,491 1390,758" stroke="#1a3a18" stroke-width="3.1" fill="none" opacity="0.20"/>
  <path d="M153,157 Q124,489 139,820" stroke="#1a3a18" stroke-width="2.1" fill="none" opacity="0.18"/>
  <path d="M776,92 Q752,476 764,860" stroke="#1a3a18" stroke-width="1.7" fill="none" opacity="0.12"/>
  <path d="M301,242 Q321,484 311,726" stroke="#1a3a18" stroke-width="2.6" fill="none" opacity="0.18"/>
  <path d="M882,204 Q879,353 881,501" stroke="#1a3a18" stroke-width="3.5" fill="none" opacity="0.11"/>
  <line x1="1100" y1="-30" x2="1436" y2="387" stroke="#e8d880" stroke-width="39" opacity="0.035" stroke-linecap="round"/>
  <line x1="1100" y1="-30" x2="1500" y2="689" stroke="#e8d880" stroke-width="56" opacity="0.051" stroke-linecap="round"/>
  <line x1="1100" y1="-30" x2="926" y2="645" stroke="#e8d880" stroke-width="22" opacity="0.053" stroke-linecap="round"/>
  <line x1="1100" y1="-30" x2="756" y2="692" stroke="#e8d880" stroke-width="29" opacity="0.029" stroke-linecap="round"/>
  <line x1="1100" y1="-30" x2="936" y2="210" stroke="#e8d880" stroke-width="25" opacity="0.048" stroke-linecap="round"/>
  <line x1="1100" y1="-30" x2="1212" y2="199" stroke="#e8d880" stroke-width="66" opacity="0.050" stroke-linecap="round"/>
  <line x1="1100" y1="-30" x2="916" y2="175" stroke="#e8d880" stroke-width="68" opacity="0.041" stroke-linecap="round"/>
  <line x1="1100" y1="-30" x2="916" y2="186" stroke="#e8d880" stroke-width="35" opacity="0.023" stroke-linecap="round"/>
  <line x1="1100" y1="-30" x2="1293" y2="672" stroke="#e8d880" stroke-width="67" opacity="0.057" stroke-linecap="round"/>
  <line x1="1100" y1="-30" x2="723" y2="710" stroke="#e8d880" stroke-width="31" opacity="0.034" stroke-linecap="round"/>
  <line x1="1100" y1="-30" x2="618" y2="598" stroke="#e8d880" stroke-width="77" opacity="0.058" stroke-linecap="round"/>
  <line x1="1100" y1="-30" x2="1025" y2="273" stroke="#e8d880" stroke-width="50" opacity="0.049" stroke-linecap="round"/>
  <line x1="1100" y1="-30" x2="859" y2="519" stroke="#e8d880" stroke-width="26" opacity="0.043" stroke-linecap="round"/>
  <line x1="1100" y1="-30" x2="853" y2="221" stroke="#e8d880" stroke-width="31" opacity="0.031" stroke-linecap="round"/>
  <line x1="1100" y1="-30" x2="1445" y2="431" stroke="#e8d880" stroke-width="78" opacity="0.024" stroke-linecap="round"/>
  <line x1="1050" y1="-20" x2="806" y2="476" stroke="#f0e8a0" stroke-width="62" opacity="0.017" stroke-linecap="round"/>
  <line x1="1050" y1="-20" x2="1122" y2="483" stroke="#f0e8a0" stroke-width="77" opacity="0.014" stroke-linecap="round"/>
  <line x1="1050" y1="-20" x2="943" y2="433" stroke="#f0e8a0" stroke-width="33" opacity="0.015" stroke-linecap="round"/>
  <line x1="1050" y1="-20" x2="534" y2="704" stroke="#f0e8a0" stroke-width="27" opacity="0.012" stroke-linecap="round"/>
  <line x1="1050" y1="-20" x2="646" y2="593" stroke="#f0e8a0" stroke-width="62" opacity="0.021" stroke-linecap="round"/>
  <line x1="1050" y1="-20" x2="762" y2="299" stroke="#f0e8a0" stroke-width="27" opacity="0.016" stroke-linecap="round"/>
  <line x1="1050" y1="-20" x2="1117" y2="393" stroke="#f0e8a0" stroke-width="79" opacity="0.019" stroke-linecap="round"/>
  <line x1="1050" y1="-20" x2="1085" y2="382" stroke="#f0e8a0" stroke-width="71" opacity="0.014" stroke-linecap="round"/>
  <ellipse cx="456" cy="400" rx="468" ry="59" fill="#1a3018" opacity="0.064" filter="url(#blur3)"/>
  <ellipse cx="543" cy="500" rx="500" ry="60" fill="#1a3018" opacity="0.035" filter="url(#blur3)"/>
  <ellipse cx="750" cy="600" rx="432" ry="43" fill="#1a3018" opacity="0.037" filter="url(#blur3)"/>
  <ellipse cx="720" cy="700" rx="418" ry="44" fill="#1a3018" opacity="0.076" filter="url(#blur3)"/>
  <path d="M1278,232 Q1260,224 1253,216" stroke="#a0c840" stroke-width="0.8" fill="none" opacity="0.053"/>
  <path d="M895,695 Q904,630 985,486" stroke="#a0c840" stroke-width="0.8" fill="none" opacity="0.005"/>
  <path d="M895,695 Q911,661 888,693" stroke="#a0c840" stroke-width="0.8" fill="none" opacity="0.058"/>
  <path d="M1025,339 Q1046,285 1093,301" stroke="#a0c840" stroke-width="0.8" fill="none" opacity="0.041"/>
  <path d="M1025,339 Q940,380 807,396" stroke="#a0c840" stroke-width="0.8" fill="none" opacity="0.006"/>
  <path d="M1025,339 Q995,352 917,376" stroke="#a0c840" stroke-width="0.8" fill="none" opacity="0.033"/>
  <path d="M1025,339 Q985,342 961,324" stroke="#a0c840" stroke-width="0.8" fill="none" opacity="0.044"/>
  <path d="M573,595 Q537,606 579,584" stroke="#a0c840" stroke-width="0.8" fill="none" opacity="0.057"/>
  <path d="M573,595 Q604,503 562,372" stroke="#a0c840" stroke-width="0.8" fill="none" opacity="0.006"/>
  <path d="M776,502 Q818,411 917,376" stroke="#a0c840" stroke-width="0.8" fill="none" opacity="0.015"/>
  <path d="M776,502 Q827,583 888,693" stroke="#a0c840" stroke-width="0.8" fill="none" opacity="0.007"/>
  <path d="M776,502 Q682,469 636,451" stroke="#a0c840" stroke-width="0.8" fill="none" opacity="0.024"/>
  <path d="M579,584 Q578,470 562,372" stroke="#a0c840" stroke-width="0.8" fill="none" opacity="0.009"/>
  <path d="M579,584 Q607,450 684,357" stroke="#a0c840" stroke-width="0.8" fill="none" opacity="0.000"/>
  <path d="M797,514 Q775,426 807,396" stroke="#a0c840" stroke-width="0.8" fill="none" opacity="0.031"/>
  <path d="M797,514 Q881,458 917,376" stroke="#a0c840" stroke-width="0.8" fill="none" opacity="0.016"/>
  <path d="M797,514 Q861,620 868,651" stroke="#a0c840" stroke-width="0.8" fill="none" opacity="0.023"/>
  <path d="M797,514 Q864,526 873,604" stroke="#a0c840" stroke-width="0.8" fill="none" opacity="0.032"/>
  <path d="M353,234 Q388,271 397,373" stroke="#a0c840" stroke-width="0.8" fill="none" opacity="0.025"/>
  <path d="M683,540 Q652,467 684,357" stroke="#a0c840" stroke-width="0.8" fill="none" opacity="0.016"/>
  <path d="M396,238 Q395,337 333,478" stroke="#a0c840" stroke-width="0.8" fill="none" opacity="0.000"/>
  <path d="M396,238 Q387,217 328,223" stroke="#a0c840" stroke-width="0.8" fill="none" opacity="0.043"/>
  <path d="M396,238 Q378,280 320,363" stroke="#a0c840" stroke-width="0.8" fill="none" opacity="0.025"/>
  <path d="M1093,301 Q1023,411 1006,446" stroke="#a0c840" stroke-width="0.8" fill="none" opacity="0.020"/>
  <path d="M1093,301 Q1012,338 917,376" stroke="#a0c840" stroke-width="0.8" fill="none" opacity="0.014"/>
  <path d="M1093,301 Q1103,243 1042,213" stroke="#a0c840" stroke-width="0.8" fill="none" opacity="0.036"/>
  <path d="M562,372 Q458,393 320,363" stroke="#a0c840" stroke-width="0.8" fill="none" opacity="0.002"/>
  <path d="M562,372 Q636,420 636,451" stroke="#a0c840" stroke-width="0.8" fill="none" opacity="0.034"/>
  <path d="M684,357 Q664,389 636,451" stroke="#a0c840" stroke-width="0.8" fill="none" opacity="0.035"/>
  <path d="M333,478 Q351,390 320,363" stroke="#a0c840" stroke-width="0.8" fill="none" opacity="0.032"/>
  <path d="M1006,446 Q994,402 917,376" stroke="#a0c840" stroke-width="0.8" fill="none" opacity="0.033"/>
  <path d="M1006,446 Q951,411 961,324" stroke="#a0c840" stroke-width="0.8" fill="none" opacity="0.029"/>
  <path d="M1006,446 Q914,579 868,651" stroke="#a0c840" stroke-width="0.8" fill="none" opacity="0.001"/>
  <path d="M985,486 Q925,467 807,396" stroke="#a0c840" stroke-width="0.8" fill="none" opacity="0.012"/>
  <path d="M917,376 Q947,375 961,324" stroke="#a0c840" stroke-width="0.8" fill="none" opacity="0.043"/>
  <path d="M328,223 Q288,304 320,363" stroke="#a0c840" stroke-width="0.8" fill="none" opacity="0.026"/>
  <path d="M397,373 Q351,378 320,363" stroke="#a0c840" stroke-width="0.8" fill="none" opacity="0.041"/>
  <path d="M868,651 Q845,644 888,693" stroke="#a0c840" stroke-width="0.8" fill="none" opacity="0.049"/>
  <circle cx="1277.9" cy="232.4" r="2.0" fill="#c8e060" opacity="0.23"/>
  <circle cx="1277.9" cy="232.4" r="5.9" fill="#c8e060" opacity="0.035"/>
  <circle cx="895.0" cy="695.3" r="0.9" fill="#c8e060" opacity="0.36"/>
  <circle cx="895.0" cy="695.3" r="2.8" fill="#c8e060" opacity="0.054"/>
  <circle cx="1025.2" cy="339.3" r="1.7" fill="#c8e060" opacity="0.30"/>
  <circle cx="1025.2" cy="339.3" r="5.0" fill="#c8e060" opacity="0.044"/>
  <circle cx="573.0" cy="594.7" r="1.6" fill="#c8e060" opacity="0.25"/>
  <circle cx="573.0" cy="594.7" r="4.7" fill="#c8e060" opacity="0.038"/>
  <circle cx="775.8" cy="501.6" r="1.3" fill="#c8e060" opacity="0.27"/>
  <circle cx="775.8" cy="501.6" r="3.9" fill="#c8e060" opacity="0.041"/>
  <circle cx="578.9" cy="584.0" r="0.9" fill="#c8e060" opacity="0.21"/>
  <circle cx="578.9" cy="584.0" r="2.8" fill="#c8e060" opacity="0.032"/>
  <circle cx="797.3" cy="514.2" r="1.0" fill="#c8e060" opacity="0.17"/>
  <circle cx="797.3" cy="514.2" r="2.9" fill="#c8e060" opacity="0.026"/>
  <circle cx="352.9" cy="234.1" r="1.6" fill="#c8e060" opacity="0.39"/>
  <circle cx="352.9" cy="234.1" r="4.8" fill="#c8e060" opacity="0.059"/>
  <circle cx="682.6" cy="539.6" r="1.0" fill="#c8e060" opacity="0.31"/>
  <circle cx="682.6" cy="539.6" r="2.9" fill="#c8e060" opacity="0.046"/>
  <circle cx="396.3" cy="238.3" r="1.7" fill="#c8e060" opacity="0.34"/>
  <circle cx="396.3" cy="238.3" r="5.1" fill="#c8e060" opacity="0.051"/>
  <circle cx="1092.7" cy="301.0" r="1.6" fill="#c8e060" opacity="0.27"/>
  <circle cx="1092.7" cy="301.0" r="4.8" fill="#c8e060" opacity="0.041"/>
  <circle cx="561.7" cy="371.8" r="1.8" fill="#c8e060" opacity="0.29"/>
  <circle cx="561.7" cy="371.8" r="5.5" fill="#c8e060" opacity="0.043"/>
  <circle cx="1252.6" cy="215.8" r="1.3" fill="#c8e060" opacity="0.38"/>
  <circle cx="1252.6" cy="215.8" r="3.9" fill="#c8e060" opacity="0.057"/>
  <circle cx="683.6" cy="357.3" r="1.3" fill="#c8e060" opacity="0.26"/>
  <circle cx="683.6" cy="357.3" r="3.8" fill="#c8e060" opacity="0.040"/>
  <circle cx="332.9" cy="478.3" r="1.8" fill="#c8e060" opacity="0.23"/>
  <circle cx="332.9" cy="478.3" r="5.5" fill="#c8e060" opacity="0.034"/>
  <circle cx="1006.1" cy="445.7" r="1.0" fill="#c8e060" opacity="0.33"/>
  <circle cx="1006.1" cy="445.7" r="2.9" fill="#c8e060" opacity="0.049"/>
  <circle cx="787.5" cy="254.7" r="1.6" fill="#c8e060" opacity="0.32"/>
  <circle cx="787.5" cy="254.7" r="4.8" fill="#c8e060" opacity="0.047"/>
  <circle cx="985.4" cy="486.1" r="1.4" fill="#c8e060" opacity="0.36"/>
  <circle cx="985.4" cy="486.1" r="4.1" fill="#c8e060" opacity="0.055"/>
  <circle cx="806.7" cy="395.7" r="1.4" fill="#c8e060" opacity="0.39"/>
  <circle cx="806.7" cy="395.7" r="4.2" fill="#c8e060" opacity="0.059"/>
  <circle cx="916.9" cy="376.4" r="2.0" fill="#c8e060" opacity="0.23"/>
  <circle cx="916.9" cy="376.4" r="5.9" fill="#c8e060" opacity="0.035"/>
  <circle cx="328.1" cy="222.6" r="1.8" fill="#c8e060" opacity="0.24"/>
  <circle cx="328.1" cy="222.6" r="5.4" fill="#c8e060" opacity="0.036"/>
  <circle cx="1042.1" cy="213.4" r="1.9" fill="#c8e060" opacity="0.24"/>
  <circle cx="1042.1" cy="213.4" r="5.6" fill="#c8e060" opacity="0.035"/>
  <circle cx="397.4" cy="372.6" r="1.2" fill="#c8e060" opacity="0.24"/>
  <circle cx="397.4" cy="372.6" r="3.7" fill="#c8e060" opacity="0.036"/>
  <circle cx="961.2" cy="323.8" r="1.6" fill="#c8e060" opacity="0.30"/>
  <circle cx="961.2" cy="323.8" r="4.7" fill="#c8e060" opacity="0.045"/>
  <circle cx="1210.4" cy="232.8" r="1.2" fill="#c8e060" opacity="0.23"/>
  <circle cx="1210.4" cy="232.8" r="3.5" fill="#c8e060" opacity="0.035"/>
  <circle cx="319.7" cy="363.1" r="1.4" fill="#c8e060" opacity="0.37"/>
  <circle cx="319.7" cy="363.1" r="4.1" fill="#c8e060" opacity="0.055"/>
  <circle cx="868.0" cy="650.7" r="1.1" fill="#c8e060" opacity="0.32"/>
  <circle cx="868.0" cy="650.7" r="3.4" fill="#c8e060" opacity="0.049"/>
  <circle cx="888.0" cy="692.9" r="1.3" fill="#c8e060" opacity="0.25"/>
  <circle cx="888.0" cy="692.9" r="3.8" fill="#c8e060" opacity="0.037"/>
  <circle cx="872.5" cy="604.2" r="0.9" fill="#c8e060" opacity="0.32"/>
  <circle cx="872.5" cy="604.2" r="2.8" fill="#c8e060" opacity="0.048"/>
  <circle cx="636.0" cy="451.4" r="1.7" fill="#c8e060" opacity="0.23"/>
  <circle cx="636.0" cy="451.4" r="5.2" fill="#c8e060" opacity="0.035"/>
  <ellipse cx="1100" cy="400" rx="350" ry="300" fill="url(#glow1)" filter="url(#blur3)" opacity="0.6"/>
</svg>