<svg xmlns="http://www.w3.org/2000/svg" viewBox="0 0 1600 900" width="1600" height="900">
  <defs>
    <linearGradient id="bg" x1="0" y1="0" x2="0" y2="1">
      <stop offset="0%" stop-color="#141e18"/>
      <stop offset="50%" stop-color="#1a2a1e"/>
      <stop offset="100%" stop-color="#141e18"/>
    </linearGradient>
    <radialGradient id="glow1" cx="50%" cy="50%" r="50%">
      <stop offset="0%" stop-color="#c8e080" stop-opacity="0.15"/>
      <stop offset="100%" stop-color="#c8e080" stop-opacity="0"/>
    </radialGradient>
    <radialGradient id="glow2" cx="50%" cy="50%" r="50%">
      <stop offset="0%" stop-color="#5ba8c8" stop-opacity="0.1"/>
      <stop offset="100%" stop-color="#5ba8c8" stop-opacity="0"/>
    </radialGradient>
    <filter id="blur1"><feGaussianBlur stdDeviation="3"/></filter>
    <filter id="blur2"><feGaussianBlur stdDeviation="8"/></filter>
    <filter id="blur3"><feGaussianBlur stdDeviation="20"/></filter>
  </defs>
  <rect width="1600" height="900" fill="url(#bg)"/>
  <ellipse cx="336" cy="180" rx="86" ry="125" fill="#122414" opacity="0.20" transform="rotate(98 336 180)"/>
  <ellipse cx="252" cy="103" rx="193" ry="130" fill="#1a2a1e" opacity="0.13" transform="rotate(126 252 103)"/>
  <ellipse cx="510" cy="127" rx="153" ry="85" fill="#1a2a1e" opacity="0.13" transform="rotate(112 510 127)"/>
  <ellipse cx="1428" cy="487" rx="48" ry="45" fill="#1a2a1e" opacity="0.12" transform="rotate(19 1428 487)"/>
  <ellipse cx="682" cy="161" rx="135" ry="135" fill="#122414" opacity="0.19" transform="rotate(112 682 161)"/>
  <ellipse cx="1308" cy="642" rx="147" ry="125" fill="#122414" opacity="0.19" transform="rotate(33 1308 642)"/>
  <ellipse cx="1284" cy="629" rx="56" ry="90" fill="#122414" opacity="0.17" transform="rotate(341 1284 629)"/>
  <ellipse cx="230" cy="806" rx="81" ry="98" fill="#1a2a1e" opacity="0.20" transform="rotate(239 230 806)"/>
  <path d="M1262,238 Q1234,446 1248,654" stroke="#162e14" stroke-width="2.1" fill="none" opacity="0.17"/>
  <path d="M738,46 Q744,421 741,796" stroke="#162e14" stroke-width="1.3" fill="none" opacity="0.12"/>
  <path d="M1308,215 Q1317,406 1313,597" stroke="#162e14" stroke-width="2.6" fill="none" opacity="0.22"/>
  <path d="M641,112 Q644,421 643,729" stroke="#162e14" stroke-width="2.2" fill="none" opacity="0.25"/>
  <path d="M545,220 Q562,468 554,716" stroke="#162e14" stroke-width="3.4" fill="none" opacity="0.17"/>
  <path d="M871,64 Q846,406 859,748" stroke="#162e14" stroke-width="2.7" fill="none" opacity="0.24"/>
  <path d="M779,160 Q782,409 780,658" stroke="#162e14" stroke-width="1.5" fill="none" opacity="0.22"/>
  <path d="M1529,19 Q1548,259 1539,499" stroke="#162e14" stroke-width="2.1" fill="none" opacity="0.22"/>
  <path d="M791,178 Q810,334 800,491" stroke="#162e14" stroke-width="3.7" fill="none" opacity="0.23"/>
  <path d="M1018,0 Q997,258 1007,516" stroke="#162e14" stroke-width="2.2" fill="none" opacity="0.18"/>
  <ellipse cx="894" cy="150" rx="459" ry="101" fill="#1a2a18" opacity="0.082" filter="url(#blur3)"/>
  <ellipse cx="884" cy="270" rx="674" ry="78" fill="#1a2a18" opacity="0.144" filter="url(#blur3)"/>
  <ellipse cx="722" cy="390" rx="695" ry="81" fill="#1a2a18" opacity="0.059" filter="url(#blur3)"/>
  <ellipse cx="210" cy="510" rx="696" ry="84" fill="#1a2a18" opacity="0.063" filter="url(#blur3)"/>
  <ellipse cx="553" cy="630" rx="511" ry="93" fill="#1a2a18" opacity="0.055" filter="url(#blur3)"/>
  <ellipse cx="1044" cy="750" rx="646" ry="82" fill="#1a2a18" opacity="0.136" filter="url(#blur3)"/>
  <path d="M995,437 Q997,326 1004,267" stroke="#3a5a2a" stroke-width="0.8" fill="none" opacity="0.007"/>
  <path d="M995,437 Q1070,465 1066,443" stroke="#3a5a2a" stroke-width="0.8" fill="none" opacity="0.032"/>
  <path d="M995,437 Q870,457 811,476" stroke="#3a5a2a" stroke-width="0.8" fill="none" opacity="0.003"/>
  <path d="M995,437 Q1047,373 1158,345" stroke="#3a5a2a" stroke-width="0.8" fill="none" opacity="0.003"/>
  <path d="M1004,267 Q1050,280 1158,345" stroke="#3a5a2a" stroke-width="0.8" fill="none" opacity="0.007"/>
  <path d="M1066,443 Q1009,546 960,599" stroke="#3a5a2a" stroke-width="0.8" fill="none" opacity="0.003"/>
  <path d="M1066,443 Q1128,393 1158,345" stroke="#3a5a2a" stroke-width="0.8" fill="none" opacity="0.016"/>
  <path d="M302,521 Q285,453 336,441" stroke="#3a5a2a" stroke-width="0.8" fill="none" opacity="0.028"/>
  <path d="M811,476 Q789,563 767,571" stroke="#3a5a2a" stroke-width="0.8" fill="none" opacity="0.024"/>
  <path d="M811,476 Q782,532 763,567" stroke="#3a5a2a" stroke-width="0.8" fill="none" opacity="0.024"/>
  <path d="M423,502 Q472,464 484,451" stroke="#3a5a2a" stroke-width="0.8" fill="none" opacity="0.030"/>
  <path d="M484,451 Q522,512 612,589" stroke="#3a5a2a" stroke-width="0.8" fill="none" opacity="0.003"/>
  <path d="M640,689 Q723,650 767,571" stroke="#3a5a2a" stroke-width="0.8" fill="none" opacity="0.007"/>
  <path d="M640,689 Q718,626 763,567" stroke="#3a5a2a" stroke-width="0.8" fill="none" opacity="0.007"/>
  <path d="M1078,692 Q1049,606 960,599" stroke="#3a5a2a" stroke-width="0.8" fill="none" opacity="0.013"/>
  <circle cx="1238.8" cy="317.6" r="2.1" fill="#4a6a3a" opacity="0.09"/>
  <circle cx="1238.8" cy="317.6" r="6.2" fill="#4a6a3a" opacity="0.013"/>
  <circle cx="581.8" cy="391.4" r="1.6" fill="#4a6a3a" opacity="0.10"/>
  <circle cx="581.8" cy="391.4" r="4.7" fill="#4a6a3a" opacity="0.016"/>
  <circle cx="995.0" cy="437.4" r="1.3" fill="#4a6a3a" opacity="0.09"/>
  <circle cx="995.0" cy="437.4" r="3.8" fill="#4a6a3a" opacity="0.013"/>
  <circle cx="1309.4" cy="620.0" r="1.2" fill="#4a6a3a" opacity="0.15"/>
  <circle cx="1309.4" cy="620.0" r="3.7" fill="#4a6a3a" opacity="0.022"/>
  <circle cx="1004.1" cy="267.1" r="1.1" fill="#4a6a3a" opacity="0.05"/>
  <circle cx="1004.1" cy="267.1" r="3.3" fill="#4a6a3a" opacity="0.008"/>
  <circle cx="1065.6" cy="443.4" r="1.7" fill="#4a6a3a" opacity="0.15"/>
  <circle cx="1065.6" cy="443.4" r="5.0" fill="#4a6a3a" opacity="0.022"/>
  <circle cx="301.6" cy="521.1" r="1.6" fill="#4a6a3a" opacity="0.10"/>
  <circle cx="301.6" cy="521.1" r="4.9" fill="#4a6a3a" opacity="0.014"/>
  <circle cx="1146.7" cy="502.2" r="1.6" fill="#4a6a3a" opacity="0.07"/>
  <circle cx="1146.7" cy="502.2" r="4.9" fill="#4a6a3a" opacity="0.010"/>
  <circle cx="811.3" cy="476.0" r="1.7" fill="#4a6a3a" opacity="0.09"/>
  <circle cx="811.3" cy="476.0" r="5.0" fill="#4a6a3a" opacity="0.013"/>
  <circle cx="422.9" cy="502.3" r="1.9" fill="#4a6a3a" opacity="0.13"/>
  <circle cx="422.9" cy="502.3" r="5.6" fill="#4a6a3a" opacity="0.020"/>
  <circle cx="484.1" cy="450.9" r="1.6" fill="#4a6a3a" opacity="0.10"/>
  <circle cx="484.1" cy="450.9" r="4.8" fill="#4a6a3a" opacity="0.016"/>
  <circle cx="640.4" cy="689.1" r="1.9" fill="#4a6a3a" opacity="0.12"/>
  <circle cx="640.4" cy="689.1" r="5.6" fill="#4a6a3a" opacity="0.018"/>
  <circle cx="335.8" cy="440.8" r="2.0" fill="#4a6a3a" opacity="0.06"/>
  <circle cx="335.8" cy="440.8" r="6.1" fill="#4a6a3a" opacity="0.010"/>
  <circle cx="1077.6" cy="691.8" r="2.5" fill="#4a6a3a" opacity="0.13"/>
  <circle cx="1077.6" cy="691.8" r="7.4" fill="#4a6a3a" opacity="0.019"/>
  <circle cx="757.9" cy="239.1" r="2.3" fill="#4a6a3a" opacity="0.06"/>
  <circle cx="757.9" cy="239.1" r="7.0" fill="#4a6a3a" opacity="0.009"/>
  <circle cx="766.9" cy="570.8" r="2.4" fill="#4a6a3a" opacity="0.06"/>
  <circle cx="766.9" cy="570.8" r="7.3" fill="#4a6a3a" opacity="0.009"/>
  <circle cx="960.4" cy="599.0" r="1.5" fill="#4a6a3a" opacity="0.06"/>
  <circle cx="960.4" cy="599.0" r="4.4" fill="#4a6a3a" opacity="0.008"/>
  <circle cx="612.3" cy="589.3" r="1.7" fill="#4a6a3a" opacity="0.10"/>
  <circle cx="612.3" cy="589.3" r="5.1" fill="#4a6a3a" opacity="0.015"/>
  <circle cx="763.1" cy="566.9" r="1.6" fill="#4a6a3a" opacity="0.15"/>
  <circle cx="763.1" cy="566.9" r="4.9" fill="#4a6a3a" opacity="0.022"/>
  <circle cx="1157.9" cy="344.6" r="1.1" fill="#4a6a3a" opacity="0.14"/>
  <circle cx="1157.9" cy="344.6" r="3.2" fill="#4a6a3a" opacity="0.021"/>
  <rect width="1600" height="900" fill="#1a2a1e" opacity="0.25"/>
</svg>