<svg xmlns="http://www.w3.org/2000/svg" viewBox="0 0 800 600" width="800" height="600">
  <defs>
    <linearGradient id="bg" x1="0" y1="0" x2="0" y2="1">
      <stop offset="0%" stop-color="#12110e"/>
      <stop offset="50%" stop-color="#1a1a14"/>
      <stop offset="100%" stop-color="#12110e"/>
    </linearGradient>
    <radialGradient id="glow1" cx="50%" cy="50%" r="50%">
      <stop offset="0%" stop-color="#e8d060" stop-opacity="0.25"/>
      <stop offset="100%" stop-color="#b89b3e" stop-opacity="0"/>
    </radialGradient>
    <radialGradient id="glow2" cx="50%" cy="50%" r="50%">
      <stop offset="0%" stop-color="#b89b3e" stop-opacity="0.2"/>
      <stop offset="100%" stop-color="#b89b3e" stop-opacity="0"/>
    </radialGradient>
    <radialGradient id="glowGold" cx="50%" cy="50%" r="50%">
      <stop offset="0%" stop-color="#e8b840" stop-opacity="0.3"/>
      <stop offset="100%" stop-color="#e8b840" stop-opacity="0"/>
    </radialGradient>
    <filter id="blur1"><feGaussianBlur stdDeviation="3"/></filter>
    <filter id="blur2"><feGaussianBlur stdDeviation="8"/></filter>
    <filter id="blur3"><feGaussianBlur stdDeviation="20"/></filter>
  </defs>
  <rect width="800" height="600" fill="url(#bg)"/>
  <ellipse cx="96" cy="562" rx="69" ry="43" fill="#14130e" opacity="0.27" transform="rotate(254 96 562)"/>
  <ellipse cx="710" cy="267" rx="169" ry="137" fill="#1a1914" opacity="0.38" transform="rotate(177 710 267)"/>
  <ellipse cx="747" cy="204" rx="69" ry="44" fill="#1a1914" opacity="0.31" transform="rotate(33 747 204)"/>
  <ellipse cx="784" cy="325" rx="86" ry="69" fill="#14130e" opacity="0.25" transform="rotate(343 784 325)"/>
  <ellipse cx="543" cy="35" rx="194" ry="69" fill="#14130e" opacity="0.29" transform="rotate(36 543 35)"/>
  <ellipse cx="114" cy="536" rx="81" ry="191" fill="#14130e" opacity="0.22" transform="rotate(86 114 536)"/>
  <ellipse cx="478" cy="142" rx="121" ry="121" fill="#14130e" opacity="0.28" transform="rotate(115 478 142)"/>
  <ellipse cx="442" cy="39" rx="45" ry="141" fill="#14130e" opacity="0.28" transform="rotate(347 442 39)"/>
  <ellipse cx="540" cy="148" rx="129" ry="166" fill="#1a1914" opacity="0.37" transform="rotate(161 540 148)"/>
  <ellipse cx="677" cy="300" rx="165" ry="63" fill="#14130e" opacity="0.43" transform="rotate(194 677 300)"/>
  <ellipse cx="354" cy="465" rx="62" ry="20" stroke="#2a281e" stroke-width="3.9" fill="none" opacity="0.27"/>
  <ellipse cx="492" cy="167" rx="34" ry="75" stroke="#2a281e" stroke-width="3.0" fill="none" opacity="0.32"/>
  <ellipse cx="328" cy="241" rx="74" ry="55" stroke="#30301e" stroke-width="2.2" fill="none" opacity="0.18"/>
  <ellipse cx="420" cy="128" rx="36" ry="62" stroke="#28261c" stroke-width="3.3" fill="none" opacity="0.35"/>
  <ellipse cx="627" cy="184" rx="65" ry="68" stroke="#30301e" stroke-width="3.9" fill="none" opacity="0.28"/>
  <ellipse cx="688" cy="383" rx="49" ry="60" stroke="#2a281e" stroke-width="2.4" fill="none" opacity="0.24"/>
  <ellipse cx="460" cy="106" rx="78" ry="59" stroke="#28261c" stroke-width="3.0" fill="none" opacity="0.15"/>
  <ellipse cx="106" cy="169" rx="69" ry="62" stroke="#2a281e" stroke-width="3.4" fill="none" opacity="0.26"/>
  <path d="M630,389 Q600,336 503,249" stroke="#302e1e" stroke-width="2.3" fill="none" opacity="0.22"/>
  <path d="M650,496 Q656,468 608,400" stroke="#302e1e" stroke-width="0.8" fill="none" opacity="0.24"/>
  <path d="M749,267 Q685,237 665,123" stroke="#302e1e" stroke-width="1.6" fill="none" opacity="0.17"/>
  <path d="M491,182 Q523,128 556,102" stroke="#302e1e" stroke-width="1.4" fill="none" opacity="0.33"/>
  <path d="M566,125 Q510,211 474,222" stroke="#302e1e" stroke-width="2.1" fill="none" opacity="0.25"/>
  <path d="M441,396 Q458,380 461,451" stroke="#302e1e" stroke-width="1.1" fill="none" opacity="0.16"/>
  <path d="M208,342 Q195,315 126,349" stroke="#302e1e" stroke-width="2.3" fill="none" opacity="0.35"/>
  <path d="M554,320 Q513,373 480,338" stroke="#302e1e" stroke-width="2.2" fill="none" opacity="0.34"/>
  <path d="M41,563 Q9,656 21,712" stroke="#302e1e" stroke-width="1.8" fill="none" opacity="0.22"/>
  <path d="M607,530 Q558,492 525,464" stroke="#302e1e" stroke-width="0.8" fill="none" opacity="0.19"/>
  <path d="M65,343 Q42,371 -77,414" stroke="#302e1e" stroke-width="1.0" fill="none" opacity="0.20"/>
  <path d="M132,186 Q148,157 169,66" stroke="#302e1e" stroke-width="2.1" fill="none" opacity="0.28"/>
  <path d="M267,150 Q193,66 150,72" stroke="#302e1e" stroke-width="1.5" fill="none" opacity="0.31"/>
  <path d="M755,465 Q785,513 791,545" stroke="#302e1e" stroke-width="1.0" fill="none" opacity="0.16"/>
  <path d="M27,188 Q42,165 131,57" stroke="#302e1e" stroke-width="1.8" fill="none" opacity="0.21"/>
  <path d="M501,39 Q507,37 554,57" stroke="#302e1e" stroke-width="1.0" fill="none" opacity="0.30"/>
  <path d="M186,360 Q199,316 234,213" stroke="#302e1e" stroke-width="2.7" fill="none" opacity="0.27"/>
  <path d="M272,563 Q297,525 357,549" stroke="#302e1e" stroke-width="1.0" fill="none" opacity="0.27"/>
  <path d="M54,474 Q22,460 -38,496" stroke="#302e1e" stroke-width="1.7" fill="none" opacity="0.29"/>
  <path d="M356,146 Q381,74 445,14" stroke="#302e1e" stroke-width="2.9" fill="none" opacity="0.30"/>
  <circle cx="286.7" cy="454.1" r="1.8" fill="#5a5838" opacity="0.12"/>
  <circle cx="286.7" cy="454.1" r="5.3" fill="#5a5838" opacity="0.024"/>
  <circle cx="285.2" cy="237.2" r="1.4" fill="#5a5838" opacity="0.10"/>
  <circle cx="285.2" cy="237.2" r="4.1" fill="#5a5838" opacity="0.020"/>
  <circle cx="451.9" cy="371.3" r="1.1" fill="#5a5838" opacity="0.18"/>
  <circle cx="451.9" cy="371.3" r="3.2" fill="#5a5838" opacity="0.035"/>
  <circle cx="601.1" cy="443.5" r="1.4" fill="#5a5838" opacity="0.13"/>
  <circle cx="601.1" cy="443.5" r="4.3" fill="#5a5838" opacity="0.026"/>
  <circle cx="220.2" cy="463.4" r="1.8" fill="#5a5838" opacity="0.15"/>
  <circle cx="220.2" cy="463.4" r="5.4" fill="#5a5838" opacity="0.030"/>
  <circle cx="500.7" cy="377.9" r="2.0" fill="#5a5838" opacity="0.19"/>
  <circle cx="500.7" cy="377.9" r="5.9" fill="#5a5838" opacity="0.038"/>
  <circle cx="298.7" cy="331.4" r="2.0" fill="#5a5838" opacity="0.19"/>
  <circle cx="298.7" cy="331.4" r="5.9" fill="#5a5838" opacity="0.038"/>
  <circle cx="351.2" cy="164.9" r="1.5" fill="#5a5838" opacity="0.22"/>
  <circle cx="351.2" cy="164.9" r="4.4" fill="#5a5838" opacity="0.044"/>
  <circle cx="125.3" cy="187.8" r="1.0" fill="#5a5838" opacity="0.13"/>
  <circle cx="125.3" cy="187.8" r="3.0" fill="#5a5838" opacity="0.027"/>
  <circle cx="238.2" cy="349.6" r="1.2" fill="#5a5838" opacity="0.21"/>
  <circle cx="238.2" cy="349.6" r="3.7" fill="#5a5838" opacity="0.042"/>
</svg>