<svg xmlns="http://www.w3.org/2000/svg" viewBox="0 0 1600 900" width="1600" height="900">
  <defs>
    <linearGradient id="bg" x1="0" y1="0" x2="0" y2="1">
      <stop offset="0%" stop-color="#100f0c"/>
      <stop offset="50%" stop-color="#141310"/>
      <stop offset="100%" stop-color="#100f0c"/>
    </linearGradient>
    <radialGradient id="glow1" cx="50%" cy="50%" r="50%">
      <stop offset="0%" stop-color="#e8d060" stop-opacity="0.25"/>
      <stop offset="100%" stop-color="#b89b3e" stop-opacity="0"/>
    </radialGradient>
    <radialGradient id="glow2" cx="50%" cy="50%" r="50%">
      <stop offset="0%" stop-color="#b89b3e" stop-opacity="0.2"/>
      <stop offset="100%" stop-color="#b89b3e" stop-opacity="0"/>
    </radialGradient>
    <radialGradient id="glowGold" cx="50%" cy="50%" r="50%">
      <stop offset="0%" stop-color="#e8b840" stop-opacity="0.3"/>
      <stop offset="100%" stop-color="#e8b840" stop-opacity="0"/>
    </radialGradient>
    <filter id="blur1"><feGaussianBlur stdDeviation="3"/></filter>
    <filter id="blur2"><feGaussianBlur stdDeviation="8"/></filter>
    <filter id="blur3"><feGaussianBlur stdDeviation="20"/></filter>
  </defs>
  <rect width="1600" height="900" fill="url(#bg)"/>
  <ellipse cx="164" cy="488" rx="128" ry="83" fill="#201e18" opacity="0.48" transform="rotate(207 164 488)"/>
  <ellipse cx="274" cy="280" rx="183" ry="126" fill="#141310" opacity="0.25" transform="rotate(169 274 280)"/>
  <ellipse cx="1081" cy="95" rx="49" ry="108" fill="#141310" opacity="0.45" transform="rotate(321 1081 95)"/>
  <ellipse cx="1007" cy="621" rx="111" ry="97" fill="#181712" opacity="0.49" transform="rotate(257 1007 621)"/>
  <ellipse cx="1073" cy="480" rx="196" ry="161" fill="#181712" opacity="0.40" transform="rotate(33 1073 480)"/>
  <ellipse cx="1284" cy="629" rx="56" ry="90" fill="#201e18" opacity="0.45" transform="rotate(168 1284 629)"/>
  <ellipse cx="371" cy="201" rx="178" ry="139" fill="#181712" opacity="0.34" transform="rotate(252 371 201)"/>
  <ellipse cx="1064" cy="710" rx="181" ry="113" fill="#141310" opacity="0.22" transform="rotate(41 1064 710)"/>
  <ellipse cx="766" cy="761" rx="85" ry="96" fill="#201e18" opacity="0.24" transform="rotate(37 766 761)"/>
  <ellipse cx="1308" cy="717" rx="92" ry="144" fill="#181712" opacity="0.39" transform="rotate(144 1308 717)"/>
  <ellipse cx="662" cy="559" rx="128" ry="196" fill="#181712" opacity="0.22" transform="rotate(75 662 559)"/>
  <ellipse cx="1110" cy="388" rx="197" ry="131" fill="#181712" opacity="0.39" transform="rotate(85 1110 388)"/>
  <ellipse cx="1060" cy="70" rx="189" ry="132" fill="#181712" opacity="0.24" transform="rotate(215 1060 70)"/>
  <ellipse cx="521" cy="88" rx="111" ry="89" fill="#181712" opacity="0.22" transform="rotate(39 521 88)"/>
  <ellipse cx="1303" cy="694" rx="101" ry="119" fill="#201e18" opacity="0.22" transform="rotate(78 1303 694)"/>
  <path d="M222,523 Q1211,595 1208,729" stroke="#24221a" stroke-width="3.1" fill="none" opacity="0.26"/>
  <path d="M985,402 Q480,715 329,790" stroke="#24221a" stroke-width="3.9" fill="none" opacity="0.38"/>
  <path d="M1499,646 Q932,550 1464,891" stroke="#24221a" stroke-width="3.3" fill="none" opacity="0.37"/>
  <path d="M1364,56 Q1,504 1442,871" stroke="#24221a" stroke-width="4.9" fill="none" opacity="0.22"/>
  <path d="M452,28 Q1000,641 691,531" stroke="#24221a" stroke-width="2.9" fill="none" opacity="0.29"/>
  <path d="M338,156 Q1349,324 223,500" stroke="#24221a" stroke-width="3.0" fill="none" opacity="0.26"/>
  <path d="M1396,113 Q230,796 19,584" stroke="#24221a" stroke-width="3.8" fill="none" opacity="0.39"/>
  <path d="M217,123 Q1430,626 1290,774" stroke="#24221a" stroke-width="4.8" fill="none" opacity="0.32"/>
  <path d="M727,382 Q361,382 1312,346" stroke="#24221a" stroke-width="1.5" fill="none" opacity="0.30"/>
  <path d="M1169,641 Q922,30 431,834" stroke="#24221a" stroke-width="1.6" fill="none" opacity="0.30"/>
  <path d="M590,522 Q1168,474 1539,72" stroke="#24221a" stroke-width="4.5" fill="none" opacity="0.35"/>
  <path d="M447,465 Q392,568 837,549" stroke="#24221a" stroke-width="3.8" fill="none" opacity="0.33"/>
  <path d="M1095,485 Q1446,482 927,552" stroke="#24221a" stroke-width="1.5" fill="none" opacity="0.29"/>
  <path d="M1450,517 Q1564,265 530,318" stroke="#24221a" stroke-width="2.1" fill="none" opacity="0.34"/>
  <path d="M956,274 Q1007,520 1256,234" stroke="#24221a" stroke-width="3.5" fill="none" opacity="0.33"/>
  <path d="M467,664 Q203,69 44,436" stroke="#24221a" stroke-width="4.2" fill="none" opacity="0.25"/>
  <path d="M985,248 Q966,819 411,667" stroke="#24221a" stroke-width="4.1" fill="none" opacity="0.33"/>
  <path d="M592,158 Q289,475 1252,213" stroke="#24221a" stroke-width="1.6" fill="none" opacity="0.40"/>
  <path d="M1548,536 Q1204,372 1315,754" stroke="#24221a" stroke-width="2.8" fill="none" opacity="0.33"/>
  <path d="M1162,151 Q87,238 924,758" stroke="#24221a" stroke-width="4.4" fill="none" opacity="0.21"/>
  <path d="M742,429 Q1476,210 762,853" stroke="#24221a" stroke-width="3.9" fill="none" opacity="0.28"/>
  <path d="M420,477 Q1276,344 696,260" stroke="#24221a" stroke-width="2.6" fill="none" opacity="0.31"/>
  <path d="M1529,88 Q1351,549 850,318" stroke="#24221a" stroke-width="3.8" fill="none" opacity="0.25"/>
  <path d="M433,722 Q738,608 409,526" stroke="#24221a" stroke-width="2.3" fill="none" opacity="0.33"/>
  <path d="M1233,468 Q501,10 1084,894" stroke="#24221a" stroke-width="1.5" fill="none" opacity="0.21"/>
  <path d="M658,473 Q1160,227 1097,316" stroke="#24221a" stroke-width="1.6" fill="none" opacity="0.32"/>
  <path d="M91,535 Q959,110 1430,195" stroke="#24221a" stroke-width="4.9" fill="none" opacity="0.22"/>
  <path d="M967,338 Q1285,166 1222,583" stroke="#24221a" stroke-width="1.9" fill="none" opacity="0.24"/>
  <path d="M471,594 Q1592,692 121,408" stroke="#24221a" stroke-width="3.9" fill="none" opacity="0.33"/>
  <path d="M1232,232 Q100,350 1249,250" stroke="#24221a" stroke-width="5.0" fill="none" opacity="0.25"/>
  <path d="M441,396 Q399,368 382,365" stroke="#38361e" stroke-width="1" fill="none" opacity="0.073"/>
  <path d="M441,396 Q476,397 486,394" stroke="#38361e" stroke-width="1" fill="none" opacity="0.082"/>
  <path d="M730,329 Q661,456 661,545" stroke="#38361e" stroke-width="1" fill="none" opacity="0.010"/>
  <path d="M1073,589 Q1094,597 1049,585" stroke="#38361e" stroke-width="1" fill="none" opacity="0.090"/>
  <path d="M1073,589 Q1085,559 1073,606" stroke="#38361e" stroke-width="1" fill="none" opacity="0.093"/>
  <path d="M382,365 Q474,360 548,302" stroke="#38361e" stroke-width="1" fill="none" opacity="0.029"/>
  <path d="M382,365 Q430,261 427,218" stroke="#38361e" stroke-width="1" fill="none" opacity="0.038"/>
  <path d="M1049,585 Q922,628 842,696" stroke="#38361e" stroke-width="1" fill="none" opacity="0.006"/>
  <path d="M1073,606 Q1065,528 1027,443" stroke="#38361e" stroke-width="1" fill="none" opacity="0.032"/>
  <path d="M661,545 Q789,597 842,696" stroke="#38361e" stroke-width="1" fill="none" opacity="0.006"/>
  <path d="M661,545 Q548,435 486,394" stroke="#38361e" stroke-width="1" fill="none" opacity="0.008"/>
  <path d="M1224,370 Q1129,333 993,349" stroke="#38361e" stroke-width="1" fill="none" opacity="0.007"/>
  <path d="M1224,370 Q1099,386 1027,443" stroke="#38361e" stroke-width="1" fill="none" opacity="0.016"/>
  <path d="M548,302 Q540,359 486,394" stroke="#38361e" stroke-width="1" fill="none" opacity="0.055"/>
  <path d="M993,349 Q982,427 1027,443" stroke="#38361e" stroke-width="1" fill="none" opacity="0.060"/>
  <path d="M427,218 Q417,340 486,394" stroke="#38361e" stroke-width="1" fill="none" opacity="0.026"/>
  <circle cx="1175.4" cy="289.0" r="1.1" fill="#4a4830" opacity="0.25"/>
  <circle cx="1175.4" cy="289.0" r="3.3" fill="#4a4830" opacity="0.049"/>
  <circle cx="440.8" cy="396.3" r="2.0" fill="#4a4830" opacity="0.12"/>
  <circle cx="440.8" cy="396.3" r="5.9" fill="#4a4830" opacity="0.023"/>
  <circle cx="848.8" cy="415.6" r="1.9" fill="#4a4830" opacity="0.12"/>
  <circle cx="848.8" cy="415.6" r="5.8" fill="#4a4830" opacity="0.023"/>
  <circle cx="729.9" cy="329.5" r="1.1" fill="#4a4830" opacity="0.11"/>
  <circle cx="729.9" cy="329.5" r="3.2" fill="#4a4830" opacity="0.022"/>
  <circle cx="1073.1" cy="588.6" r="1.0" fill="#4a4830" opacity="0.17"/>
  <circle cx="1073.1" cy="588.6" r="3.1" fill="#4a4830" opacity="0.035"/>
  <circle cx="983.4" cy="200.4" r="1.1" fill="#4a4830" opacity="0.16"/>
  <circle cx="983.4" cy="200.4" r="3.2" fill="#4a4830" opacity="0.032"/>
  <circle cx="381.9" cy="364.9" r="1.6" fill="#4a4830" opacity="0.10"/>
  <circle cx="381.9" cy="364.9" r="4.8" fill="#4a4830" opacity="0.020"/>
  <circle cx="1049.1" cy="585.5" r="1.7" fill="#4a4830" opacity="0.16"/>
  <circle cx="1049.1" cy="585.5" r="5.2" fill="#4a4830" opacity="0.032"/>
  <circle cx="1073.3" cy="606.1" r="1.1" fill="#4a4830" opacity="0.13"/>
  <circle cx="1073.3" cy="606.1" r="3.3" fill="#4a4830" opacity="0.027"/>
  <circle cx="661.3" cy="544.6" r="2.2" fill="#4a4830" opacity="0.12"/>
  <circle cx="661.3" cy="544.6" r="6.5" fill="#4a4830" opacity="0.024"/>
  <circle cx="842.4" cy="695.8" r="1.5" fill="#4a4830" opacity="0.15"/>
  <circle cx="842.4" cy="695.8" r="4.5" fill="#4a4830" opacity="0.029"/>
  <circle cx="266.2" cy="698.5" r="2.0" fill="#4a4830" opacity="0.15"/>
  <circle cx="266.2" cy="698.5" r="5.9" fill="#4a4830" opacity="0.031"/>
  <circle cx="1224.0" cy="370.0" r="2.3" fill="#4a4830" opacity="0.21"/>
  <circle cx="1224.0" cy="370.0" r="6.8" fill="#4a4830" opacity="0.043"/>
  <circle cx="548.0" cy="301.6" r="1.8" fill="#4a4830" opacity="0.25"/>
  <circle cx="548.0" cy="301.6" r="5.5" fill="#4a4830" opacity="0.049"/>
  <circle cx="992.9" cy="349.4" r="1.6" fill="#4a4830" opacity="0.12"/>
  <circle cx="992.9" cy="349.4" r="4.8" fill="#4a4830" opacity="0.023"/>
  <circle cx="1026.6" cy="443.3" r="2.3" fill="#4a4830" opacity="0.17"/>
  <circle cx="1026.6" cy="443.3" r="7.0" fill="#4a4830" opacity="0.033"/>
  <circle cx="427.4" cy="217.8" r="1.0" fill="#4a4830" opacity="0.25"/>
  <circle cx="427.4" cy="217.8" r="3.1" fill="#4a4830" opacity="0.050"/>
  <circle cx="486.2" cy="394.4" r="2.2" fill="#4a4830" opacity="0.20"/>
  <circle cx="486.2" cy="394.4" r="6.6" fill="#4a4830" opacity="0.039"/>
  <ellipse cx="800" cy="450" rx="400" ry="300" fill="#4a2868" opacity="0.04" filter="url(#blur3)"/>
</svg>