<svg xmlns="http://www.w3.org/2000/svg" viewBox="0 0 1600 900" width="1600" height="900">
  <defs>
    <linearGradient id="bg" x1="0" y1="0" x2="0" y2="1">
      <stop offset="0%" stop-color="#12110e"/>
      <stop offset="40%" stop-color="#1a1a14"/>
      <stop offset="100%" stop-color="#1a1a14"/>
    </linearGradient>
    <radialGradient id="glow1" cx="50%" cy="50%" r="50%">
      <stop offset="0%" stop-color="#e8d060" stop-opacity="0.25"/>
      <stop offset="100%" stop-color="#b89b3e" stop-opacity="0"/>
    </radialGradient>
    <radialGradient id="glow2" cx="50%" cy="50%" r="50%">
      <stop offset="0%" stop-color="#b89b3e" stop-opacity="0.2"/>
      <stop offset="100%" stop-color="#b89b3e" stop-opacity="0"/>
    </radialGradient>
    <radialGradient id="glowGold" cx="50%" cy="50%" r="50%">
      <stop offset="0%" stop-color="#e8b840" stop-opacity="0.3"/>
      <stop offset="100%" stop-color="#e8b840" stop-opacity="0"/>
    </radialGradient>
    <filter id="blur1"><feGaussianBlur stdDeviation="3"/></filter>
    <filter id="blur2"><feGaussianBlur stdDeviation="8"/></filter>
    <filter id="blur3"><feGaussianBlur stdDeviation="20"/></filter>
  </defs>
  <rect width="1600" height="900" fill="url(#bg)"/>
  <ellipse cx="1131" cy="534" rx="85" ry="151" fill="#201e18" opacity="0.32" transform="rotate(74 1131 534)"/>
  <ellipse cx="1024" cy="471" rx="106" ry="190" fill="#1a1a14" opacity="0.30" transform="rotate(258 1024 471)"/>
  <ellipse cx="979" cy="79" rx="172" ry="88" fill="#201e18" opacity="0.15" transform="rotate(85 979 79)"/>
  <ellipse cx="188" cy="477" rx="55" ry="98" fill="#1a1a14" opacity="0.27" transform="rotate(226 188 477)"/>
  <ellipse cx="333" cy="48" rx="58" ry="64" fill="#201e18" opacity="0.27" transform="rotate(58 333 48)"/>
  <ellipse cx="1476" cy="49" rx="98" ry="74" fill="#201e18" opacity="0.23" transform="rotate(290 1476 49)"/>
  <ellipse cx="1213" cy="39" rx="158" ry="188" fill="#1a1a14" opacity="0.19" transform="rotate(10 1213 39)"/>
  <ellipse cx="824" cy="64" rx="78" ry="111" fill="#201e18" opacity="0.25" transform="rotate(269 824 64)"/>
  <ellipse cx="1437" cy="207" rx="58" ry="76" fill="#1a1a14" opacity="0.33" transform="rotate(313 1437 207)"/>
  <ellipse cx="601" cy="199" rx="115" ry="118" fill="#201e18" opacity="0.19" transform="rotate(334 601 199)"/>
  <ellipse cx="728" cy="349" rx="62" ry="155" fill="#201e18" opacity="0.39" transform="rotate(73 728 349)"/>
  <ellipse cx="204" cy="623" rx="50" ry="62" fill="#201e18" opacity="0.26" transform="rotate(62 204 623)"/>
  <line x1="800" y1="-50" x2="597" y2="745" stroke="#e8d060" stroke-width="56" opacity="0.103" stroke-linecap="round"/>
  <line x1="800" y1="-50" x2="938" y2="563" stroke="#e8d060" stroke-width="30" opacity="0.118" stroke-linecap="round"/>
  <line x1="800" y1="-50" x2="940" y2="170" stroke="#e8d060" stroke-width="71" opacity="0.079" stroke-linecap="round"/>
  <line x1="800" y1="-50" x2="1238" y2="381" stroke="#e8d060" stroke-width="70" opacity="0.062" stroke-linecap="round"/>
  <line x1="800" y1="-50" x2="1057" y2="617" stroke="#e8d060" stroke-width="35" opacity="0.066" stroke-linecap="round"/>
  <line x1="800" y1="-50" x2="905" y2="768" stroke="#e8d060" stroke-width="56" opacity="0.052" stroke-linecap="round"/>
  <line x1="800" y1="-50" x2="824" y2="152" stroke="#e8d060" stroke-width="79" opacity="0.043" stroke-linecap="round"/>
  <line x1="800" y1="-50" x2="765" y2="687" stroke="#e8d060" stroke-width="22" opacity="0.082" stroke-linecap="round"/>
  <line x1="800" y1="-50" x2="775" y2="708" stroke="#e8d060" stroke-width="69" opacity="0.076" stroke-linecap="round"/>
  <line x1="800" y1="-50" x2="562" y2="491" stroke="#e8d060" stroke-width="21" opacity="0.099" stroke-linecap="round"/>
  <line x1="800" y1="-50" x2="993" y2="170" stroke="#e8d060" stroke-width="38" opacity="0.092" stroke-linecap="round"/>
  <line x1="800" y1="-50" x2="474" y2="375" stroke="#e8d060" stroke-width="38" opacity="0.096" stroke-linecap="round"/>
  <line x1="800" y1="-50" x2="1192" y2="558" stroke="#e8d060" stroke-width="21" opacity="0.076" stroke-linecap="round"/>
  <line x1="800" y1="-50" x2="1142" y2="686" stroke="#e8d060" stroke-width="44" opacity="0.103" stroke-linecap="round"/>
  <line x1="800" y1="-50" x2="692" y2="464" stroke="#e8d060" stroke-width="58" opacity="0.109" stroke-linecap="round"/>
  <line x1="800" y1="-50" x2="277" y2="588" stroke="#e8d060" stroke-width="40" opacity="0.043" stroke-linecap="round"/>
  <line x1="800" y1="-50" x2="754" y2="336" stroke="#e8d060" stroke-width="77" opacity="0.083" stroke-linecap="round"/>
  <line x1="800" y1="-50" x2="1141" y2="620" stroke="#e8d060" stroke-width="25" opacity="0.110" stroke-linecap="round"/>
  <line x1="800" y1="-50" x2="888" y2="172" stroke="#e8d060" stroke-width="77" opacity="0.094" stroke-linecap="round"/>
  <line x1="800" y1="-50" x2="962" y2="176" stroke="#e8d060" stroke-width="42" opacity="0.090" stroke-linecap="round"/>
  <line x1="820" y1="-30" x2="751" y2="285" stroke="#f0e880" stroke-width="54" opacity="0.028" stroke-linecap="round"/>
  <line x1="820" y1="-30" x2="933" y2="294" stroke="#f0e880" stroke-width="79" opacity="0.037" stroke-linecap="round"/>
  <line x1="820" y1="-30" x2="510" y2="406" stroke="#f0e880" stroke-width="76" opacity="0.054" stroke-linecap="round"/>
  <line x1="820" y1="-30" x2="1052" y2="227" stroke="#f0e880" stroke-width="65" opacity="0.036" stroke-linecap="round"/>
  <line x1="820" y1="-30" x2="730" y2="346" stroke="#f0e880" stroke-width="61" opacity="0.039" stroke-linecap="round"/>
  <line x1="820" y1="-30" x2="536" y2="308" stroke="#f0e880" stroke-width="49" opacity="0.051" stroke-linecap="round"/>
  <line x1="820" y1="-30" x2="424" y2="544" stroke="#f0e880" stroke-width="61" opacity="0.052" stroke-linecap="round"/>
  <line x1="820" y1="-30" x2="613" y2="570" stroke="#f0e880" stroke-width="68" opacity="0.072" stroke-linecap="round"/>
  <line x1="820" y1="-30" x2="1227" y2="726" stroke="#f0e880" stroke-width="24" opacity="0.070" stroke-linecap="round"/>
  <line x1="820" y1="-30" x2="803" y2="226" stroke="#f0e880" stroke-width="74" opacity="0.039" stroke-linecap="round"/>
  <ellipse cx="800" cy="350" rx="300" ry="250" fill="url(#glowGold)" filter="url(#blur3)"/>
  <ellipse cx="800" cy="350" rx="200" ry="170" fill="url(#glow1)" filter="url(#blur3)"/>
  <path d="M1165,610 Q1155,572 1158,533" stroke="#98a050" stroke-width="2" fill="none" opacity="0.4"/>
  <path d="M563,838 Q577,812 564,786" stroke="#8a9040" stroke-width="2" fill="none" opacity="0.4"/>
  <path d="M506,698 Q491,651 499,604" stroke="#98a050" stroke-width="2" fill="none" opacity="0.4"/>
  <path d="M418,874 Q422,807 416,741" stroke="#98a050" stroke-width="2" fill="none" opacity="0.4"/>
  <path d="M674,776 Q679,735 675,694" stroke="#98a050" stroke-width="2" fill="none" opacity="0.4"/>
  <path d="M839,744 Q829,691 834,637" stroke="#8a9040" stroke-width="2" fill="none" opacity="0.4"/>
  <path d="M787,918 Q777,855 783,791" stroke="#788830" stroke-width="2" fill="none" opacity="0.4"/>
  <path d="M1165,752 Q1159,719 1174,686" stroke="#98a050" stroke-width="2" fill="none" opacity="0.4"/>
  <path d="M1071,824 Q1061,766 1064,708" stroke="#788830" stroke-width="2" fill="none" opacity="0.4"/>
  <path d="M1195,766 Q1186,719 1196,672" stroke="#8a9040" stroke-width="2" fill="none" opacity="0.4"/>
  <path d="M428,358 Q469,376 566,437" stroke="#a0a060" stroke-width="1" fill="none" opacity="0.051"/>
  <path d="M428,358 Q456,289 421,201" stroke="#a0a060" stroke-width="1" fill="none" opacity="0.053"/>
  <path d="M832,281 Q828,318 831,423" stroke="#a0a060" stroke-width="1" fill="none" opacity="0.073"/>
  <path d="M832,281 Q747,338 685,345" stroke="#a0a060" stroke-width="1" fill="none" opacity="0.050"/>
  <path d="M724,450 Q702,388 646,401" stroke="#a0a060" stroke-width="1" fill="none" opacity="0.136"/>
  <path d="M724,450 Q795,345 809,297" stroke="#a0a060" stroke-width="1" fill="none" opacity="0.031"/>
  <path d="M724,450 Q647,497 631,603" stroke="#a0a060" stroke-width="1" fill="none" opacity="0.026"/>
  <path d="M724,450 Q660,466 566,437" stroke="#a0a060" stroke-width="1" fill="none" opacity="0.053"/>
  <path d="M724,450 Q737,484 705,477" stroke="#a0a060" stroke-width="1" fill="none" opacity="0.209"/>
  <path d="M724,450 Q697,471 734,446" stroke="#a0a060" stroke-width="1" fill="none" opacity="0.237"/>
  <path d="M724,450 Q736,449 810,488" stroke="#a0a060" stroke-width="1" fill="none" opacity="0.132"/>
  <path d="M724,450 Q718,418 685,345" stroke="#a0a060" stroke-width="1" fill="none" opacity="0.110"/>
  <path d="M656,202 Q683,276 646,401" stroke="#a0a060" stroke-width="1" fill="none" opacity="0.001"/>
  <path d="M656,202 Q532,243 474,228" stroke="#a0a060" stroke-width="1" fill="none" opacity="0.020"/>
  <path d="M656,202 Q643,274 685,345" stroke="#a0a060" stroke-width="1" fill="none" opacity="0.068"/>
  <path d="M665,553 Q627,578 578,668" stroke="#a0a060" stroke-width="1" fill="none" opacity="0.069"/>
  <path d="M665,553 Q625,553 631,603" stroke="#a0a060" stroke-width="1" fill="none" opacity="0.174"/>
  <path d="M665,553 Q648,498 566,437" stroke="#a0a060" stroke-width="1" fill="none" opacity="0.060"/>
  <path d="M665,553 Q662,515 705,477" stroke="#a0a060" stroke-width="1" fill="none" opacity="0.143"/>
  <path d="M665,553 Q745,515 810,488" stroke="#a0a060" stroke-width="1" fill="none" opacity="0.051"/>
  <path d="M665,553 Q559,512 477,490" stroke="#a0a060" stroke-width="1" fill="none" opacity="0.002"/>
  <path d="M1155,690 Q1048,639 985,650" stroke="#a0a060" stroke-width="1" fill="none" opacity="0.032"/>
  <path d="M852,653 Q888,623 985,650" stroke="#a0a060" stroke-width="1" fill="none" opacity="0.084"/>
  <path d="M852,653 Q817,540 810,488" stroke="#a0a060" stroke-width="1" fill="none" opacity="0.036"/>
  <path d="M852,653 Q840,603 811,583" stroke="#a0a060" stroke-width="1" fill="none" opacity="0.148"/>
  <path d="M985,650 Q927,592 811,583" stroke="#a0a060" stroke-width="1" fill="none" opacity="0.017"/>
  <path d="M985,650 Q1021,559 1002,472" stroke="#a0a060" stroke-width="1" fill="none" opacity="0.026"/>
  <path d="M646,401 Q768,348 809,297" stroke="#a0a060" stroke-width="1" fill="none" opacity="0.009"/>
  <path d="M646,401 Q601,432 566,437" stroke="#a0a060" stroke-width="1" fill="none" opacity="0.140"/>
  <path d="M646,401 Q647,431 705,477" stroke="#a0a060" stroke-width="1" fill="none" opacity="0.130"/>
  <path d="M646,401 Q605,408 495,339" stroke="#a0a060" stroke-width="1" fill="none" opacity="0.046"/>
  <path d="M646,401 Q766,431 810,488" stroke="#a0a060" stroke-width="1" fill="none" opacity="0.019"/>
  <path d="M646,401 Q589,463 477,490" stroke="#a0a060" stroke-width="1" fill="none" opacity="0.010"/>
  <path d="M646,401 Q748,400 815,387" stroke="#a0a060" stroke-width="1" fill="none" opacity="0.039"/>
  <path d="M474,228 Q471,226 421,201" stroke="#a0a060" stroke-width="1" fill="none" opacity="0.177"/>
  <path d="M578,668 Q537,643 453,680" stroke="#a0a060" stroke-width="1" fill="none" opacity="0.093"/>
  <path d="M578,668 Q652,673 728,657" stroke="#a0a060" stroke-width="1" fill="none" opacity="0.062"/>
  <path d="M831,423 Q788,324 809,297" stroke="#a0a060" stroke-width="1" fill="none" opacity="0.091"/>
  <path d="M831,423 Q921,460 982,422" stroke="#a0a060" stroke-width="1" fill="none" opacity="0.061"/>
  <path d="M831,423 Q782,422 705,477" stroke="#a0a060" stroke-width="1" fill="none" opacity="0.079"/>
  <path d="M831,423 Q880,477 996,491" stroke="#a0a060" stroke-width="1" fill="none" opacity="0.026"/>
  <path d="M831,423 Q771,383 685,345" stroke="#a0a060" stroke-width="1" fill="none" opacity="0.043"/>
  <path d="M831,423 Q808,532 811,583" stroke="#a0a060" stroke-width="1" fill="none" opacity="0.048"/>
  <path d="M831,423 Q817,438 815,387" stroke="#a0a060" stroke-width="1" fill="none" opacity="0.200"/>
  <path d="M809,297 Q757,362 734,446" stroke="#a0a060" stroke-width="1" fill="none" opacity="0.041"/>
  <path d="M809,297 Q814,421 810,488" stroke="#a0a060" stroke-width="1" fill="none" opacity="0.012"/>
  <path d="M809,297 Q764,320 685,345" stroke="#a0a060" stroke-width="1" fill="none" opacity="0.083"/>
  <path d="M809,297 Q896,323 948,351" stroke="#a0a060" stroke-width="1" fill="none" opacity="0.064"/>
  <path d="M809,297 Q826,355 815,387" stroke="#a0a060" stroke-width="1" fill="none" opacity="0.138"/>
  <path d="M1083,385 Q992,449 902,438" stroke="#a0a060" stroke-width="1" fill="none" opacity="0.015"/>
  <path d="M1083,385 Q1054,353 948,351" stroke="#a0a060" stroke-width="1" fill="none" opacity="0.076"/>
  <path d="M681,689 Q620,673 631,603" stroke="#a0a060" stroke-width="1" fill="none" opacity="0.126"/>
  <path d="M681,689 Q724,635 728,657" stroke="#a0a060" stroke-width="1" fill="none" opacity="0.180"/>
  <path d="M982,422 Q943,487 968,578" stroke="#a0a060" stroke-width="1" fill="none" opacity="0.055"/>
  <path d="M982,422 Q1013,400 1068,352" stroke="#a0a060" stroke-width="1" fill="none" opacity="0.112"/>
  <path d="M982,422 Q1037,437 1067,436" stroke="#a0a060" stroke-width="1" fill="none" opacity="0.142"/>
  <path d="M982,422 Q927,417 902,438" stroke="#a0a060" stroke-width="1" fill="none" opacity="0.148"/>
  <path d="M982,422 Q882,452 810,488" stroke="#a0a060" stroke-width="1" fill="none" opacity="0.020"/>
  <path d="M631,603 Q614,527 566,437" stroke="#a0a060" stroke-width="1" fill="none" opacity="0.028"/>
  <path d="M631,603 Q670,636 728,657" stroke="#a0a060" stroke-width="1" fill="none" opacity="0.111"/>
  <path d="M631,603 Q696,511 734,446" stroke="#a0a060" stroke-width="1" fill="none" opacity="0.016"/>
  <path d="M1117,270 Q1102,300 1068,352" stroke="#a0a060" stroke-width="1" fill="none" opacity="0.130"/>
  <path d="M566,437 Q512,427 531,336" stroke="#a0a060" stroke-width="1" fill="none" opacity="0.116"/>
  <path d="M566,437 Q541,431 477,490" stroke="#a0a060" stroke-width="1" fill="none" opacity="0.120"/>
  <path d="M728,657 Q703,532 705,477" stroke="#a0a060" stroke-width="1" fill="none" opacity="0.023"/>
  <path d="M968,578 Q1041,519 1067,436" stroke="#a0a060" stroke-width="1" fill="none" opacity="0.034"/>
  <path d="M968,578 Q1007,529 996,491" stroke="#a0a060" stroke-width="1" fill="none" opacity="0.136"/>
  <path d="M968,578 Q881,543 810,488" stroke="#a0a060" stroke-width="1" fill="none" opacity="0.023"/>
  <path d="M705,477 Q681,478 734,446" stroke="#a0a060" stroke-width="1" fill="none" opacity="0.198"/>
  <path d="M705,477 Q795,549 811,583" stroke="#a0a060" stroke-width="1" fill="none" opacity="0.063"/>
  <path d="M1067,436 Q1004,435 996,491" stroke="#a0a060" stroke-width="1" fill="none" opacity="0.138"/>
  <path d="M1067,436 Q1030,440 1002,472" stroke="#a0a060" stroke-width="1" fill="none" opacity="0.157"/>
  <path d="M734,446 Q794,435 902,438" stroke="#a0a060" stroke-width="1" fill="none" opacity="0.039"/>
  <path d="M734,446 Q781,507 811,583" stroke="#a0a060" stroke-width="1" fill="none" opacity="0.053"/>
  <path d="M734,446 Q749,396 815,387" stroke="#a0a060" stroke-width="1" fill="none" opacity="0.125"/>
  <path d="M996,491 Q876,460 810,488" stroke="#a0a060" stroke-width="1" fill="none" opacity="0.017"/>
  <path d="M996,491 Q1024,494 1002,472" stroke="#a0a060" stroke-width="1" fill="none" opacity="0.226"/>
  <path d="M996,491 Q1000,458 948,351" stroke="#a0a060" stroke-width="1" fill="none" opacity="0.065"/>
  <path d="M902,438 Q886,477 811,583" stroke="#a0a060" stroke-width="1" fill="none" opacity="0.036"/>
  <path d="M810,488 Q823,503 811,583" stroke="#a0a060" stroke-width="1" fill="none" opacity="0.131"/>
  <path d="M810,488 Q781,456 815,387" stroke="#a0a060" stroke-width="1" fill="none" opacity="0.123"/>
  <path d="M811,583 Q844,464 815,387" stroke="#a0a060" stroke-width="1" fill="none" opacity="0.004"/>
  <path d="M1002,472 Q1000,398 948,351" stroke="#a0a060" stroke-width="1" fill="none" opacity="0.084"/>
  <circle cx="427.8" cy="358.5" r="2.5" fill="#8a9040" opacity="0.67"/>
  <circle cx="427.8" cy="358.5" r="7.6" fill="#8a9040" opacity="0.134"/>
  <circle cx="831.9" cy="281.3" r="2.4" fill="#8a9040" opacity="0.91"/>
  <circle cx="831.9" cy="281.3" r="7.2" fill="#8a9040" opacity="0.183"/>
  <circle cx="723.6" cy="449.7" r="1.9" fill="#8a9040" opacity="0.71"/>
  <circle cx="723.6" cy="449.7" r="5.8" fill="#8a9040" opacity="0.141"/>
  <circle cx="656.2" cy="202.1" r="3.7" fill="#8a9040" opacity="0.94"/>
  <circle cx="656.2" cy="202.1" r="11.1" fill="#8a9040" opacity="0.188"/>
  <circle cx="665.0" cy="552.7" r="2.9" fill="#8a9040" opacity="0.63"/>
  <circle cx="665.0" cy="552.7" r="8.8" fill="#8a9040" opacity="0.126"/>
  <circle cx="1155.2" cy="690.3" r="3.2" fill="#8a9040" opacity="0.57"/>
  <circle cx="1155.2" cy="690.3" r="9.7" fill="#8a9040" opacity="0.113"/>
  <circle cx="852.2" cy="653.4" r="2.8" fill="#8a9040" opacity="0.81"/>
  <circle cx="852.2" cy="653.4" r="8.5" fill="#8a9040" opacity="0.162"/>
  <circle cx="985.3" cy="650.1" r="1.9" fill="#8a9040" opacity="0.75"/>
  <circle cx="985.3" cy="650.1" r="5.8" fill="#8a9040" opacity="0.150"/>
  <circle cx="646.5" cy="400.8" r="4.0" fill="#8a9040" opacity="0.70"/>
  <circle cx="646.5" cy="400.8" r="12.1" fill="#8a9040" opacity="0.140"/>
  <circle cx="474.0" cy="227.5" r="3.4" fill="#8a9040" opacity="0.76"/>
  <circle cx="474.0" cy="227.5" r="10.3" fill="#8a9040" opacity="0.153"/>
  <circle cx="577.7" cy="667.8" r="2.3" fill="#8a9040" opacity="0.51"/>
  <circle cx="577.7" cy="667.8" r="7.0" fill="#8a9040" opacity="0.102"/>
  <circle cx="830.7" cy="422.7" r="3.5" fill="#8a9040" opacity="0.54"/>
  <circle cx="830.7" cy="422.7" r="10.5" fill="#8a9040" opacity="0.108"/>
  <circle cx="809.4" cy="297.2" r="2.5" fill="#8a9040" opacity="0.77"/>
  <circle cx="809.4" cy="297.2" r="7.4" fill="#8a9040" opacity="0.154"/>
  <circle cx="1154.7" cy="654.2" r="2.6" fill="#8a9040" opacity="0.57"/>
  <circle cx="1154.7" cy="654.2" r="7.7" fill="#8a9040" opacity="0.113"/>
  <circle cx="1083.0" cy="384.8" r="2.6" fill="#8a9040" opacity="0.63"/>
  <circle cx="1083.0" cy="384.8" r="7.9" fill="#8a9040" opacity="0.126"/>
  <circle cx="681.1" cy="688.8" r="4.1" fill="#8a9040" opacity="0.54"/>
  <circle cx="681.1" cy="688.8" r="12.4" fill="#8a9040" opacity="0.108"/>
  <circle cx="982.3" cy="422.1" r="4.5" fill="#8a9040" opacity="0.86"/>
  <circle cx="982.3" cy="422.1" r="13.4" fill="#8a9040" opacity="0.172"/>
  <circle cx="630.9" cy="602.8" r="4.4" fill="#8a9040" opacity="0.69"/>
  <circle cx="630.9" cy="602.8" r="13.2" fill="#8a9040" opacity="0.138"/>
  <circle cx="1117.1" cy="269.8" r="3.3" fill="#8a9040" opacity="0.54"/>
  <circle cx="1117.1" cy="269.8" r="9.8" fill="#8a9040" opacity="0.108"/>
  <circle cx="566.2" cy="437.3" r="4.1" fill="#8a9040" opacity="0.94"/>
  <circle cx="566.2" cy="437.3" r="12.3" fill="#8a9040" opacity="0.189"/>
  <circle cx="452.9" cy="680.0" r="3.8" fill="#8a9040" opacity="0.54"/>
  <circle cx="452.9" cy="680.0" r="11.3" fill="#8a9040" opacity="0.108"/>
  <circle cx="727.6" cy="657.2" r="2.7" fill="#8a9040" opacity="0.75"/>
  <circle cx="727.6" cy="657.2" r="8.2" fill="#8a9040" opacity="0.150"/>
  <circle cx="968.2" cy="577.6" r="1.9" fill="#8a9040" opacity="0.58"/>
  <circle cx="968.2" cy="577.6" r="5.7" fill="#8a9040" opacity="0.117"/>
  <circle cx="705.4" cy="476.9" r="1.6" fill="#8a9040" opacity="0.87"/>
  <circle cx="705.4" cy="476.9" r="4.9" fill="#8a9040" opacity="0.174"/>
  <circle cx="1067.7" cy="352.0" r="3.2" fill="#8a9040" opacity="0.71"/>
  <circle cx="1067.7" cy="352.0" r="9.5" fill="#8a9040" opacity="0.142"/>
  <circle cx="421.5" cy="201.2" r="2.3" fill="#8a9040" opacity="0.93"/>
  <circle cx="421.5" cy="201.2" r="6.9" fill="#8a9040" opacity="0.186"/>
  <circle cx="1067.4" cy="436.3" r="3.5" fill="#8a9040" opacity="0.90"/>
  <circle cx="1067.4" cy="436.3" r="10.4" fill="#8a9040" opacity="0.180"/>
  <circle cx="733.7" cy="445.9" r="3.6" fill="#8a9040" opacity="0.61"/>
  <circle cx="733.7" cy="445.9" r="10.7" fill="#8a9040" opacity="0.122"/>
  <circle cx="495.5" cy="338.6" r="4.5" fill="#8a9040" opacity="0.53"/>
  <circle cx="495.5" cy="338.6" r="13.4" fill="#8a9040" opacity="0.106"/>
  <circle cx="996.5" cy="490.5" r="3.2" fill="#8a9040" opacity="0.89"/>
  <circle cx="996.5" cy="490.5" r="9.6" fill="#8a9040" opacity="0.178"/>
  <circle cx="902.4" cy="438.0" r="3.6" fill="#8a9040" opacity="0.55"/>
  <circle cx="902.4" cy="438.0" r="10.7" fill="#8a9040" opacity="0.111"/>
  <circle cx="810.0" cy="487.6" r="4.0" fill="#8a9040" opacity="0.57"/>
  <circle cx="810.0" cy="487.6" r="12.1" fill="#8a9040" opacity="0.115"/>
  <circle cx="446.8" cy="359.8" r="4.1" fill="#8a9040" opacity="0.56"/>
  <circle cx="446.8" cy="359.8" r="12.4" fill="#8a9040" opacity="0.112"/>
  <circle cx="530.6" cy="336.3" r="2.8" fill="#8a9040" opacity="0.91"/>
  <circle cx="530.6" cy="336.3" r="8.3" fill="#8a9040" opacity="0.182"/>
  <circle cx="684.8" cy="344.9" r="3.1" fill="#8a9040" opacity="0.92"/>
  <circle cx="684.8" cy="344.9" r="9.3" fill="#8a9040" opacity="0.184"/>
  <circle cx="811.1" cy="583.2" r="2.0" fill="#8a9040" opacity="0.54"/>
  <circle cx="811.1" cy="583.2" r="6.1" fill="#8a9040" opacity="0.109"/>
  <circle cx="1002.1" cy="471.9" r="4.1" fill="#8a9040" opacity="0.87"/>
  <circle cx="1002.1" cy="471.9" r="12.4" fill="#8a9040" opacity="0.174"/>
  <circle cx="948.0" cy="350.5" r="3.6" fill="#8a9040" opacity="0.81"/>
  <circle cx="948.0" cy="350.5" r="10.7" fill="#8a9040" opacity="0.162"/>
  <circle cx="476.7" cy="490.0" r="4.0" fill="#8a9040" opacity="0.51"/>
  <circle cx="476.7" cy="490.0" r="11.9" fill="#8a9040" opacity="0.101"/>
  <circle cx="814.5" cy="386.5" r="3.0" fill="#8a9040" opacity="0.65"/>
  <circle cx="814.5" cy="386.5" r="8.9" fill="#8a9040" opacity="0.131"/>
  <circle cx="734.0" cy="499.3" r="2.7" fill="#e8b840" opacity="0.67"/>
  <circle cx="734.0" cy="499.3" r="8.1" fill="#e8b840" opacity="0.134"/>
  <circle cx="586.6" cy="270.1" r="4.9" fill="#e8b840" opacity="0.68"/>
  <circle cx="586.6" cy="270.1" r="14.7" fill="#e8b840" opacity="0.135"/>
  <circle cx="652.6" cy="435.8" r="3.5" fill="#e8b840" opacity="0.65"/>
  <circle cx="652.6" cy="435.8" r="10.4" fill="#e8b840" opacity="0.130"/>
  <circle cx="1069.2" cy="326.6" r="3.3" fill="#e8b840" opacity="0.77"/>
  <circle cx="1069.2" cy="326.6" r="9.8" fill="#e8b840" opacity="0.155"/>
  <circle cx="1078.0" cy="551.8" r="4.8" fill="#e8b840" opacity="0.65"/>
  <circle cx="1078.0" cy="551.8" r="14.4" fill="#e8b840" opacity="0.129"/>
  <circle cx="929.4" cy="528.5" r="2.1" fill="#e8b840" opacity="0.89"/>
  <circle cx="929.4" cy="528.5" r="6.2" fill="#e8b840" opacity="0.177"/>
  <circle cx="863.5" cy="536.6" r="4.0" fill="#e8b840" opacity="0.88"/>
  <circle cx="863.5" cy="536.6" r="12.0" fill="#e8b840" opacity="0.175"/>
  <circle cx="914.4" cy="515.5" r="2.7" fill="#e8b840" opacity="0.72"/>
  <circle cx="914.4" cy="515.5" r="8.2" fill="#e8b840" opacity="0.144"/>
  <circle cx="685.6" cy="583.4" r="3.1" fill="#e8b840" opacity="0.82"/>
  <circle cx="685.6" cy="583.4" r="9.3" fill="#e8b840" opacity="0.165"/>
  <circle cx="573.2" cy="546.8" r="4.6" fill="#e8b840" opacity="0.66"/>
  <circle cx="573.2" cy="546.8" r="13.7" fill="#e8b840" opacity="0.131"/>
  <circle cx="1045.9" cy="357.2" r="4.9" fill="#e8b840" opacity="0.60"/>
  <circle cx="1045.9" cy="357.2" r="14.8" fill="#e8b840" opacity="0.120"/>
  <circle cx="554.2" cy="529.1" r="2.7" fill="#e8b840" opacity="0.58"/>
  <circle cx="554.2" cy="529.1" r="8.1" fill="#e8b840" opacity="0.117"/>
</svg>