<svg xmlns="http://www.w3.org/2000/svg" viewBox="0 0 1600 900" width="1600" height="900">
  <defs>
    <linearGradient id="bg" x1="0" y1="0" x2="0" y2="1">
      <stop offset="0%" stop-color="#12110e"/>
      <stop offset="30%" stop-color="#1a1a14"/>
      <stop offset="100%" stop-color="#1a1a14"/>
    </linearGradient>
    <radialGradient id="glow1" cx="50%" cy="50%" r="50%">
      <stop offset="0%" stop-color="#e8d060" stop-opacity="0.25"/>
      <stop offset="100%" stop-color="#b89b3e" stop-opacity="0"/>
    </radialGradient>
    <radialGradient id="glow2" cx="50%" cy="50%" r="50%">
      <stop offset="0%" stop-color="#b89b3e" stop-opacity="0.2"/>
      <stop offset="100%" stop-color="#b89b3e" stop-opacity="0"/>
    </radialGradient>
    <radialGradient id="glowGold" cx="50%" cy="50%" r="50%">
      <stop offset="0%" stop-color="#e8b840" stop-opacity="0.3"/>
      <stop offset="100%" stop-color="#e8b840" stop-opacity="0"/>
    </radialGradient>
    <filter id="blur1"><feGaussianBlur stdDeviation="3"/></filter>
    <filter id="blur2"><feGaussianBlur stdDeviation="8"/></filter>
    <filter id="blur3"><feGaussianBlur stdDeviation="20"/></filter>
  </defs>
  <rect width="1600" height="900" fill="url(#bg)"/>
  <ellipse cx="269" cy="268" rx="84" ry="98" fill="#343222" opacity="0.36"/>
  <ellipse cx="1423" cy="346" rx="194" ry="82" fill="#2a2820" opacity="0.58"/>
  <ellipse cx="1069" cy="256" rx="118" ry="107" fill="#2e2c22" opacity="0.32"/>
  <ellipse cx="242" cy="37" rx="124" ry="45" fill="#343222" opacity="0.50"/>
  <ellipse cx="25" cy="163" rx="118" ry="41" fill="#24221a" opacity="0.46"/>
  <ellipse cx="459" cy="151" rx="158" ry="74" fill="#2e2c22" opacity="0.33"/>
  <ellipse cx="154" cy="10" rx="87" ry="82" fill="#24221a" opacity="0.38"/>
  <ellipse cx="635" cy="99" rx="117" ry="85" fill="#2e2c22" opacity="0.39"/>
  <ellipse cx="1325" cy="-18" rx="199" ry="92" fill="#2a2820" opacity="0.33"/>
  <ellipse cx="607" cy="171" rx="68" ry="41" fill="#2e2c22" opacity="0.32"/>
  <ellipse cx="1353" cy="208" rx="106" ry="118" fill="#2a2820" opacity="0.57"/>
  <ellipse cx="1471" cy="42" rx="186" ry="95" fill="#343222" opacity="0.38"/>
  <ellipse cx="1479" cy="224" rx="99" ry="83" fill="#2a2820" opacity="0.35"/>
  <ellipse cx="1361" cy="-44" rx="89" ry="52" fill="#343222" opacity="0.58"/>
  <ellipse cx="479" cy="176" rx="139" ry="108" fill="#24221a" opacity="0.42"/>
  <ellipse cx="1184" cy="266" rx="157" ry="46" fill="#24221a" opacity="0.32"/>
  <ellipse cx="699" cy="285" rx="108" ry="102" fill="#343222" opacity="0.59"/>
  <ellipse cx="522" cy="204" rx="170" ry="76" fill="#2e2c22" opacity="0.41"/>
  <ellipse cx="1506" cy="123" rx="155" ry="93" fill="#2a2820" opacity="0.53"/>
  <ellipse cx="473" cy="49" rx="70" ry="61" fill="#343222" opacity="0.51"/>
  <line x1="800" y1="-30" x2="953" y2="671" stroke="#e8d060" stroke-width="39" opacity="0.042" stroke-linecap="round"/>
  <line x1="800" y1="-30" x2="504" y2="262" stroke="#e8d060" stroke-width="42" opacity="0.054" stroke-linecap="round"/>
  <line x1="800" y1="-30" x2="616" y2="246" stroke="#e8d060" stroke-width="47" opacity="0.074" stroke-linecap="round"/>
  <line x1="800" y1="-30" x2="768" y2="186" stroke="#e8d060" stroke-width="41" opacity="0.042" stroke-linecap="round"/>
  <line x1="800" y1="-30" x2="867" y2="392" stroke="#e8d060" stroke-width="43" opacity="0.055" stroke-linecap="round"/>
  <line x1="800" y1="-30" x2="754" y2="225" stroke="#e8d060" stroke-width="74" opacity="0.098" stroke-linecap="round"/>
  <line x1="800" y1="-30" x2="1216" y2="403" stroke="#e8d060" stroke-width="30" opacity="0.062" stroke-linecap="round"/>
  <line x1="800" y1="-30" x2="576" y2="314" stroke="#e8d060" stroke-width="50" opacity="0.039" stroke-linecap="round"/>
  <line x1="800" y1="-30" x2="748" y2="462" stroke="#e8d060" stroke-width="49" opacity="0.040" stroke-linecap="round"/>
  <line x1="800" y1="-30" x2="656" y2="314" stroke="#e8d060" stroke-width="58" opacity="0.077" stroke-linecap="round"/>
  <line x1="800" y1="-30" x2="671" y2="213" stroke="#e8d060" stroke-width="38" opacity="0.101" stroke-linecap="round"/>
  <line x1="800" y1="-30" x2="632" y2="581" stroke="#e8d060" stroke-width="68" opacity="0.058" stroke-linecap="round"/>
  <line x1="800" y1="-30" x2="599" y2="714" stroke="#e8d060" stroke-width="72" opacity="0.103" stroke-linecap="round"/>
  <line x1="800" y1="-30" x2="567" y2="325" stroke="#e8d060" stroke-width="77" opacity="0.049" stroke-linecap="round"/>
  <line x1="800" y1="-30" x2="544" y2="807" stroke="#e8d060" stroke-width="78" opacity="0.055" stroke-linecap="round"/>
  <line x1="800" y1="-30" x2="967" y2="487" stroke="#e8d060" stroke-width="55" opacity="0.052" stroke-linecap="round"/>
  <line x1="800" y1="-30" x2="648" y2="726" stroke="#e8d060" stroke-width="44" opacity="0.043" stroke-linecap="round"/>
  <line x1="800" y1="-30" x2="863" y2="581" stroke="#e8d060" stroke-width="53" opacity="0.083" stroke-linecap="round"/>
  <line x1="750" y1="-30" x2="819" y2="834" stroke="#f0e880" stroke-width="48" opacity="0.048" stroke-linecap="round"/>
  <line x1="750" y1="-30" x2="710" y2="372" stroke="#f0e880" stroke-width="62" opacity="0.053" stroke-linecap="round"/>
  <line x1="750" y1="-30" x2="972" y2="403" stroke="#f0e880" stroke-width="50" opacity="0.045" stroke-linecap="round"/>
  <line x1="750" y1="-30" x2="485" y2="576" stroke="#f0e880" stroke-width="63" opacity="0.052" stroke-linecap="round"/>
  <line x1="750" y1="-30" x2="187" y2="664" stroke="#f0e880" stroke-width="49" opacity="0.036" stroke-linecap="round"/>
  <line x1="750" y1="-30" x2="759" y2="814" stroke="#f0e880" stroke-width="62" opacity="0.042" stroke-linecap="round"/>
  <line x1="750" y1="-30" x2="953" y2="374" stroke="#f0e880" stroke-width="74" opacity="0.041" stroke-linecap="round"/>
  <line x1="750" y1="-30" x2="807" y2="223" stroke="#f0e880" stroke-width="66" opacity="0.046" stroke-linecap="round"/>
  <line x1="750" y1="-30" x2="600" y2="605" stroke="#f0e880" stroke-width="23" opacity="0.059" stroke-linecap="round"/>
  <line x1="750" y1="-30" x2="884" y2="431" stroke="#f0e880" stroke-width="65" opacity="0.059" stroke-linecap="round"/>
  <ellipse cx="800" cy="500" rx="400" ry="250" fill="url(#glowGold)" filter="url(#blur3)"/>
  <path d="M717,504 Q702,529 614,509" stroke="#9a9850" stroke-width="1" fill="none" opacity="0.097"/>
  <path d="M717,504 Q703,483 631,503" stroke="#9a9850" stroke-width="1" fill="none" opacity="0.114"/>
  <path d="M823,703 Q779,644 749,592" stroke="#9a9850" stroke-width="1" fill="none" opacity="0.067"/>
  <path d="M823,703 Q835,613 845,559" stroke="#9a9850" stroke-width="1" fill="none" opacity="0.054"/>
  <path d="M823,703 Q927,617 959,558" stroke="#9a9850" stroke-width="1" fill="none" opacity="0.001"/>
  <path d="M823,703 Q856,677 847,613" stroke="#9a9850" stroke-width="1" fill="none" opacity="0.107"/>
  <path d="M669,770 Q674,684 749,592" stroke="#9a9850" stroke-width="1" fill="none" opacity="0.005"/>
  <path d="M669,770 Q638,760 618,796" stroke="#9a9850" stroke-width="1" fill="none" opacity="0.142"/>
  <path d="M669,770 Q710,769 699,794" stroke="#9a9850" stroke-width="1" fill="none" opacity="0.162"/>
  <path d="M614,509 Q568,499 493,561" stroke="#9a9850" stroke-width="1" fill="none" opacity="0.068"/>
  <path d="M614,509 Q704,547 749,592" stroke="#9a9850" stroke-width="1" fill="none" opacity="0.041"/>
  <path d="M614,509 Q666,532 660,565" stroke="#9a9850" stroke-width="1" fill="none" opacity="0.127"/>
  <path d="M614,509 Q659,482 631,503" stroke="#9a9850" stroke-width="1" fill="none" opacity="0.182"/>
  <path d="M1354,541 Q1364,534 1350,581" stroke="#9a9850" stroke-width="1" fill="none" opacity="0.159"/>
  <path d="M1354,541 Q1389,579 1399,657" stroke="#9a9850" stroke-width="1" fill="none" opacity="0.075"/>
  <path d="M574,659 Q705,630 771,653" stroke="#9a9850" stroke-width="1" fill="none" opacity="0.003"/>
  <path d="M574,659 Q552,737 560,784" stroke="#9a9850" stroke-width="1" fill="none" opacity="0.075"/>
  <path d="M574,659 Q546,627 493,561" stroke="#9a9850" stroke-width="1" fill="none" opacity="0.072"/>
  <path d="M574,659 Q504,654 437,707" stroke="#9a9850" stroke-width="1" fill="none" opacity="0.054"/>
  <path d="M574,659 Q525,672 447,763" stroke="#9a9850" stroke-width="1" fill="none" opacity="0.036"/>
  <path d="M574,659 Q602,717 699,794" stroke="#9a9850" stroke-width="1" fill="none" opacity="0.017"/>
  <path d="M574,659 Q533,760 521,800" stroke="#9a9850" stroke-width="1" fill="none" opacity="0.049"/>
  <path d="M771,653 Q892,673 969,651" stroke="#9a9850" stroke-width="1" fill="none" opacity="0.003"/>
  <path d="M771,653 Q800,594 749,592" stroke="#9a9850" stroke-width="1" fill="none" opacity="0.135"/>
  <path d="M771,653 Q747,719 699,794" stroke="#9a9850" stroke-width="1" fill="none" opacity="0.042"/>
  <path d="M771,653 Q802,648 847,613" stroke="#9a9850" stroke-width="1" fill="none" opacity="0.115"/>
  <path d="M560,784 Q472,794 447,763" stroke="#9a9850" stroke-width="1" fill="none" opacity="0.085"/>
  <path d="M560,784 Q667,774 699,794" stroke="#9a9850" stroke-width="1" fill="none" opacity="0.061"/>
  <path d="M560,784 Q626,782 727,848" stroke="#9a9850" stroke-width="1" fill="none" opacity="0.021"/>
  <path d="M978,737 Q1055,763 1130,788" stroke="#9a9850" stroke-width="1" fill="none" opacity="0.039"/>
  <path d="M978,737 Q933,679 959,558" stroke="#9a9850" stroke-width="1" fill="none" opacity="0.020"/>
  <path d="M493,561 Q427,559 361,541" stroke="#9a9850" stroke-width="1" fill="none" opacity="0.067"/>
  <path d="M1350,581 Q1382,634 1357,677" stroke="#9a9850" stroke-width="1" fill="none" opacity="0.104"/>
  <path d="M1350,581 Q1389,640 1399,657" stroke="#9a9850" stroke-width="1" fill="none" opacity="0.109"/>
  <path d="M969,651 Q966,646 1032,679" stroke="#9a9850" stroke-width="1" fill="none" opacity="0.131"/>
  <path d="M969,651 Q936,774 974,850" stroke="#9a9850" stroke-width="1" fill="none" opacity="0.001"/>
  <path d="M437,707 Q382,766 322,805" stroke="#9a9850" stroke-width="1" fill="none" opacity="0.049"/>
  <path d="M437,707 Q384,625 361,541" stroke="#9a9850" stroke-width="1" fill="none" opacity="0.017"/>
  <path d="M437,707 Q427,662 368,610" stroke="#9a9850" stroke-width="1" fill="none" opacity="0.081"/>
  <path d="M437,707 Q354,756 250,752" stroke="#9a9850" stroke-width="1" fill="none" opacity="0.008"/>
  <path d="M437,707 Q458,632 448,521" stroke="#9a9850" stroke-width="1" fill="none" opacity="0.013"/>
  <path d="M447,763 Q351,779 322,805" stroke="#9a9850" stroke-width="1" fill="none" opacity="0.068"/>
  <path d="M447,763 Q368,777 250,752" stroke="#9a9850" stroke-width="1" fill="none" opacity="0.003"/>
  <path d="M447,763 Q402,793 323,791" stroke="#9a9850" stroke-width="1" fill="none" opacity="0.073"/>
  <path d="M447,763 Q520,784 521,800" stroke="#9a9850" stroke-width="1" fill="none" opacity="0.117"/>
  <path d="M322,805 Q293,820 323,791" stroke="#9a9850" stroke-width="1" fill="none" opacity="0.185"/>
  <path d="M322,805 Q452,824 521,800" stroke="#9a9850" stroke-width="1" fill="none" opacity="0.001"/>
  <path d="M749,592 Q729,560 660,565" stroke="#9a9850" stroke-width="1" fill="none" opacity="0.107"/>
  <path d="M749,592 Q707,554 631,503" stroke="#9a9850" stroke-width="1" fill="none" opacity="0.052"/>
  <path d="M749,592 Q794,564 845,559" stroke="#9a9850" stroke-width="1" fill="none" opacity="0.098"/>
  <path d="M967,709 Q980,662 1032,679" stroke="#9a9850" stroke-width="1" fill="none" opacity="0.128"/>
  <path d="M967,709 Q1044,664 1119,692" stroke="#9a9850" stroke-width="1" fill="none" opacity="0.047"/>
  <path d="M967,709 Q961,624 959,558" stroke="#9a9850" stroke-width="1" fill="none" opacity="0.049"/>
  <path d="M967,709 Q941,690 847,613" stroke="#9a9850" stroke-width="1" fill="none" opacity="0.046"/>
  <path d="M1047,604 Q1076,666 1119,692" stroke="#9a9850" stroke-width="1" fill="none" opacity="0.086"/>
  <path d="M1047,604 Q1076,645 1173,706" stroke="#9a9850" stroke-width="1" fill="none" opacity="0.038"/>
  <path d="M361,541 Q429,570 448,521" stroke="#9a9850" stroke-width="1" fill="none" opacity="0.110"/>
  <path d="M1032,679 Q1073,668 1119,692" stroke="#9a9850" stroke-width="1" fill="none" opacity="0.112"/>
  <path d="M1032,679 Q1107,653 1173,706" stroke="#9a9850" stroke-width="1" fill="none" opacity="0.057"/>
  <path d="M1032,679 Q1001,603 959,558" stroke="#9a9850" stroke-width="1" fill="none" opacity="0.059"/>
  <path d="M368,610 Q341,702 250,752" stroke="#9a9850" stroke-width="1" fill="none" opacity="0.015"/>
  <path d="M368,610 Q306,693 323,791" stroke="#9a9850" stroke-width="1" fill="none" opacity="0.014"/>
  <path d="M368,610 Q396,593 448,521" stroke="#9a9850" stroke-width="1" fill="none" opacity="0.080"/>
  <path d="M1357,677 Q1277,719 1173,706" stroke="#9a9850" stroke-width="1" fill="none" opacity="0.014"/>
  <path d="M699,794 Q612,776 521,800" stroke="#9a9850" stroke-width="1" fill="none" opacity="0.022"/>
  <path d="M237,766 Q320,795 323,791" stroke="#9a9850" stroke-width="1" fill="none" opacity="0.111"/>
  <path d="M845,559 Q936,590 959,558" stroke="#9a9850" stroke-width="1" fill="none" opacity="0.086"/>
  <path d="M1119,692 Q1184,666 1173,706" stroke="#9a9850" stroke-width="1" fill="none" opacity="0.145"/>
  <path d="M1130,788 Q1122,773 1173,706" stroke="#9a9850" stroke-width="1" fill="none" opacity="0.107"/>
  <path d="M250,752 Q292,766 323,791" stroke="#9a9850" stroke-width="1" fill="none" opacity="0.117"/>
  <path d="M959,558 Q884,571 847,613" stroke="#9a9850" stroke-width="1" fill="none" opacity="0.074"/>
  <circle cx="716.5" cy="503.7" r="1.6" fill="#8a9040" opacity="0.56"/>
  <circle cx="716.5" cy="503.7" r="4.9" fill="#8a9040" opacity="0.111"/>
  <circle cx="822.6" cy="703.2" r="2.4" fill="#8a9040" opacity="0.52"/>
  <circle cx="822.6" cy="703.2" r="7.3" fill="#8a9040" opacity="0.105"/>
  <circle cx="669.4" cy="770.3" r="2.5" fill="#8a9040" opacity="0.55"/>
  <circle cx="669.4" cy="770.3" r="7.4" fill="#8a9040" opacity="0.110"/>
  <circle cx="614.0" cy="508.6" r="1.3" fill="#8a9040" opacity="0.51"/>
  <circle cx="614.0" cy="508.6" r="3.8" fill="#8a9040" opacity="0.102"/>
  <circle cx="1354.1" cy="540.6" r="3.4" fill="#8a9040" opacity="0.37"/>
  <circle cx="1354.1" cy="540.6" r="10.1" fill="#8a9040" opacity="0.074"/>
  <circle cx="574.3" cy="659.4" r="1.5" fill="#8a9040" opacity="0.54"/>
  <circle cx="574.3" cy="659.4" r="4.6" fill="#8a9040" opacity="0.108"/>
  <circle cx="771.4" cy="653.4" r="2.7" fill="#8a9040" opacity="0.46"/>
  <circle cx="771.4" cy="653.4" r="8.2" fill="#8a9040" opacity="0.092"/>
  <circle cx="560.3" cy="783.6" r="1.3" fill="#8a9040" opacity="0.72"/>
  <circle cx="560.3" cy="783.6" r="3.9" fill="#8a9040" opacity="0.145"/>
  <circle cx="977.6" cy="737.0" r="1.4" fill="#8a9040" opacity="0.79"/>
  <circle cx="977.6" cy="737.0" r="4.2" fill="#8a9040" opacity="0.158"/>
  <circle cx="492.7" cy="561.1" r="1.4" fill="#8a9040" opacity="0.58"/>
  <circle cx="492.7" cy="561.1" r="4.2" fill="#8a9040" opacity="0.116"/>
  <circle cx="1350.2" cy="581.1" r="2.0" fill="#8a9040" opacity="0.39"/>
  <circle cx="1350.2" cy="581.1" r="6.0" fill="#8a9040" opacity="0.078"/>
  <circle cx="968.6" cy="651.2" r="1.1" fill="#8a9040" opacity="0.61"/>
  <circle cx="968.6" cy="651.2" r="3.2" fill="#8a9040" opacity="0.121"/>
  <circle cx="436.8" cy="707.3" r="2.0" fill="#8a9040" opacity="0.65"/>
  <circle cx="436.8" cy="707.3" r="5.9" fill="#8a9040" opacity="0.130"/>
  <circle cx="446.9" cy="763.3" r="3.0" fill="#8a9040" opacity="0.33"/>
  <circle cx="446.9" cy="763.3" r="9.1" fill="#8a9040" opacity="0.066"/>
  <circle cx="322.1" cy="805.2" r="1.5" fill="#8a9040" opacity="0.46"/>
  <circle cx="322.1" cy="805.2" r="4.4" fill="#8a9040" opacity="0.093"/>
  <circle cx="749.1" cy="591.8" r="3.2" fill="#8a9040" opacity="0.56"/>
  <circle cx="749.1" cy="591.8" r="9.5" fill="#8a9040" opacity="0.113"/>
  <circle cx="966.9" cy="708.9" r="2.5" fill="#8a9040" opacity="0.59"/>
  <circle cx="966.9" cy="708.9" r="7.6" fill="#8a9040" opacity="0.119"/>
  <circle cx="617.5" cy="795.9" r="2.5" fill="#8a9040" opacity="0.71"/>
  <circle cx="617.5" cy="795.9" r="7.6" fill="#8a9040" opacity="0.141"/>
  <circle cx="1047.2" cy="604.1" r="2.5" fill="#8a9040" opacity="0.34"/>
  <circle cx="1047.2" cy="604.1" r="7.6" fill="#8a9040" opacity="0.068"/>
  <circle cx="360.7" cy="541.3" r="1.8" fill="#8a9040" opacity="0.39"/>
  <circle cx="360.7" cy="541.3" r="5.3" fill="#8a9040" opacity="0.078"/>
  <circle cx="1032.1" cy="678.8" r="2.0" fill="#8a9040" opacity="0.37"/>
  <circle cx="1032.1" cy="678.8" r="6.1" fill="#8a9040" opacity="0.074"/>
  <circle cx="660.5" cy="565.0" r="2.6" fill="#8a9040" opacity="0.65"/>
  <circle cx="660.5" cy="565.0" r="7.8" fill="#8a9040" opacity="0.129"/>
  <circle cx="974.3" cy="850.0" r="2.4" fill="#8a9040" opacity="0.54"/>
  <circle cx="974.3" cy="850.0" r="7.2" fill="#8a9040" opacity="0.109"/>
  <circle cx="368.4" cy="610.1" r="2.1" fill="#8a9040" opacity="0.33"/>
  <circle cx="368.4" cy="610.1" r="6.4" fill="#8a9040" opacity="0.065"/>
  <circle cx="630.8" cy="503.4" r="1.3" fill="#8a9040" opacity="0.71"/>
  <circle cx="630.8" cy="503.4" r="4.0" fill="#8a9040" opacity="0.142"/>
  <circle cx="1356.6" cy="676.9" r="2.2" fill="#8a9040" opacity="0.64"/>
  <circle cx="1356.6" cy="676.9" r="6.7" fill="#8a9040" opacity="0.128"/>
  <circle cx="698.8" cy="794.0" r="2.2" fill="#8a9040" opacity="0.34"/>
  <circle cx="698.8" cy="794.0" r="6.7" fill="#8a9040" opacity="0.068"/>
  <circle cx="237.0" cy="766.4" r="1.7" fill="#8a9040" opacity="0.44"/>
  <circle cx="237.0" cy="766.4" r="5.2" fill="#8a9040" opacity="0.087"/>
  <circle cx="845.1" cy="558.9" r="2.1" fill="#8a9040" opacity="0.67"/>
  <circle cx="845.1" cy="558.9" r="6.4" fill="#8a9040" opacity="0.134"/>
  <circle cx="1119.1" cy="692.4" r="1.3" fill="#8a9040" opacity="0.36"/>
  <circle cx="1119.1" cy="692.4" r="3.8" fill="#8a9040" opacity="0.071"/>
  <circle cx="1130.1" cy="788.1" r="1.9" fill="#8a9040" opacity="0.71"/>
  <circle cx="1130.1" cy="788.1" r="5.8" fill="#8a9040" opacity="0.142"/>
  <circle cx="249.9" cy="751.6" r="2.4" fill="#8a9040" opacity="0.79"/>
  <circle cx="249.9" cy="751.6" r="7.1" fill="#8a9040" opacity="0.159"/>
  <circle cx="322.9" cy="790.5" r="2.9" fill="#8a9040" opacity="0.45"/>
  <circle cx="322.9" cy="790.5" r="8.6" fill="#8a9040" opacity="0.090"/>
  <circle cx="1399.2" cy="657.4" r="1.9" fill="#8a9040" opacity="0.71"/>
  <circle cx="1399.2" cy="657.4" r="5.6" fill="#8a9040" opacity="0.142"/>
  <circle cx="726.9" cy="847.9" r="2.9" fill="#8a9040" opacity="0.42"/>
  <circle cx="726.9" cy="847.9" r="8.8" fill="#8a9040" opacity="0.084"/>
  <circle cx="1172.8" cy="705.8" r="1.9" fill="#8a9040" opacity="0.66"/>
  <circle cx="1172.8" cy="705.8" r="5.6" fill="#8a9040" opacity="0.131"/>
  <circle cx="959.3" cy="558.1" r="1.3" fill="#8a9040" opacity="0.40"/>
  <circle cx="959.3" cy="558.1" r="4.0" fill="#8a9040" opacity="0.081"/>
  <circle cx="448.3" cy="520.8" r="1.9" fill="#8a9040" opacity="0.44"/>
  <circle cx="448.3" cy="520.8" r="5.6" fill="#8a9040" opacity="0.088"/>
  <circle cx="846.5" cy="613.3" r="2.8" fill="#8a9040" opacity="0.44"/>
  <circle cx="846.5" cy="613.3" r="8.3" fill="#8a9040" opacity="0.089"/>
  <circle cx="520.8" cy="800.3" r="3.5" fill="#8a9040" opacity="0.64"/>
  <circle cx="520.8" cy="800.3" r="10.4" fill="#8a9040" opacity="0.128"/>
  <circle cx="1040.7" cy="610.2" r="3.5" fill="#e8b840" opacity="0.53"/>
  <circle cx="1040.7" cy="610.2" r="10.4" fill="#e8b840" opacity="0.105"/>
  <circle cx="617.6" cy="422.4" r="2.4" fill="#e8b840" opacity="0.71"/>
  <circle cx="617.6" cy="422.4" r="7.2" fill="#e8b840" opacity="0.142"/>
  <circle cx="867.8" cy="446.6" r="2.3" fill="#e8b840" opacity="0.59"/>
  <circle cx="867.8" cy="446.6" r="7.0" fill="#e8b840" opacity="0.117"/>
  <circle cx="725.2" cy="560.8" r="3.9" fill="#e8b840" opacity="0.48"/>
  <circle cx="725.2" cy="560.8" r="11.8" fill="#e8b840" opacity="0.097"/>
  <circle cx="646.6" cy="479.5" r="2.2" fill="#e8b840" opacity="0.46"/>
  <circle cx="646.6" cy="479.5" r="6.7" fill="#e8b840" opacity="0.093"/>
  <circle cx="948.8" cy="647.9" r="3.4" fill="#e8b840" opacity="0.42"/>
  <circle cx="948.8" cy="647.9" r="10.2" fill="#e8b840" opacity="0.083"/>
  <circle cx="1068.7" cy="498.3" r="2.2" fill="#e8b840" opacity="0.50"/>
  <circle cx="1068.7" cy="498.3" r="6.5" fill="#e8b840" opacity="0.100"/>
  <circle cx="684.6" cy="554.0" r="3.4" fill="#e8b840" opacity="0.50"/>
  <circle cx="684.6" cy="554.0" r="10.1" fill="#e8b840" opacity="0.101"/>
  <circle cx="1192.5" cy="409.3" r="2.8" fill="#e8b840" opacity="0.58"/>
  <circle cx="1192.5" cy="409.3" r="8.4" fill="#e8b840" opacity="0.116"/>
  <circle cx="998.5" cy="475.0" r="2.9" fill="#e8b840" opacity="0.72"/>
  <circle cx="998.5" cy="475.0" r="8.8" fill="#e8b840" opacity="0.144"/>
  <circle cx="511.8" cy="403.6" r="3.7" fill="#e8b840" opacity="0.79"/>
  <circle cx="511.8" cy="403.6" r="11.0" fill="#e8b840" opacity="0.159"/>
  <circle cx="504.6" cy="647.1" r="2.7" fill="#e8b840" opacity="0.65"/>
  <circle cx="504.6" cy="647.1" r="8.2" fill="#e8b840" opacity="0.130"/>
  <path d="M1031,157 Q1050,362 1041,566" stroke="#3a3424" stroke-width="1.7" fill="none" opacity="0.16"/>
  <path d="M1444,120 Q1468,314 1456,508" stroke="#3a3424" stroke-width="2.7" fill="none" opacity="0.36"/>
  <path d="M68,124 Q73,325 71,526" stroke="#3a3424" stroke-width="2.9" fill="none" opacity="0.36"/>
  <path d="M47,184 Q30,356 39,528" stroke="#3a3424" stroke-width="2.5" fill="none" opacity="0.20"/>
  <path d="M1413,9 Q1398,369 1406,729" stroke="#3a3424" stroke-width="2.9" fill="none" opacity="0.22"/>
  <path d="M881,16 Q859,296 870,576" stroke="#3a3424" stroke-width="4.6" fill="none" opacity="0.20"/>
  <path d="M841,170 Q859,491 850,811" stroke="#3a3424" stroke-width="4.2" fill="none" opacity="0.40"/>
  <path d="M575,147 Q599,408 587,668" stroke="#3a3424" stroke-width="2.9" fill="none" opacity="0.28"/>
  <path d="M288,86 Q311,317 300,549" stroke="#3a3424" stroke-width="1.7" fill="none" opacity="0.34"/>
  <path d="M1586,143 Q1616,469 1601,795" stroke="#3a3424" stroke-width="1.9" fill="none" opacity="0.39"/>
  <rect x="0" y="700" width="1600" height="200" fill="#22201a" opacity="0.5"/>
</svg>