<svg xmlns="http://www.w3.org/2000/svg" viewBox="0 0 800 600" width="800" height="600">
  <defs>
    <linearGradient id="bg" x1="0" y1="0" x2="0" y2="1">
      <stop offset="0%" stop-color="#101a12"/>
      <stop offset="50%" stop-color="#141e18"/>
      <stop offset="100%" stop-color="#0e160e"/>
    </linearGradient>
    <radialGradient id="glow1" cx="50%" cy="50%" r="50%">
      <stop offset="0%" stop-color="#c8e080" stop-opacity="0.15"/>
      <stop offset="100%" stop-color="#c8e080" stop-opacity="0"/>
    </radialGradient>
    <radialGradient id="glow2" cx="50%" cy="50%" r="50%">
      <stop offset="0%" stop-color="#5ba8c8" stop-opacity="0.1"/>
      <stop offset="100%" stop-color="#5ba8c8" stop-opacity="0"/>
    </radialGradient>
    <filter id="blur1"><feGaussianBlur stdDeviation="3"/></filter>
    <filter id="blur2"><feGaussianBlur stdDeviation="8"/></filter>
    <filter id="blur3"><feGaussianBlur stdDeviation="20"/></filter>
  </defs>
  <rect width="800" height="600" fill="url(#bg)"/>
  <ellipse cx="2" cy="515" rx="63" ry="61" fill="#141e18" opacity="0.52" transform="rotate(40 2 515)"/>
  <ellipse cx="693" cy="79" rx="97" ry="166" fill="#182618" opacity="0.33" transform="rotate(63 693 79)"/>
  <ellipse cx="42" cy="445" rx="124" ry="159" fill="#141e18" opacity="0.38" transform="rotate(130 42 445)"/>
  <ellipse cx="475" cy="271" rx="75" ry="138" fill="#182618" opacity="0.51" transform="rotate(312 475 271)"/>
  <ellipse cx="417" cy="275" rx="194" ry="50" fill="#141e18" opacity="0.54" transform="rotate(153 417 275)"/>
  <ellipse cx="86" cy="427" rx="111" ry="184" fill="#141e18" opacity="0.44" transform="rotate(24 86 427)"/>
  <ellipse cx="220" cy="380" rx="128" ry="92" fill="#182618" opacity="0.41" transform="rotate(163 220 380)"/>
  <ellipse cx="484" cy="60" rx="152" ry="176" fill="#182618" opacity="0.55" transform="rotate(198 484 60)"/>
  <ellipse cx="692" cy="258" rx="182" ry="106" fill="#141e18" opacity="0.36" transform="rotate(263 692 258)"/>
  <ellipse cx="250" cy="188" rx="81" ry="193" fill="#182618" opacity="0.57" transform="rotate(24 250 188)"/>
  <ellipse cx="665" cy="56" rx="55" ry="158" fill="#101a12" opacity="0.42" transform="rotate(211 665 56)"/>
  <ellipse cx="449" cy="198" rx="60" ry="97" fill="#182618" opacity="0.58" transform="rotate(152 449 198)"/>
  <path d="M733,9 Q721,198 727,386" stroke="#1a2a18" stroke-width="2.5" fill="none" opacity="0.18"/>
  <path d="M124,87 Q115,320 119,554" stroke="#1a2a18" stroke-width="1.3" fill="none" opacity="0.29"/>
  <path d="M223,41 Q227,235 225,429" stroke="#1a2a18" stroke-width="2.9" fill="none" opacity="0.34"/>
  <path d="M540,100 Q549,291 545,483" stroke="#1a2a18" stroke-width="1.1" fill="none" opacity="0.32"/>
  <path d="M219,137 Q210,357 214,576" stroke="#1a2a18" stroke-width="1.4" fill="none" opacity="0.20"/>
  <path d="M526,13 Q554,267 540,522" stroke="#1a2a18" stroke-width="2.6" fill="none" opacity="0.17"/>
  <path d="M301,82 Q290,214 295,347" stroke="#1a2a18" stroke-width="3.8" fill="none" opacity="0.23"/>
  <path d="M477,159 Q492,253 485,347" stroke="#1a2a18" stroke-width="1.2" fill="none" opacity="0.16"/>
  <path d="M354,76 Q349,279 352,482" stroke="#1a2a18" stroke-width="2.5" fill="none" opacity="0.20"/>
  <path d="M276,20 Q282,262 279,503" stroke="#1a2a18" stroke-width="1.9" fill="none" opacity="0.28"/>
  <path d="M176,177 Q159,247 168,316" stroke="#1a2a18" stroke-width="3.3" fill="none" opacity="0.39"/>
  <path d="M611,52 Q611,194 611,336" stroke="#1a2a18" stroke-width="1.4" fill="none" opacity="0.26"/>
  <path d="M426,41 Q436,255 431,468" stroke="#1a2a18" stroke-width="2.2" fill="none" opacity="0.24"/>
  <path d="M594,79 Q568,258 581,438" stroke="#1a2a18" stroke-width="2.3" fill="none" opacity="0.23"/>
  <path d="M324,115 Q318,251 321,387" stroke="#1a2a18" stroke-width="1.5" fill="none" opacity="0.39"/>
  <path d="M758,83 Q750,295 754,507" stroke="#1a2a18" stroke-width="1.3" fill="none" opacity="0.26"/>
  <path d="M349,72 Q371,198 360,324" stroke="#1a2a18" stroke-width="1.7" fill="none" opacity="0.34"/>
  <path d="M623,14 Q625,252 624,490" stroke="#1a2a18" stroke-width="3.3" fill="none" opacity="0.20"/>
  <path d="M281,172 Q260,333 270,494" stroke="#1a2a18" stroke-width="1.8" fill="none" opacity="0.18"/>
  <path d="M139,28 Q113,278 126,528" stroke="#1a2a18" stroke-width="2.9" fill="none" opacity="0.39"/>
  <path d="M371,338 Q706,386 464,409" stroke="#1a2a15" stroke-width="4.9" fill="none" opacity="0.16"/>
  <path d="M777,190 Q505,478 352,281" stroke="#1a2a15" stroke-width="3.4" fill="none" opacity="0.17"/>
  <path d="M59,277 Q230,387 30,221" stroke="#1a2a15" stroke-width="4.9" fill="none" opacity="0.12"/>
  <path d="M475,231 Q591,25 464,573" stroke="#1a2a15" stroke-width="4.6" fill="none" opacity="0.21"/>
  <path d="M151,363 Q360,487 401,575" stroke="#1a2a15" stroke-width="4.3" fill="none" opacity="0.30"/>
  <path d="M67,388 Q793,314 31,425" stroke="#1a2a15" stroke-width="3.4" fill="none" opacity="0.17"/>
  <path d="M734,232 Q42,379 620,407" stroke="#1a2a15" stroke-width="2.3" fill="none" opacity="0.17"/>
  <path d="M446,232 Q772,362 202,511" stroke="#1a2a15" stroke-width="1.6" fill="none" opacity="0.12"/>
  <path d="M531,550 Q530,77 248,394" stroke="#1a2a15" stroke-width="3.8" fill="none" opacity="0.12"/>
  <path d="M447,386 Q562,568 263,77" stroke="#1a2a15" stroke-width="5.0" fill="none" opacity="0.28"/>
  <path d="M75,402 Q247,571 407,11" stroke="#1a2a15" stroke-width="2.4" fill="none" opacity="0.25"/>
  <path d="M154,600 Q630,305 124,177" stroke="#1a2a15" stroke-width="3.2" fill="none" opacity="0.25"/>
  <path d="M421,397 Q478,93 701,371" stroke="#1a2a15" stroke-width="1.7" fill="none" opacity="0.24"/>
  <path d="M500,542 Q291,432 577,26" stroke="#1a2a15" stroke-width="4.9" fill="none" opacity="0.22"/>
  <path d="M602,470 Q772,471 187,144" stroke="#1a2a15" stroke-width="4.6" fill="none" opacity="0.14"/>
  <circle cx="507.0" cy="328.2" r="1.4" fill="#4a6a3a" opacity="0.18"/>
  <circle cx="507.0" cy="328.2" r="4.3" fill="#4a6a3a" opacity="0.027"/>
  <circle cx="566.9" cy="301.2" r="1.4" fill="#4a6a3a" opacity="0.12"/>
  <circle cx="566.9" cy="301.2" r="4.3" fill="#4a6a3a" opacity="0.017"/>
  <circle cx="219.8" cy="341.9" r="1.9" fill="#4a6a3a" opacity="0.11"/>
  <circle cx="219.8" cy="341.9" r="5.6" fill="#4a6a3a" opacity="0.016"/>
  <circle cx="388.4" cy="248.5" r="1.9" fill="#4a6a3a" opacity="0.17"/>
  <circle cx="388.4" cy="248.5" r="5.8" fill="#4a6a3a" opacity="0.026"/>
  <circle cx="409.5" cy="149.9" r="1.1" fill="#4a6a3a" opacity="0.12"/>
  <circle cx="409.5" cy="149.9" r="3.3" fill="#4a6a3a" opacity="0.017"/>
  <circle cx="369.6" cy="305.3" r="1.8" fill="#4a6a3a" opacity="0.11"/>
  <circle cx="369.6" cy="305.3" r="5.5" fill="#4a6a3a" opacity="0.016"/>
  <circle cx="646.3" cy="426.7" r="1.9" fill="#4a6a3a" opacity="0.19"/>
  <circle cx="646.3" cy="426.7" r="5.7" fill="#4a6a3a" opacity="0.029"/>
  <circle cx="348.9" cy="258.6" r="1.4" fill="#4a6a3a" opacity="0.14"/>
  <circle cx="348.9" cy="258.6" r="4.1" fill="#4a6a3a" opacity="0.021"/>
  <rect width="800" height="600" fill="#141e18" opacity="0.3"/>
</svg>