<svg xmlns="http://www.w3.org/2000/svg" viewBox="0 0 800 600" width="800" height="600">
  <defs>
    <linearGradient id="bg" x1="0" y1="0" x2="0" y2="1">
      <stop offset="0%" stop-color="#1a1a14"/>
      <stop offset="50%" stop-color="#22201a"/>
      <stop offset="100%" stop-color="#1a1a14"/>
    </linearGradient>
    <radialGradient id="glow1" cx="50%" cy="50%" r="50%">
      <stop offset="0%" stop-color="#e8d060" stop-opacity="0.25"/>
      <stop offset="100%" stop-color="#b89b3e" stop-opacity="0"/>
    </radialGradient>
    <radialGradient id="glow2" cx="50%" cy="50%" r="50%">
      <stop offset="0%" stop-color="#b89b3e" stop-opacity="0.2"/>
      <stop offset="100%" stop-color="#b89b3e" stop-opacity="0"/>
    </radialGradient>
    <radialGradient id="glowGold" cx="50%" cy="50%" r="50%">
      <stop offset="0%" stop-color="#e8b840" stop-opacity="0.3"/>
      <stop offset="100%" stop-color="#e8b840" stop-opacity="0"/>
    </radialGradient>
    <filter id="blur1"><feGaussianBlur stdDeviation="3"/></filter>
    <filter id="blur2"><feGaussianBlur stdDeviation="8"/></filter>
    <filter id="blur3"><feGaussianBlur stdDeviation="20"/></filter>
  </defs>
  <rect width="800" height="600" fill="url(#bg)"/>
  <ellipse cx="113" cy="30" rx="191" ry="178" fill="#28261c" opacity="0.16" transform="rotate(312 113 30)"/>
  <ellipse cx="128" cy="196" rx="132" ry="90" fill="#22201a" opacity="0.22" transform="rotate(185 128 196)"/>
  <ellipse cx="399" cy="185" rx="44" ry="191" fill="#28261c" opacity="0.34" transform="rotate(77 399 185)"/>
  <ellipse cx="282" cy="30" rx="119" ry="181" fill="#28261c" opacity="0.17" transform="rotate(3 282 30)"/>
  <ellipse cx="86" cy="80" rx="82" ry="99" fill="#28261c" opacity="0.19" transform="rotate(144 86 80)"/>
  <ellipse cx="456" cy="117" rx="129" ry="52" fill="#28261c" opacity="0.29" transform="rotate(101 456 117)"/>
  <ellipse cx="791" cy="408" rx="59" ry="196" fill="#28261c" opacity="0.19" transform="rotate(355 791 408)"/>
  <ellipse cx="446" cy="219" rx="63" ry="136" fill="#28261c" opacity="0.23" transform="rotate(16 446 219)"/>
  <path d="M110,60 Q107,251 108,442" stroke="#3a3422" stroke-width="3.3" fill="none" opacity="0.27"/>
  <path d="M262,110 Q292,230 277,349" stroke="#3a3422" stroke-width="2.5" fill="none" opacity="0.30"/>
  <path d="M269,149 Q282,304 275,460" stroke="#3a3422" stroke-width="4.4" fill="none" opacity="0.21"/>
  <path d="M295,121 Q300,358 297,594" stroke="#3a3422" stroke-width="4.0" fill="none" opacity="0.31"/>
  <path d="M550,5 Q578,224 564,442" stroke="#3a3422" stroke-width="4.2" fill="none" opacity="0.31"/>
  <path d="M462,130 Q442,302 452,475" stroke="#3a3422" stroke-width="3.7" fill="none" opacity="0.28"/>
  <line x1="400" y1="-20" x2="535" y2="201" stroke="#e8d060" stroke-width="61" opacity="0.043" stroke-linecap="round"/>
  <line x1="400" y1="-20" x2="560" y2="164" stroke="#e8d060" stroke-width="21" opacity="0.065" stroke-linecap="round"/>
  <line x1="400" y1="-20" x2="148" y2="384" stroke="#e8d060" stroke-width="45" opacity="0.102" stroke-linecap="round"/>
  <line x1="400" y1="-20" x2="742" y2="409" stroke="#e8d060" stroke-width="64" opacity="0.045" stroke-linecap="round"/>
  <line x1="400" y1="-20" x2="245" y2="217" stroke="#e8d060" stroke-width="40" opacity="0.093" stroke-linecap="round"/>
  <line x1="400" y1="-20" x2="413" y2="305" stroke="#e8d060" stroke-width="30" opacity="0.113" stroke-linecap="round"/>
  <line x1="400" y1="-20" x2="315" y2="311" stroke="#e8d060" stroke-width="66" opacity="0.098" stroke-linecap="round"/>
  <line x1="400" y1="-20" x2="508" y2="445" stroke="#e8d060" stroke-width="57" opacity="0.055" stroke-linecap="round"/>
  <line x1="400" y1="-20" x2="233" y2="369" stroke="#e8d060" stroke-width="33" opacity="0.118" stroke-linecap="round"/>
  <line x1="400" y1="-20" x2="300" y2="279" stroke="#e8d060" stroke-width="32" opacity="0.096" stroke-linecap="round"/>
  <line x1="400" y1="-20" x2="302" y2="305" stroke="#e8d060" stroke-width="76" opacity="0.104" stroke-linecap="round"/>
  <line x1="400" y1="-20" x2="312" y2="213" stroke="#e8d060" stroke-width="61" opacity="0.070" stroke-linecap="round"/>
  <line x1="400" y1="-20" x2="766" y2="359" stroke="#e8d060" stroke-width="77" opacity="0.104" stroke-linecap="round"/>
  <line x1="400" y1="-20" x2="296" y2="278" stroke="#e8d060" stroke-width="63" opacity="0.068" stroke-linecap="round"/>
  <line x1="400" y1="-20" x2="372" y2="281" stroke="#f0e880" stroke-width="49" opacity="0.028" stroke-linecap="round"/>
  <line x1="400" y1="-20" x2="435" y2="552" stroke="#f0e880" stroke-width="62" opacity="0.025" stroke-linecap="round"/>
  <line x1="400" y1="-20" x2="480" y2="407" stroke="#f0e880" stroke-width="35" opacity="0.047" stroke-linecap="round"/>
  <line x1="400" y1="-20" x2="423" y2="435" stroke="#f0e880" stroke-width="23" opacity="0.037" stroke-linecap="round"/>
  <line x1="400" y1="-20" x2="482" y2="206" stroke="#f0e880" stroke-width="66" opacity="0.020" stroke-linecap="round"/>
  <line x1="400" y1="-20" x2="446" y2="550" stroke="#f0e880" stroke-width="44" opacity="0.057" stroke-linecap="round"/>
  <line x1="400" y1="-20" x2="623" y2="301" stroke="#f0e880" stroke-width="32" opacity="0.059" stroke-linecap="round"/>
  <line x1="400" y1="-20" x2="271" y2="420" stroke="#f0e880" stroke-width="74" opacity="0.024" stroke-linecap="round"/>
  <ellipse cx="400" cy="250" rx="250" ry="200" fill="url(#glowGold)" filter="url(#blur3)"/>
  <ellipse cx="400" cy="250" rx="150" ry="120" fill="url(#glow1)" filter="url(#blur3)"/>
  <path d="M648,138 Q684,144 661,85" stroke="#8a9040" stroke-width="1" fill="none" opacity="0.159"/>
  <path d="M652,549 Q671,553 662,531" stroke="#8a9040" stroke-width="1" fill="none" opacity="0.216"/>
  <path d="M106,334 Q133,379 212,418" stroke="#8a9040" stroke-width="1" fill="none" opacity="0.024"/>
  <path d="M106,334 Q125,300 223,342" stroke="#8a9040" stroke-width="1" fill="none" opacity="0.053"/>
  <path d="M106,334 Q134,311 135,281" stroke="#8a9040" stroke-width="1" fill="none" opacity="0.150"/>
  <path d="M271,545 Q264,460 281,411" stroke="#8a9040" stroke-width="1" fill="none" opacity="0.027"/>
  <path d="M168,131 Q214,119 211,120" stroke="#8a9040" stroke-width="1" fill="none" opacity="0.176"/>
  <path d="M168,131 Q155,141 190,214" stroke="#8a9040" stroke-width="1" fill="none" opacity="0.107"/>
  <path d="M168,131 Q155,193 127,222" stroke="#8a9040" stroke-width="1" fill="none" opacity="0.084"/>
  <path d="M212,418 Q266,407 281,411" stroke="#8a9040" stroke-width="1" fill="none" opacity="0.134"/>
  <path d="M212,418 Q207,452 248,427" stroke="#8a9040" stroke-width="1" fill="none" opacity="0.187"/>
  <path d="M212,418 Q175,354 137,324" stroke="#8a9040" stroke-width="1" fill="none" opacity="0.049"/>
  <path d="M554,138 Q543,123 516,81" stroke="#8a9040" stroke-width="1" fill="none" opacity="0.136"/>
  <path d="M554,138 Q496,120 469,160" stroke="#8a9040" stroke-width="1" fill="none" opacity="0.103"/>
  <path d="M554,138 Q592,76 661,85" stroke="#8a9040" stroke-width="1" fill="none" opacity="0.052"/>
  <path d="M281,411 Q325,337 382,319" stroke="#8a9040" stroke-width="1" fill="none" opacity="0.021"/>
  <path d="M281,411 Q285,417 248,427" stroke="#8a9040" stroke-width="1" fill="none" opacity="0.189"/>
  <path d="M281,411 Q269,401 223,342" stroke="#8a9040" stroke-width="1" fill="none" opacity="0.099"/>
  <path d="M343,301 Q335,328 368,402" stroke="#8a9040" stroke-width="1" fill="none" opacity="0.077"/>
  <path d="M382,319 Q393,336 368,402" stroke="#8a9040" stroke-width="1" fill="none" opacity="0.109"/>
  <path d="M382,319 Q374,397 338,458" stroke="#8a9040" stroke-width="1" fill="none" opacity="0.006"/>
  <path d="M248,427 Q257,402 223,342" stroke="#8a9040" stroke-width="1" fill="none" opacity="0.101"/>
  <path d="M137,324 Q217,294 223,342" stroke="#8a9040" stroke-width="1" fill="none" opacity="0.103"/>
  <path d="M190,214 Q247,276 223,342" stroke="#8a9040" stroke-width="1" fill="none" opacity="0.030"/>
  <path d="M190,214 Q171,224 135,281" stroke="#8a9040" stroke-width="1" fill="none" opacity="0.105"/>
  <circle cx="444.5" cy="317.6" r="2.9" fill="#8a9040" opacity="0.82"/>
  <circle cx="444.5" cy="317.6" r="8.8" fill="#8a9040" opacity="0.164"/>
  <circle cx="647.9" cy="137.5" r="3.3" fill="#8a9040" opacity="0.48"/>
  <circle cx="647.9" cy="137.5" r="9.8" fill="#8a9040" opacity="0.096"/>
  <circle cx="651.8" cy="548.6" r="2.3" fill="#8a9040" opacity="0.62"/>
  <circle cx="651.8" cy="548.6" r="6.9" fill="#8a9040" opacity="0.125"/>
  <circle cx="662.0" cy="531.1" r="3.4" fill="#8a9040" opacity="0.79"/>
  <circle cx="662.0" cy="531.1" r="10.1" fill="#8a9040" opacity="0.159"/>
  <circle cx="105.6" cy="334.0" r="1.7" fill="#8a9040" opacity="0.84"/>
  <circle cx="105.6" cy="334.0" r="5.1" fill="#8a9040" opacity="0.168"/>
  <circle cx="270.7" cy="544.5" r="2.6" fill="#8a9040" opacity="0.62"/>
  <circle cx="270.7" cy="544.5" r="7.8" fill="#8a9040" opacity="0.124"/>
  <circle cx="663.1" cy="475.5" r="2.4" fill="#8a9040" opacity="0.49"/>
  <circle cx="663.1" cy="475.5" r="7.3" fill="#8a9040" opacity="0.097"/>
  <circle cx="167.6" cy="131.2" r="2.4" fill="#8a9040" opacity="0.52"/>
  <circle cx="167.6" cy="131.2" r="7.3" fill="#8a9040" opacity="0.103"/>
  <circle cx="211.7" cy="418.3" r="3.1" fill="#8a9040" opacity="0.66"/>
  <circle cx="211.7" cy="418.3" r="9.2" fill="#8a9040" opacity="0.131"/>
  <circle cx="554.4" cy="137.7" r="3.2" fill="#8a9040" opacity="0.80"/>
  <circle cx="554.4" cy="137.7" r="9.6" fill="#8a9040" opacity="0.161"/>
  <circle cx="596.2" cy="307.6" r="1.7" fill="#8a9040" opacity="0.70"/>
  <circle cx="596.2" cy="307.6" r="5.0" fill="#8a9040" opacity="0.140"/>
  <circle cx="210.9" cy="120.3" r="2.1" fill="#8a9040" opacity="0.51"/>
  <circle cx="210.9" cy="120.3" r="6.4" fill="#8a9040" opacity="0.102"/>
  <circle cx="256.5" cy="167.8" r="3.0" fill="#8a9040" opacity="0.83"/>
  <circle cx="256.5" cy="167.8" r="9.0" fill="#8a9040" opacity="0.166"/>
  <circle cx="281.2" cy="411.4" r="1.5" fill="#8a9040" opacity="0.69"/>
  <circle cx="281.2" cy="411.4" r="4.6" fill="#8a9040" opacity="0.139"/>
  <circle cx="515.7" cy="81.1" r="1.7" fill="#8a9040" opacity="0.54"/>
  <circle cx="515.7" cy="81.1" r="5.2" fill="#8a9040" opacity="0.108"/>
  <circle cx="343.2" cy="301.3" r="3.3" fill="#8a9040" opacity="0.72"/>
  <circle cx="343.2" cy="301.3" r="9.9" fill="#8a9040" opacity="0.143"/>
  <circle cx="286.6" cy="108.7" r="3.3" fill="#8a9040" opacity="0.53"/>
  <circle cx="286.6" cy="108.7" r="10.0" fill="#8a9040" opacity="0.107"/>
  <circle cx="468.8" cy="159.6" r="1.8" fill="#8a9040" opacity="0.47"/>
  <circle cx="468.8" cy="159.6" r="5.3" fill="#8a9040" opacity="0.094"/>
  <circle cx="548.6" cy="352.9" r="2.3" fill="#8a9040" opacity="0.65"/>
  <circle cx="548.6" cy="352.9" r="7.0" fill="#8a9040" opacity="0.129"/>
  <circle cx="382.5" cy="318.8" r="2.8" fill="#8a9040" opacity="0.50"/>
  <circle cx="382.5" cy="318.8" r="8.5" fill="#8a9040" opacity="0.100"/>
  <circle cx="248.5" cy="427.4" r="3.2" fill="#8a9040" opacity="0.44"/>
  <circle cx="248.5" cy="427.4" r="9.7" fill="#8a9040" opacity="0.087"/>
  <circle cx="368.0" cy="401.9" r="1.7" fill="#8a9040" opacity="0.65"/>
  <circle cx="368.0" cy="401.9" r="5.0" fill="#8a9040" opacity="0.131"/>
  <circle cx="137.1" cy="323.8" r="2.5" fill="#8a9040" opacity="0.66"/>
  <circle cx="137.1" cy="323.8" r="7.5" fill="#8a9040" opacity="0.132"/>
  <circle cx="189.9" cy="214.1" r="2.5" fill="#8a9040" opacity="0.45"/>
  <circle cx="189.9" cy="214.1" r="7.6" fill="#8a9040" opacity="0.090"/>
  <circle cx="223.2" cy="341.6" r="1.7" fill="#8a9040" opacity="0.63"/>
  <circle cx="223.2" cy="341.6" r="5.0" fill="#8a9040" opacity="0.126"/>
  <circle cx="585.2" cy="276.7" r="2.5" fill="#8a9040" opacity="0.61"/>
  <circle cx="585.2" cy="276.7" r="7.6" fill="#8a9040" opacity="0.121"/>
  <circle cx="134.6" cy="281.2" r="3.1" fill="#8a9040" opacity="0.73"/>
  <circle cx="134.6" cy="281.2" r="9.3" fill="#8a9040" opacity="0.145"/>
  <circle cx="337.6" cy="458.2" r="3.0" fill="#8a9040" opacity="0.66"/>
  <circle cx="337.6" cy="458.2" r="9.0" fill="#8a9040" opacity="0.132"/>
  <circle cx="127.2" cy="222.3" r="1.6" fill="#8a9040" opacity="0.85"/>
  <circle cx="127.2" cy="222.3" r="4.9" fill="#8a9040" opacity="0.169"/>
  <circle cx="660.7" cy="84.5" r="3.4" fill="#8a9040" opacity="0.41"/>
  <circle cx="660.7" cy="84.5" r="10.1" fill="#8a9040" opacity="0.083"/>
  <circle cx="364.2" cy="283.4" r="2.7" fill="#e8b840" opacity="0.58"/>
  <circle cx="364.2" cy="283.4" r="8.2" fill="#e8b840" opacity="0.116"/>
  <circle cx="403.8" cy="274.3" r="2.2" fill="#e8b840" opacity="0.79"/>
  <circle cx="403.8" cy="274.3" r="6.6" fill="#e8b840" opacity="0.159"/>
  <circle cx="390.8" cy="359.9" r="3.8" fill="#e8b840" opacity="0.61"/>
  <circle cx="390.8" cy="359.9" r="11.5" fill="#e8b840" opacity="0.122"/>
  <circle cx="374.2" cy="290.6" r="2.4" fill="#e8b840" opacity="0.54"/>
  <circle cx="374.2" cy="290.6" r="7.3" fill="#e8b840" opacity="0.109"/>
  <circle cx="328.2" cy="383.7" r="3.2" fill="#e8b840" opacity="0.63"/>
  <circle cx="328.2" cy="383.7" r="9.5" fill="#e8b840" opacity="0.125"/>
  <circle cx="295.7" cy="232.5" r="2.8" fill="#e8b840" opacity="0.75"/>
  <circle cx="295.7" cy="232.5" r="8.3" fill="#e8b840" opacity="0.150"/>
  <circle cx="399.8" cy="313.7" r="3.4" fill="#e8b840" opacity="0.58"/>
  <circle cx="399.8" cy="313.7" r="10.1" fill="#e8b840" opacity="0.115"/>
  <circle cx="496.5" cy="391.6" r="3.3" fill="#e8b840" opacity="0.65"/>
  <circle cx="496.5" cy="391.6" r="9.9" fill="#e8b840" opacity="0.129"/>
  <ellipse cx="400" cy="550" rx="350" ry="60" fill="#3a3828" opacity="0.3" filter="url(#blur2)"/>
</svg>