<svg xmlns="http://www.w3.org/2000/svg" viewBox="0 0 1600 900" width="1600" height="900">
  <defs>
    <linearGradient id="bg" x1="0" y1="0" x2="0" y2="1">
      <stop offset="0%" stop-color="#0e160e"/>
      <stop offset="30%" stop-color="#1a2a1a"/>
      <stop offset="100%" stop-color="#141e18"/>
    </linearGradient>
    <radialGradient id="glow1" cx="50%" cy="50%" r="50%">
      <stop offset="0%" stop-color="#c8e080" stop-opacity="0.15"/>
      <stop offset="100%" stop-color="#c8e080" stop-opacity="0"/>
    </radialGradient>
    <radialGradient id="glow2" cx="50%" cy="50%" r="50%">
      <stop offset="0%" stop-color="#5ba8c8" stop-opacity="0.1"/>
      <stop offset="100%" stop-color="#5ba8c8" stop-opacity="0"/>
    </radialGradient>
    <filter id="blur1"><feGaussianBlur stdDeviation="3"/></filter>
    <filter id="blur2"><feGaussianBlur stdDeviation="8"/></filter>
    <filter id="blur3"><feGaussianBlur stdDeviation="20"/></filter>
  </defs>
  <rect width="1600" height="900" fill="url(#bg)"/>
  <ellipse cx="1177" cy="-25" rx="79" ry="57" fill="#1a2a1e" opacity="0.43"/>
  <ellipse cx="1060" cy="160" rx="104" ry="54" fill="#1a2a1e" opacity="0.66"/>
  <ellipse cx="548" cy="92" rx="168" ry="98" fill="#1a2a1e" opacity="0.56"/>
  <ellipse cx="1109" cy="194" rx="87" ry="60" fill="#1a2a1e" opacity="0.52"/>
  <ellipse cx="360" cy="339" rx="102" ry="63" fill="#1a2a1e" opacity="0.38"/>
  <ellipse cx="1128" cy="77" rx="109" ry="115" fill="#1a2a1e" opacity="0.62"/>
  <ellipse cx="438" cy="-1" rx="155" ry="70" fill="#1a2a1e" opacity="0.69"/>
  <ellipse cx="1309" cy="332" rx="173" ry="63" fill="#1a2a1e" opacity="0.42"/>
  <ellipse cx="1143" cy="89" rx="122" ry="61" fill="#1a2a1e" opacity="0.49"/>
  <ellipse cx="323" cy="165" rx="191" ry="96" fill="#1a2a1e" opacity="0.35"/>
  <ellipse cx="985" cy="185" rx="94" ry="94" fill="#1a2a1e" opacity="0.51"/>
  <ellipse cx="1021" cy="-29" rx="118" ry="97" fill="#1a2a1e" opacity="0.34"/>
  <ellipse cx="1233" cy="-48" rx="137" ry="114" fill="#1a2a1e" opacity="0.46"/>
  <ellipse cx="1496" cy="301" rx="127" ry="56" fill="#1a2a1e" opacity="0.69"/>
  <ellipse cx="514" cy="208" rx="187" ry="47" fill="#1a2a1e" opacity="0.53"/>
  <ellipse cx="856" cy="239" rx="191" ry="113" fill="#1a2a1e" opacity="0.37"/>
  <ellipse cx="1412" cy="20" rx="189" ry="120" fill="#1a2a1e" opacity="0.46"/>
  <ellipse cx="793" cy="325" rx="195" ry="114" fill="#1a2a1e" opacity="0.65"/>
  <ellipse cx="15" cy="177" rx="75" ry="119" fill="#1a2a1e" opacity="0.41"/>
  <ellipse cx="1583" cy="167" rx="129" ry="115" fill="#1a2a1e" opacity="0.64"/>
  <line x1="800" y1="-30" x2="783" y2="305" stroke="#d4e890" stroke-width="27" opacity="0.026" stroke-linecap="round"/>
  <line x1="800" y1="-30" x2="775" y2="349" stroke="#d4e890" stroke-width="31" opacity="0.049" stroke-linecap="round"/>
  <line x1="800" y1="-30" x2="1068" y2="504" stroke="#d4e890" stroke-width="65" opacity="0.027" stroke-linecap="round"/>
  <line x1="800" y1="-30" x2="1247" y2="667" stroke="#d4e890" stroke-width="70" opacity="0.041" stroke-linecap="round"/>
  <line x1="800" y1="-30" x2="390" y2="498" stroke="#d4e890" stroke-width="31" opacity="0.026" stroke-linecap="round"/>
  <line x1="800" y1="-30" x2="696" y2="329" stroke="#d4e890" stroke-width="36" opacity="0.029" stroke-linecap="round"/>
  <line x1="800" y1="-30" x2="1143" y2="767" stroke="#d4e890" stroke-width="38" opacity="0.049" stroke-linecap="round"/>
  <line x1="800" y1="-30" x2="337" y2="437" stroke="#d4e890" stroke-width="62" opacity="0.022" stroke-linecap="round"/>
  <line x1="800" y1="-30" x2="562" y2="310" stroke="#d4e890" stroke-width="44" opacity="0.040" stroke-linecap="round"/>
  <line x1="800" y1="-30" x2="1209" y2="529" stroke="#d4e890" stroke-width="39" opacity="0.025" stroke-linecap="round"/>
  <line x1="800" y1="-30" x2="1051" y2="290" stroke="#d4e890" stroke-width="57" opacity="0.029" stroke-linecap="round"/>
  <line x1="800" y1="-30" x2="630" y2="226" stroke="#d4e890" stroke-width="65" opacity="0.044" stroke-linecap="round"/>
  <line x1="800" y1="-30" x2="722" y2="549" stroke="#d4e890" stroke-width="48" opacity="0.042" stroke-linecap="round"/>
  <line x1="800" y1="-30" x2="892" y2="311" stroke="#d4e890" stroke-width="35" opacity="0.050" stroke-linecap="round"/>
  <line x1="800" y1="-30" x2="945" y2="183" stroke="#d4e890" stroke-width="47" opacity="0.048" stroke-linecap="round"/>
  <line x1="750" y1="-30" x2="378" y2="434" stroke="#f0f4c0" stroke-width="24" opacity="0.021" stroke-linecap="round"/>
  <line x1="750" y1="-30" x2="755" y2="571" stroke="#f0f4c0" stroke-width="29" opacity="0.017" stroke-linecap="round"/>
  <line x1="750" y1="-30" x2="759" y2="251" stroke="#f0f4c0" stroke-width="32" opacity="0.022" stroke-linecap="round"/>
  <line x1="750" y1="-30" x2="411" y2="412" stroke="#f0f4c0" stroke-width="69" opacity="0.019" stroke-linecap="round"/>
  <line x1="750" y1="-30" x2="761" y2="490" stroke="#f0f4c0" stroke-width="23" opacity="0.019" stroke-linecap="round"/>
  <line x1="750" y1="-30" x2="1083" y2="593" stroke="#f0f4c0" stroke-width="44" opacity="0.026" stroke-linecap="round"/>
  <line x1="750" y1="-30" x2="982" y2="529" stroke="#f0f4c0" stroke-width="23" opacity="0.017" stroke-linecap="round"/>
  <line x1="750" y1="-30" x2="174" y2="656" stroke="#f0f4c0" stroke-width="76" opacity="0.011" stroke-linecap="round"/>
  <ellipse cx="800" cy="500" rx="400" ry="250" fill="url(#glow1)" filter="url(#blur3)"/>
  <path d="M1321,511 Q1391,579 1391,634" stroke="#a0c840" stroke-width="0.8" fill="none" opacity="0.029"/>
  <path d="M1321,511 Q1346,580 1399,668" stroke="#a0c840" stroke-width="0.8" fill="none" opacity="0.012"/>
  <path d="M651,739 Q617,821 531,828" stroke="#a0c840" stroke-width="0.8" fill="none" opacity="0.025"/>
  <path d="M651,739 Q746,763 795,840" stroke="#a0c840" stroke-width="0.8" fill="none" opacity="0.012"/>
  <path d="M651,739 Q696,734 815,674" stroke="#a0c840" stroke-width="0.8" fill="none" opacity="0.012"/>
  <path d="M984,622 Q1080,577 1143,612" stroke="#a0c840" stroke-width="0.8" fill="none" opacity="0.020"/>
  <path d="M835,755 Q846,785 838,788" stroke="#a0c840" stroke-width="0.8" fill="none" opacity="0.083"/>
  <path d="M835,755 Q859,758 875,839" stroke="#a0c840" stroke-width="0.8" fill="none" opacity="0.053"/>
  <path d="M835,755 Q784,682 657,687" stroke="#a0c840" stroke-width="0.8" fill="none" opacity="0.005"/>
  <path d="M227,604 Q215,612 268,676" stroke="#a0c840" stroke-width="0.8" fill="none" opacity="0.059"/>
  <path d="M838,788 Q880,792 917,746" stroke="#a0c840" stroke-width="0.8" fill="none" opacity="0.055"/>
  <path d="M838,788 Q808,804 795,840" stroke="#a0c840" stroke-width="0.8" fill="none" opacity="0.066"/>
  <path d="M838,788 Q842,759 815,674" stroke="#a0c840" stroke-width="0.8" fill="none" opacity="0.042"/>
  <path d="M531,828 Q536,792 561,748" stroke="#a0c840" stroke-width="0.8" fill="none" opacity="0.057"/>
  <path d="M531,828 Q487,756 522,736" stroke="#a0c840" stroke-width="0.8" fill="none" opacity="0.054"/>
  <path d="M1171,647 Q1159,593 1143,612" stroke="#a0c840" stroke-width="0.8" fill="none" opacity="0.077"/>
  <path d="M1171,647 Q1223,621 1217,532" stroke="#a0c840" stroke-width="0.8" fill="none" opacity="0.039"/>
  <path d="M917,746 Q822,827 795,840" stroke="#a0c840" stroke-width="0.8" fill="none" opacity="0.023"/>
  <path d="M917,746 Q901,695 815,674" stroke="#a0c840" stroke-width="0.8" fill="none" opacity="0.038"/>
  <path d="M683,582 Q636,607 657,687" stroke="#a0c840" stroke-width="0.8" fill="none" opacity="0.046"/>
  <path d="M683,582 Q776,619 815,674" stroke="#a0c840" stroke-width="0.8" fill="none" opacity="0.019"/>
  <path d="M268,676 Q367,693 426,767" stroke="#a0c840" stroke-width="0.8" fill="none" opacity="0.009"/>
  <path d="M585,606 Q613,712 652,764" stroke="#a0c840" stroke-width="0.8" fill="none" opacity="0.014"/>
  <path d="M585,606 Q594,713 561,748" stroke="#a0c840" stroke-width="0.8" fill="none" opacity="0.028"/>
  <path d="M585,606 Q560,551 491,571" stroke="#a0c840" stroke-width="0.8" fill="none" opacity="0.050"/>
  <path d="M585,606 Q593,670 522,736" stroke="#a0c840" stroke-width="0.8" fill="none" opacity="0.028"/>
  <path d="M585,606 Q656,641 657,687" stroke="#a0c840" stroke-width="0.8" fill="none" opacity="0.046"/>
  <path d="M465,605 Q488,612 491,571" stroke="#a0c840" stroke-width="0.8" fill="none" opacity="0.079"/>
  <path d="M465,605 Q418,703 426,767" stroke="#a0c840" stroke-width="0.8" fill="none" opacity="0.017"/>
  <path d="M795,840 Q754,783 775,804" stroke="#a0c840" stroke-width="0.8" fill="none" opacity="0.080"/>
  <path d="M795,840 Q794,739 815,674" stroke="#a0c840" stroke-width="0.8" fill="none" opacity="0.016"/>
  <path d="M795,840 Q754,813 763,794" stroke="#a0c840" stroke-width="0.8" fill="none" opacity="0.072"/>
  <path d="M652,764 Q595,723 561,748" stroke="#a0c840" stroke-width="0.8" fill="none" opacity="0.054"/>
  <path d="M652,764 Q704,768 775,804" stroke="#a0c840" stroke-width="0.8" fill="none" opacity="0.035"/>
  <path d="M652,764 Q621,758 657,687" stroke="#a0c840" stroke-width="0.8" fill="none" opacity="0.061"/>
  <path d="M561,748 Q517,631 491,571" stroke="#a0c840" stroke-width="0.8" fill="none" opacity="0.005"/>
  <path d="M561,748 Q541,707 522,736" stroke="#a0c840" stroke-width="0.8" fill="none" opacity="0.080"/>
  <path d="M561,748 Q609,702 697,697" stroke="#a0c840" stroke-width="0.8" fill="none" opacity="0.027"/>
  <path d="M875,839 Q788,801 763,794" stroke="#a0c840" stroke-width="0.8" fill="none" opacity="0.040"/>
  <path d="M522,736 Q484,776 426,767" stroke="#a0c840" stroke-width="0.8" fill="none" opacity="0.049"/>
  <path d="M522,736 Q471,803 445,820" stroke="#a0c840" stroke-width="0.8" fill="none" opacity="0.043"/>
  <path d="M426,767 Q421,829 445,820" stroke="#a0c840" stroke-width="0.8" fill="none" opacity="0.071"/>
  <path d="M775,804 Q701,783 657,687" stroke="#a0c840" stroke-width="0.8" fill="none" opacity="0.017"/>
  <path d="M775,804 Q785,798 763,794" stroke="#a0c840" stroke-width="0.8" fill="none" opacity="0.092"/>
  <path d="M657,687 Q726,706 815,674" stroke="#a0c840" stroke-width="0.8" fill="none" opacity="0.020"/>
  <path d="M657,687 Q679,745 763,794" stroke="#a0c840" stroke-width="0.8" fill="none" opacity="0.024"/>
  <circle cx="1320.5" cy="511.1" r="1.8" fill="#c8e060" opacity="0.51"/>
  <circle cx="1320.5" cy="511.1" r="5.5" fill="#c8e060" opacity="0.076"/>
  <circle cx="1119.0" cy="842.4" r="2.3" fill="#c8e060" opacity="0.37"/>
  <circle cx="1119.0" cy="842.4" r="6.9" fill="#c8e060" opacity="0.055"/>
  <circle cx="1391.4" cy="633.9" r="2.7" fill="#c8e060" opacity="0.56"/>
  <circle cx="1391.4" cy="633.9" r="8.2" fill="#c8e060" opacity="0.084"/>
  <circle cx="650.8" cy="739.0" r="2.3" fill="#c8e060" opacity="0.42"/>
  <circle cx="650.8" cy="739.0" r="7.0" fill="#c8e060" opacity="0.062"/>
  <circle cx="984.2" cy="621.7" r="1.4" fill="#c8e060" opacity="0.41"/>
  <circle cx="984.2" cy="621.7" r="4.1" fill="#c8e060" opacity="0.062"/>
  <circle cx="834.6" cy="754.8" r="1.4" fill="#c8e060" opacity="0.20"/>
  <circle cx="834.6" cy="754.8" r="4.3" fill="#c8e060" opacity="0.030"/>
  <circle cx="227.3" cy="604.4" r="2.3" fill="#c8e060" opacity="0.42"/>
  <circle cx="227.3" cy="604.4" r="7.0" fill="#c8e060" opacity="0.063"/>
  <circle cx="838.3" cy="788.2" r="1.5" fill="#c8e060" opacity="0.34"/>
  <circle cx="838.3" cy="788.2" r="4.5" fill="#c8e060" opacity="0.051"/>
  <circle cx="530.8" cy="828.1" r="2.5" fill="#c8e060" opacity="0.25"/>
  <circle cx="530.8" cy="828.1" r="7.4" fill="#c8e060" opacity="0.037"/>
  <circle cx="1171.4" cy="646.7" r="2.5" fill="#c8e060" opacity="0.55"/>
  <circle cx="1171.4" cy="646.7" r="7.6" fill="#c8e060" opacity="0.083"/>
  <circle cx="218.8" cy="572.1" r="1.2" fill="#c8e060" opacity="0.21"/>
  <circle cx="218.8" cy="572.1" r="3.6" fill="#c8e060" opacity="0.032"/>
  <circle cx="917.3" cy="746.2" r="1.1" fill="#c8e060" opacity="0.50"/>
  <circle cx="917.3" cy="746.2" r="3.3" fill="#c8e060" opacity="0.074"/>
  <circle cx="682.7" cy="582.0" r="1.4" fill="#c8e060" opacity="0.55"/>
  <circle cx="682.7" cy="582.0" r="4.3" fill="#c8e060" opacity="0.082"/>
  <circle cx="267.7" cy="676.4" r="1.6" fill="#c8e060" opacity="0.53"/>
  <circle cx="267.7" cy="676.4" r="4.7" fill="#c8e060" opacity="0.079"/>
  <circle cx="1077.8" cy="611.6" r="2.2" fill="#c8e060" opacity="0.47"/>
  <circle cx="1077.8" cy="611.6" r="6.6" fill="#c8e060" opacity="0.070"/>
  <circle cx="584.8" cy="605.6" r="1.3" fill="#c8e060" opacity="0.46"/>
  <circle cx="584.8" cy="605.6" r="3.9" fill="#c8e060" opacity="0.070"/>
  <circle cx="465.3" cy="605.2" r="1.1" fill="#c8e060" opacity="0.58"/>
  <circle cx="465.3" cy="605.2" r="3.4" fill="#c8e060" opacity="0.087"/>
  <circle cx="1255.7" cy="819.1" r="2.3" fill="#c8e060" opacity="0.37"/>
  <circle cx="1255.7" cy="819.1" r="6.8" fill="#c8e060" opacity="0.056"/>
  <circle cx="794.7" cy="840.3" r="2.9" fill="#c8e060" opacity="0.47"/>
  <circle cx="794.7" cy="840.3" r="8.6" fill="#c8e060" opacity="0.070"/>
  <circle cx="1143.0" cy="611.6" r="1.8" fill="#c8e060" opacity="0.26"/>
  <circle cx="1143.0" cy="611.6" r="5.5" fill="#c8e060" opacity="0.039"/>
  <circle cx="651.8" cy="764.0" r="1.9" fill="#c8e060" opacity="0.54"/>
  <circle cx="651.8" cy="764.0" r="5.8" fill="#c8e060" opacity="0.081"/>
  <circle cx="560.9" cy="747.7" r="2.6" fill="#c8e060" opacity="0.57"/>
  <circle cx="560.9" cy="747.7" r="7.8" fill="#c8e060" opacity="0.085"/>
  <circle cx="874.9" cy="838.7" r="2.1" fill="#c8e060" opacity="0.25"/>
  <circle cx="874.9" cy="838.7" r="6.3" fill="#c8e060" opacity="0.038"/>
  <circle cx="491.4" cy="571.2" r="2.3" fill="#c8e060" opacity="0.57"/>
  <circle cx="491.4" cy="571.2" r="6.9" fill="#c8e060" opacity="0.085"/>
  <circle cx="1216.6" cy="532.4" r="2.4" fill="#c8e060" opacity="0.28"/>
  <circle cx="1216.6" cy="532.4" r="7.3" fill="#c8e060" opacity="0.041"/>
  <circle cx="522.2" cy="735.8" r="2.2" fill="#c8e060" opacity="0.55"/>
  <circle cx="522.2" cy="735.8" r="6.6" fill="#c8e060" opacity="0.082"/>
  <circle cx="425.8" cy="766.6" r="2.4" fill="#c8e060" opacity="0.42"/>
  <circle cx="425.8" cy="766.6" r="7.3" fill="#c8e060" opacity="0.064"/>
  <circle cx="775.3" cy="804.3" r="1.7" fill="#c8e060" opacity="0.58"/>
  <circle cx="775.3" cy="804.3" r="5.0" fill="#c8e060" opacity="0.087"/>
  <circle cx="218.4" cy="828.0" r="2.9" fill="#c8e060" opacity="0.25"/>
  <circle cx="218.4" cy="828.0" r="8.8" fill="#c8e060" opacity="0.037"/>
  <circle cx="1399.5" cy="667.6" r="1.5" fill="#c8e060" opacity="0.44"/>
  <circle cx="1399.5" cy="667.6" r="4.5" fill="#c8e060" opacity="0.066"/>
  <circle cx="445.4" cy="820.3" r="2.1" fill="#c8e060" opacity="0.51"/>
  <circle cx="445.4" cy="820.3" r="6.3" fill="#c8e060" opacity="0.077"/>
  <circle cx="656.8" cy="686.8" r="1.7" fill="#c8e060" opacity="0.30"/>
  <circle cx="656.8" cy="686.8" r="5.2" fill="#c8e060" opacity="0.046"/>
  <circle cx="815.4" cy="674.0" r="1.2" fill="#c8e060" opacity="0.59"/>
  <circle cx="815.4" cy="674.0" r="3.6" fill="#c8e060" opacity="0.089"/>
  <circle cx="763.4" cy="793.9" r="2.8" fill="#c8e060" opacity="0.35"/>
  <circle cx="763.4" cy="793.9" r="8.5" fill="#c8e060" opacity="0.052"/>
  <circle cx="696.7" cy="696.9" r="1.4" fill="#c8e060" opacity="0.26"/>
  <circle cx="696.7" cy="696.9" r="4.3" fill="#c8e060" opacity="0.039"/>
  <path d="M1525,125 Q1521,447 1523,769" stroke="#1a3a18" stroke-width="3.1" fill="none" opacity="0.16"/>
  <path d="M1310,215 Q1310,424 1310,634" stroke="#1a3a18" stroke-width="1.7" fill="none" opacity="0.23"/>
  <path d="M1054,193 Q1028,499 1041,805" stroke="#1a3a18" stroke-width="2.4" fill="none" opacity="0.30"/>
  <path d="M641,137 Q653,500 647,864" stroke="#1a3a18" stroke-width="3.4" fill="none" opacity="0.21"/>
  <path d="M575,242 Q584,467 579,692" stroke="#1a3a18" stroke-width="3.3" fill="none" opacity="0.12"/>
  <path d="M1052,96 Q1025,419 1038,741" stroke="#1a3a18" stroke-width="3.0" fill="none" opacity="0.30"/>
  <path d="M639,203 Q635,544 637,885" stroke="#1a3a18" stroke-width="1.8" fill="none" opacity="0.10"/>
  <path d="M817,140 Q822,426 819,711" stroke="#1a3a18" stroke-width="2.2" fill="none" opacity="0.19"/>
  <path d="M1236,159 Q1226,417 1231,675" stroke="#1a3a18" stroke-width="1.3" fill="none" opacity="0.10"/>
  <path d="M666,260 Q692,381 679,502" stroke="#1a3a18" stroke-width="1.9" fill="none" opacity="0.13"/>
  <rect x="0" y="700" width="1600" height="200" fill="#1a2a1a" opacity="0.4"/>
</svg>