<svg xmlns="http://www.w3.org/2000/svg" viewBox="0 0 1600 900" width="1600" height="900">
  <defs>
    <linearGradient id="bg" x1="0" y1="0" x2="0" y2="1">
      <stop offset="0%" stop-color="#141e18"/>
      <stop offset="40%" stop-color="#1a2a1a"/>
      <stop offset="100%" stop-color="#141e18"/>
    </linearGradient>
    <radialGradient id="glow1" cx="50%" cy="50%" r="50%">
      <stop offset="0%" stop-color="#c8e080" stop-opacity="0.15"/>
      <stop offset="100%" stop-color="#c8e080" stop-opacity="0"/>
    </radialGradient>
    <radialGradient id="glow2" cx="50%" cy="50%" r="50%">
      <stop offset="0%" stop-color="#5ba8c8" stop-opacity="0.1"/>
      <stop offset="100%" stop-color="#5ba8c8" stop-opacity="0"/>
    </radialGradient>
    <filter id="blur1"><feGaussianBlur stdDeviation="3"/></filter>
    <filter id="blur2"><feGaussianBlur stdDeviation="8"/></filter>
    <filter id="blur3"><feGaussianBlur stdDeviation="20"/></filter>
  </defs>
  <rect width="1600" height="900" fill="url(#bg)"/>
  <ellipse cx="1023" cy="23" rx="84" ry="76" fill="#1a3018" opacity="0.13" transform="rotate(267 1023 23)"/>
  <ellipse cx="873" cy="531" rx="45" ry="55" fill="#1a2a1e" opacity="0.25" transform="rotate(10 873 531)"/>
  <ellipse cx="318" cy="585" rx="127" ry="75" fill="#1a3018" opacity="0.18" transform="rotate(313 318 585)"/>
  <ellipse cx="1214" cy="144" rx="108" ry="84" fill="#1a2a1e" opacity="0.39" transform="rotate(121 1214 144)"/>
  <ellipse cx="148" cy="87" rx="176" ry="137" fill="#1a2a1e" opacity="0.32" transform="rotate(193 148 87)"/>
  <ellipse cx="1557" cy="341" rx="128" ry="173" fill="#1a3018" opacity="0.37" transform="rotate(130 1557 341)"/>
  <ellipse cx="308" cy="63" rx="146" ry="164" fill="#1a2a1e" opacity="0.36" transform="rotate(312 308 63)"/>
  <ellipse cx="608" cy="408" rx="173" ry="66" fill="#122414" opacity="0.16" transform="rotate(96 608 408)"/>
  <ellipse cx="1499" cy="583" rx="137" ry="67" fill="#1a3018" opacity="0.17" transform="rotate(166 1499 583)"/>
  <ellipse cx="432" cy="833" rx="150" ry="75" fill="#122414" opacity="0.35" transform="rotate(279 432 833)"/>
  <ellipse cx="366" cy="29" rx="90" ry="83" fill="#1a2a1e" opacity="0.37" transform="rotate(204 366 29)"/>
  <ellipse cx="1149" cy="191" rx="120" ry="182" fill="#1a3018" opacity="0.24" transform="rotate(95 1149 191)"/>
  <ellipse cx="395" cy="505" rx="82" ry="134" fill="#1a3018" opacity="0.22" transform="rotate(79 395 505)"/>
  <ellipse cx="1596" cy="459" rx="55" ry="48" fill="#1a2a1e" opacity="0.15" transform="rotate(58 1596 459)"/>
  <ellipse cx="1089" cy="537" rx="102" ry="135" fill="#122414" opacity="0.26" transform="rotate(350 1089 537)"/>
  <ellipse cx="800" cy="420" rx="340" ry="280" fill="#142010" opacity="0.6"/>
  <ellipse cx="800" cy="420" rx="320" ry="260" fill="#1a2a14" opacity="0.4"/>
  <ellipse cx="1377" cy="10" rx="155" ry="149" fill="#162e14" opacity="0.16" transform="rotate(277 1377 10)"/>
  <ellipse cx="544" cy="264" rx="65" ry="41" fill="#162e14" opacity="0.18" transform="rotate(95 544 264)"/>
  <ellipse cx="801" cy="161" rx="186" ry="179" fill="#1d4020" opacity="0.18" transform="rotate(183 801 161)"/>
  <ellipse cx="318" cy="337" rx="66" ry="193" fill="#162e14" opacity="0.19" transform="rotate(216 318 337)"/>
  <ellipse cx="782" cy="101" rx="98" ry="198" fill="#1d4020" opacity="0.09" transform="rotate(87 782 101)"/>
  <ellipse cx="908" cy="71" rx="157" ry="171" fill="#162e14" opacity="0.16" transform="rotate(46 908 71)"/>
  <ellipse cx="760" cy="495" rx="82" ry="180" fill="#1d4020" opacity="0.19" transform="rotate(334 760 495)"/>
  <ellipse cx="1208" cy="621" rx="154" ry="104" fill="#162e14" opacity="0.15" transform="rotate(158 1208 621)"/>
  <ellipse cx="828" cy="109" rx="76" ry="94" fill="#162e14" opacity="0.13" transform="rotate(212 828 109)"/>
  <ellipse cx="12" cy="637" rx="49" ry="51" fill="#1a3a18" opacity="0.18" transform="rotate(26 12 637)"/>
  <ellipse cx="381" cy="602" rx="74" ry="61" fill="#162e14" opacity="0.14" transform="rotate(87 381 602)"/>
  <ellipse cx="757" cy="366" rx="55" ry="145" fill="#1d4020" opacity="0.11" transform="rotate(168 757 366)"/>
  <ellipse cx="1167" cy="606" rx="197" ry="56" fill="#1d4020" opacity="0.16" transform="rotate(288 1167 606)"/>
  <ellipse cx="175" cy="172" rx="126" ry="62" fill="#1a3a18" opacity="0.09" transform="rotate(90 175 172)"/>
  <ellipse cx="1477" cy="399" rx="178" ry="128" fill="#1a3a18" opacity="0.15" transform="rotate(195 1477 399)"/>
  <ellipse cx="24" cy="84" rx="161" ry="78" fill="#1d4020" opacity="0.12" transform="rotate(77 24 84)"/>
  <ellipse cx="642" cy="53" rx="101" ry="198" fill="#1d4020" opacity="0.19" transform="rotate(283 642 53)"/>
  <ellipse cx="456" cy="627" rx="157" ry="165" fill="#162e14" opacity="0.16" transform="rotate(56 456 627)"/>
  <ellipse cx="475" cy="872" rx="133" ry="127" fill="#162e14" opacity="0.10" transform="rotate(18 475 872)"/>
  <ellipse cx="763" cy="827" rx="125" ry="49" fill="#162e14" opacity="0.06" transform="rotate(67 763 827)"/>
  <path d="M861,504 Q913,473 1014,518" stroke="#8abf40" stroke-width="0.8" fill="none" opacity="0.018"/>
  <path d="M861,504 Q881,595 905,631" stroke="#8abf40" stroke-width="0.8" fill="none" opacity="0.031"/>
  <path d="M861,504 Q820,570 793,615" stroke="#8abf40" stroke-width="0.8" fill="none" opacity="0.033"/>
  <path d="M861,504 Q941,548 990,593" stroke="#8abf40" stroke-width="0.8" fill="none" opacity="0.016"/>
  <path d="M861,504 Q813,451 740,478" stroke="#8abf40" stroke-width="0.8" fill="none" opacity="0.038"/>
  <path d="M861,504 Q788,455 727,457" stroke="#8abf40" stroke-width="0.8" fill="none" opacity="0.025"/>
  <path d="M861,504 Q788,509 755,458" stroke="#8abf40" stroke-width="0.8" fill="none" opacity="0.043"/>
  <path d="M748,460 Q659,503 611,524" stroke="#8abf40" stroke-width="0.8" fill="none" opacity="0.019"/>
  <path d="M748,460 Q652,499 622,572" stroke="#8abf40" stroke-width="0.8" fill="none" opacity="0.008"/>
  <path d="M748,460 Q705,531 690,595" stroke="#8abf40" stroke-width="0.8" fill="none" opacity="0.022"/>
  <path d="M748,460 Q798,432 891,372" stroke="#8abf40" stroke-width="0.8" fill="none" opacity="0.008"/>
  <path d="M748,460 Q736,394 738,322" stroke="#8abf40" stroke-width="0.8" fill="none" opacity="0.028"/>
  <path d="M748,460 Q745,492 755,458" stroke="#8abf40" stroke-width="0.8" fill="none" opacity="0.115"/>
  <path d="M611,524 Q514,517 496,534" stroke="#8abf40" stroke-width="0.8" fill="none" opacity="0.043"/>
  <path d="M910,324 Q902,296 939,278" stroke="#8abf40" stroke-width="0.8" fill="none" opacity="0.083"/>
  <path d="M910,324 Q817,333 751,313" stroke="#8abf40" stroke-width="0.8" fill="none" opacity="0.014"/>
  <path d="M910,324 Q944,248 984,232" stroke="#8abf40" stroke-width="0.8" fill="none" opacity="0.041"/>
  <path d="M910,324 Q892,353 891,372" stroke="#8abf40" stroke-width="0.8" fill="none" opacity="0.086"/>
  <path d="M910,324 Q939,298 946,331" stroke="#8abf40" stroke-width="0.8" fill="none" opacity="0.095"/>
  <path d="M910,324 Q916,301 941,324" stroke="#8abf40" stroke-width="0.8" fill="none" opacity="0.099"/>
  <path d="M910,324 Q845,313 738,322" stroke="#8abf40" stroke-width="0.8" fill="none" opacity="0.005"/>
  <path d="M910,324 Q864,294 885,341" stroke="#8abf40" stroke-width="0.8" fill="none" opacity="0.100"/>
  <path d="M526,400 Q563,343 575,241" stroke="#8abf40" stroke-width="0.8" fill="none" opacity="0.009"/>
  <path d="M527,282 Q512,234 575,241" stroke="#8abf40" stroke-width="0.8" fill="none" opacity="0.078"/>
  <path d="M527,282 Q597,261 640,229" stroke="#8abf40" stroke-width="0.8" fill="none" opacity="0.037"/>
  <path d="M1044,602 Q1045,581 1014,518" stroke="#8abf40" stroke-width="0.8" fill="none" opacity="0.060"/>
  <path d="M1044,602 Q983,636 905,631" stroke="#8abf40" stroke-width="0.8" fill="none" opacity="0.025"/>
  <path d="M1044,602 Q1077,559 1059,442" stroke="#8abf40" stroke-width="0.8" fill="none" opacity="0.013"/>
  <path d="M1044,602 Q979,583 990,593" stroke="#8abf40" stroke-width="0.8" fill="none" opacity="0.083"/>
  <path d="M1044,602 Q1017,518 955,502" stroke="#8abf40" stroke-width="0.8" fill="none" opacity="0.031"/>
  <path d="M1014,518 Q1058,508 1059,442" stroke="#8abf40" stroke-width="0.8" fill="none" opacity="0.061"/>
  <path d="M1014,518 Q1062,606 1033,649" stroke="#8abf40" stroke-width="0.8" fill="none" opacity="0.032"/>
  <path d="M1014,518 Q998,546 993,595" stroke="#8abf40" stroke-width="0.8" fill="none" opacity="0.067"/>
  <path d="M1014,518 Q1076,537 1082,505" stroke="#8abf40" stroke-width="0.8" fill="none" opacity="0.074"/>
  <path d="M899,184 Q956,242 939,278" stroke="#8abf40" stroke-width="0.8" fill="none" opacity="0.052"/>
  <path d="M899,184 Q926,264 905,338" stroke="#8abf40" stroke-width="0.8" fill="none" opacity="0.017"/>
  <path d="M899,184 Q920,289 885,341" stroke="#8abf40" stroke-width="0.8" fill="none" opacity="0.015"/>
  <path d="M905,631 Q879,602 793,615" stroke="#8abf40" stroke-width="0.8" fill="none" opacity="0.045"/>
  <path d="M905,631 Q911,641 993,595" stroke="#8abf40" stroke-width="0.8" fill="none" opacity="0.056"/>
  <path d="M905,631 Q907,590 955,502" stroke="#8abf40" stroke-width="0.8" fill="none" opacity="0.028"/>
  <path d="M549,446 Q553,506 496,534" stroke="#8abf40" stroke-width="0.8" fill="none" opacity="0.052"/>
  <path d="M549,446 Q546,545 622,572" stroke="#8abf40" stroke-width="0.8" fill="none" opacity="0.022"/>
  <path d="M549,446 Q655,450 727,457" stroke="#8abf40" stroke-width="0.8" fill="none" opacity="0.001"/>
  <path d="M939,278 Q988,272 1081,235" stroke="#8abf40" stroke-width="0.8" fill="none" opacity="0.021"/>
  <path d="M939,278 Q1024,290 1096,307" stroke="#8abf40" stroke-width="0.8" fill="none" opacity="0.014"/>
  <path d="M939,278 Q867,262 763,283" stroke="#8abf40" stroke-width="0.8" fill="none" opacity="0.002"/>
  <path d="M939,278 Q934,245 989,261" stroke="#8abf40" stroke-width="0.8" fill="none" opacity="0.085"/>
  <path d="M939,278 Q915,330 885,341" stroke="#8abf40" stroke-width="0.8" fill="none" opacity="0.065"/>
  <path d="M793,615 Q744,545 740,478" stroke="#8abf40" stroke-width="0.8" fill="none" opacity="0.022"/>
  <path d="M793,615 Q742,512 755,458" stroke="#8abf40" stroke-width="0.8" fill="none" opacity="0.013"/>
  <path d="M751,313 Q794,270 888,306" stroke="#8abf40" stroke-width="0.8" fill="none" opacity="0.029"/>
  <path d="M751,313 Q733,275 640,229" stroke="#8abf40" stroke-width="0.8" fill="none" opacity="0.027"/>
  <path d="M751,313 Q850,342 891,372" stroke="#8abf40" stroke-width="0.8" fill="none" opacity="0.019"/>
  <path d="M751,313 Q717,421 755,458" stroke="#8abf40" stroke-width="0.8" fill="none" opacity="0.023"/>
  <path d="M888,306 Q949,262 989,289" stroke="#8abf40" stroke-width="0.8" fill="none" opacity="0.052"/>
  <path d="M888,306 Q894,323 891,372" stroke="#8abf40" stroke-width="0.8" fill="none" opacity="0.076"/>
  <path d="M888,306 Q918,331 905,338" stroke="#8abf40" stroke-width="0.8" fill="none" opacity="0.095"/>
  <path d="M888,306 Q814,310 738,322" stroke="#8abf40" stroke-width="0.8" fill="none" opacity="0.019"/>
  <path d="M754,185 Q706,216 640,229" stroke="#8abf40" stroke-width="0.8" fill="none" opacity="0.038"/>
  <path d="M1059,442 Q1001,530 990,593" stroke="#8abf40" stroke-width="0.8" fill="none" opacity="0.009"/>
  <path d="M1059,442 Q1000,484 993,595" stroke="#8abf40" stroke-width="0.8" fill="none" opacity="0.009"/>
  <path d="M1059,442 Q1020,373 989,289" stroke="#8abf40" stroke-width="0.8" fill="none" opacity="0.008"/>
  <path d="M1059,442 Q1056,391 1096,307" stroke="#8abf40" stroke-width="0.8" fill="none" opacity="0.027"/>
  <path d="M740,478 Q707,452 727,457" stroke="#8abf40" stroke-width="0.8" fill="none" opacity="0.103"/>
  <path d="M740,478 Q718,483 755,458" stroke="#8abf40" stroke-width="0.8" fill="none" opacity="0.104"/>
  <path d="M496,534 Q452,573 481,624" stroke="#8abf40" stroke-width="0.8" fill="none" opacity="0.059"/>
  <path d="M993,595 Q954,516 955,502" stroke="#8abf40" stroke-width="0.8" fill="none" opacity="0.053"/>
  <path d="M984,232 Q908,306 905,338" stroke="#8abf40" stroke-width="0.8" fill="none" opacity="0.032"/>
  <path d="M622,572 Q663,594 690,595" stroke="#8abf40" stroke-width="0.8" fill="none" opacity="0.072"/>
  <path d="M622,572 Q540,585 481,624" stroke="#8abf40" stroke-width="0.8" fill="none" opacity="0.020"/>
  <path d="M989,289 Q955,314 891,372" stroke="#8abf40" stroke-width="0.8" fill="none" opacity="0.034"/>
  <path d="M989,289 Q951,344 941,324" stroke="#8abf40" stroke-width="0.8" fill="none" opacity="0.080"/>
  <path d="M891,372 Q912,457 955,502" stroke="#8abf40" stroke-width="0.8" fill="none" opacity="0.023"/>
  <path d="M891,372 Q818,381 738,322" stroke="#8abf40" stroke-width="0.8" fill="none" opacity="0.013"/>
  <path d="M891,372 Q978,325 989,261" stroke="#8abf40" stroke-width="0.8" fill="none" opacity="0.021"/>
  <path d="M891,372 Q860,360 885,341" stroke="#8abf40" stroke-width="0.8" fill="none" opacity="0.099"/>
  <path d="M1081,235 Q1053,316 946,331" stroke="#8abf40" stroke-width="0.8" fill="none" opacity="0.010"/>
  <path d="M1081,235 Q1062,248 989,261" stroke="#8abf40" stroke-width="0.8" fill="none" opacity="0.056"/>
  <path d="M1096,307 Q1070,323 989,261" stroke="#8abf40" stroke-width="0.8" fill="none" opacity="0.043"/>
  <path d="M946,331 Q955,407 955,502" stroke="#8abf40" stroke-width="0.8" fill="none" opacity="0.006"/>
  <path d="M727,457 Q755,383 738,322" stroke="#8abf40" stroke-width="0.8" fill="none" opacity="0.030"/>
  <path d="M955,502 Q914,427 905,338" stroke="#8abf40" stroke-width="0.8" fill="none" opacity="0.006"/>
  <path d="M955,502 Q923,409 885,341" stroke="#8abf40" stroke-width="0.8" fill="none" opacity="0.003"/>
  <path d="M905,338 Q922,316 989,261" stroke="#8abf40" stroke-width="0.8" fill="none" opacity="0.044"/>
  <path d="M941,324 Q987,256 989,261" stroke="#8abf40" stroke-width="0.8" fill="none" opacity="0.067"/>
  <path d="M738,322 Q763,328 763,283" stroke="#8abf40" stroke-width="0.8" fill="none" opacity="0.089"/>
  <path d="M755,458 Q759,378 763,283" stroke="#8abf40" stroke-width="0.8" fill="none" opacity="0.003"/>
  <circle cx="860.8" cy="504.1" r="2.0" fill="#c8e060" opacity="0.36"/>
  <circle cx="860.8" cy="504.1" r="5.9" fill="#c8e060" opacity="0.054"/>
  <circle cx="1049.8" cy="298.2" r="2.7" fill="#c8e060" opacity="0.61"/>
  <circle cx="1049.8" cy="298.2" r="8.1" fill="#c8e060" opacity="0.091"/>
  <circle cx="748.3" cy="460.2" r="2.5" fill="#c8e060" opacity="0.77"/>
  <circle cx="748.3" cy="460.2" r="7.6" fill="#c8e060" opacity="0.115"/>
  <circle cx="610.7" cy="523.8" r="2.0" fill="#c8e060" opacity="0.50"/>
  <circle cx="610.7" cy="523.8" r="5.9" fill="#c8e060" opacity="0.075"/>
  <circle cx="909.9" cy="324.0" r="2.1" fill="#c8e060" opacity="0.68"/>
  <circle cx="909.9" cy="324.0" r="6.4" fill="#c8e060" opacity="0.101"/>
  <circle cx="526.4" cy="400.0" r="3.5" fill="#c8e060" opacity="0.80"/>
  <circle cx="526.4" cy="400.0" r="10.5" fill="#c8e060" opacity="0.120"/>
  <circle cx="526.9" cy="282.3" r="2.0" fill="#c8e060" opacity="0.77"/>
  <circle cx="526.9" cy="282.3" r="6.1" fill="#c8e060" opacity="0.115"/>
  <circle cx="1043.8" cy="602.0" r="2.2" fill="#c8e060" opacity="0.38"/>
  <circle cx="1043.8" cy="602.0" r="6.7" fill="#c8e060" opacity="0.057"/>
  <circle cx="1013.6" cy="517.7" r="2.7" fill="#c8e060" opacity="0.79"/>
  <circle cx="1013.6" cy="517.7" r="8.2" fill="#c8e060" opacity="0.119"/>
  <circle cx="898.5" cy="183.8" r="3.1" fill="#c8e060" opacity="0.45"/>
  <circle cx="898.5" cy="183.8" r="9.4" fill="#c8e060" opacity="0.067"/>
  <circle cx="904.6" cy="630.7" r="1.8" fill="#c8e060" opacity="0.36"/>
  <circle cx="904.6" cy="630.7" r="5.3" fill="#c8e060" opacity="0.054"/>
  <circle cx="548.5" cy="445.5" r="2.0" fill="#c8e060" opacity="0.60"/>
  <circle cx="548.5" cy="445.5" r="6.1" fill="#c8e060" opacity="0.090"/>
  <circle cx="939.3" cy="277.7" r="2.8" fill="#c8e060" opacity="0.43"/>
  <circle cx="939.3" cy="277.7" r="8.3" fill="#c8e060" opacity="0.065"/>
  <circle cx="792.7" cy="614.6" r="3.2" fill="#c8e060" opacity="0.35"/>
  <circle cx="792.7" cy="614.6" r="9.6" fill="#c8e060" opacity="0.052"/>
  <circle cx="751.1" cy="312.8" r="1.5" fill="#c8e060" opacity="0.69"/>
  <circle cx="751.1" cy="312.8" r="4.5" fill="#c8e060" opacity="0.103"/>
  <circle cx="887.8" cy="305.7" r="3.0" fill="#c8e060" opacity="0.58"/>
  <circle cx="887.8" cy="305.7" r="8.9" fill="#c8e060" opacity="0.086"/>
  <circle cx="753.7" cy="184.6" r="1.7" fill="#c8e060" opacity="0.74"/>
  <circle cx="753.7" cy="184.6" r="5.0" fill="#c8e060" opacity="0.111"/>
  <circle cx="1058.5" cy="441.9" r="3.2" fill="#c8e060" opacity="0.59"/>
  <circle cx="1058.5" cy="441.9" r="9.5" fill="#c8e060" opacity="0.089"/>
  <circle cx="574.8" cy="241.2" r="2.1" fill="#c8e060" opacity="0.75"/>
  <circle cx="574.8" cy="241.2" r="6.3" fill="#c8e060" opacity="0.112"/>
  <circle cx="989.5" cy="593.1" r="3.3" fill="#c8e060" opacity="0.41"/>
  <circle cx="989.5" cy="593.1" r="9.9" fill="#c8e060" opacity="0.061"/>
  <circle cx="639.7" cy="229.3" r="3.1" fill="#c8e060" opacity="0.74"/>
  <circle cx="639.7" cy="229.3" r="9.2" fill="#c8e060" opacity="0.111"/>
  <circle cx="740.1" cy="477.9" r="1.8" fill="#c8e060" opacity="0.76"/>
  <circle cx="740.1" cy="477.9" r="5.4" fill="#c8e060" opacity="0.115"/>
  <circle cx="1033.3" cy="648.6" r="3.1" fill="#c8e060" opacity="0.74"/>
  <circle cx="1033.3" cy="648.6" r="9.4" fill="#c8e060" opacity="0.111"/>
  <circle cx="495.9" cy="533.6" r="2.2" fill="#c8e060" opacity="0.77"/>
  <circle cx="495.9" cy="533.6" r="6.5" fill="#c8e060" opacity="0.115"/>
  <circle cx="993.4" cy="594.8" r="3.1" fill="#c8e060" opacity="0.43"/>
  <circle cx="993.4" cy="594.8" r="9.4" fill="#c8e060" opacity="0.065"/>
  <circle cx="983.9" cy="231.9" r="3.2" fill="#c8e060" opacity="0.73"/>
  <circle cx="983.9" cy="231.9" r="9.7" fill="#c8e060" opacity="0.109"/>
  <circle cx="622.4" cy="572.0" r="2.4" fill="#c8e060" opacity="0.45"/>
  <circle cx="622.4" cy="572.0" r="7.3" fill="#c8e060" opacity="0.068"/>
  <circle cx="989.0" cy="289.2" r="1.5" fill="#c8e060" opacity="0.40"/>
  <circle cx="989.0" cy="289.2" r="4.6" fill="#c8e060" opacity="0.059"/>
  <circle cx="690.1" cy="594.9" r="3.4" fill="#c8e060" opacity="0.44"/>
  <circle cx="690.1" cy="594.9" r="10.3" fill="#c8e060" opacity="0.066"/>
  <circle cx="890.5" cy="371.8" r="3.5" fill="#c8e060" opacity="0.57"/>
  <circle cx="890.5" cy="371.8" r="10.4" fill="#c8e060" opacity="0.085"/>
  <circle cx="1081.1" cy="235.4" r="3.4" fill="#c8e060" opacity="0.39"/>
  <circle cx="1081.1" cy="235.4" r="10.3" fill="#c8e060" opacity="0.058"/>
  <circle cx="1096.0" cy="307.4" r="1.7" fill="#c8e060" opacity="0.52"/>
  <circle cx="1096.0" cy="307.4" r="5.2" fill="#c8e060" opacity="0.078"/>
  <circle cx="946.3" cy="330.6" r="2.7" fill="#c8e060" opacity="0.56"/>
  <circle cx="946.3" cy="330.6" r="8.1" fill="#c8e060" opacity="0.083"/>
  <circle cx="726.5" cy="456.8" r="2.0" fill="#c8e060" opacity="0.65"/>
  <circle cx="726.5" cy="456.8" r="6.0" fill="#c8e060" opacity="0.098"/>
  <circle cx="481.1" cy="624.3" r="2.6" fill="#c8e060" opacity="0.66"/>
  <circle cx="481.1" cy="624.3" r="7.7" fill="#c8e060" opacity="0.099"/>
  <circle cx="954.8" cy="501.9" r="2.2" fill="#c8e060" opacity="0.33"/>
  <circle cx="954.8" cy="501.9" r="6.7" fill="#c8e060" opacity="0.050"/>
  <circle cx="905.1" cy="338.5" r="2.1" fill="#c8e060" opacity="0.72"/>
  <circle cx="905.1" cy="338.5" r="6.4" fill="#c8e060" opacity="0.109"/>
  <circle cx="940.6" cy="324.2" r="2.1" fill="#c8e060" opacity="0.50"/>
  <circle cx="940.6" cy="324.2" r="6.4" fill="#c8e060" opacity="0.076"/>
  <circle cx="737.5" cy="321.9" r="1.8" fill="#c8e060" opacity="0.51"/>
  <circle cx="737.5" cy="321.9" r="5.3" fill="#c8e060" opacity="0.077"/>
  <circle cx="1081.8" cy="505.1" r="3.3" fill="#c8e060" opacity="0.61"/>
  <circle cx="1081.8" cy="505.1" r="9.9" fill="#c8e060" opacity="0.091"/>
  <circle cx="672.6" cy="443.0" r="1.5" fill="#c8e060" opacity="0.44"/>
  <circle cx="672.6" cy="443.0" r="4.5" fill="#c8e060" opacity="0.067"/>
  <circle cx="755.1" cy="458.4" r="2.8" fill="#c8e060" opacity="0.53"/>
  <circle cx="755.1" cy="458.4" r="8.4" fill="#c8e060" opacity="0.080"/>
  <circle cx="763.0" cy="282.6" r="2.4" fill="#c8e060" opacity="0.75"/>
  <circle cx="763.0" cy="282.6" r="7.3" fill="#c8e060" opacity="0.113"/>
  <circle cx="989.5" cy="261.5" r="1.7" fill="#c8e060" opacity="0.56"/>
  <circle cx="989.5" cy="261.5" r="5.0" fill="#c8e060" opacity="0.084"/>
  <circle cx="885.1" cy="340.9" r="3.1" fill="#c8e060" opacity="0.68"/>
  <circle cx="885.1" cy="340.9" r="9.4" fill="#c8e060" opacity="0.101"/>
  <ellipse cx="800" cy="400" rx="200" ry="160" fill="url(#glow1)" filter="url(#blur3)"/>
  <line x1="800" y1="-50" x2="822" y2="469" stroke="#d4e890" stroke-width="63" opacity="0.027" stroke-linecap="round"/>
  <line x1="800" y1="-50" x2="876" y2="249" stroke="#d4e890" stroke-width="48" opacity="0.044" stroke-linecap="round"/>
  <line x1="800" y1="-50" x2="625" y2="612" stroke="#d4e890" stroke-width="59" opacity="0.041" stroke-linecap="round"/>
  <line x1="800" y1="-50" x2="1228" y2="628" stroke="#d4e890" stroke-width="43" opacity="0.024" stroke-linecap="round"/>
  <line x1="800" y1="-50" x2="1051" y2="637" stroke="#d4e890" stroke-width="72" opacity="0.016" stroke-linecap="round"/>
  <line x1="800" y1="-50" x2="391" y2="445" stroke="#d4e890" stroke-width="75" opacity="0.045" stroke-linecap="round"/>
  <line x1="800" y1="-50" x2="994" y2="415" stroke="#d4e890" stroke-width="26" opacity="0.034" stroke-linecap="round"/>
  <line x1="800" y1="-50" x2="1087" y2="373" stroke="#d4e890" stroke-width="62" opacity="0.042" stroke-linecap="round"/>
  <path d="M74,215 Q66,398 70,582" stroke="#1a3a18" stroke-width="2.6" fill="none" opacity="0.10"/>
  <path d="M905,214 Q880,370 893,526" stroke="#1a3a18" stroke-width="2.9" fill="none" opacity="0.18"/>
  <path d="M385,246 Q383,380 384,514" stroke="#1a3a18" stroke-width="1.8" fill="none" opacity="0.11"/>
  <path d="M15,217 Q26,536 20,856" stroke="#1a3a18" stroke-width="2.3" fill="none" opacity="0.10"/>
  <path d="M553,159 Q548,448 551,738" stroke="#1a3a18" stroke-width="3.5" fill="none" opacity="0.11"/>
  <path d="M319,104 Q303,386 311,667" stroke="#1a3a18" stroke-width="2.7" fill="none" opacity="0.15"/>
  <path d="M1588,80 Q1598,485 1593,890" stroke="#1a3a18" stroke-width="2.7" fill="none" opacity="0.11"/>
  <path d="M1097,201 Q1104,337 1100,472" stroke="#1a3a18" stroke-width="3.7" fill="none" opacity="0.14"/>
  <path d="M458,216 Q449,469 453,723" stroke="#1a3a18" stroke-width="2.9" fill="none" opacity="0.16"/>
  <path d="M1084,195 Q1105,471 1095,747" stroke="#1a3a18" stroke-width="3.7" fill="none" opacity="0.16"/>
  <path d="M1034,83 Q1039,366 1037,648" stroke="#1a3a18" stroke-width="1.3" fill="none" opacity="0.17"/>
  <path d="M472,202 Q450,365 461,529" stroke="#1a3a18" stroke-width="3.9" fill="none" opacity="0.14"/>
  <circle cx="849" cy="822" r="1" fill="#c8e060" opacity="0.43"/>
  <circle cx="411" cy="742" r="1" fill="#c8e060" opacity="0.29"/>
  <circle cx="1290" cy="672" r="1" fill="#c8e060" opacity="0.24"/>
  <circle cx="184" cy="867" r="1" fill="#c8e060" opacity="0.16"/>
  <circle cx="1546" cy="774" r="1" fill="#c8e060" opacity="0.39"/>
  <circle cx="1568" cy="871" r="1" fill="#c8e060" opacity="0.42"/>
  <circle cx="585" cy="712" r="1" fill="#c8e060" opacity="0.11"/>
  <circle cx="859" cy="409" r="1" fill="#c8e060" opacity="0.37"/>
  <circle cx="1076" cy="526" r="1" fill="#c8e060" opacity="0.43"/>
  <circle cx="1504" cy="98" r="1" fill="#c8e060" opacity="0.19"/>
  <circle cx="40" cy="796" r="1" fill="#c8e060" opacity="0.32"/>
  <circle cx="1464" cy="199" r="1" fill="#c8e060" opacity="0.13"/>
  <circle cx="1318" cy="818" r="1" fill="#c8e060" opacity="0.22"/>
  <circle cx="653" cy="126" r="1" fill="#c8e060" opacity="0.48"/>
  <circle cx="487" cy="443" r="1" fill="#c8e060" opacity="0.14"/>
  <circle cx="1420" cy="122" r="1" fill="#c8e060" opacity="0.28"/>
  <circle cx="1073" cy="669" r="1" fill="#c8e060" opacity="0.48"/>
  <circle cx="671" cy="668" r="1" fill="#c8e060" opacity="0.16"/>
  <circle cx="664" cy="89" r="1" fill="#c8e060" opacity="0.30"/>
  <circle cx="653" cy="856" r="1" fill="#c8e060" opacity="0.11"/>
  <circle cx="593" cy="399" r="1" fill="#c8e060" opacity="0.48"/>
  <circle cx="1369" cy="89" r="1" fill="#c8e060" opacity="0.37"/>
  <circle cx="871" cy="880" r="1" fill="#c8e060" opacity="0.24"/>
  <circle cx="637" cy="171" r="1" fill="#c8e060" opacity="0.15"/>
  <circle cx="1357" cy="409" r="1" fill="#c8e060" opacity="0.37"/>
  <circle cx="1027" cy="537" r="1" fill="#c8e060" opacity="0.11"/>
  <circle cx="1259" cy="219" r="1" fill="#c8e060" opacity="0.15"/>
  <circle cx="903" cy="62" r="1" fill="#c8e060" opacity="0.41"/>
  <circle cx="331" cy="194" r="1" fill="#c8e060" opacity="0.45"/>
  <circle cx="526" cy="133" r="1" fill="#c8e060" opacity="0.46"/>
</svg>