<svg xmlns="http://www.w3.org/2000/svg" viewBox="0 0 1600 900" width="1600" height="900">
  <defs>
    <linearGradient id="bg" x1="0" y1="0" x2="0" y2="1">
      <stop offset="0%" stop-color="#141310"/>
      <stop offset="50%" stop-color="#1a1a14"/>
      <stop offset="100%" stop-color="#141310"/>
    </linearGradient>
    <radialGradient id="glow1" cx="50%" cy="50%" r="50%">
      <stop offset="0%" stop-color="#e8d060" stop-opacity="0.25"/>
      <stop offset="100%" stop-color="#b89b3e" stop-opacity="0"/>
    </radialGradient>
    <radialGradient id="glow2" cx="50%" cy="50%" r="50%">
      <stop offset="0%" stop-color="#b89b3e" stop-opacity="0.2"/>
      <stop offset="100%" stop-color="#b89b3e" stop-opacity="0"/>
    </radialGradient>
    <radialGradient id="glowGold" cx="50%" cy="50%" r="50%">
      <stop offset="0%" stop-color="#e8b840" stop-opacity="0.3"/>
      <stop offset="100%" stop-color="#e8b840" stop-opacity="0"/>
    </radialGradient>
    <filter id="blur1"><feGaussianBlur stdDeviation="3"/></filter>
    <filter id="blur2"><feGaussianBlur stdDeviation="8"/></filter>
    <filter id="blur3"><feGaussianBlur stdDeviation="20"/></filter>
  </defs>
  <rect width="1600" height="900" fill="url(#bg)"/>
  <circle cx="993" cy="183" r="44" fill="#22201a" opacity="0.28"/>
  <circle cx="263" cy="276" r="72" fill="#383428" opacity="0.23"/>
  <circle cx="738" cy="96" r="27" fill="#22201a" opacity="0.47"/>
  <circle cx="299" cy="26" r="60" fill="#2a2820" opacity="0.31"/>
  <circle cx="189" cy="495" r="41" fill="#28261c" opacity="0.25"/>
  <circle cx="804" cy="457" r="23" fill="#2e2c20" opacity="0.31"/>
  <circle cx="79" cy="344" r="76" fill="#28261c" opacity="0.29"/>
  <circle cx="644" cy="535" r="52" fill="#2a2820" opacity="0.36"/>
  <circle cx="175" cy="45" r="35" fill="#22201a" opacity="0.27"/>
  <circle cx="85" cy="32" r="36" fill="#22201a" opacity="0.36"/>
  <circle cx="441" cy="794" r="62" fill="#2a2820" opacity="0.32"/>
  <circle cx="162" cy="661" r="73" fill="#2e2c20" opacity="0.35"/>
  <circle cx="274" cy="183" r="58" fill="#383428" opacity="0.38"/>
  <circle cx="1174" cy="85" r="50" fill="#383428" opacity="0.39"/>
  <circle cx="1183" cy="767" r="61" fill="#28261c" opacity="0.29"/>
  <circle cx="111" cy="169" r="74" fill="#28261c" opacity="0.49"/>
  <circle cx="1066" cy="385" r="21" fill="#2e2c20" opacity="0.46"/>
  <circle cx="273" cy="684" r="21" fill="#2e2c20" opacity="0.49"/>
  <circle cx="933" cy="439" r="35" fill="#22201a" opacity="0.21"/>
  <circle cx="28" cy="612" r="37" fill="#28261c" opacity="0.36"/>
  <circle cx="268" cy="132" r="26" fill="#2e2c20" opacity="0.44"/>
  <circle cx="537" cy="442" r="41" fill="#28261e" opacity="0.28"/>
  <circle cx="778" cy="328" r="21" fill="#2e2c20" opacity="0.29"/>
  <circle cx="534" cy="466" r="60" fill="#28261e" opacity="0.35"/>
  <circle cx="432" cy="467" r="58" fill="#28261c" opacity="0.49"/>
  <circle cx="1370" cy="593" r="28" fill="#2a2820" opacity="0.21"/>
  <circle cx="924" cy="626" r="46" fill="#28261c" opacity="0.42"/>
  <circle cx="310" cy="859" r="58" fill="#2e2c20" opacity="0.46"/>
  <circle cx="1086" cy="809" r="47" fill="#28261e" opacity="0.25"/>
  <circle cx="1457" cy="314" r="40" fill="#28261e" opacity="0.33"/>
  <circle cx="1590" cy="278" r="22" fill="#28261e" opacity="0.41"/>
  <circle cx="1335" cy="111" r="68" fill="#28261e" opacity="0.49"/>
  <circle cx="1268" cy="260" r="78" fill="#2a2820" opacity="0.48"/>
  <circle cx="235" cy="613" r="51" fill="#2e2c20" opacity="0.39"/>
  <circle cx="1063" cy="273" r="37" fill="#2e2c20" opacity="0.20"/>
  <circle cx="66" cy="255" r="56" fill="#22201a" opacity="0.35"/>
  <circle cx="8" cy="317" r="70" fill="#22201a" opacity="0.28"/>
  <circle cx="560" cy="255" r="72" fill="#383428" opacity="0.49"/>
  <circle cx="897" cy="858" r="63" fill="#28261c" opacity="0.50"/>
  <circle cx="315" cy="527" r="25" fill="#28261c" opacity="0.21"/>
  <circle cx="1493" cy="224" r="61" fill="#2a2820" opacity="0.33"/>
  <circle cx="1547" cy="88" r="36" fill="#2e2c20" opacity="0.38"/>
  <circle cx="277" cy="392" r="73" fill="#28261e" opacity="0.24"/>
  <circle cx="1228" cy="225" r="45" fill="#28261c" opacity="0.29"/>
  <circle cx="137" cy="510" r="58" fill="#28261e" opacity="0.26"/>
  <circle cx="1252" cy="750" r="26" fill="#28261e" opacity="0.33"/>
  <circle cx="501" cy="841" r="63" fill="#2a2820" opacity="0.31"/>
  <circle cx="746" cy="865" r="48" fill="#28261e" opacity="0.21"/>
  <circle cx="1227" cy="80" r="28" fill="#2e2c20" opacity="0.44"/>
  <circle cx="929" cy="336" r="57" fill="#28261e" opacity="0.46"/>
  <circle cx="86" cy="761" r="28" fill="#383428" opacity="0.20"/>
  <circle cx="1292" cy="787" r="48" fill="#22201a" opacity="0.23"/>
  <circle cx="432" cy="888" r="26" fill="#28261e" opacity="0.23"/>
  <circle cx="465" cy="433" r="40" fill="#22201a" opacity="0.24"/>
  <circle cx="935" cy="460" r="63" fill="#383428" opacity="0.26"/>
  <circle cx="231" cy="666" r="50" fill="#28261c" opacity="0.47"/>
  <circle cx="1023" cy="139" r="58" fill="#383428" opacity="0.50"/>
  <circle cx="10" cy="436" r="61" fill="#22201a" opacity="0.22"/>
  <circle cx="245" cy="792" r="51" fill="#28261c" opacity="0.26"/>
  <circle cx="758" cy="749" r="47" fill="#22201a" opacity="0.48"/>
  <ellipse cx="400" cy="350" rx="120" ry="90" fill="#3a3422" opacity="0.4"/>
  <ellipse cx="400" cy="350" rx="72" ry="54" fill="#e8b840" opacity="0.08" filter="url(#blur2)"/>
  <ellipse cx="400" cy="350" rx="36" ry="27" fill="#8a9040" opacity="0.12" filter="url(#blur1)"/>
  <ellipse cx="1000" cy="500" rx="150" ry="100" fill="#3a3422" opacity="0.4"/>
  <ellipse cx="1000" cy="500" rx="90" ry="60" fill="#e8b840" opacity="0.08" filter="url(#blur2)"/>
  <ellipse cx="1000" cy="500" rx="45" ry="30" fill="#8a9040" opacity="0.12" filter="url(#blur1)"/>
  <ellipse cx="700" cy="200" rx="80" ry="60" fill="#3a3422" opacity="0.4"/>
  <ellipse cx="700" cy="200" rx="48" ry="36" fill="#e8b840" opacity="0.08" filter="url(#blur2)"/>
  <ellipse cx="700" cy="200" rx="24" ry="18" fill="#8a9040" opacity="0.12" filter="url(#blur1)"/>
  <ellipse cx="1300" cy="300" rx="100" ry="70" fill="#3a3422" opacity="0.4"/>
  <ellipse cx="1300" cy="300" rx="60" ry="42" fill="#e8b840" opacity="0.08" filter="url(#blur2)"/>
  <ellipse cx="1300" cy="300" rx="30" ry="21" fill="#8a9040" opacity="0.12" filter="url(#blur1)"/>
  <path d="M0,450 Q200,420 400,460 Q600,500 800,440 Q1000,380 1200,420 Q1400,460 1600,430" stroke="#308a80" stroke-width="14" fill="none" opacity="0.25"/>
  <path d="M0,450 Q200,420 400,460 Q600,500 800,440 Q1000,380 1200,420 Q1400,460 1600,430" stroke="#40b8a8" stroke-width="6" fill="none" opacity="0.15"/>
  <path d="M560,439 Q478,372 378,298" stroke="#9a9850" stroke-width="1" fill="none" opacity="0.015"/>
  <path d="M1217,282 Q1097,210 990,186" stroke="#9a9850" stroke-width="1" fill="none" opacity="0.002"/>
  <path d="M1217,282 Q1214,377 1259,421" stroke="#9a9850" stroke-width="1" fill="none" opacity="0.076"/>
  <path d="M1217,282 Q1125,315 991,281" stroke="#9a9850" stroke-width="1" fill="none" opacity="0.017"/>
  <path d="M1217,282 Q1262,237 1307,143" stroke="#9a9850" stroke-width="1" fill="none" opacity="0.061"/>
  <path d="M1217,282 Q1199,384 1249,498" stroke="#9a9850" stroke-width="1" fill="none" opacity="0.023"/>
  <path d="M990,186 Q1063,266 1100,409" stroke="#9a9850" stroke-width="1" fill="none" opacity="0.001"/>
  <path d="M370,621 Q357,634 368,649" stroke="#9a9850" stroke-width="1" fill="none" opacity="0.160"/>
  <path d="M370,621 Q399,546 360,546" stroke="#9a9850" stroke-width="1" fill="none" opacity="0.125"/>
  <path d="M370,621 Q354,526 321,449" stroke="#9a9850" stroke-width="1" fill="none" opacity="0.051"/>
  <path d="M370,621 Q456,539 546,474" stroke="#9a9850" stroke-width="1" fill="none" opacity="0.015"/>
  <path d="M1040,240 Q938,198 897,124" stroke="#9a9850" stroke-width="1" fill="none" opacity="0.047"/>
  <path d="M1040,240 Q985,270 991,281" stroke="#9a9850" stroke-width="1" fill="none" opacity="0.134"/>
  <path d="M1040,240 Q1126,323 1237,338" stroke="#9a9850" stroke-width="1" fill="none" opacity="0.021"/>
  <path d="M1040,240 Q1024,316 1074,470" stroke="#9a9850" stroke-width="1" fill="none" opacity="0.013"/>
  <path d="M320,512 Q364,559 360,546" stroke="#9a9850" stroke-width="1" fill="none" opacity="0.142"/>
  <path d="M320,512 Q285,445 321,449" stroke="#9a9850" stroke-width="1" fill="none" opacity="0.135"/>
  <path d="M320,512 Q418,501 546,474" stroke="#9a9850" stroke-width="1" fill="none" opacity="0.015"/>
  <path d="M663,660 Q723,630 799,576" stroke="#9a9850" stroke-width="1" fill="none" opacity="0.065"/>
  <path d="M663,660 Q727,541 721,470" stroke="#9a9850" stroke-width="1" fill="none" opacity="0.037"/>
  <path d="M378,298 Q451,390 546,474" stroke="#9a9850" stroke-width="1" fill="none" opacity="0.005"/>
  <path d="M897,124 Q975,188 991,281" stroke="#9a9850" stroke-width="1" fill="none" opacity="0.048"/>
  <path d="M733,736 Q754,648 799,576" stroke="#9a9850" stroke-width="1" fill="none" opacity="0.055"/>
  <path d="M1259,421 Q1212,442 1100,409" stroke="#9a9850" stroke-width="1" fill="none" opacity="0.065"/>
  <path d="M1259,421 Q1171,415 1074,470" stroke="#9a9850" stroke-width="1" fill="none" opacity="0.042"/>
  <path d="M1259,421 Q1233,455 1249,498" stroke="#9a9850" stroke-width="1" fill="none" opacity="0.124"/>
  <path d="M801,703 Q827,621 799,576" stroke="#9a9850" stroke-width="1" fill="none" opacity="0.088"/>
  <path d="M801,703 Q798,551 721,470" stroke="#9a9850" stroke-width="1" fill="none" opacity="0.003"/>
  <path d="M830,459 Q872,361 991,281" stroke="#9a9850" stroke-width="1" fill="none" opacity="0.008"/>
  <path d="M830,459 Q805,530 799,576" stroke="#9a9850" stroke-width="1" fill="none" opacity="0.093"/>
  <path d="M830,459 Q973,499 1074,470" stroke="#9a9850" stroke-width="1" fill="none" opacity="0.004"/>
  <path d="M987,494 Q968,483 897,509" stroke="#9a9850" stroke-width="1" fill="none" opacity="0.114"/>
  <path d="M987,494 Q1006,470 1100,409" stroke="#9a9850" stroke-width="1" fill="none" opacity="0.078"/>
  <path d="M368,649 Q496,565 546,474" stroke="#9a9850" stroke-width="1" fill="none" opacity="0.000"/>
  <path d="M282,688 Q338,566 321,449" stroke="#9a9850" stroke-width="1" fill="none" opacity="0.006"/>
  <path d="M927,226 Q991,236 991,281" stroke="#9a9850" stroke-width="1" fill="none" opacity="0.119"/>
  <path d="M991,281 Q1085,367 1100,409" stroke="#9a9850" stroke-width="1" fill="none" opacity="0.059"/>
  <path d="M991,281 Q1038,339 1074,470" stroke="#9a9850" stroke-width="1" fill="none" opacity="0.032"/>
  <path d="M897,509 Q830,522 799,576" stroke="#9a9850" stroke-width="1" fill="none" opacity="0.095"/>
  <path d="M897,509 Q793,502 721,470" stroke="#9a9850" stroke-width="1" fill="none" opacity="0.050"/>
  <path d="M235,613 Q239,494 321,449" stroke="#9a9850" stroke-width="1" fill="none" opacity="0.047"/>
  <path d="M235,613 Q242,649 227,675" stroke="#9a9850" stroke-width="1" fill="none" opacity="0.135"/>
  <path d="M1126,742 Q1223,680 1257,610" stroke="#9a9850" stroke-width="1" fill="none" opacity="0.046"/>
  <path d="M1257,610 Q1248,511 1193,451" stroke="#9a9850" stroke-width="1" fill="none" opacity="0.057"/>
  <path d="M1257,610 Q1227,584 1249,498" stroke="#9a9850" stroke-width="1" fill="none" opacity="0.100"/>
  <path d="M1100,409 Q1181,349 1237,338" stroke="#9a9850" stroke-width="1" fill="none" opacity="0.069"/>
  <path d="M1100,409 Q1179,432 1249,498" stroke="#9a9850" stroke-width="1" fill="none" opacity="0.055"/>
  <path d="M360,546 Q321,639 227,675" stroke="#9a9850" stroke-width="1" fill="none" opacity="0.047"/>
  <path d="M789,575 Q734,491 721,470" stroke="#9a9850" stroke-width="1" fill="none" opacity="0.090"/>
  <path d="M721,470 Q599,448 546,474" stroke="#9a9850" stroke-width="1" fill="none" opacity="0.054"/>
  <path d="M1237,338 Q1237,401 1249,498" stroke="#9a9850" stroke-width="1" fill="none" opacity="0.065"/>
  <path d="M1074,470 Q1142,449 1193,451" stroke="#9a9850" stroke-width="1" fill="none" opacity="0.093"/>
  <path d="M1193,451 Q1244,539 1224,661" stroke="#9a9850" stroke-width="1" fill="none" opacity="0.027"/>
  <path d="M1193,451 Q1210,458 1249,498" stroke="#9a9850" stroke-width="1" fill="none" opacity="0.127"/>
  <path d="M1224,661 Q1244,548 1249,498" stroke="#9a9850" stroke-width="1" fill="none" opacity="0.062"/>
  <path d="M321,449 Q259,579 227,675" stroke="#9a9850" stroke-width="1" fill="none" opacity="0.004"/>
  <circle cx="559.9" cy="438.6" r="1.9" fill="#8a9040" opacity="0.49"/>
  <circle cx="559.9" cy="438.6" r="5.6" fill="#8a9040" opacity="0.099"/>
  <circle cx="1217.3" cy="282.2" r="2.7" fill="#8a9040" opacity="0.58"/>
  <circle cx="1217.3" cy="282.2" r="8.2" fill="#8a9040" opacity="0.115"/>
  <circle cx="989.8" cy="186.2" r="1.8" fill="#8a9040" opacity="0.41"/>
  <circle cx="989.8" cy="186.2" r="5.4" fill="#8a9040" opacity="0.082"/>
  <circle cx="370.0" cy="621.2" r="2.0" fill="#8a9040" opacity="0.60"/>
  <circle cx="370.0" cy="621.2" r="5.9" fill="#8a9040" opacity="0.121"/>
  <circle cx="1039.6" cy="240.2" r="2.5" fill="#8a9040" opacity="0.52"/>
  <circle cx="1039.6" cy="240.2" r="7.4" fill="#8a9040" opacity="0.103"/>
  <circle cx="320.0" cy="512.1" r="2.2" fill="#8a9040" opacity="0.51"/>
  <circle cx="320.0" cy="512.1" r="6.7" fill="#8a9040" opacity="0.102"/>
  <circle cx="663.0" cy="659.9" r="2.4" fill="#8a9040" opacity="0.73"/>
  <circle cx="663.0" cy="659.9" r="7.3" fill="#8a9040" opacity="0.145"/>
  <circle cx="377.8" cy="298.4" r="1.7" fill="#8a9040" opacity="0.56"/>
  <circle cx="377.8" cy="298.4" r="5.2" fill="#8a9040" opacity="0.111"/>
  <circle cx="896.6" cy="123.9" r="2.8" fill="#8a9040" opacity="0.66"/>
  <circle cx="896.6" cy="123.9" r="8.4" fill="#8a9040" opacity="0.133"/>
  <circle cx="733.4" cy="735.7" r="2.2" fill="#8a9040" opacity="0.46"/>
  <circle cx="733.4" cy="735.7" r="6.6" fill="#8a9040" opacity="0.091"/>
  <circle cx="1258.9" cy="420.8" r="1.5" fill="#8a9040" opacity="0.46"/>
  <circle cx="1258.9" cy="420.8" r="4.6" fill="#8a9040" opacity="0.093"/>
  <circle cx="800.8" cy="702.7" r="1.9" fill="#8a9040" opacity="0.76"/>
  <circle cx="800.8" cy="702.7" r="5.8" fill="#8a9040" opacity="0.152"/>
  <circle cx="830.1" cy="459.1" r="1.8" fill="#8a9040" opacity="0.46"/>
  <circle cx="830.1" cy="459.1" r="5.5" fill="#8a9040" opacity="0.092"/>
  <circle cx="987.1" cy="494.2" r="2.4" fill="#8a9040" opacity="0.74"/>
  <circle cx="987.1" cy="494.2" r="7.3" fill="#8a9040" opacity="0.149"/>
  <circle cx="368.0" cy="649.5" r="2.8" fill="#8a9040" opacity="0.77"/>
  <circle cx="368.0" cy="649.5" r="8.5" fill="#8a9040" opacity="0.154"/>
  <circle cx="281.9" cy="687.5" r="2.5" fill="#8a9040" opacity="0.79"/>
  <circle cx="281.9" cy="687.5" r="7.4" fill="#8a9040" opacity="0.157"/>
  <circle cx="927.0" cy="226.3" r="2.9" fill="#8a9040" opacity="0.60"/>
  <circle cx="927.0" cy="226.3" r="8.8" fill="#8a9040" opacity="0.121"/>
  <circle cx="990.7" cy="281.5" r="2.9" fill="#8a9040" opacity="0.64"/>
  <circle cx="990.7" cy="281.5" r="8.7" fill="#8a9040" opacity="0.127"/>
  <circle cx="896.9" cy="509.1" r="3.2" fill="#8a9040" opacity="0.43"/>
  <circle cx="896.9" cy="509.1" r="9.5" fill="#8a9040" opacity="0.085"/>
  <circle cx="235.4" cy="613.0" r="2.0" fill="#8a9040" opacity="0.67"/>
  <circle cx="235.4" cy="613.0" r="5.9" fill="#8a9040" opacity="0.133"/>
  <circle cx="799.3" cy="575.5" r="2.1" fill="#8a9040" opacity="0.49"/>
  <circle cx="799.3" cy="575.5" r="6.4" fill="#8a9040" opacity="0.099"/>
  <circle cx="1126.1" cy="742.1" r="3.1" fill="#8a9040" opacity="0.44"/>
  <circle cx="1126.1" cy="742.1" r="9.3" fill="#8a9040" opacity="0.088"/>
  <circle cx="1256.9" cy="609.7" r="2.3" fill="#8a9040" opacity="0.79"/>
  <circle cx="1256.9" cy="609.7" r="6.8" fill="#8a9040" opacity="0.158"/>
  <circle cx="1306.9" cy="143.3" r="2.0" fill="#8a9040" opacity="0.41"/>
  <circle cx="1306.9" cy="143.3" r="6.0" fill="#8a9040" opacity="0.083"/>
  <circle cx="1099.9" cy="409.1" r="2.2" fill="#8a9040" opacity="0.65"/>
  <circle cx="1099.9" cy="409.1" r="6.7" fill="#8a9040" opacity="0.131"/>
  <circle cx="235.4" cy="221.8" r="1.7" fill="#8a9040" opacity="0.58"/>
  <circle cx="235.4" cy="221.8" r="5.1" fill="#8a9040" opacity="0.116"/>
  <circle cx="359.9" cy="546.2" r="2.6" fill="#8a9040" opacity="0.48"/>
  <circle cx="359.9" cy="546.2" r="7.8" fill="#8a9040" opacity="0.096"/>
  <circle cx="789.3" cy="575.2" r="2.0" fill="#8a9040" opacity="0.70"/>
  <circle cx="789.3" cy="575.2" r="5.9" fill="#8a9040" opacity="0.139"/>
  <circle cx="720.9" cy="470.0" r="3.1" fill="#8a9040" opacity="0.43"/>
  <circle cx="720.9" cy="470.0" r="9.2" fill="#8a9040" opacity="0.087"/>
  <circle cx="229.1" cy="771.9" r="1.7" fill="#8a9040" opacity="0.41"/>
  <circle cx="229.1" cy="771.9" r="5.1" fill="#8a9040" opacity="0.083"/>
  <circle cx="368.7" cy="103.7" r="3.0" fill="#8a9040" opacity="0.63"/>
  <circle cx="368.7" cy="103.7" r="9.1" fill="#8a9040" opacity="0.125"/>
  <circle cx="1237.4" cy="338.5" r="2.9" fill="#8a9040" opacity="0.78"/>
  <circle cx="1237.4" cy="338.5" r="8.6" fill="#8a9040" opacity="0.157"/>
  <circle cx="1073.9" cy="469.7" r="1.9" fill="#8a9040" opacity="0.48"/>
  <circle cx="1073.9" cy="469.7" r="5.6" fill="#8a9040" opacity="0.097"/>
  <circle cx="1193.1" cy="450.6" r="2.2" fill="#8a9040" opacity="0.76"/>
  <circle cx="1193.1" cy="450.6" r="6.6" fill="#8a9040" opacity="0.152"/>
  <circle cx="1224.1" cy="661.1" r="2.4" fill="#8a9040" opacity="0.65"/>
  <circle cx="1224.1" cy="661.1" r="7.1" fill="#8a9040" opacity="0.130"/>
  <circle cx="1248.8" cy="498.4" r="1.8" fill="#8a9040" opacity="0.61"/>
  <circle cx="1248.8" cy="498.4" r="5.3" fill="#8a9040" opacity="0.121"/>
  <circle cx="321.1" cy="449.1" r="1.6" fill="#8a9040" opacity="0.62"/>
  <circle cx="321.1" cy="449.1" r="4.8" fill="#8a9040" opacity="0.123"/>
  <circle cx="227.1" cy="674.9" r="2.1" fill="#8a9040" opacity="0.73"/>
  <circle cx="227.1" cy="674.9" r="6.2" fill="#8a9040" opacity="0.146"/>
  <circle cx="668.5" cy="350.5" r="3.2" fill="#8a9040" opacity="0.46"/>
  <circle cx="668.5" cy="350.5" r="9.7" fill="#8a9040" opacity="0.093"/>
  <circle cx="545.7" cy="474.1" r="2.0" fill="#8a9040" opacity="0.61"/>
  <circle cx="545.7" cy="474.1" r="5.9" fill="#8a9040" opacity="0.121"/>
  <circle cx="941.6" cy="576.0" r="2.8" fill="#e8b840" opacity="0.67"/>
  <circle cx="941.6" cy="576.0" r="8.3" fill="#e8b840" opacity="0.135"/>
  <circle cx="891.4" cy="260.0" r="3.5" fill="#e8b840" opacity="0.69"/>
  <circle cx="891.4" cy="260.0" r="10.6" fill="#e8b840" opacity="0.139"/>
  <circle cx="1159.7" cy="583.5" r="4.0" fill="#e8b840" opacity="0.67"/>
  <circle cx="1159.7" cy="583.5" r="12.0" fill="#e8b840" opacity="0.134"/>
  <circle cx="1198.0" cy="452.1" r="3.5" fill="#e8b840" opacity="0.66"/>
  <circle cx="1198.0" cy="452.1" r="10.4" fill="#e8b840" opacity="0.132"/>
  <circle cx="409.1" cy="551.4" r="3.6" fill="#e8b840" opacity="0.68"/>
  <circle cx="409.1" cy="551.4" r="10.8" fill="#e8b840" opacity="0.136"/>
  <circle cx="893.3" cy="408.1" r="2.6" fill="#e8b840" opacity="0.56"/>
  <circle cx="893.3" cy="408.1" r="7.9" fill="#e8b840" opacity="0.112"/>
  <circle cx="817.7" cy="564.4" r="2.7" fill="#e8b840" opacity="0.74"/>
  <circle cx="817.7" cy="564.4" r="8.0" fill="#e8b840" opacity="0.148"/>
  <circle cx="1179.7" cy="292.4" r="2.6" fill="#e8b840" opacity="0.79"/>
  <circle cx="1179.7" cy="292.4" r="7.9" fill="#e8b840" opacity="0.158"/>
  <circle cx="923.8" cy="378.0" r="3.9" fill="#e8b840" opacity="0.62"/>
  <circle cx="923.8" cy="378.0" r="11.7" fill="#e8b840" opacity="0.125"/>
  <circle cx="371.7" cy="424.2" r="2.2" fill="#e8b840" opacity="0.61"/>
  <circle cx="371.7" cy="424.2" r="6.5" fill="#e8b840" opacity="0.122"/>
</svg>