<svg xmlns="http://www.w3.org/2000/svg" viewBox="0 0 1600 900" width="1600" height="900">
  <defs>
    <linearGradient id="bg" x1="0" y1="0" x2="0" y2="1">
      <stop offset="0%" stop-color="#141e18"/>
      <stop offset="50%" stop-color="#182618"/>
      <stop offset="100%" stop-color="#141e18"/>
    </linearGradient>
    <radialGradient id="glow1" cx="50%" cy="50%" r="50%">
      <stop offset="0%" stop-color="#c8e080" stop-opacity="0.15"/>
      <stop offset="100%" stop-color="#c8e080" stop-opacity="0"/>
    </radialGradient>
    <radialGradient id="glow2" cx="50%" cy="50%" r="50%">
      <stop offset="0%" stop-color="#5ba8c8" stop-opacity="0.1"/>
      <stop offset="100%" stop-color="#5ba8c8" stop-opacity="0"/>
    </radialGradient>
    <filter id="blur1"><feGaussianBlur stdDeviation="3"/></filter>
    <filter id="blur2"><feGaussianBlur stdDeviation="8"/></filter>
    <filter id="blur3"><feGaussianBlur stdDeviation="20"/></filter>
  </defs>
  <rect width="1600" height="900" fill="url(#bg)"/>
  <circle cx="1529" cy="426" r="55" fill="#1a2a1e" opacity="0.20"/>
  <circle cx="1432" cy="407" r="34" fill="#122014" opacity="0.23"/>
  <circle cx="1422" cy="514" r="76" fill="#1a3018" opacity="0.21"/>
  <circle cx="136" cy="676" r="38" fill="#1a3018" opacity="0.21"/>
  <circle cx="66" cy="461" r="40" fill="#142010" opacity="0.27"/>
  <circle cx="654" cy="724" r="39" fill="#142010" opacity="0.16"/>
  <circle cx="707" cy="239" r="25" fill="#1a2a1e" opacity="0.22"/>
  <circle cx="803" cy="492" r="25" fill="#1a3018" opacity="0.38"/>
  <circle cx="157" cy="64" r="22" fill="#122014" opacity="0.23"/>
  <circle cx="1080" cy="225" r="65" fill="#1a3018" opacity="0.20"/>
  <circle cx="966" cy="124" r="71" fill="#1a3018" opacity="0.15"/>
  <circle cx="479" cy="740" r="67" fill="#142010" opacity="0.39"/>
  <circle cx="1315" cy="682" r="21" fill="#122014" opacity="0.37"/>
  <circle cx="364" cy="651" r="33" fill="#122014" opacity="0.28"/>
  <circle cx="1258" cy="682" r="63" fill="#142010" opacity="0.24"/>
  <circle cx="137" cy="761" r="46" fill="#142010" opacity="0.20"/>
  <circle cx="720" cy="503" r="42" fill="#122014" opacity="0.23"/>
  <circle cx="1180" cy="450" r="60" fill="#1a3018" opacity="0.23"/>
  <circle cx="671" cy="617" r="44" fill="#1a3018" opacity="0.23"/>
  <circle cx="37" cy="707" r="75" fill="#122014" opacity="0.39"/>
  <circle cx="1591" cy="511" r="68" fill="#142010" opacity="0.40"/>
  <circle cx="327" cy="352" r="52" fill="#122014" opacity="0.27"/>
  <circle cx="526" cy="866" r="58" fill="#1a3018" opacity="0.17"/>
  <circle cx="167" cy="498" r="22" fill="#142010" opacity="0.16"/>
  <circle cx="318" cy="820" r="43" fill="#122014" opacity="0.21"/>
  <circle cx="1055" cy="63" r="23" fill="#1a2a1e" opacity="0.19"/>
  <circle cx="1376" cy="370" r="29" fill="#1a2a1e" opacity="0.18"/>
  <circle cx="669" cy="669" r="43" fill="#122014" opacity="0.18"/>
  <circle cx="329" cy="389" r="63" fill="#142010" opacity="0.19"/>
  <circle cx="920" cy="279" r="32" fill="#142010" opacity="0.22"/>
  <circle cx="12" cy="128" r="24" fill="#142010" opacity="0.30"/>
  <circle cx="395" cy="296" r="54" fill="#142010" opacity="0.27"/>
  <circle cx="922" cy="664" r="37" fill="#142010" opacity="0.24"/>
  <circle cx="1348" cy="713" r="43" fill="#122014" opacity="0.25"/>
  <circle cx="287" cy="556" r="46" fill="#142010" opacity="0.38"/>
  <circle cx="294" cy="512" r="44" fill="#1a2a1e" opacity="0.21"/>
  <circle cx="1393" cy="246" r="58" fill="#1a3018" opacity="0.32"/>
  <circle cx="107" cy="654" r="74" fill="#142010" opacity="0.25"/>
  <circle cx="1219" cy="109" r="42" fill="#1a2a1e" opacity="0.28"/>
  <circle cx="1247" cy="369" r="30" fill="#122014" opacity="0.28"/>
  <circle cx="739" cy="66" r="62" fill="#142010" opacity="0.25"/>
  <circle cx="1194" cy="770" r="44" fill="#1a2a1e" opacity="0.21"/>
  <circle cx="1135" cy="123" r="60" fill="#142010" opacity="0.27"/>
  <circle cx="109" cy="494" r="35" fill="#142010" opacity="0.19"/>
  <circle cx="1313" cy="757" r="30" fill="#1a2a1e" opacity="0.30"/>
  <circle cx="284" cy="112" r="64" fill="#122014" opacity="0.17"/>
  <circle cx="1222" cy="610" r="29" fill="#1a3018" opacity="0.19"/>
  <circle cx="1143" cy="803" r="52" fill="#142010" opacity="0.32"/>
  <circle cx="1338" cy="730" r="58" fill="#1a2a1e" opacity="0.25"/>
  <circle cx="493" cy="47" r="20" fill="#142010" opacity="0.34"/>
  <circle cx="1486" cy="337" r="34" fill="#1a2a1e" opacity="0.15"/>
  <circle cx="45" cy="13" r="69" fill="#1a2a1e" opacity="0.21"/>
  <circle cx="1412" cy="717" r="70" fill="#122014" opacity="0.33"/>
  <circle cx="70" cy="461" r="69" fill="#1a3018" opacity="0.29"/>
  <circle cx="303" cy="186" r="53" fill="#142010" opacity="0.18"/>
  <circle cx="342" cy="321" r="30" fill="#142010" opacity="0.31"/>
  <circle cx="19" cy="191" r="33" fill="#1a3018" opacity="0.31"/>
  <circle cx="590" cy="61" r="33" fill="#1a3018" opacity="0.34"/>
  <circle cx="799" cy="891" r="63" fill="#122014" opacity="0.21"/>
  <circle cx="152" cy="292" r="58" fill="#142010" opacity="0.32"/>
  <ellipse cx="400" cy="350" rx="120" ry="90" fill="#1a3018" opacity="0.3"/>
  <ellipse cx="400" cy="350" rx="72" ry="54" fill="#c8e060" opacity="0.04" filter="url(#blur2)"/>
  <ellipse cx="1000" cy="500" rx="150" ry="100" fill="#1a3018" opacity="0.3"/>
  <ellipse cx="1000" cy="500" rx="90" ry="60" fill="#c8e060" opacity="0.04" filter="url(#blur2)"/>
  <ellipse cx="700" cy="200" rx="80" ry="60" fill="#1a3018" opacity="0.3"/>
  <ellipse cx="700" cy="200" rx="48" ry="36" fill="#c8e060" opacity="0.04" filter="url(#blur2)"/>
  <ellipse cx="1300" cy="300" rx="100" ry="70" fill="#1a3018" opacity="0.3"/>
  <ellipse cx="1300" cy="300" rx="60" ry="42" fill="#c8e060" opacity="0.04" filter="url(#blur2)"/>
  <path d="M0,450 Q200,420 400,460 Q600,500 800,440 Q1000,380 1200,420 Q1400,460 1600,430" stroke="#1a3a28" stroke-width="12" fill="none" opacity="0.15"/>
  <path d="M1367,586 Q1344,697 1328,779" stroke="#a0c840" stroke-width="0.8" fill="none" opacity="0.021"/>
  <path d="M1367,586 Q1345,514 1306,369" stroke="#a0c840" stroke-width="0.8" fill="none" opacity="0.010"/>
  <path d="M1261,323 Q1208,405 1113,465" stroke="#a0c840" stroke-width="0.8" fill="none" opacity="0.018"/>
  <path d="M1261,323 Q1172,352 1070,318" stroke="#a0c840" stroke-width="0.8" fill="none" opacity="0.024"/>
  <path d="M1261,323 Q1200,245 1152,114" stroke="#a0c840" stroke-width="0.8" fill="none" opacity="0.006"/>
  <path d="M1261,323 Q1151,339 1072,280" stroke="#a0c840" stroke-width="0.8" fill="none" opacity="0.023"/>
  <path d="M602,526 Q525,522 479,531" stroke="#a0c840" stroke-width="0.8" fill="none" opacity="0.051"/>
  <path d="M602,526 Q561,576 498,581" stroke="#a0c840" stroke-width="0.8" fill="none" opacity="0.053"/>
  <path d="M602,526 Q601,445 658,325" stroke="#a0c840" stroke-width="0.8" fill="none" opacity="0.017"/>
  <path d="M602,526 Q611,564 650,524" stroke="#a0c840" stroke-width="0.8" fill="none" opacity="0.081"/>
  <path d="M602,526 Q672,500 812,442" stroke="#a0c840" stroke-width="0.8" fill="none" opacity="0.010"/>
  <path d="M969,263 Q956,293 963,290" stroke="#a0c840" stroke-width="0.8" fill="none" opacity="0.089"/>
  <path d="M969,263 Q1035,224 1152,114" stroke="#a0c840" stroke-width="0.8" fill="none" opacity="0.005"/>
  <path d="M969,263 Q934,362 969,512" stroke="#a0c840" stroke-width="0.8" fill="none" opacity="0.000"/>
  <path d="M969,263 Q922,345 812,442" stroke="#a0c840" stroke-width="0.8" fill="none" opacity="0.005"/>
  <path d="M1085,630 Q1082,538 1113,465" stroke="#a0c840" stroke-width="0.8" fill="none" opacity="0.033"/>
  <path d="M1085,630 Q1129,698 1197,752" stroke="#a0c840" stroke-width="0.8" fill="none" opacity="0.034"/>
  <path d="M1085,630 Q998,709 981,749" stroke="#a0c840" stroke-width="0.8" fill="none" opacity="0.037"/>
  <path d="M649,308 Q604,251 546,117" stroke="#a0c840" stroke-width="0.8" fill="none" opacity="0.013"/>
  <path d="M649,308 Q572,353 491,478" stroke="#a0c840" stroke-width="0.8" fill="none" opacity="0.007"/>
  <path d="M649,308 Q725,364 812,442" stroke="#a0c840" stroke-width="0.8" fill="none" opacity="0.016"/>
  <path d="M1087,330 Q1084,210 1152,114" stroke="#a0c840" stroke-width="0.8" fill="none" opacity="0.010"/>
  <path d="M1087,330 Q1048,302 1072,280" stroke="#a0c840" stroke-width="0.8" fill="none" opacity="0.079"/>
  <path d="M1113,465 Q1046,407 963,290" stroke="#a0c840" stroke-width="0.8" fill="none" opacity="0.008"/>
  <path d="M1113,465 Q1108,398 1072,280" stroke="#a0c840" stroke-width="0.8" fill="none" opacity="0.024"/>
  <path d="M1113,465 Q1050,501 969,512" stroke="#a0c840" stroke-width="0.8" fill="none" opacity="0.040"/>
  <path d="M546,117 Q497,216 370,243" stroke="#a0c840" stroke-width="0.8" fill="none" opacity="0.013"/>
  <path d="M546,117 Q643,126 763,208" stroke="#a0c840" stroke-width="0.8" fill="none" opacity="0.006"/>
  <path d="M491,478 Q490,538 498,581" stroke="#a0c840" stroke-width="0.8" fill="none" opacity="0.058"/>
  <path d="M491,478 Q565,535 650,524" stroke="#a0c840" stroke-width="0.8" fill="none" opacity="0.034"/>
  <path d="M1244,149 Q1133,205 1070,318" stroke="#a0c840" stroke-width="0.8" fill="none" opacity="0.003"/>
  <path d="M1197,752 Q1178,733 1111,745" stroke="#a0c840" stroke-width="0.8" fill="none" opacity="0.065"/>
  <path d="M1070,318 Q1107,185 1152,114" stroke="#a0c840" stroke-width="0.8" fill="none" opacity="0.012"/>
  <path d="M1070,318 Q997,435 969,512" stroke="#a0c840" stroke-width="0.8" fill="none" opacity="0.013"/>
  <path d="M963,290 Q1012,302 1072,280" stroke="#a0c840" stroke-width="0.8" fill="none" opacity="0.056"/>
  <path d="M963,290 Q897,282 763,208" stroke="#a0c840" stroke-width="0.8" fill="none" opacity="0.014"/>
  <path d="M963,290 Q824,283 724,279" stroke="#a0c840" stroke-width="0.8" fill="none" opacity="0.004"/>
  <path d="M1367,379 Q1307,377 1306,369" stroke="#a0c840" stroke-width="0.8" fill="none" opacity="0.075"/>
  <path d="M806,614 Q819,641 801,608" stroke="#a0c840" stroke-width="0.8" fill="none" opacity="0.097"/>
  <path d="M1111,745 Q1237,781 1328,779" stroke="#a0c840" stroke-width="0.8" fill="none" opacity="0.012"/>
  <path d="M1111,745 Q1057,752 981,749" stroke="#a0c840" stroke-width="0.8" fill="none" opacity="0.048"/>
  <path d="M763,208 Q713,211 724,279" stroke="#a0c840" stroke-width="0.8" fill="none" opacity="0.068"/>
  <path d="M763,208 Q807,360 812,442" stroke="#a0c840" stroke-width="0.8" fill="none" opacity="0.005"/>
  <path d="M801,608 Q796,553 812,442" stroke="#a0c840" stroke-width="0.8" fill="none" opacity="0.034"/>
  <path d="M969,512 Q940,633 981,749" stroke="#a0c840" stroke-width="0.8" fill="none" opacity="0.005"/>
  <circle cx="1366.8" cy="585.6" r="2.0" fill="#c8e060" opacity="0.55"/>
  <circle cx="1366.8" cy="585.6" r="6.0" fill="#c8e060" opacity="0.083"/>
  <circle cx="1260.8" cy="322.6" r="2.8" fill="#c8e060" opacity="0.49"/>
  <circle cx="1260.8" cy="322.6" r="8.3" fill="#c8e060" opacity="0.074"/>
  <circle cx="602.1" cy="526.0" r="2.4" fill="#c8e060" opacity="0.45"/>
  <circle cx="602.1" cy="526.0" r="7.1" fill="#c8e060" opacity="0.068"/>
  <circle cx="968.7" cy="262.7" r="2.4" fill="#c8e060" opacity="0.70"/>
  <circle cx="968.7" cy="262.7" r="7.1" fill="#c8e060" opacity="0.104"/>
  <circle cx="479.1" cy="531.4" r="2.8" fill="#c8e060" opacity="0.42"/>
  <circle cx="479.1" cy="531.4" r="8.5" fill="#c8e060" opacity="0.064"/>
  <circle cx="1085.5" cy="630.1" r="2.4" fill="#c8e060" opacity="0.32"/>
  <circle cx="1085.5" cy="630.1" r="7.3" fill="#c8e060" opacity="0.049"/>
  <circle cx="649.4" cy="307.6" r="1.7" fill="#c8e060" opacity="0.38"/>
  <circle cx="649.4" cy="307.6" r="5.2" fill="#c8e060" opacity="0.057"/>
  <circle cx="245.5" cy="746.4" r="2.4" fill="#c8e060" opacity="0.68"/>
  <circle cx="245.5" cy="746.4" r="7.2" fill="#c8e060" opacity="0.102"/>
  <circle cx="1087.1" cy="330.1" r="1.9" fill="#c8e060" opacity="0.56"/>
  <circle cx="1087.1" cy="330.1" r="5.8" fill="#c8e060" opacity="0.084"/>
  <circle cx="1112.6" cy="464.6" r="3.0" fill="#c8e060" opacity="0.56"/>
  <circle cx="1112.6" cy="464.6" r="8.9" fill="#c8e060" opacity="0.084"/>
  <circle cx="546.1" cy="116.6" r="2.8" fill="#c8e060" opacity="0.43"/>
  <circle cx="546.1" cy="116.6" r="8.3" fill="#c8e060" opacity="0.065"/>
  <circle cx="490.7" cy="477.5" r="2.9" fill="#c8e060" opacity="0.57"/>
  <circle cx="490.7" cy="477.5" r="8.6" fill="#c8e060" opacity="0.085"/>
  <circle cx="498.0" cy="581.1" r="2.6" fill="#c8e060" opacity="0.54"/>
  <circle cx="498.0" cy="581.1" r="7.7" fill="#c8e060" opacity="0.081"/>
  <circle cx="657.8" cy="325.1" r="2.2" fill="#c8e060" opacity="0.30"/>
  <circle cx="657.8" cy="325.1" r="6.5" fill="#c8e060" opacity="0.045"/>
  <circle cx="1243.8" cy="149.0" r="1.8" fill="#c8e060" opacity="0.55"/>
  <circle cx="1243.8" cy="149.0" r="5.4" fill="#c8e060" opacity="0.083"/>
  <circle cx="369.8" cy="243.0" r="1.6" fill="#c8e060" opacity="0.54"/>
  <circle cx="369.8" cy="243.0" r="4.9" fill="#c8e060" opacity="0.081"/>
  <circle cx="1197.5" cy="752.3" r="1.9" fill="#c8e060" opacity="0.33"/>
  <circle cx="1197.5" cy="752.3" r="5.6" fill="#c8e060" opacity="0.050"/>
  <circle cx="1070.0" cy="318.0" r="2.6" fill="#c8e060" opacity="0.40"/>
  <circle cx="1070.0" cy="318.0" r="7.7" fill="#c8e060" opacity="0.060"/>
  <circle cx="411.7" cy="274.3" r="1.9" fill="#c8e060" opacity="0.48"/>
  <circle cx="411.7" cy="274.3" r="5.8" fill="#c8e060" opacity="0.072"/>
  <circle cx="962.7" cy="290.3" r="2.7" fill="#c8e060" opacity="0.33"/>
  <circle cx="962.7" cy="290.3" r="8.0" fill="#c8e060" opacity="0.050"/>
  <circle cx="1367.1" cy="378.8" r="1.8" fill="#c8e060" opacity="0.48"/>
  <circle cx="1367.1" cy="378.8" r="5.3" fill="#c8e060" opacity="0.071"/>
  <circle cx="806.4" cy="614.4" r="2.6" fill="#c8e060" opacity="0.63"/>
  <circle cx="806.4" cy="614.4" r="7.9" fill="#c8e060" opacity="0.094"/>
  <circle cx="1152.3" cy="113.9" r="2.1" fill="#c8e060" opacity="0.64"/>
  <circle cx="1152.3" cy="113.9" r="6.2" fill="#c8e060" opacity="0.096"/>
  <circle cx="1110.6" cy="745.1" r="2.4" fill="#c8e060" opacity="0.36"/>
  <circle cx="1110.6" cy="745.1" r="7.2" fill="#c8e060" opacity="0.054"/>
  <circle cx="1072.0" cy="280.1" r="2.2" fill="#c8e060" opacity="0.48"/>
  <circle cx="1072.0" cy="280.1" r="6.6" fill="#c8e060" opacity="0.072"/>
  <circle cx="650.2" cy="524.2" r="1.6" fill="#c8e060" opacity="0.35"/>
  <circle cx="650.2" cy="524.2" r="4.8" fill="#c8e060" opacity="0.053"/>
  <circle cx="763.1" cy="208.3" r="1.8" fill="#c8e060" opacity="0.31"/>
  <circle cx="763.1" cy="208.3" r="5.4" fill="#c8e060" opacity="0.046"/>
  <circle cx="800.8" cy="607.7" r="2.2" fill="#c8e060" opacity="0.67"/>
  <circle cx="800.8" cy="607.7" r="6.7" fill="#c8e060" opacity="0.101"/>
  <circle cx="1328.3" cy="779.3" r="2.1" fill="#c8e060" opacity="0.50"/>
  <circle cx="1328.3" cy="779.3" r="6.2" fill="#c8e060" opacity="0.074"/>
  <circle cx="969.3" cy="511.8" r="2.1" fill="#c8e060" opacity="0.32"/>
  <circle cx="969.3" cy="511.8" r="6.3" fill="#c8e060" opacity="0.047"/>
  <circle cx="1305.9" cy="369.4" r="2.3" fill="#c8e060" opacity="0.38"/>
  <circle cx="1305.9" cy="369.4" r="7.0" fill="#c8e060" opacity="0.057"/>
  <circle cx="723.6" cy="278.7" r="2.9" fill="#c8e060" opacity="0.59"/>
  <circle cx="723.6" cy="278.7" r="8.6" fill="#c8e060" opacity="0.088"/>
  <circle cx="811.5" cy="442.0" r="2.5" fill="#c8e060" opacity="0.58"/>
  <circle cx="811.5" cy="442.0" r="7.6" fill="#c8e060" opacity="0.087"/>
  <circle cx="981.1" cy="748.6" r="2.6" fill="#c8e060" opacity="0.40"/>
  <circle cx="981.1" cy="748.6" r="7.8" fill="#c8e060" opacity="0.060"/>
  <circle cx="241.4" cy="669.2" r="2.4" fill="#c8e060" opacity="0.57"/>
  <circle cx="241.4" cy="669.2" r="7.3" fill="#c8e060" opacity="0.086"/>
</svg>