<svg xmlns="http://www.w3.org/2000/svg" viewBox="0 0 800 600" width="800" height="600">
  <defs>
    <linearGradient id="bg" x1="0" y1="0" x2="0" y2="1">
      <stop offset="0%" stop-color="#182618"/>
      <stop offset="50%" stop-color="#1a2a1e"/>
      <stop offset="100%" stop-color="#141e18"/>
    </linearGradient>
    <radialGradient id="glow1" cx="50%" cy="50%" r="50%">
      <stop offset="0%" stop-color="#c8e080" stop-opacity="0.15"/>
      <stop offset="100%" stop-color="#c8e080" stop-opacity="0"/>
    </radialGradient>
    <radialGradient id="glow2" cx="50%" cy="50%" r="50%">
      <stop offset="0%" stop-color="#5ba8c8" stop-opacity="0.1"/>
      <stop offset="100%" stop-color="#5ba8c8" stop-opacity="0"/>
    </radialGradient>
    <filter id="blur1"><feGaussianBlur stdDeviation="3"/></filter>
    <filter id="blur2"><feGaussianBlur stdDeviation="8"/></filter>
    <filter id="blur3"><feGaussianBlur stdDeviation="20"/></filter>
  </defs>
  <rect width="800" height="600" fill="url(#bg)"/>
  <rect width="800" height="600" fill="#182618"/>
  <ellipse cx="737" cy="542" rx="137" ry="97" fill="#122014" opacity="0.27" transform="rotate(185 737 542)"/>
  <ellipse cx="392" cy="531" rx="116" ry="130" fill="#1a2a18" opacity="0.12" transform="rotate(152 392 531)"/>
  <ellipse cx="295" cy="112" rx="141" ry="55" fill="#1a2a1a" opacity="0.17" transform="rotate(167 295 112)"/>
  <ellipse cx="179" cy="412" rx="65" ry="119" fill="#1a2a1a" opacity="0.23" transform="rotate(30 179 412)"/>
  <ellipse cx="375" cy="48" rx="168" ry="88" fill="#122014" opacity="0.24" transform="rotate(108 375 48)"/>
  <ellipse cx="199" cy="257" rx="131" ry="128" fill="#122014" opacity="0.20" transform="rotate(184 199 257)"/>
  <ellipse cx="330" cy="279" rx="155" ry="170" fill="#1a2a18" opacity="0.15" transform="rotate(29 330 279)"/>
  <ellipse cx="403" cy="68" rx="146" ry="69" fill="#122014" opacity="0.27" transform="rotate(16 403 68)"/>
  <line x1="350" y1="476" x2="350" y2="455" stroke="#2a4a28" stroke-width="2" opacity="0.3"/>
  <ellipse cx="350" cy="455" rx="17" ry="9" fill="#1a3a20" opacity="0.3"/>
  <circle cx="350" cy="455" r="3" fill="#c8e060" opacity="0.4"/>
  <circle cx="350" cy="455" r="10" fill="#c8e060" opacity="0.06" filter="url(#blur1)"/>
  <line x1="554" y1="412" x2="554" y2="381" stroke="#2a4a28" stroke-width="2" opacity="0.3"/>
  <ellipse cx="554" cy="381" rx="13" ry="7" fill="#1a3a20" opacity="0.3"/>
  <circle cx="554" cy="381" r="3" fill="#c8e060" opacity="0.4"/>
  <circle cx="554" cy="381" r="10" fill="#c8e060" opacity="0.06" filter="url(#blur1)"/>
  <line x1="651" y1="503" x2="651" y2="483" stroke="#2a4a28" stroke-width="2" opacity="0.3"/>
  <ellipse cx="651" cy="483" rx="11" ry="5" fill="#1a3a20" opacity="0.3"/>
  <circle cx="651" cy="483" r="3" fill="#c8e060" opacity="0.4"/>
  <circle cx="651" cy="483" r="10" fill="#c8e060" opacity="0.06" filter="url(#blur1)"/>
  <line x1="689" y1="365" x2="689" y2="336" stroke="#2a4a28" stroke-width="2" opacity="0.3"/>
  <ellipse cx="689" cy="336" rx="14" ry="7" fill="#1a3a20" opacity="0.3"/>
  <circle cx="689" cy="336" r="3" fill="#c8e060" opacity="0.4"/>
  <circle cx="689" cy="336" r="10" fill="#c8e060" opacity="0.06" filter="url(#blur1)"/>
  <line x1="111" y1="399" x2="111" y2="383" stroke="#2a4a28" stroke-width="2" opacity="0.3"/>
  <ellipse cx="111" cy="383" rx="17" ry="8" fill="#1a3a20" opacity="0.3"/>
  <circle cx="111" cy="383" r="3" fill="#c8e060" opacity="0.4"/>
  <circle cx="111" cy="383" r="10" fill="#c8e060" opacity="0.06" filter="url(#blur1)"/>
  <line x1="376" y1="401" x2="376" y2="373" stroke="#2a4a28" stroke-width="2" opacity="0.3"/>
  <ellipse cx="376" cy="373" rx="17" ry="9" fill="#1a3a20" opacity="0.3"/>
  <circle cx="376" cy="373" r="3" fill="#c8e060" opacity="0.4"/>
  <circle cx="376" cy="373" r="10" fill="#c8e060" opacity="0.06" filter="url(#blur1)"/>
  <path d="M558,350 Q562,305 537,312" stroke="#40a840" stroke-width="0.8" fill="none" opacity="0.057"/>
  <path d="M152,330 Q151,278 212,270" stroke="#40a840" stroke-width="0.8" fill="none" opacity="0.015"/>
  <path d="M284,284 Q212,313 212,270" stroke="#40a840" stroke-width="0.8" fill="none" opacity="0.027"/>
  <path d="M695,532 Q707,499 709,465" stroke="#40a840" stroke-width="0.8" fill="none" opacity="0.032"/>
  <path d="M668,489 Q658,453 709,465" stroke="#40a840" stroke-width="0.8" fill="none" opacity="0.053"/>
  <circle cx="558.1" cy="349.9" r="1.3" fill="#60c860" opacity="0.30"/>
  <circle cx="558.1" cy="349.9" r="3.9" fill="#60c860" opacity="0.046"/>
  <circle cx="533.5" cy="567.8" r="1.2" fill="#60c860" opacity="0.35"/>
  <circle cx="533.5" cy="567.8" r="3.5" fill="#60c860" opacity="0.053"/>
  <circle cx="111.3" cy="294.6" r="0.7" fill="#60c860" opacity="0.35"/>
  <circle cx="111.3" cy="294.6" r="2.1" fill="#60c860" opacity="0.053"/>
  <circle cx="537.2" cy="312.1" r="0.5" fill="#60c860" opacity="0.27"/>
  <circle cx="537.2" cy="312.1" r="1.6" fill="#60c860" opacity="0.041"/>
  <circle cx="151.6" cy="329.8" r="1.3" fill="#60c860" opacity="0.36"/>
  <circle cx="151.6" cy="329.8" r="4.0" fill="#60c860" opacity="0.055"/>
  <circle cx="427.0" cy="278.4" r="1.3" fill="#60c860" opacity="0.19"/>
  <circle cx="427.0" cy="278.4" r="3.8" fill="#60c860" opacity="0.028"/>
  <circle cx="345.3" cy="288.4" r="1.4" fill="#60c860" opacity="0.33"/>
  <circle cx="345.3" cy="288.4" r="4.2" fill="#60c860" opacity="0.050"/>
  <circle cx="361.7" cy="410.1" r="0.5" fill="#60c860" opacity="0.26"/>
  <circle cx="361.7" cy="410.1" r="1.6" fill="#60c860" opacity="0.039"/>
  <circle cx="219.8" cy="347.3" r="1.3" fill="#60c860" opacity="0.25"/>
  <circle cx="219.8" cy="347.3" r="4.0" fill="#60c860" opacity="0.037"/>
  <circle cx="283.7" cy="283.9" r="1.3" fill="#60c860" opacity="0.26"/>
  <circle cx="283.7" cy="283.9" r="4.0" fill="#60c860" opacity="0.039"/>
  <circle cx="341.0" cy="413.6" r="1.1" fill="#60c860" opacity="0.33"/>
  <circle cx="341.0" cy="413.6" r="3.2" fill="#60c860" opacity="0.050"/>
  <circle cx="749.3" cy="262.2" r="0.9" fill="#60c860" opacity="0.28"/>
  <circle cx="749.3" cy="262.2" r="2.7" fill="#60c860" opacity="0.042"/>
  <circle cx="557.2" cy="558.6" r="1.4" fill="#60c860" opacity="0.37"/>
  <circle cx="557.2" cy="558.6" r="4.2" fill="#60c860" opacity="0.055"/>
  <circle cx="212.3" cy="270.0" r="0.5" fill="#60c860" opacity="0.29"/>
  <circle cx="212.3" cy="270.0" r="1.6" fill="#60c860" opacity="0.044"/>
  <circle cx="437.3" cy="338.4" r="1.1" fill="#60c860" opacity="0.37"/>
  <circle cx="437.3" cy="338.4" r="3.4" fill="#60c860" opacity="0.056"/>
  <circle cx="131.9" cy="455.5" r="1.1" fill="#60c860" opacity="0.26"/>
  <circle cx="131.9" cy="455.5" r="3.4" fill="#60c860" opacity="0.039"/>
  <circle cx="355.4" cy="303.2" r="1.2" fill="#60c860" opacity="0.27"/>
  <circle cx="355.4" cy="303.2" r="3.7" fill="#60c860" opacity="0.040"/>
  <circle cx="356.7" cy="417.5" r="1.1" fill="#60c860" opacity="0.32"/>
  <circle cx="356.7" cy="417.5" r="3.3" fill="#60c860" opacity="0.048"/>
  <circle cx="695.2" cy="531.6" r="1.2" fill="#60c860" opacity="0.27"/>
  <circle cx="695.2" cy="531.6" r="3.6" fill="#60c860" opacity="0.040"/>
  <circle cx="668.2" cy="488.6" r="0.9" fill="#60c860" opacity="0.25"/>
  <circle cx="668.2" cy="488.6" r="2.7" fill="#60c860" opacity="0.038"/>
  <circle cx="708.8" cy="465.3" r="0.9" fill="#60c860" opacity="0.27"/>
  <circle cx="708.8" cy="465.3" r="2.6" fill="#60c860" opacity="0.040"/>
  <circle cx="729.7" cy="303.5" r="0.7" fill="#60c860" opacity="0.32"/>
  <circle cx="729.7" cy="303.5" r="2.1" fill="#60c860" opacity="0.048"/>
  <circle cx="110.3" cy="409.4" r="0.7" fill="#60c860" opacity="0.19"/>
  <circle cx="110.3" cy="409.4" r="2.0" fill="#60c860" opacity="0.028"/>
  <circle cx="394.5" cy="511.8" r="1.4" fill="#60c860" opacity="0.27"/>
  <circle cx="394.5" cy="511.8" r="4.3" fill="#60c860" opacity="0.041"/>
  <circle cx="214.3" cy="433.8" r="1.5" fill="#60c860" opacity="0.24"/>
  <circle cx="214.3" cy="433.8" r="4.5" fill="#60c860" opacity="0.036"/>
  <ellipse cx="400" cy="250" rx="350" ry="200" fill="url(#glow1)" filter="url(#blur3)" opacity="0.3"/>
</svg>