<svg xmlns="http://www.w3.org/2000/svg" viewBox="0 0 800 600" width="800" height="600">
  <defs>
    <linearGradient id="bg" x1="0" y1="0" x2="0" y2="1">
      <stop offset="0%" stop-color="#141310"/>
      <stop offset="50%" stop-color="#1a1a14"/>
      <stop offset="100%" stop-color="#1a1a14"/>
    </linearGradient>
    <radialGradient id="glow1" cx="50%" cy="50%" r="50%">
      <stop offset="0%" stop-color="#e8d060" stop-opacity="0.25"/>
      <stop offset="100%" stop-color="#b89b3e" stop-opacity="0"/>
    </radialGradient>
    <radialGradient id="glow2" cx="50%" cy="50%" r="50%">
      <stop offset="0%" stop-color="#b89b3e" stop-opacity="0.2"/>
      <stop offset="100%" stop-color="#b89b3e" stop-opacity="0"/>
    </radialGradient>
    <radialGradient id="glowGold" cx="50%" cy="50%" r="50%">
      <stop offset="0%" stop-color="#e8b840" stop-opacity="0.3"/>
      <stop offset="100%" stop-color="#e8b840" stop-opacity="0"/>
    </radialGradient>
    <filter id="blur1"><feGaussianBlur stdDeviation="3"/></filter>
    <filter id="blur2"><feGaussianBlur stdDeviation="8"/></filter>
    <filter id="blur3"><feGaussianBlur stdDeviation="20"/></filter>
  </defs>
  <rect width="800" height="600" fill="url(#bg)"/>
  <ellipse cx="679" cy="497" rx="45" ry="91" fill="#22201a" opacity="0.22" transform="rotate(305 679 497)"/>
  <ellipse cx="459" cy="379" rx="75" ry="87" fill="#28261c" opacity="0.16" transform="rotate(292 459 379)"/>
  <ellipse cx="122" cy="430" rx="176" ry="190" fill="#22201a" opacity="0.33" transform="rotate(19 122 430)"/>
  <ellipse cx="692" cy="107" rx="118" ry="103" fill="#22201a" opacity="0.40" transform="rotate(197 692 107)"/>
  <ellipse cx="270" cy="407" rx="198" ry="161" fill="#28261c" opacity="0.17" transform="rotate(262 270 407)"/>
  <ellipse cx="226" cy="554" rx="152" ry="128" fill="#22201a" opacity="0.18" transform="rotate(271 226 554)"/>
  <ellipse cx="464" cy="483" rx="176" ry="154" fill="#28261c" opacity="0.31" transform="rotate(208 464 483)"/>
  <ellipse cx="354" cy="289" rx="184" ry="74" fill="#22201a" opacity="0.33" transform="rotate(3 354 289)"/>
  <path d="M100,600 Q109,300 105,-20" stroke="#343020" stroke-width="12" fill="none" opacity="0.4"/>
  <path d="M250,600 Q257,300 254,-20" stroke="#343020" stroke-width="15" fill="none" opacity="0.4"/>
  <path d="M550,600 Q536,300 543,-20" stroke="#343020" stroke-width="15" fill="none" opacity="0.4"/>
  <path d="M700,600 Q697,300 699,-20" stroke="#343020" stroke-width="14" fill="none" opacity="0.4"/>
  <path d="M176,492 Q168,448 182,464" stroke="#d0a030" stroke-width="1" fill="none" opacity="0.242"/>
  <path d="M635,351 Q576,314 556,295" stroke="#d0a030" stroke-width="1" fill="none" opacity="0.107"/>
  <path d="M635,351 Q568,351 541,364" stroke="#d0a030" stroke-width="1" fill="none" opacity="0.111"/>
  <path d="M270,295 Q249,335 191,296" stroke="#d0a030" stroke-width="1" fill="none" opacity="0.142"/>
  <path d="M270,295 Q245,321 240,322" stroke="#d0a030" stroke-width="1" fill="none" opacity="0.219"/>
  <path d="M270,295 Q309,230 269,175" stroke="#d0a030" stroke-width="1" fill="none" opacity="0.060"/>
  <path d="M476,250 Q483,228 472,273" stroke="#d0a030" stroke-width="1" fill="none" opacity="0.253"/>
  <path d="M476,250 Q485,277 556,295" stroke="#d0a030" stroke-width="1" fill="none" opacity="0.117"/>
  <path d="M476,250 Q520,296 541,364" stroke="#d0a030" stroke-width="1" fill="none" opacity="0.038"/>
  <path d="M476,250 Q469,309 498,309" stroke="#d0a030" stroke-width="1" fill="none" opacity="0.175"/>
  <path d="M476,250 Q409,207 419,184" stroke="#d0a030" stroke-width="1" fill="none" opacity="0.125"/>
  <path d="M479,411 Q444,376 472,273" stroke="#d0a030" stroke-width="1" fill="none" opacity="0.024"/>
  <path d="M479,411 Q536,338 556,295" stroke="#d0a030" stroke-width="1" fill="none" opacity="0.022"/>
  <path d="M191,296 Q212,304 162,329" stroke="#d0a030" stroke-width="1" fill="none" opacity="0.210"/>
  <path d="M191,296 Q235,346 240,322" stroke="#d0a030" stroke-width="1" fill="none" opacity="0.189"/>
  <path d="M162,329 Q132,397 182,464" stroke="#d0a030" stroke-width="1" fill="none" opacity="0.028"/>
  <path d="M162,329 Q171,316 240,322" stroke="#d0a030" stroke-width="1" fill="none" opacity="0.142"/>
  <path d="M523,418 Q557,395 556,295" stroke="#d0a030" stroke-width="1" fill="none" opacity="0.046"/>
  <path d="M523,418 Q586,455 633,459" stroke="#d0a030" stroke-width="1" fill="none" opacity="0.065"/>
  <path d="M523,418 Q571,415 541,364" stroke="#d0a030" stroke-width="1" fill="none" opacity="0.186"/>
  <path d="M472,273 Q508,320 556,295" stroke="#d0a030" stroke-width="1" fill="none" opacity="0.127"/>
  <path d="M472,273 Q535,354 541,364" stroke="#d0a030" stroke-width="1" fill="none" opacity="0.073"/>
  <path d="M472,273 Q413,195 419,184" stroke="#d0a030" stroke-width="1" fill="none" opacity="0.092"/>
  <path d="M556,295 Q513,349 541,364" stroke="#d0a030" stroke-width="1" fill="none" opacity="0.160"/>
  <circle cx="613.0" cy="138.4" r="5.4" fill="#e8b840" opacity="0.58"/>
  <circle cx="613.0" cy="138.4" r="16.2" fill="#e8b840" opacity="0.116"/>
  <circle cx="176.2" cy="492.1" r="4.3" fill="#e8b840" opacity="0.77"/>
  <circle cx="176.2" cy="492.1" r="12.8" fill="#e8b840" opacity="0.153"/>
  <circle cx="634.9" cy="350.8" r="3.4" fill="#e8b840" opacity="0.52"/>
  <circle cx="634.9" cy="350.8" r="10.2" fill="#e8b840" opacity="0.103"/>
  <circle cx="270.4" cy="295.5" r="4.4" fill="#e8b840" opacity="0.93"/>
  <circle cx="270.4" cy="295.5" r="13.2" fill="#e8b840" opacity="0.186"/>
  <circle cx="476.4" cy="250.1" r="4.4" fill="#e8b840" opacity="0.86"/>
  <circle cx="476.4" cy="250.1" r="13.3" fill="#e8b840" opacity="0.172"/>
  <circle cx="479.3" cy="411.1" r="5.0" fill="#e8b840" opacity="0.79"/>
  <circle cx="479.3" cy="411.1" r="15.1" fill="#e8b840" opacity="0.159"/>
  <circle cx="287.6" cy="361.3" r="3.3" fill="#e8b840" opacity="0.55"/>
  <circle cx="287.6" cy="361.3" r="9.9" fill="#e8b840" opacity="0.111"/>
  <circle cx="191.3" cy="295.7" r="4.3" fill="#e8b840" opacity="0.73"/>
  <circle cx="191.3" cy="295.7" r="13.0" fill="#e8b840" opacity="0.146"/>
  <circle cx="161.5" cy="329.2" r="4.0" fill="#e8b840" opacity="0.62"/>
  <circle cx="161.5" cy="329.2" r="12.0" fill="#e8b840" opacity="0.125"/>
  <circle cx="522.7" cy="417.7" r="2.6" fill="#e8b840" opacity="0.72"/>
  <circle cx="522.7" cy="417.7" r="7.9" fill="#e8b840" opacity="0.144"/>
  <circle cx="472.3" cy="273.5" r="4.0" fill="#e8b840" opacity="0.54"/>
  <circle cx="472.3" cy="273.5" r="12.0" fill="#e8b840" opacity="0.109"/>
  <circle cx="181.7" cy="463.6" r="4.8" fill="#e8b840" opacity="0.58"/>
  <circle cx="181.7" cy="463.6" r="14.3" fill="#e8b840" opacity="0.117"/>
  <circle cx="556.4" cy="107.9" r="3.9" fill="#e8b840" opacity="0.74"/>
  <circle cx="556.4" cy="107.9" r="11.8" fill="#e8b840" opacity="0.148"/>
  <circle cx="556.1" cy="295.4" r="3.8" fill="#e8b840" opacity="0.76"/>
  <circle cx="556.1" cy="295.4" r="11.4" fill="#e8b840" opacity="0.153"/>
  <circle cx="506.9" cy="416.0" r="2.4" fill="#e8b840" opacity="0.84"/>
  <circle cx="506.9" cy="416.0" r="7.3" fill="#e8b840" opacity="0.168"/>
  <circle cx="632.8" cy="459.0" r="2.6" fill="#e8b840" opacity="0.77"/>
  <circle cx="632.8" cy="459.0" r="7.9" fill="#e8b840" opacity="0.154"/>
  <circle cx="240.0" cy="321.9" r="4.8" fill="#e8b840" opacity="0.56"/>
  <circle cx="240.0" cy="321.9" r="14.4" fill="#e8b840" opacity="0.111"/>
  <circle cx="214.4" cy="182.5" r="2.6" fill="#e8b840" opacity="0.75"/>
  <circle cx="214.4" cy="182.5" r="7.7" fill="#e8b840" opacity="0.151"/>
  <circle cx="575.7" cy="114.0" r="5.4" fill="#e8b840" opacity="0.73"/>
  <circle cx="575.7" cy="114.0" r="16.3" fill="#e8b840" opacity="0.146"/>
  <circle cx="331.8" cy="317.8" r="3.5" fill="#e8b840" opacity="0.93"/>
  <circle cx="331.8" cy="317.8" r="10.4" fill="#e8b840" opacity="0.185"/>
  <circle cx="150.0" cy="220.2" r="5.3" fill="#e8b840" opacity="0.73"/>
  <circle cx="150.0" cy="220.2" r="15.9" fill="#e8b840" opacity="0.147"/>
  <circle cx="541.4" cy="363.7" r="3.6" fill="#e8b840" opacity="0.76"/>
  <circle cx="541.4" cy="363.7" r="10.7" fill="#e8b840" opacity="0.152"/>
  <circle cx="497.6" cy="309.1" r="5.5" fill="#e8b840" opacity="0.66"/>
  <circle cx="497.6" cy="309.1" r="16.4" fill="#e8b840" opacity="0.132"/>
  <circle cx="419.1" cy="183.9" r="2.3" fill="#e8b840" opacity="0.87"/>
  <circle cx="419.1" cy="183.9" r="7.0" fill="#e8b840" opacity="0.174"/>
  <circle cx="268.6" cy="175.2" r="3.0" fill="#e8b840" opacity="0.87"/>
  <circle cx="268.6" cy="175.2" r="9.1" fill="#e8b840" opacity="0.175"/>
  <circle cx="605.4" cy="398.4" r="2.9" fill="#8a9040" opacity="0.68"/>
  <circle cx="605.4" cy="398.4" r="8.8" fill="#8a9040" opacity="0.136"/>
  <circle cx="524.8" cy="197.7" r="3.0" fill="#8a9040" opacity="0.78"/>
  <circle cx="524.8" cy="197.7" r="8.9" fill="#8a9040" opacity="0.156"/>
  <circle cx="561.7" cy="452.1" r="2.6" fill="#8a9040" opacity="0.64"/>
  <circle cx="561.7" cy="452.1" r="7.7" fill="#8a9040" opacity="0.129"/>
  <circle cx="453.7" cy="485.9" r="2.8" fill="#8a9040" opacity="0.75"/>
  <circle cx="453.7" cy="485.9" r="8.5" fill="#8a9040" opacity="0.151"/>
  <circle cx="411.8" cy="190.0" r="1.7" fill="#8a9040" opacity="0.74"/>
  <circle cx="411.8" cy="190.0" r="5.0" fill="#8a9040" opacity="0.147"/>
  <circle cx="406.8" cy="481.0" r="2.3" fill="#8a9040" opacity="0.55"/>
  <circle cx="406.8" cy="481.0" r="7.0" fill="#8a9040" opacity="0.110"/>
  <circle cx="336.6" cy="145.3" r="3.3" fill="#8a9040" opacity="0.50"/>
  <circle cx="336.6" cy="145.3" r="10.0" fill="#8a9040" opacity="0.100"/>
  <circle cx="419.6" cy="406.6" r="1.7" fill="#8a9040" opacity="0.52"/>
  <circle cx="419.6" cy="406.6" r="5.2" fill="#8a9040" opacity="0.104"/>
  <circle cx="296.8" cy="185.2" r="3.0" fill="#8a9040" opacity="0.63"/>
  <circle cx="296.8" cy="185.2" r="8.9" fill="#8a9040" opacity="0.126"/>
  <circle cx="258.7" cy="221.9" r="3.4" fill="#8a9040" opacity="0.66"/>
  <circle cx="258.7" cy="221.9" r="10.1" fill="#8a9040" opacity="0.131"/>
  <circle cx="562.9" cy="114.2" r="2.4" fill="#8a9040" opacity="0.65"/>
  <circle cx="562.9" cy="114.2" r="7.3" fill="#8a9040" opacity="0.129"/>
  <circle cx="394.1" cy="242.3" r="2.7" fill="#8a9040" opacity="0.53"/>
  <circle cx="394.1" cy="242.3" r="8.2" fill="#8a9040" opacity="0.106"/>
  <circle cx="326.9" cy="102.1" r="3.3" fill="#8a9040" opacity="0.47"/>
  <circle cx="326.9" cy="102.1" r="9.8" fill="#8a9040" opacity="0.095"/>
  <circle cx="327.3" cy="140.5" r="2.5" fill="#8a9040" opacity="0.43"/>
  <circle cx="327.3" cy="140.5" r="7.5" fill="#8a9040" opacity="0.087"/>
  <circle cx="407.2" cy="161.5" r="1.7" fill="#8a9040" opacity="0.59"/>
  <circle cx="407.2" cy="161.5" r="5.2" fill="#8a9040" opacity="0.119"/>
  <path d="M350,600 Q400,400 420,200 Q430,100 400,-20" stroke="#343020" stroke-width="30" fill="none" opacity="0.12"/>
  <ellipse cx="400" cy="300" rx="200" ry="200" fill="url(#glowGold)" filter="url(#blur3)" opacity="0.5"/>
</svg>