<svg xmlns="http://www.w3.org/2000/svg" viewBox="0 0 800 600" width="800" height="600">
  <defs>
    <linearGradient id="bg" x1="0" y1="0" x2="0" y2="1">
      <stop offset="0%" stop-color="#1a1a14"/>
      <stop offset="50%" stop-color="#22201a"/>
      <stop offset="100%" stop-color="#1a1a14"/>
    </linearGradient>
    <radialGradient id="glow1" cx="50%" cy="50%" r="50%">
      <stop offset="0%" stop-color="#e8d060" stop-opacity="0.25"/>
      <stop offset="100%" stop-color="#b89b3e" stop-opacity="0"/>
    </radialGradient>
    <radialGradient id="glow2" cx="50%" cy="50%" r="50%">
      <stop offset="0%" stop-color="#b89b3e" stop-opacity="0.2"/>
      <stop offset="100%" stop-color="#b89b3e" stop-opacity="0"/>
    </radialGradient>
    <radialGradient id="glowGold" cx="50%" cy="50%" r="50%">
      <stop offset="0%" stop-color="#e8b840" stop-opacity="0.3"/>
      <stop offset="100%" stop-color="#e8b840" stop-opacity="0"/>
    </radialGradient>
    <filter id="blur1"><feGaussianBlur stdDeviation="3"/></filter>
    <filter id="blur2"><feGaussianBlur stdDeviation="8"/></filter>
    <filter id="blur3"><feGaussianBlur stdDeviation="20"/></filter>
  </defs>
  <rect width="800" height="600" fill="url(#bg)"/>
  <rect width="800" height="600" fill="#22201a"/>
  <ellipse cx="125" cy="394" rx="76" ry="103" fill="#2c2a20" opacity="0.20" transform="rotate(321 125 394)"/>
  <ellipse cx="429" cy="162" rx="198" ry="145" fill="#2c2a20" opacity="0.16" transform="rotate(127 429 162)"/>
  <ellipse cx="347" cy="216" rx="179" ry="72" fill="#2a2820" opacity="0.19" transform="rotate(48 347 216)"/>
  <ellipse cx="337" cy="199" rx="45" ry="147" fill="#2c2a20" opacity="0.34" transform="rotate(354 337 199)"/>
  <ellipse cx="95" cy="293" rx="119" ry="149" fill="#2a2820" opacity="0.19" transform="rotate(275 95 293)"/>
  <ellipse cx="705" cy="301" rx="188" ry="175" fill="#2c2a20" opacity="0.15" transform="rotate(345 705 301)"/>
  <ellipse cx="634" cy="76" rx="95" ry="42" fill="#22201a" opacity="0.17" transform="rotate(244 634 76)"/>
  <ellipse cx="274" cy="586" rx="158" ry="109" fill="#2c2a20" opacity="0.18" transform="rotate(30 274 586)"/>
  <line x1="357" y1="454" x2="357" y2="425" stroke="#3a3828" stroke-width="2.5" opacity="0.4"/>
  <ellipse cx="357" cy="425" rx="12" ry="6" fill="#3a3422" opacity="0.4"/>
  <circle cx="357" cy="425" r="4" fill="#e8b840" opacity="0.6"/>
  <circle cx="357" cy="425" r="14" fill="#e8b840" opacity="0.1" filter="url(#blur1)"/>
  <line x1="560" y1="516" x2="560" y2="481" stroke="#3a3828" stroke-width="2.5" opacity="0.4"/>
  <ellipse cx="560" cy="481" rx="12" ry="6" fill="#3a3422" opacity="0.4"/>
  <circle cx="560" cy="481" r="4" fill="#e8b840" opacity="0.6"/>
  <circle cx="560" cy="481" r="14" fill="#e8b840" opacity="0.1" filter="url(#blur1)"/>
  <line x1="219" y1="477" x2="219" y2="445" stroke="#3a3828" stroke-width="2.5" opacity="0.4"/>
  <ellipse cx="219" cy="445" rx="17" ry="9" fill="#3a3422" opacity="0.4"/>
  <circle cx="219" cy="445" r="4" fill="#b89b3e" opacity="0.6"/>
  <circle cx="219" cy="445" r="14" fill="#b89b3e" opacity="0.1" filter="url(#blur1)"/>
  <line x1="467" y1="347" x2="467" y2="315" stroke="#3a3828" stroke-width="2.5" opacity="0.4"/>
  <ellipse cx="467" cy="315" rx="16" ry="8" fill="#3a3422" opacity="0.4"/>
  <circle cx="467" cy="315" r="4" fill="#8a9040" opacity="0.6"/>
  <circle cx="467" cy="315" r="14" fill="#8a9040" opacity="0.1" filter="url(#blur1)"/>
  <line x1="238" y1="333" x2="238" y2="317" stroke="#3a3828" stroke-width="2.5" opacity="0.4"/>
  <ellipse cx="238" cy="317" rx="20" ry="10" fill="#3a3422" opacity="0.4"/>
  <circle cx="238" cy="317" r="4" fill="#8a9040" opacity="0.6"/>
  <circle cx="238" cy="317" r="14" fill="#8a9040" opacity="0.1" filter="url(#blur1)"/>
  <line x1="356" y1="454" x2="356" y2="437" stroke="#3a3828" stroke-width="2.5" opacity="0.4"/>
  <ellipse cx="356" cy="437" rx="11" ry="5" fill="#3a3422" opacity="0.4"/>
  <circle cx="356" cy="437" r="4" fill="#e8b840" opacity="0.6"/>
  <circle cx="356" cy="437" r="14" fill="#e8b840" opacity="0.1" filter="url(#blur1)"/>
  <line x1="415" y1="475" x2="415" y2="440" stroke="#3a3828" stroke-width="2.5" opacity="0.4"/>
  <ellipse cx="415" cy="440" rx="12" ry="6" fill="#3a3422" opacity="0.4"/>
  <circle cx="415" cy="440" r="4" fill="#e8b840" opacity="0.6"/>
  <circle cx="415" cy="440" r="14" fill="#e8b840" opacity="0.1" filter="url(#blur1)"/>
  <line x1="388" y1="427" x2="388" y2="400" stroke="#3a3828" stroke-width="2.5" opacity="0.4"/>
  <ellipse cx="388" cy="400" rx="13" ry="7" fill="#3a3422" opacity="0.4"/>
  <circle cx="388" cy="400" r="4" fill="#e8b840" opacity="0.6"/>
  <circle cx="388" cy="400" r="14" fill="#e8b840" opacity="0.1" filter="url(#blur1)"/>
  <path d="M305,561 Q312,541 343,485" stroke="#7a8838" stroke-width="1" fill="none" opacity="0.026"/>
  <path d="M305,561 Q254,526 242,569" stroke="#7a8838" stroke-width="1" fill="none" opacity="0.066"/>
  <path d="M352,333 Q398,348 423,346" stroke="#7a8838" stroke-width="1" fill="none" opacity="0.049"/>
  <path d="M462,450 Q425,424 397,426" stroke="#7a8838" stroke-width="1" fill="none" opacity="0.054"/>
  <path d="M462,450 Q443,497 403,488" stroke="#7a8838" stroke-width="1" fill="none" opacity="0.053"/>
  <path d="M462,450 Q479,473 504,459" stroke="#7a8838" stroke-width="1" fill="none" opacity="0.103"/>
  <path d="M459,279 Q473,283 491,289" stroke="#7a8838" stroke-width="1" fill="none" opacity="0.120"/>
  <path d="M459,279 Q447,348 423,346" stroke="#7a8838" stroke-width="1" fill="none" opacity="0.043"/>
  <path d="M471,264 Q464,261 491,289" stroke="#7a8838" stroke-width="1" fill="none" opacity="0.122"/>
  <path d="M622,314 Q622,325 679,347" stroke="#7a8838" stroke-width="1" fill="none" opacity="0.061"/>
  <path d="M343,485 Q390,416 397,426" stroke="#7a8838" stroke-width="1" fill="none" opacity="0.036"/>
  <path d="M343,485 Q340,420 356,418" stroke="#7a8838" stroke-width="1" fill="none" opacity="0.057"/>
  <path d="M343,485 Q399,521 403,488" stroke="#7a8838" stroke-width="1" fill="none" opacity="0.072"/>
  <path d="M642,435 Q682,373 679,347" stroke="#7a8838" stroke-width="1" fill="none" opacity="0.009"/>
  <path d="M417,564 Q433,529 403,488" stroke="#7a8838" stroke-width="1" fill="none" opacity="0.040"/>
  <path d="M397,426 Q381,407 423,346" stroke="#7a8838" stroke-width="1" fill="none" opacity="0.029"/>
  <path d="M475,318 Q468,265 464,253" stroke="#7a8838" stroke-width="1" fill="none" opacity="0.061"/>
  <path d="M257,339 Q254,278 244,294" stroke="#7a8838" stroke-width="1" fill="none" opacity="0.096"/>
  <path d="M736,577 Q728,527 712,542" stroke="#7a8838" stroke-width="1" fill="none" opacity="0.104"/>
  <circle cx="304.5" cy="561.2" r="1.6" fill="#8a9040" opacity="0.29"/>
  <circle cx="304.5" cy="561.2" r="4.7" fill="#8a9040" opacity="0.057"/>
  <circle cx="676.6" cy="310.0" r="0.5" fill="#8a9040" opacity="0.43"/>
  <circle cx="676.6" cy="310.0" r="1.5" fill="#8a9040" opacity="0.086"/>
  <circle cx="275.1" cy="344.2" r="0.9" fill="#8a9040" opacity="0.41"/>
  <circle cx="275.1" cy="344.2" r="2.8" fill="#8a9040" opacity="0.082"/>
  <circle cx="351.6" cy="333.2" r="1.2" fill="#8a9040" opacity="0.32"/>
  <circle cx="351.6" cy="333.2" r="3.7" fill="#8a9040" opacity="0.063"/>
  <circle cx="128.1" cy="470.8" r="1.5" fill="#8a9040" opacity="0.47"/>
  <circle cx="128.1" cy="470.8" r="4.6" fill="#8a9040" opacity="0.094"/>
  <circle cx="141.2" cy="369.0" r="1.7" fill="#8a9040" opacity="0.46"/>
  <circle cx="141.2" cy="369.0" r="5.1" fill="#8a9040" opacity="0.092"/>
  <circle cx="462.2" cy="449.6" r="0.9" fill="#8a9040" opacity="0.30"/>
  <circle cx="462.2" cy="449.6" r="2.6" fill="#8a9040" opacity="0.059"/>
  <circle cx="459.0" cy="278.8" r="0.7" fill="#8a9040" opacity="0.42"/>
  <circle cx="459.0" cy="278.8" r="2.0" fill="#8a9040" opacity="0.084"/>
  <circle cx="471.3" cy="263.5" r="2.0" fill="#8a9040" opacity="0.51"/>
  <circle cx="471.3" cy="263.5" r="5.9" fill="#8a9040" opacity="0.102"/>
  <circle cx="622.2" cy="313.7" r="1.2" fill="#8a9040" opacity="0.23"/>
  <circle cx="622.2" cy="313.7" r="3.5" fill="#8a9040" opacity="0.047"/>
  <circle cx="709.3" cy="454.3" r="1.0" fill="#8a9040" opacity="0.37"/>
  <circle cx="709.3" cy="454.3" r="2.9" fill="#8a9040" opacity="0.073"/>
  <circle cx="582.7" cy="426.1" r="0.7" fill="#8a9040" opacity="0.24"/>
  <circle cx="582.7" cy="426.1" r="2.2" fill="#8a9040" opacity="0.049"/>
  <circle cx="342.7" cy="484.8" r="1.8" fill="#8a9040" opacity="0.47"/>
  <circle cx="342.7" cy="484.8" r="5.5" fill="#8a9040" opacity="0.093"/>
  <circle cx="642.3" cy="434.9" r="1.0" fill="#8a9040" opacity="0.33"/>
  <circle cx="642.3" cy="434.9" r="3.1" fill="#8a9040" opacity="0.066"/>
  <circle cx="490.9" cy="288.8" r="1.2" fill="#8a9040" opacity="0.37"/>
  <circle cx="490.9" cy="288.8" r="3.5" fill="#8a9040" opacity="0.074"/>
  <circle cx="416.6" cy="564.3" r="1.7" fill="#8a9040" opacity="0.26"/>
  <circle cx="416.6" cy="564.3" r="5.1" fill="#8a9040" opacity="0.052"/>
  <circle cx="241.9" cy="569.3" r="0.9" fill="#8a9040" opacity="0.53"/>
  <circle cx="241.9" cy="569.3" r="2.8" fill="#8a9040" opacity="0.107"/>
  <circle cx="92.6" cy="570.9" r="0.8" fill="#8a9040" opacity="0.49"/>
  <circle cx="92.6" cy="570.9" r="2.4" fill="#8a9040" opacity="0.097"/>
  <circle cx="396.5" cy="425.7" r="1.3" fill="#8a9040" opacity="0.23"/>
  <circle cx="396.5" cy="425.7" r="3.8" fill="#8a9040" opacity="0.045"/>
  <circle cx="356.4" cy="418.1" r="1.3" fill="#8a9040" opacity="0.34"/>
  <circle cx="356.4" cy="418.1" r="4.0" fill="#8a9040" opacity="0.067"/>
  <circle cx="475.1" cy="318.3" r="0.5" fill="#8a9040" opacity="0.40"/>
  <circle cx="475.1" cy="318.3" r="1.5" fill="#8a9040" opacity="0.080"/>
  <circle cx="464.5" cy="252.9" r="1.9" fill="#8a9040" opacity="0.38"/>
  <circle cx="464.5" cy="252.9" r="5.7" fill="#8a9040" opacity="0.076"/>
  <circle cx="402.7" cy="487.8" r="0.9" fill="#8a9040" opacity="0.50"/>
  <circle cx="402.7" cy="487.8" r="2.7" fill="#8a9040" opacity="0.100"/>
  <circle cx="257.5" cy="338.6" r="0.7" fill="#8a9040" opacity="0.28"/>
  <circle cx="257.5" cy="338.6" r="2.0" fill="#8a9040" opacity="0.056"/>
  <circle cx="423.5" cy="346.3" r="1.5" fill="#8a9040" opacity="0.53"/>
  <circle cx="423.5" cy="346.3" r="4.4" fill="#8a9040" opacity="0.106"/>
  <circle cx="244.4" cy="293.9" r="1.8" fill="#8a9040" opacity="0.22"/>
  <circle cx="244.4" cy="293.9" r="5.4" fill="#8a9040" opacity="0.044"/>
  <circle cx="736.0" cy="576.5" r="0.8" fill="#8a9040" opacity="0.24"/>
  <circle cx="736.0" cy="576.5" r="2.4" fill="#8a9040" opacity="0.048"/>
  <circle cx="504.1" cy="458.8" r="2.0" fill="#8a9040" opacity="0.31"/>
  <circle cx="504.1" cy="458.8" r="5.9" fill="#8a9040" opacity="0.063"/>
  <circle cx="712.5" cy="541.7" r="0.9" fill="#8a9040" opacity="0.25"/>
  <circle cx="712.5" cy="541.7" r="2.7" fill="#8a9040" opacity="0.049"/>
  <circle cx="678.8" cy="347.3" r="2.0" fill="#8a9040" opacity="0.42"/>
  <circle cx="678.8" cy="347.3" r="5.9" fill="#8a9040" opacity="0.084"/>
  <ellipse cx="400" cy="250" rx="350" ry="200" fill="url(#glow1)" filter="url(#blur3)" opacity="0.4"/>
</svg>